<svg width="135" height="24" viewBox="0 0 135 24" fill="none" xmlns="http://www.w3.org/2000/svg">
<mask id="path-1-outside-1_648_5003" maskUnits="userSpaceOnUse" x="-1" y="-1" width="137" height="26" fill="black">
<rect fill="white" x="-1" y="-1" width="137" height="26"/>
<path d="M16.672 23L14.048 16.952H4.064L1.44 23H0.544L10.368 0.599998L12.064 0.599998L21.856 23H16.672ZM4.352 16.312H13.792L9.088 5.464L4.352 16.312ZM43.1378 0.599998C47.9058 0.599998 51.5538 3.576 51.5538 7.576C51.5538 11.576 47.9058 14.552 43.1378 14.552H37.8578V23H32.9618V0.599998L43.1378 0.599998ZM41.7938 13.912C44.6738 13.912 46.5298 11.384 46.5298 7.576C46.5298 3.768 44.6738 1.24 41.7938 1.24L37.8578 1.24V13.912H41.7938ZM59.514 22.36H70.33V23L54.618 23V0.599998L59.514 0.599998V22.36ZM88.1095 23L85.4855 16.952H75.5015L72.8775 23H71.9815L81.8055 0.599998H83.5015L93.2935 23H88.1095ZM75.7895 16.312H85.2295L80.5255 5.464L75.7895 16.312ZM105.529 23.32C98.8413 23.32 93.4653 18.456 93.4653 11.832C93.4653 5.336 98.6173 0.279999 105.465 0.279999C110.585 0.279999 114.265 3.16 114.265 6.36H113.561C113.561 3.704 110.969 1.464 106.969 1.464C101.785 1.464 98.4893 5.336 98.4893 11.8C98.4893 18.232 101.785 22.136 106.937 22.136C110.041 22.136 112.441 20.728 113.721 18.456H114.457C113.081 21.24 109.721 23.32 105.529 23.32ZM122.67 22.36H134.286V23H117.774V0.599998L133.966 0.599998V1.24L122.67 1.24V11.32H131.406V11.96H122.67V22.36Z"/>
</mask>
<path d="M16.672 23L15.7546 23.398L16.0158 24H16.672V23ZM14.048 16.952L14.9654 16.554L14.7042 15.952H14.048V16.952ZM4.064 16.952V15.952H3.4078L3.14662 16.554L4.064 16.952ZM1.44 23V24H2.0962L2.35738 23.398L1.44 23ZM0.544 23L-0.371797 22.5984L-0.986517 24H0.544V23ZM10.368 0.599998V-0.400002H9.71463L9.4522 0.198356L10.368 0.599998ZM12.064 0.599998L12.9803 0.199454L12.7182 -0.400002H12.064V0.599998ZM21.856 23V24H23.3845L22.7723 22.5995L21.856 23ZM4.352 16.312L3.43553 15.9119L2.82428 17.312H4.352V16.312ZM13.792 16.312V17.312H15.3156L14.7095 15.9142L13.792 16.312ZM9.088 5.464L10.0055 5.06616L9.09111 2.95756L8.17153 5.06389L9.088 5.464ZM17.5894 22.602L14.9654 16.554L13.1306 17.35L15.7546 23.398L17.5894 22.602ZM14.048 15.952H4.064V17.952H14.048V15.952ZM3.14662 16.554L0.522622 22.602L2.35738 23.398L4.98138 17.35L3.14662 16.554ZM1.44 22H0.544V24H1.44V22ZM1.4598 23.4016L11.2838 1.00164L9.4522 0.198356L-0.371797 22.5984L1.4598 23.4016ZM10.368 1.6H12.064V-0.400002L10.368 -0.400002V1.6ZM11.1477 1.00054L20.9397 23.4005L22.7723 22.5995L12.9803 0.199454L11.1477 1.00054ZM21.856 22H16.672V24H21.856V22ZM4.352 17.312H13.792V15.312H4.352L4.352 17.312ZM14.7095 15.9142L10.0055 5.06616L8.17054 5.86183L12.8745 16.7098L14.7095 15.9142ZM8.17153 5.06389L3.43553 15.9119L5.26847 16.7121L10.0045 5.86411L8.17153 5.06389ZM37.8577 14.552V13.552H36.8577V14.552H37.8577ZM37.8577 23V24H38.8577V23H37.8577ZM32.9618 23H31.9618V24H32.9618V23ZM32.9618 0.599998V-0.400002H31.9618V0.599998L32.9618 0.599998ZM37.8577 1.24V0.24H36.8577V1.24H37.8577ZM37.8577 13.912H36.8577V14.912H37.8577V13.912ZM43.1377 1.6C47.5421 1.6 50.5537 4.29973 50.5537 7.576H52.5537C52.5537 2.85227 48.2694 -0.400002 43.1377 -0.400002V1.6ZM50.5537 7.576C50.5537 10.8523 47.5421 13.552 43.1377 13.552V15.552C48.2694 15.552 52.5537 12.2997 52.5537 7.576H50.5537ZM43.1377 13.552H37.8577V15.552H43.1377V13.552ZM36.8577 14.552V23H38.8577V14.552H36.8577ZM37.8577 22H32.9618V24H37.8577V22ZM33.9618 23V0.599998L31.9618 0.599998V23H33.9618ZM32.9618 1.6L43.1377 1.6V-0.400002L32.9618 -0.400002V1.6ZM41.7938 14.912C43.5612 14.912 45.0383 14.1213 46.0442 12.7688C47.0305 11.4425 47.5298 9.62993 47.5298 7.576H45.5298C45.5298 9.33007 45.101 10.6855 44.4393 11.5752C43.7972 12.4387 42.9063 12.912 41.7938 12.912V14.912ZM47.5298 7.576C47.5298 5.52207 47.0305 3.70952 46.0442 2.38325C45.0383 1.0307 43.5612 0.24 41.7938 0.24V2.24C42.9063 2.24 43.7972 2.7133 44.4393 3.57675C45.101 4.46648 45.5298 5.82193 45.5298 7.576H47.5298ZM41.7938 0.24L37.8577 0.24V2.24L41.7938 2.24V0.24ZM36.8577 1.24V13.912H38.8577V1.24H36.8577ZM37.8577 14.912H41.7938V12.912H37.8577V14.912ZM59.514 22.36L58.514 22.36V23.36L59.514 23.36V22.36ZM70.33 22.36H71.33V21.36H70.33V22.36ZM70.33 23V24H71.33V23H70.33ZM54.618 23H53.618V24H54.618V23ZM54.618 0.599998V-0.400002H53.618V0.599998L54.618 0.599998ZM59.514 0.599998H60.514V-0.400002H59.514V0.599998ZM59.514 23.36H70.33V21.36H59.514V23.36ZM69.33 22.36V23H71.33V22.36H69.33ZM70.33 22L54.618 22V24L70.33 24V22ZM55.618 23V0.599998L53.618 0.599998V23H55.618ZM54.618 1.6H59.514V-0.400002L54.618 -0.400002V1.6ZM58.514 0.599998V22.36L60.514 22.36V0.599998H58.514ZM88.1095 23L87.1921 23.398L87.4533 24H88.1095V23ZM85.4855 16.952L86.4029 16.554L86.1417 15.952H85.4855V16.952ZM75.5015 16.952V15.952H74.8453L74.5841 16.554L75.5015 16.952ZM72.8775 23V24H73.5337L73.7949 23.398L72.8775 23ZM71.9815 23L71.0657 22.5984L70.451 24H71.9815V23ZM81.8055 0.599998V-0.400002H81.1521L80.8897 0.198356L81.8055 0.599998ZM83.5015 0.599998L84.4178 0.199454L84.1557 -0.400002H83.5015V0.599998ZM93.2935 23V24H94.822L94.2098 22.5995L93.2935 23ZM75.7895 16.312L74.873 15.9119L74.2618 17.312H75.7895V16.312ZM85.2295 16.312V17.312H86.7531L86.147 15.9142L85.2295 16.312ZM80.5255 5.464L81.443 5.06616L80.5286 2.95756L79.609 5.06389L80.5255 5.464ZM89.0269 22.602L86.4029 16.554L84.5681 17.35L87.1921 23.398L89.0269 22.602ZM85.4855 15.952H75.5015V17.952H85.4855V15.952ZM74.5841 16.554L71.9601 22.602L73.7949 23.398L76.4189 17.35L74.5841 16.554ZM72.8775 22H71.9815V24H72.8775V22ZM72.8973 23.4016L82.7213 1.00164L80.8897 0.198356L71.0657 22.5984L72.8973 23.4016ZM81.8055 1.6L83.5015 1.6V-0.400002H81.8055V1.6ZM82.5852 1.00054L92.3772 23.4005L94.2098 22.5995L84.4178 0.199454L82.5852 1.00054ZM93.2935 22H88.1095V24H93.2935V22ZM75.7895 17.312H85.2295V15.312H75.7895V17.312ZM86.147 15.9142L81.443 5.06616L79.608 5.86183L84.312 16.7098L86.147 15.9142ZM79.609 5.06389L74.873 15.9119L76.706 16.7121L81.442 5.86411L79.609 5.06389ZM114.265 6.36V7.36H115.265V6.36H114.265ZM113.561 6.36H112.561V7.36H113.561V6.36ZM113.721 18.456V17.456H113.137L112.85 17.9652L113.721 18.456ZM114.457 18.456L115.354 18.8991L116.067 17.456H114.457V18.456ZM105.529 22.32C99.3319 22.32 94.4652 17.844 94.4652 11.832H92.4652C92.4652 19.068 98.3506 24.32 105.529 24.32V22.32ZM94.4652 11.832C94.4652 5.91842 99.1389 1.28 105.465 1.28V-0.720001C98.0956 -0.720001 92.4652 4.75358 92.4652 11.832H94.4652ZM105.465 1.28C107.844 1.28 109.833 1.94976 111.202 2.93232C112.577 3.91915 113.265 5.16561 113.265 6.36H115.265C115.265 4.35438 114.114 2.56085 112.368 1.30768C110.617 0.0502338 108.206 -0.720001 105.465 -0.720001V1.28ZM114.265 5.36H113.561V7.36H114.265V5.36ZM114.561 6.36C114.561 2.9316 111.272 0.463999 106.969 0.463999V2.464C110.666 2.464 112.561 4.47639 112.561 6.36H114.561ZM106.969 0.463999C104.108 0.463999 101.695 1.54354 100.015 3.56986C98.3537 5.57465 97.4893 8.40837 97.4893 11.8H99.4893C99.4893 8.72763 100.273 6.39335 101.555 4.84613C102.82 3.32046 104.646 2.464 106.969 2.464V0.463999ZM97.4893 11.8C97.4893 15.1767 98.3542 18.0088 100.01 20.0163C101.683 22.0451 104.088 23.136 106.937 23.136V21.136C104.635 21.136 102.815 20.2749 101.553 18.7437C100.272 17.1912 99.4893 14.8553 99.4893 11.8H97.4893ZM106.937 23.136C110.366 23.136 113.118 21.5637 114.592 18.9468L112.85 17.9652C111.764 19.8923 109.716 21.136 106.937 21.136V23.136ZM113.721 19.456H114.457V17.456H113.721V19.456ZM113.561 18.0129C112.381 20.3994 109.408 22.32 105.529 22.32V24.32C110.034 24.32 113.781 22.0806 115.354 18.8991L113.561 18.0129ZM122.67 22.36H121.67V23.36H122.67V22.36ZM134.286 22.36H135.286V21.36H134.286V22.36ZM134.286 23V24H135.286V23H134.286ZM117.774 23H116.774V24H117.774V23ZM117.774 0.599998V-0.400002H116.774V0.599998H117.774ZM133.966 0.599998H134.966V-0.400002H133.966V0.599998ZM133.966 1.24V2.24H134.966V1.24H133.966ZM122.67 1.24V0.24H121.67V1.24L122.67 1.24ZM122.67 11.32H121.67V12.32H122.67V11.32ZM131.406 11.32H132.406V10.32H131.406V11.32ZM131.406 11.96V12.96H132.406V11.96H131.406ZM122.67 11.96V10.96H121.67V11.96H122.67ZM122.67 23.36H134.286V21.36H122.67V23.36ZM133.286 22.36V23H135.286V22.36H133.286ZM134.286 22H117.774V24H134.286V22ZM118.774 23V0.599998H116.774V23H118.774ZM117.774 1.6L133.966 1.6V-0.400002L117.774 -0.400002V1.6ZM132.966 0.599998V1.24H134.966V0.599998H132.966ZM133.966 0.24L122.67 0.24V2.24L133.966 2.24V0.24ZM121.67 1.24V11.32H123.67V1.24L121.67 1.24ZM122.67 12.32H131.406V10.32H122.67V12.32ZM130.406 11.32V11.96H132.406V11.32H130.406ZM131.406 10.96H122.67V12.96H131.406V10.96ZM121.67 11.96V22.36H123.67V11.96H121.67Z" fill="white" mask="url(#path-1-outside-1_648_5003)"/>
</svg>
