<svg width="344" height="60" viewBox="0 0 344 60" fill="none" xmlns="http://www.w3.org/2000/svg">
<mask id="path-1-outside-1_1691_3502" maskUnits="userSpaceOnUse" x="-2" y="-1" width="347" height="62" fill="black">
<rect fill="white" x="-2" y="-1" width="347" height="62"/>
<path d="M41.722 59L34.998 43.502H9.414L2.69 59H0.394L25.568 1.6H29.914L55.006 59H41.722ZM10.152 41.862H34.342L22.288 14.064L10.152 41.862ZM109.54 1.6C121.758 1.6 131.106 9.226 131.106 19.476C131.106 29.726 121.758 37.352 109.54 37.352H96.0105V59H83.4645V1.6H109.54ZM106.096 35.712C113.476 35.712 118.232 29.234 118.232 19.476C118.232 9.718 113.476 3.24 106.096 3.24H96.0105V35.712H106.096ZM151.505 57.36H179.221V59H138.959V1.6H151.505V57.36ZM224.781 59L218.057 43.502H192.473L185.749 59H183.453L208.627 1.6H212.973L238.065 59H224.781ZM193.211 41.862H217.401L205.347 14.064L193.211 41.862ZM269.419 59.82C252.281 59.82 238.505 47.356 238.505 30.382C238.505 13.736 251.707 0.779997 269.255 0.779997C282.375 0.779997 291.805 8.16 291.805 16.36H290.001C290.001 9.554 283.359 3.814 273.109 3.814C259.825 3.814 251.379 13.736 251.379 30.3C251.379 46.782 259.825 56.786 273.027 56.786C280.981 56.786 287.131 53.178 290.411 47.356H292.297C288.771 54.49 280.161 59.82 269.419 59.82ZM313.343 57.36H343.109V59H300.797V1.6H342.289V3.24H313.343V29.07H335.729V30.71H313.343V57.36Z"/>
</mask>
<path d="M41.722 59L40.8046 59.398L41.0658 60H41.722V59ZM34.998 43.502L35.9154 43.104L35.6542 42.502H34.998V43.502ZM9.414 43.502V42.502H8.7578L8.49662 43.104L9.414 43.502ZM2.69 59V60H3.3462L3.60738 59.398L2.69 59ZM0.394 59L-0.521797 58.5984L-1.13652 60H0.394V59ZM25.568 1.6V0.599996H24.9146L24.6522 1.19835L25.568 1.6ZM29.914 1.6L30.8303 1.19945L30.5682 0.599996H29.914V1.6ZM55.006 59V60H56.5345L55.9223 58.5995L55.006 59ZM10.152 41.862L9.23553 41.4619L8.62428 42.862H10.152V41.862ZM34.342 41.862V42.862H35.8656L35.2595 41.4642L34.342 41.862ZM22.288 14.064L23.2055 13.6662L22.2911 11.5576L21.3715 13.6639L22.288 14.064ZM42.6394 58.602L35.9154 43.104L34.0806 43.9L40.8046 59.398L42.6394 58.602ZM34.998 42.502H9.414V44.502H34.998V42.502ZM8.49662 43.104L1.77262 58.602L3.60738 59.398L10.3314 43.9L8.49662 43.104ZM2.69 58H0.394V60H2.69V58ZM1.3098 59.4016L26.4838 2.00164L24.6522 1.19835L-0.521797 58.5984L1.3098 59.4016ZM25.568 2.6H29.914V0.599996H25.568V2.6ZM28.9977 2.00054L54.0897 59.4005L55.9223 58.5995L30.8303 1.19945L28.9977 2.00054ZM55.006 58H41.722V60H55.006V58ZM10.152 42.862H34.342V40.862H10.152V42.862ZM35.2595 41.4642L23.2055 13.6662L21.3705 14.4618L33.4245 42.2598L35.2595 41.4642ZM21.3715 13.6639L9.23553 41.4619L11.0685 42.2621L23.2045 14.4641L21.3715 13.6639ZM96.0105 37.352V36.352H95.0105V37.352H96.0105ZM96.0105 59V60H97.0105V59H96.0105ZM83.4645 59H82.4645V60H83.4645V59ZM83.4645 1.6V0.599996H82.4645V1.6H83.4645ZM96.0105 3.24V2.24H95.0105V3.24H96.0105ZM96.0105 35.712H95.0105V36.712H96.0105V35.712ZM109.54 2.6C121.395 2.6 130.106 9.94972 130.106 19.476H132.106C132.106 8.50227 122.122 0.599996 109.54 0.599996V2.6ZM130.106 19.476C130.106 29.0023 121.395 36.352 109.54 36.352V38.352C122.122 38.352 132.106 30.4497 132.106 19.476H130.106ZM109.54 36.352H96.0105V38.352H109.54V36.352ZM95.0105 37.352V59H97.0105V37.352H95.0105ZM96.0105 58H83.4645V60H96.0105V58ZM84.4645 59V1.6H82.4645V59H84.4645ZM83.4645 2.6H109.54V0.599996H83.4645V2.6ZM106.096 36.712C110.114 36.712 113.441 34.9338 115.734 31.85C118.008 28.7925 119.232 24.5049 119.232 19.476H117.232C117.232 24.2051 116.079 28.0355 114.13 30.6565C112.2 33.2512 109.459 34.712 106.096 34.712V36.712ZM119.232 19.476C119.232 14.4471 118.008 10.1595 115.734 7.102C113.441 4.0182 110.114 2.24 106.096 2.24V4.24C109.459 4.24 112.2 5.7008 114.13 8.2955C116.079 10.9165 117.232 14.7469 117.232 19.476H119.232ZM106.096 2.24H96.0105V4.24H106.096V2.24ZM95.0105 3.24V35.712H97.0105V3.24H95.0105ZM96.0105 36.712H106.096V34.712H96.0105V36.712ZM151.505 57.36H150.505V58.36H151.505V57.36ZM179.221 57.36H180.221V56.36H179.221V57.36ZM179.221 59V60H180.221V59H179.221ZM138.959 59H137.959V60H138.959V59ZM138.959 1.6V0.599996H137.959V1.6H138.959ZM151.505 1.6H152.505V0.599996H151.505V1.6ZM151.505 58.36H179.221V56.36H151.505V58.36ZM178.221 57.36V59H180.221V57.36H178.221ZM179.221 58H138.959V60H179.221V58ZM139.959 59V1.6H137.959V59H139.959ZM138.959 2.6H151.505V0.599996H138.959V2.6ZM150.505 1.6V57.36H152.505V1.6H150.505ZM224.781 59L223.863 59.398L224.124 60H224.781V59ZM218.057 43.502L218.974 43.104L218.713 42.502H218.057V43.502ZM192.473 43.502V42.502H191.816L191.555 43.104L192.473 43.502ZM185.749 59V60H186.405L186.666 59.398L185.749 59ZM183.453 59L182.537 58.5984L181.922 60H183.453V59ZM208.627 1.6V0.599996H207.973L207.711 1.19835L208.627 1.6ZM212.973 1.6L213.889 1.19945L213.627 0.599996H212.973V1.6ZM238.065 59V60H239.593L238.981 58.5995L238.065 59ZM193.211 41.862L192.294 41.4619L191.683 42.862H193.211V41.862ZM217.401 41.862V42.862H218.924L218.318 41.4642L217.401 41.862ZM205.347 14.064L206.264 13.6662L205.35 11.5576L204.43 13.6639L205.347 14.064ZM225.698 58.602L218.974 43.104L217.139 43.9L223.863 59.398L225.698 58.602ZM218.057 42.502H192.473V44.502H218.057V42.502ZM191.555 43.104L184.831 58.602L186.666 59.398L193.39 43.9L191.555 43.104ZM185.749 58H183.453V60H185.749V58ZM184.368 59.4016L209.542 2.00164L207.711 1.19835L182.537 58.5984L184.368 59.4016ZM208.627 2.6H212.973V0.599996H208.627V2.6ZM212.056 2.00054L237.148 59.4005L238.981 58.5995L213.889 1.19945L212.056 2.00054ZM238.065 58H224.781V60H238.065V58ZM193.211 42.862H217.401V40.862H193.211V42.862ZM218.318 41.4642L206.264 13.6662L204.429 14.4618L216.483 42.2598L218.318 41.4642ZM204.43 13.6639L192.294 41.4619L194.127 42.2621L206.263 14.4641L204.43 13.6639ZM291.805 16.36V17.36H292.805V16.36H291.805ZM290.001 16.36H289.001V17.36H290.001V16.36ZM290.411 47.356V46.356H289.826L289.539 46.8652L290.411 47.356ZM292.297 47.356L293.193 47.7991L293.906 46.356H292.297V47.356ZM269.419 58.82C252.771 58.82 239.505 46.744 239.505 30.382H237.505C237.505 47.968 251.79 60.82 269.419 60.82V58.82ZM239.505 30.382C239.505 14.3184 252.228 1.78 269.255 1.78V-0.220003C251.185 -0.220003 237.505 13.1536 237.505 30.382H239.505ZM269.255 1.78C275.634 1.78 281.06 3.57476 284.866 6.30732C288.678 9.04415 290.805 12.6656 290.805 16.36H292.805C292.805 11.8544 290.216 7.68585 286.033 4.68267C281.844 1.67523 275.996 -0.220003 269.255 -0.220003V1.78ZM291.805 15.36H290.001V17.36H291.805V15.36ZM291.001 16.36C291.001 8.7816 283.662 2.814 273.109 2.814V4.814C283.056 4.814 289.001 10.3264 289.001 16.36H291.001ZM273.109 2.814C266.198 2.814 260.472 5.40604 256.492 10.2074C252.531 14.9871 250.379 21.8584 250.379 30.3H252.379C252.379 22.1776 254.45 15.8058 258.032 11.4836C261.597 7.18296 266.736 4.814 273.109 4.814V2.814ZM250.379 30.3C250.379 38.7017 252.531 45.5713 256.48 50.36C260.447 55.1701 266.152 57.786 273.027 57.786V55.786C266.699 55.786 261.58 53.3999 258.023 49.0875C254.449 44.7537 252.379 38.3803 252.379 30.3H250.379ZM273.027 57.786C281.306 57.786 287.808 54.0137 291.282 47.8468L289.539 46.8652C286.454 52.3423 280.656 55.786 273.027 55.786V57.786ZM290.411 48.356H292.297V46.356H290.411V48.356ZM291.4 46.9129C288.071 53.6494 279.848 58.82 269.419 58.82V60.82C280.474 60.82 289.471 55.3306 293.193 47.7991L291.4 46.9129ZM313.343 57.36H312.343V58.36H313.343V57.36ZM343.109 57.36H344.109V56.36H343.109V57.36ZM343.109 59V60H344.109V59H343.109ZM300.797 59H299.797V60H300.797V59ZM300.797 1.6V0.599996H299.797V1.6H300.797ZM342.289 1.6H343.289V0.599996H342.289V1.6ZM342.289 3.24V4.24H343.289V3.24H342.289ZM313.343 3.24V2.24H312.343V3.24H313.343ZM313.343 29.07H312.343V30.07H313.343V29.07ZM335.729 29.07H336.729V28.07H335.729V29.07ZM335.729 30.71V31.71H336.729V30.71H335.729ZM313.343 30.71V29.71H312.343V30.71H313.343ZM313.343 58.36H343.109V56.36H313.343V58.36ZM342.109 57.36V59H344.109V57.36H342.109ZM343.109 58H300.797V60H343.109V58ZM301.797 59V1.6H299.797V59H301.797ZM300.797 2.6H342.289V0.599996H300.797V2.6ZM341.289 1.6V3.24H343.289V1.6H341.289ZM342.289 2.24H313.343V4.24H342.289V2.24ZM312.343 3.24V29.07H314.343V3.24H312.343ZM313.343 30.07H335.729V28.07H313.343V30.07ZM334.729 29.07V30.71H336.729V29.07H334.729ZM335.729 29.71H313.343V31.71H335.729V29.71ZM312.343 30.71V57.36H314.343V30.71H312.343Z" fill="#EFEFEF" mask="url(#path-1-outside-1_1691_3502)"/>
</svg>
