<svg width="202" height="36" viewBox="0 0 202 36" fill="none" xmlns="http://www.w3.org/2000/svg">
<mask id="path-1-outside-1_1579_7167" maskUnits="userSpaceOnUse" x="-1" y="-1" width="204" height="38" fill="black">
<rect fill="white" x="-1" y="-1" width="204" height="38"/>
<path d="M25.008 35L21.072 25.928H6.096L2.16 35H0.816L15.552 1.4H18.096L32.784 35H25.008ZM6.528 24.968H20.688L13.632 8.696L6.528 24.968ZM64.7066 1.4C71.8586 1.4 77.3306 5.864 77.3306 11.864C77.3306 17.864 71.8586 22.328 64.7066 22.328L56.7866 22.328V35H49.4426V1.4L64.7066 1.4ZM62.6906 21.368C67.0106 21.368 69.7946 17.576 69.7946 11.864C69.7946 6.152 67.0106 2.36 62.6906 2.36H56.7866V21.368L62.6906 21.368ZM89.271 34.04H105.495V35H81.927V1.4L89.271 1.4V34.04ZM132.164 35L128.228 25.928H113.252L109.316 35H107.972L122.708 1.4L125.252 1.4L139.94 35H132.164ZM113.684 24.968H127.844L120.788 8.696L113.684 24.968ZM158.294 35.48C148.262 35.48 140.198 28.184 140.198 18.248C140.198 8.504 147.926 0.919998 158.198 0.919998C165.878 0.919998 171.398 5.24 171.398 10.04H170.342C170.342 6.056 166.454 2.696 160.454 2.696C152.678 2.696 147.734 8.504 147.734 18.2C147.734 27.848 152.678 33.704 160.406 33.704C165.062 33.704 168.662 31.592 170.582 28.184H171.686C169.622 32.36 164.582 35.48 158.294 35.48ZM184.005 34.04H201.429V35H176.661V1.4L200.949 1.4V2.36L184.005 2.36V17.48H197.109V18.44H184.005V34.04Z"/>
</mask>
<path d="M25.008 35L24.0906 35.398L24.3518 36H25.008V35ZM21.072 25.928L21.9894 25.53L21.7282 24.928H21.072V25.928ZM6.096 25.928V24.928H5.4398L5.17862 25.53L6.096 25.928ZM2.16 35V36H2.8162L3.07738 35.398L2.16 35ZM0.816 35L-0.0997966 34.5984L-0.714517 36H0.816V35ZM15.552 1.4V0.399998H14.8986L14.6362 0.998355L15.552 1.4ZM18.096 1.4L19.0123 0.999454L18.7502 0.399998H18.096V1.4ZM32.784 35V36H34.3125L33.7003 34.5995L32.784 35ZM6.528 24.968L5.61153 24.5679L5.00028 25.968H6.528V24.968ZM20.688 24.968V25.968H22.2116L21.6055 24.5702L20.688 24.968ZM13.632 8.696L14.5495 8.29816L13.6351 6.18956L12.7155 8.29589L13.632 8.696ZM25.9254 34.602L21.9894 25.53L20.1546 26.326L24.0906 35.398L25.9254 34.602ZM21.072 24.928H6.096V26.928H21.072V24.928ZM5.17862 25.53L1.24262 34.602L3.07738 35.398L7.01338 26.326L5.17862 25.53ZM2.16 34H0.816V36H2.16V34ZM1.7318 35.4016L16.4678 1.80164L14.6362 0.998355L-0.0997966 34.5984L1.7318 35.4016ZM15.552 2.4H18.096V0.399998L15.552 0.399998V2.4ZM17.1797 1.80054L31.8677 35.4005L33.7003 34.5995L19.0123 0.999454L17.1797 1.80054ZM32.784 34H25.008V36H32.784V34ZM6.528 25.968H20.688V23.968H6.528V25.968ZM21.6055 24.5702L14.5495 8.29816L12.7145 9.09383L19.7705 25.3658L21.6055 24.5702ZM12.7155 8.29589L5.61153 24.5679L7.44447 25.3681L14.5485 9.09611L12.7155 8.29589ZM56.7866 22.328V21.328H55.7866V22.328H56.7866ZM56.7866 35V36H57.7866V35H56.7866ZM49.4426 35H48.4426V36H49.4426V35ZM49.4426 1.4V0.399998H48.4426V1.4L49.4426 1.4ZM56.7866 2.36V1.36H55.7866V2.36H56.7866ZM56.7866 21.368H55.7866V22.368H56.7866V21.368ZM64.7066 2.4C71.495 2.4 76.3306 6.58773 76.3306 11.864H78.3306C78.3306 5.14027 72.2222 0.399998 64.7066 0.399998V2.4ZM76.3306 11.864C76.3306 17.1403 71.495 21.328 64.7066 21.328V23.328C72.2222 23.328 78.3306 18.5877 78.3306 11.864H76.3306ZM64.7066 21.328L56.7866 21.328V23.328L64.7066 23.328V21.328ZM55.7866 22.328V35H57.7866V22.328H55.7866ZM56.7866 34H49.4426V36H56.7866V34ZM50.4426 35V1.4L48.4426 1.4V35H50.4426ZM49.4426 2.4H64.7066V0.399998L49.4426 0.399998V2.4ZM62.6906 22.368C65.1781 22.368 67.2472 21.2613 68.6651 19.3547C70.0634 17.4745 70.7946 14.8699 70.7946 11.864H68.7946C68.7946 14.5701 68.1339 16.7175 67.0602 18.1612C66.0061 19.5787 64.5232 20.368 62.6906 20.368V22.368ZM70.7946 11.864C70.7946 8.85807 70.0634 6.25352 68.6651 4.37325C67.2472 2.4667 65.1781 1.36 62.6906 1.36V3.36C64.5232 3.36 66.0061 4.1493 67.0602 5.56675C68.1339 7.01048 68.7946 9.15793 68.7946 11.864H70.7946ZM62.6906 1.36H56.7866V3.36H62.6906V1.36ZM55.7866 2.36V21.368H57.7866V2.36H55.7866ZM56.7866 22.368L62.6906 22.368V20.368L56.7866 20.368V22.368ZM89.271 34.04H88.271V35.04H89.271V34.04ZM105.495 34.04H106.495V33.04H105.495V34.04ZM105.495 35V36H106.495V35H105.495ZM81.927 35H80.927V36H81.927V35ZM81.927 1.4V0.399998H80.927V1.4H81.927ZM89.271 1.4H90.271V0.399998H89.271V1.4ZM89.271 35.04H105.495V33.04H89.271V35.04ZM104.495 34.04V35H106.495V34.04H104.495ZM105.495 34H81.927V36H105.495V34ZM82.927 35V1.4H80.927V35H82.927ZM81.927 2.4H89.271V0.399998L81.927 0.399998V2.4ZM88.271 1.4V34.04H90.271V1.4H88.271ZM132.164 35L131.247 35.398L131.508 36H132.164V35ZM128.228 25.928L129.146 25.53L128.884 24.928H128.228V25.928ZM113.252 25.928V24.928H112.596L112.335 25.53L113.252 25.928ZM109.316 35V36H109.972L110.234 35.398L109.316 35ZM107.972 35L107.056 34.5984L106.442 36H107.972V35ZM122.708 1.4V0.399998H122.055L121.792 0.998355L122.708 1.4ZM125.252 1.4L126.169 0.999454L125.906 0.399998H125.252V1.4ZM139.94 35V36H141.469L140.857 34.5995L139.94 35ZM113.684 24.968L112.768 24.5679L112.157 25.968H113.684V24.968ZM127.844 24.968V25.968H129.368L128.762 24.5702L127.844 24.968ZM120.788 8.696L121.706 8.29816L120.791 6.18956L119.872 8.29589L120.788 8.696ZM133.082 34.602L129.146 25.53L127.311 26.326L131.247 35.398L133.082 34.602ZM128.228 24.928H113.252V26.928H128.228V24.928ZM112.335 25.53L108.399 34.602L110.234 35.398L114.17 26.326L112.335 25.53ZM109.316 34H107.972V36H109.316V34ZM108.888 35.4016L123.624 1.80164L121.792 0.998355L107.056 34.5984L108.888 35.4016ZM122.708 2.4H125.252V0.399998L122.708 0.399998V2.4ZM124.336 1.80054L139.024 35.4005L140.857 34.5995L126.169 0.999454L124.336 1.80054ZM139.94 34H132.164V36H139.94V34ZM113.684 25.968H127.844V23.968H113.684V25.968ZM128.762 24.5702L121.706 8.29816L119.871 9.09383L126.927 25.3658L128.762 24.5702ZM119.872 8.29589L112.768 24.5679L114.601 25.3681L121.705 9.09611L119.872 8.29589ZM171.398 10.04V11.04H172.398V10.04H171.398ZM170.342 10.04H169.342V11.04H170.342V10.04ZM170.582 28.184V27.184H169.997L169.711 27.6932L170.582 28.184ZM171.686 28.184L172.582 28.6271L173.296 27.184H171.686V28.184ZM158.294 34.48C148.753 34.48 141.198 27.572 141.198 18.248H139.198C139.198 28.796 147.771 36.48 158.294 36.48V34.48ZM141.198 18.248C141.198 9.08642 148.448 1.92 158.198 1.92V-0.0800018C147.404 -0.0800018 139.198 7.92158 139.198 18.248H141.198ZM158.198 1.92C161.857 1.92 164.946 2.94976 167.095 4.49232C169.249 6.03915 170.398 8.04561 170.398 10.04H172.398C172.398 7.23438 170.787 4.68085 168.261 2.86768C165.73 1.05023 162.219 -0.0800018 158.198 -0.0800018V1.92ZM171.398 9.04H170.342V11.04H171.398V9.04ZM171.342 10.04C171.342 5.2836 166.757 1.696 160.454 1.696V3.696C166.151 3.696 169.342 6.82839 169.342 10.04H171.342ZM160.454 1.696C156.297 1.696 152.823 3.25954 150.408 6.17386C148.01 9.06665 146.734 13.1924 146.734 18.2H148.734C148.734 13.5116 149.929 9.88535 151.948 7.45013C153.948 5.03646 156.835 3.696 160.454 3.696V1.696ZM146.734 18.2C146.734 23.1847 148.011 27.3088 150.4 30.2063C152.808 33.1251 156.268 34.704 160.406 34.704V32.704C156.816 32.704 153.94 31.3549 151.943 28.9337C149.929 26.4912 148.734 22.8633 148.734 18.2H146.734ZM160.406 34.704C165.387 34.704 169.339 32.4277 171.453 28.6748L169.711 27.6932C167.985 30.7563 164.737 32.704 160.406 32.704V34.704ZM170.582 29.184H171.686V27.184H170.582V29.184ZM170.789 27.7409C168.922 31.5194 164.269 34.48 158.294 34.48V36.48C164.895 36.48 170.322 33.2006 172.582 28.6271L170.789 27.7409ZM184.005 34.04H183.005V35.04H184.005V34.04ZM201.429 34.04H202.429V33.04H201.429V34.04ZM201.429 35V36H202.429V35H201.429ZM176.661 35H175.661V36H176.661V35ZM176.661 1.4V0.399998L175.661 0.399998V1.4H176.661ZM200.949 1.4H201.949V0.399998L200.949 0.399998V1.4ZM200.949 2.36V3.36H201.949V2.36H200.949ZM184.005 2.36V1.36H183.005V2.36H184.005ZM184.005 17.48H183.005V18.48H184.005V17.48ZM197.109 17.48H198.109V16.48H197.109V17.48ZM197.109 18.44V19.44H198.109V18.44H197.109ZM184.005 18.44V17.44H183.005V18.44H184.005ZM184.005 35.04H201.429V33.04H184.005V35.04ZM200.429 34.04V35H202.429V34.04H200.429ZM201.429 34H176.661V36H201.429V34ZM177.661 35V1.4H175.661V35H177.661ZM176.661 2.4L200.949 2.4V0.399998L176.661 0.399998V2.4ZM199.949 1.4V2.36H201.949V1.4H199.949ZM200.949 1.36L184.005 1.36V3.36L200.949 3.36V1.36ZM183.005 2.36V17.48H185.005V2.36H183.005ZM184.005 18.48H197.109V16.48H184.005V18.48ZM196.109 17.48V18.44H198.109V17.48H196.109ZM197.109 17.44H184.005V19.44H197.109V17.44ZM183.005 18.44V34.04H185.005V18.44H183.005Z" fill="white" mask="url(#path-1-outside-1_1579_7167)"/>
</svg>
