<svg width="332" height="47" viewBox="0 0 332 47" fill="none" xmlns="http://www.w3.org/2000/svg">
<path fill-rule="evenodd" clip-rule="evenodd" d="M331.386 43.72V47H295.53V0.199951L330.746 0.199951V3.47995L309.562 3.47995V21.64H325.626V24.92H309.562V43.72H331.386ZM308.562 44.72V23.92H324.626V22.64H308.562V2.47995L329.746 2.47995V1.19995L296.53 1.19995V46H330.386V44.72H308.562Z" fill="white"/>
<path fill-rule="evenodd" clip-rule="evenodd" d="M286.077 0.199951L289.613 0.199951V47H286.051L252.941 16.9005V47H249.405V0.199951L255.595 0.199951L286.077 28.173V0.199951ZM287.077 30.448L255.205 1.19995L250.405 1.19995V46H251.941V14.64L286.437 46H288.613V1.19995L287.077 1.19995V30.448Z" fill="white"/>
<path fill-rule="evenodd" clip-rule="evenodd" d="M229.468 47V0.199951L243.5 0.199951V47H229.468ZM230.468 46H242.5V1.19995L230.468 1.19995V46Z" fill="white"/>
<path fill-rule="evenodd" clip-rule="evenodd" d="M224.055 0.199951L228.031 0.199951L207.506 47H202.294L192.13 23.7245L181.906 47H176.695L156.236 0.199951L171.158 0.199951L184.715 31.5882L190.145 19.1839L181.836 0.199951L196.758 0.199951L210.315 31.5882L224.055 0.199951ZM210.309 34.096L196.101 1.19995L183.365 1.19995L191.237 19.184L184.709 34.096L170.501 1.19995L157.765 1.19995L177.349 46H181.253L192.133 21.232L202.949 46H206.853L226.501 1.19995H224.709L210.309 34.096Z" fill="white"/>
<path fill-rule="evenodd" clip-rule="evenodd" d="M94.5303 47V0.199951L114.474 0.199951C129.072 0.199951 140.306 10.2178 140.306 23.6C140.306 36.9821 129.072 47 114.474 47H94.5303ZM122.263 38.3742C124.622 34.8993 126.018 29.8338 126.018 23.6C126.018 17.3661 124.622 12.3006 122.263 8.82567C119.923 5.37891 116.633 3.47995 112.682 3.47995H108.562V43.72H112.682C116.633 43.72 119.923 41.821 122.263 38.3742ZM107.562 44.72V2.47995H112.682C121.322 2.47995 127.018 10.864 127.018 23.6C127.018 36.336 121.322 44.72 112.682 44.72H107.562ZM139.306 23.6C139.306 10.864 128.618 1.19995 114.474 1.19995L95.5303 1.19995V46H114.474C128.618 46 139.306 36.336 139.306 23.6Z" fill="white"/>
<path fill-rule="evenodd" clip-rule="evenodd" d="M85.0773 0.199951L88.6133 0.199951V47H85.0507L51.9413 16.9005V47H48.4053V0.199951L54.5946 0.199951L85.0773 28.173V0.199951ZM86.0773 30.448L54.2053 1.19995L49.4053 1.19995V46H50.9413V14.64L85.4373 46H87.6133V1.19995L86.0773 1.19995V30.448Z" fill="white"/>
<path fill-rule="evenodd" clip-rule="evenodd" d="M31.3848 47L26.3928 35.544H9.07895L4.08695 47H0.109375L20.6345 0.199951L25.8461 0.199951L46.3044 47H31.3848ZM8.42389 34.544H27.0479L32.0399 46H44.7759L25.1919 1.19995L21.2879 1.19995L1.63989 46H3.43189L8.42389 34.544ZM26.5359 33.264H8.99989L17.7679 13.104L26.5359 33.264ZM25.0105 32.264L17.7679 15.6113L10.5253 32.264H25.0105Z" fill="white"/>
</svg>
