<svg width="255" height="37" viewBox="0 0 255 37" fill="none" xmlns="http://www.w3.org/2000/svg">
<path fill-rule="evenodd" clip-rule="evenodd" d="M255 34.466V37H227.448V0.844116L254.508 0.844116V3.37812L238.23 3.37812V17.4078H250.574V19.9418H238.23V34.466H255ZM237.462 35.2386V19.1693H249.806V18.1804H237.462V2.60556L253.74 2.60556V1.61668L228.217 1.61668V36.2274H254.232V35.2386H237.462Z" fill="white"/>
<path fill-rule="evenodd" clip-rule="evenodd" d="M220.185 0.844116H222.902V37H220.164L194.723 13.7463V37H192.006V0.844116L196.762 0.844116L220.185 22.4551V0.844116ZM220.953 24.2126L196.463 1.61668H192.775V36.2274H193.955V11.9999L220.461 36.2274H222.133V1.61668H220.953V24.2126Z" fill="white"/>
<path fill-rule="evenodd" clip-rule="evenodd" d="M176.686 37V0.844116L187.469 0.844116V37H176.686ZM177.455 36.2274H186.7V1.61668L177.455 1.61668V36.2274Z" fill="white"/>
<path fill-rule="evenodd" clip-rule="evenodd" d="M172.527 0.844116L175.583 0.844116L159.811 37H155.806L147.996 19.0183L140.14 37H136.136L120.416 0.844116L131.881 0.844116L142.298 25.0935L146.471 15.5104L140.086 0.844116L151.552 0.844116L161.969 25.0935L172.527 0.844116ZM161.965 27.0309L151.047 1.61668L141.261 1.61668L147.31 15.5104L142.294 27.0309L131.376 1.61668L121.59 1.61668L136.638 36.2274H139.638L147.998 17.0926L156.309 36.2274H159.309L174.407 1.61668L173.03 1.61668L161.965 27.0309Z" fill="white"/>
<path fill-rule="evenodd" clip-rule="evenodd" d="M73.001 37V0.844116L88.3259 0.844116C99.5425 0.844116 108.175 8.58355 108.175 18.9221C108.175 29.2606 99.5425 37 88.3259 37H73.001ZM94.3106 30.3361C96.1235 27.6515 97.1962 23.7381 97.1962 18.9221C97.1962 14.1061 96.1235 10.1926 94.3106 7.50802C92.5124 4.84518 89.9846 3.37812 86.9489 3.37812H83.7831V34.466H86.9489C89.9846 34.466 92.5124 32.9989 94.3106 30.3361ZM83.0147 35.2386V2.60556L86.9489 2.60556C93.5878 2.60556 97.9646 9.08272 97.9646 18.9221C97.9646 28.7614 93.5878 35.2386 86.9489 35.2386H83.0147ZM107.407 18.9221C107.407 9.08272 99.194 1.61668 88.3259 1.61668L73.7694 1.61668V36.2274H88.3259C99.194 36.2274 107.407 28.7614 107.407 18.9221Z" fill="white"/>
<path fill-rule="evenodd" clip-rule="evenodd" d="M65.7374 0.844116H68.4544V37H65.7169L40.2758 13.7463V37H37.5588V0.844116L42.3146 0.844116L65.7374 22.455V0.844116ZM66.5058 24.2126L42.0155 1.61668H38.3272V36.2274H39.5074V11.9999L66.014 36.2274H67.686V1.61668H66.5058V24.2126Z" fill="white"/>
<path fill-rule="evenodd" clip-rule="evenodd" d="M24.4802 37L20.6443 28.1495H7.34043L3.5046 37H0.448242L16.2197 0.844116L20.2242 0.844116L35.9443 37H24.4802ZM6.83708 27.377H21.1477L24.9835 36.2274H34.7698L19.7215 1.61668H16.7217L1.62428 36.2274H3.00125L6.83708 27.377ZM20.7543 26.3881H7.27968L14.017 10.8133L20.7543 26.3881ZM19.5821 25.6155L14.017 12.7503L8.45179 25.6155H19.5821Z" fill="white"/>
</svg>
