<svg width="164.000000" height="24.000000" viewBox="0 0 164 24" fill="none" xmlns="http://www.w3.org/2000/svg" xmlns:xlink="http://www.w3.org/1999/xlink">
	<desc>
			Created with Pixso.
	</desc>
	<defs/>
	<path id="Stroke" d="M163.2 21.37L163.2 23L145.47 23L145.47 -0.14L162.88 -0.14L162.88 1.48L152.41 1.48L152.41 10.46L160.35 10.46L160.35 12.08L152.41 12.08L152.41 21.37L163.2 21.37ZM151.92 21.87L151.92 11.58L159.86 11.58L159.86 10.95L151.92 10.95L151.92 0.98L162.39 0.98L162.39 0.35L145.97 0.35L145.97 22.5L162.71 22.5L162.71 21.87L151.92 21.87Z" fill="#FFFFFF" fill-opacity="1.000000" fill-rule="evenodd"/>
	<path id="Stroke" d="M140.8 -0.14L142.55 -0.14L142.55 23L140.78 23L124.41 8.11L124.41 23L122.67 23L122.67 -0.14L125.73 -0.14L140.8 13.69L140.8 -0.14ZM141.29 14.81L125.53 0.35L123.16 0.35L123.16 22.5L123.92 22.5L123.92 7L140.98 22.5L142.05 22.5L142.05 0.35L141.29 0.35L141.29 14.81Z" fill="#FFFFFF" fill-opacity="1.000000" fill-rule="evenodd"/>
	<path id="Stroke" d="M112.81 23L112.81 -0.14L119.75 -0.14L119.75 23L112.81 23ZM113.3 22.5L119.25 22.5L119.25 0.35L113.3 0.35L113.3 22.5Z" fill="#FFFFFF" fill-opacity="1.000000" fill-rule="evenodd"/>
	<path id="Stroke" d="M110.13 -0.14L112.1 -0.14L101.95 23L99.37 23L94.35 11.49L89.29 23L86.71 23L76.6 -0.14L83.98 -0.14L90.68 15.37L93.37 9.24L89.26 -0.14L96.64 -0.14L103.34 15.37L110.13 -0.14ZM103.34 16.61L96.31 0.35L90.01 0.35L93.91 9.24L90.68 16.61L83.65 0.35L77.36 0.35L87.04 22.5L88.97 22.5L94.35 10.25L99.7 22.5L101.63 22.5L111.34 0.35L110.46 0.35L103.34 16.61Z" fill="#FFFFFF" fill-opacity="1.000000" fill-rule="evenodd"/>
	<path id="Stroke" d="M46.09 23L46.09 -0.14L55.95 -0.14C63.17 -0.14 68.72 4.81 68.72 11.43C68.72 18.04 63.17 23 55.95 23L46.09 23ZM59.8 18.73C60.97 17.01 61.66 14.51 61.66 11.43C61.66 8.34 60.97 5.84 59.8 4.12C58.64 2.42 57.02 1.48 55.06 1.48L53.03 1.48L53.03 21.37L55.06 21.37C57.02 21.37 58.64 20.43 59.8 18.73ZM52.53 21.87L52.53 0.98L55.06 0.98C59.34 0.98 62.15 5.13 62.15 11.43C62.15 17.72 59.34 21.87 55.06 21.87L52.53 21.87ZM68.23 11.43C68.23 5.13 62.94 0.35 55.95 0.35L46.58 0.35L46.58 22.5L55.95 22.5C62.94 22.5 68.23 17.72 68.23 11.43Z" fill="#FFFFFF" fill-opacity="1.000000" fill-rule="evenodd"/>
	<path id="Stroke" d="M41.42 -0.14L43.16 -0.14L43.16 23L41.4 23L25.03 8.11L25.03 23L23.28 23L23.28 -0.14L26.34 -0.14L41.42 13.69L41.42 -0.14ZM41.91 14.81L26.15 0.35L23.78 0.35L23.78 22.5L24.54 22.5L24.54 7L41.59 22.5L42.67 22.5L42.67 0.35L41.91 0.35L41.91 14.81Z" fill="#FFFFFF" fill-opacity="1.000000" fill-rule="evenodd"/>
	<path id="Stroke" d="M14.87 23L12.4 17.33L3.84 17.33L1.37 23L-0.6 23L9.55 -0.14L12.13 -0.14L22.24 23L14.87 23ZM3.52 16.84L12.72 16.84L15.19 22.5L21.49 22.5L11.81 0.35L9.88 0.35L0.16 22.5L1.05 22.5L3.52 16.84ZM12.47 16.2L3.8 16.2L8.14 6.24L12.47 16.2ZM11.72 15.71L8.14 7.48L4.55 15.71L11.72 15.71Z" fill="#FFFFFF" fill-opacity="1.000000" fill-rule="evenodd"/>
</svg>
