<svg width="32.000000" height="29.000000" viewBox="0 0 32 29" fill="none" xmlns="http://www.w3.org/2000/svg" xmlns:xlink="http://www.w3.org/1999/xlink">
	<desc>
			Created with Pixso.
	</desc>
	<defs>
		<clipPath id="clip1269_14366">
			<rect id="icons" width="24.000000" height="24.000000" transform="translate(4.000000 2.000000)" fill="white" fill-opacity="0"/>
		</clipPath>
	</defs>
	<rect id="icons" width="24.000000" height="24.000000" transform="translate(4.000000 2.000000)" fill="#FFFFFF" fill-opacity="0"/>
	<g clip-path="url(#clip1269_14366)">
		<path id="Vector" d="M16.7499 12.2501L16.7499 17.5001C16.7499 17.699 16.6709 17.8897 16.5303 18.0304C16.3896 18.1711 16.1989 18.2501 15.9999 18.2501C15.801 18.2501 15.6103 18.1711 15.4696 18.0304C15.329 17.8897 15.2499 17.699 15.2499 17.5001L15.2499 12.2501C15.2499 12.0511 15.329 11.8604 15.4696 11.7197C15.6103 11.5791 15.801 11.5001 15.9999 11.5001C16.1989 11.5001 16.3896 11.5791 16.5303 11.7197C16.6709 11.8604 16.7499 12.0511 16.7499 12.2501ZM26.4868 10.1979L25.1874 19.9488C25.1393 20.3092 24.9619 20.6398 24.6882 20.8792C24.4145 21.1185 24.0632 21.2503 23.6996 21.2501L8.30023 21.2501C7.93665 21.2503 7.58539 21.1185 7.31171 20.8792C7.03802 20.6398 6.8606 20.3092 6.81244 19.9488L5.51215 10.1988C5.48376 9.98685 5.5011 9.77127 5.56293 9.56653C5.62476 9.36179 5.72961 9.17264 5.87048 9.01178C6.01141 8.85089 6.18506 8.72202 6.37988 8.63376C6.57465 8.5455 6.78607 8.49991 6.99994 8.50006L10.4096 8.50006L15.4374 2.75598C15.5078 2.67618 15.5944 2.61227 15.6913 2.56848C15.7883 2.52472 15.8936 2.50208 15.9999 2.50208C16.1063 2.50208 16.2115 2.52472 16.3085 2.56848C16.4055 2.61227 16.4921 2.67618 16.5624 2.75598L21.5903 8.50006L24.9999 8.50006C25.2136 8.50018 25.4247 8.54596 25.6191 8.63428C25.8137 8.7226 25.9871 8.85144 26.1277 9.01218C26.2684 9.17291 26.3731 9.36185 26.4349 9.56631C26.4966 9.77081 26.514 9.98611 26.4859 10.1979L26.4868 10.1979ZM12.4028 8.50006L19.5971 8.50006L15.9999 4.38913L12.4028 8.50006ZM24.9999 10.0001L6.99994 10.0001L8.30023 19.7501L23.6996 19.7501L24.9999 10.0001ZM20.2037 12.175L19.6787 17.425C19.6683 17.5233 19.6775 17.6227 19.7056 17.7175C19.7338 17.8122 19.7804 17.9005 19.8428 17.9771C19.9052 18.0538 19.9821 18.1174 20.0691 18.1642C20.1561 18.2111 20.2516 18.2402 20.3499 18.2501C20.3752 18.2514 20.4006 18.2514 20.4259 18.2501C20.6116 18.2498 20.7907 18.1807 20.9284 18.056C21.0661 17.9313 21.1526 17.7599 21.1712 17.5751L21.6962 12.3251C21.7161 12.1271 21.6566 11.9294 21.5306 11.7754C21.4048 11.6214 21.2228 11.5237 21.025 11.5038C20.827 11.4839 20.6293 11.5435 20.4753 11.6693C20.3213 11.7952 20.2236 11.9771 20.2037 12.175ZM11.7962 12.175C11.7763 11.9771 11.6786 11.7952 11.5246 11.6693C11.3705 11.5435 11.1729 11.4839 10.9749 11.5038C10.777 11.5237 10.5951 11.6214 10.4692 11.7754C10.3433 11.9294 10.2838 12.1271 10.3037 12.3251L10.8287 17.5751C10.8474 17.7607 10.9345 17.9327 11.0732 18.0575C11.2119 18.1823 11.3921 18.251 11.5787 18.2501C11.604 18.2514 11.6293 18.2514 11.6546 18.2501C11.7526 18.2402 11.8477 18.2112 11.9345 18.1646C12.0212 18.118 12.098 18.0547 12.1603 17.9785C12.2227 17.9022 12.2693 17.8144 12.2978 17.7201C12.3262 17.6258 12.3358 17.5268 12.3259 17.4288L11.7962 12.175Z" fill="#EFEFEF" fill-opacity="1.000000" fill-rule="nonzero"/>
	</g>
	<path id="Exclude" d="M16 19C13.2386 19 11 21.2386 11 24C11 26.7614 13.2386 29 16 29C18.7614 29 21 26.7614 21 24C21 21.2386 18.7614 19 16 19ZM16.1283 21.2437C16.5949 21.2437 16.9616 21.6103 16.9616 22.077L16.9616 23.2949L18.1796 23.2949C18.6462 23.2949 19.0129 23.6616 19.0129 24.1283C19.0129 24.5949 18.6462 24.9616 18.1796 24.9616L16.9616 24.9616L16.9616 26.1795C16.9616 26.6462 16.5949 27.0129 16.1283 27.0129C15.6616 27.0129 15.2949 26.6462 15.2949 26.1795L15.2949 24.9616L14.077 24.9616C13.6103 24.9616 13.2437 24.5949 13.2437 24.1283C13.2437 23.6616 13.6103 23.2949 14.077 23.2949L15.2949 23.2949L15.2949 22.077C15.2949 21.6103 15.6616 21.2437 16.1283 21.2437Z" clip-rule="evenodd" fill="#EFEFEF" fill-opacity="1.000000" fill-rule="evenodd"/>
</svg>
