<svg width="48.000000" height="48.000000" viewBox="0 0 48 48" fill="none" xmlns="http://www.w3.org/2000/svg" xmlns:xlink="http://www.w3.org/1999/xlink">
	<desc>
			Created with Pixso.
	</desc>
	<defs>
		<clipPath id="clip654_2391">
			<rect id="icons" width="48.000000" height="48.000000" transform="translate(-0.500000 0.000000)" fill="white" fill-opacity="0"/>
		</clipPath>
	</defs>
	<rect id="icons" width="48.000000" height="48.000000" transform="translate(-0.500000 0.000000)" fill="#FFFFFF" fill-opacity="0"/>
	<g clip-path="url(#clip654_2391)">
		<path id="Vector" d="M38.5 6L34 6L34 4.5C34 4.1 33.84 3.72 33.56 3.43C33.27 3.15 32.89 3 32.5 3C32.1 3 31.72 3.15 31.43 3.43C31.15 3.72 31 4.1 31 4.5L31 6L16 6L16 4.5C16 4.1 15.84 3.72 15.56 3.43C15.27 3.15 14.89 3 14.5 3C14.1 3 13.72 3.15 13.43 3.43C13.15 3.72 13 4.1 13 4.5L13 6L8.5 6C7.7 6 6.94 6.31 6.37 6.87C5.81 7.44 5.5 8.2 5.5 9L5.5 39C5.5 39.79 5.81 40.55 6.37 41.12C6.94 41.68 7.7 42 8.5 42L38.5 42C39.29 42 40.05 41.68 40.62 41.12C41.18 40.55 41.5 39.79 41.5 39L41.5 9C41.5 8.2 41.18 7.44 40.62 6.87C40.05 6.31 39.29 6 38.5 6ZM13 9L13 10.5C13 10.89 13.15 11.27 13.43 11.56C13.72 11.84 14.1 12 14.5 12C14.89 12 15.27 11.84 15.56 11.56C15.84 11.27 16 10.89 16 10.5L16 9L31 9L31 10.5C31 10.89 31.15 11.27 31.43 11.56C31.72 11.84 32.1 12 32.5 12C32.89 12 33.27 11.84 33.56 11.56C33.84 11.27 34 10.89 34 10.5L34 9L38.5 9L38.5 15L8.5 15L8.5 9L13 9ZM38.5 39L8.5 39L8.5 18L38.5 18L38.5 39Z" fill="#7C0021" fill-opacity="1.000000" fill-rule="nonzero"/>
	</g>
</svg>
