<svg width="48.000000" height="48.000000" viewBox="0 0 48 48" fill="none" xmlns="http://www.w3.org/2000/svg" xmlns:xlink="http://www.w3.org/1999/xlink">
	<defs/>
	<rect id="icons" width="48.000000" height="48.000000" fill="#FFFFFF" fill-opacity="0"/>
	<path id="Vector" d="M24 7.5C20.44 7.5 16.95 8.55 13.99 10.53C11.03 12.51 8.73 15.32 7.37 18.61C6 21.9 5.65 25.52 6.34 29.01C7.04 32.5 8.75 35.71 11.27 38.22C13.78 40.74 16.99 42.45 20.48 43.15C23.98 43.84 27.59 43.49 30.88 42.12C34.17 40.76 36.98 38.46 38.96 35.5C40.94 32.54 42 29.06 42 25.5C41.99 20.72 40.09 16.15 36.72 12.77C33.34 9.4 28.77 7.5 24 7.5ZM24 40.5C21.03 40.5 18.13 39.62 15.66 37.97C13.19 36.32 11.27 33.98 10.14 31.24C9 28.49 8.7 25.48 9.28 22.57C9.86 19.66 11.29 16.99 13.39 14.89C15.49 12.79 18.16 11.36 21.07 10.78C23.98 10.2 26.99 10.5 29.74 11.64C32.48 12.77 34.82 14.69 36.47 17.16C38.12 19.63 39 22.53 39 25.5C38.99 29.47 37.41 33.28 34.6 36.1C31.78 38.91 27.97 40.49 24 40.5ZM32.56 16.93C32.7 17.07 32.81 17.24 32.88 17.42C32.96 17.6 33 17.8 33 18C33 18.19 32.96 18.39 32.88 18.57C32.81 18.75 32.7 18.92 32.56 19.06L25.06 26.56C24.92 26.7 24.75 26.81 24.57 26.88C24.39 26.96 24.19 27 24 27C23.8 27 23.6 26.96 23.42 26.88C23.24 26.81 23.07 26.7 22.93 26.56C22.79 26.42 22.68 26.25 22.61 26.07C22.53 25.89 22.49 25.69 22.49 25.5C22.49 25.3 22.53 25.1 22.61 24.92C22.68 24.74 22.79 24.57 22.93 24.43L30.43 16.93C30.57 16.79 30.74 16.68 30.92 16.61C31.1 16.53 31.3 16.49 31.5 16.49C31.69 16.49 31.89 16.53 32.07 16.61C32.25 16.68 32.42 16.79 32.56 16.93ZM18 3C18 2.6 18.15 2.22 18.43 1.93C18.72 1.65 19.1 1.5 19.5 1.5L28.5 1.5C28.89 1.5 29.27 1.65 29.56 1.93C29.84 2.22 30 2.6 30 3C30 3.39 29.84 3.77 29.56 4.06C29.27 4.34 28.89 4.5 28.5 4.5L19.5 4.5C19.1 4.5 18.72 4.34 18.43 4.06C18.15 3.77 18 3.39 18 3Z" fill="#7C0021" fill-opacity="1.000000" fill-rule="nonzero"/>
</svg>
