<?xml version="1.0" standalone="no"?>
<!DOCTYPE svg PUBLIC "-//W3C//DTD SVG 20010904//EN"
 "http://www.w3.org/TR/2001/REC-SVG-20010904/DTD/svg10.dtd">
<svg version="1.0" xmlns="http://www.w3.org/2000/svg"
 width="1200.000000pt" height="1200.000000pt" viewBox="0 0 1200.000000 1200.000000"
 preserveAspectRatio="xMidYMid meet">

<g transform="translate(0.000000,1200.000000) scale(0.100000,-0.100000)"
 stroke="none">
<path d="M6725 9069 c-583 -54 -1128 -272 -1577 -629 -113 -89 -144 -120 -122
-120 4 0 57 33 118 73 236 156 475 274 725 358 352 117 629 162 996 161 564 0
1091 -151 1572 -448 721 -446 1234 -1197 1373 -2013 32 -189 40 -285 40 -501
0 -361 -51 -662 -169 -993 -298 -838 -990 -1514 -1840 -1797 -750 -251 -1542
-201 -2251 141 -306 148 -545 316 -792 558 -71 68 -131 122 -134 118 -10 -10
161 -191 271 -287 335 -291 691 -494 1091 -623 837 -270 1757 -164 2504 288
233 140 397 271 600 474 276 278 477 568 630 911 66 147 161 432 194 580 184
830 28 1701 -427 2388 -525 793 -1352 1284 -2292 1362 -140 11 -381 11 -510
-1z"/>
<path d="M2774 8336 c-315 -72 -610 -454 -739 -960 -52 -203 -69 -364 -62
-596 7 -287 56 -504 162 -727 121 -254 276 -417 477 -501 55 -23 77 -27 173
-27 101 0 116 3 182 32 94 40 180 103 274 200 125 128 309 356 309 382 0 14
17 14 25 1 4 -6 24 -19 45 -30 46 -23 116 -26 164 -6 114 48 243 262 297 493
l21 92 67 6 c36 3 98 12 138 19 l72 13 12 -55 c15 -75 77 -269 100 -313 36
-71 67 -99 111 -99 21 0 48 4 58 10 24 13 47 78 60 175 34 238 98 461 180 624
52 104 127 208 140 194 8 -7 13 -64 40 -448 6 -77 17 -192 26 -255 29 -225 44
-273 96 -294 68 -29 96 4 136 160 54 213 113 335 199 415 l48 44 2 -60 c15
-362 34 -488 88 -594 48 -95 136 -171 198 -171 13 0 47 7 75 15 43 13 59 25
91 68 54 72 106 170 140 263 23 61 31 74 36 59 40 -119 131 -242 200 -271 44
-18 118 -18 153 0 56 30 118 110 161 213 28 65 30 67 36 38 37 -163 69 -212
143 -222 61 -8 94 28 141 157 57 153 123 305 172 390 45 81 117 180 129 180 4
0 30 -71 58 -157 118 -363 253 -543 410 -543 121 0 209 59 287 194 21 36 42
63 45 61 4 -3 10 -17 13 -32 14 -72 93 -143 159 -143 102 0 156 72 308 413 26
58 47 92 51 85 13 -25 69 -380 69 -438 0 -9 -51 -59 -112 -111 -148 -123 -414
-389 -510 -509 -219 -274 -372 -564 -409 -777 -17 -94 -6 -228 23 -300 35 -85
73 -129 145 -165 59 -29 67 -30 160 -26 79 4 113 11 178 36 115 45 195 96 288
182 202 187 347 468 427 820 34 155 48 302 56 588 l7 282 141 114 c77 63 177
143 221 178 65 52 81 69 83 94 6 57 -42 81 -96 47 -46 -29 -213 -153 -297
-221 l-80 -64 -17 92 c-32 174 -101 350 -157 404 -22 21 -43 30 -79 34 -44 4
-53 1 -82 -25 l-34 -30 -43 30 c-59 42 -151 50 -217 18 -60 -29 -112 -89 -148
-170 -35 -79 -34 -78 -125 -228 -89 -149 -145 -219 -187 -240 -31 -14 -35 -14
-60 2 -36 24 -100 158 -170 355 -65 185 -87 238 -119 286 -92 134 -230 106
-349 -69 -22 -33 -69 -119 -104 -191 -74 -152 -70 -162 -53 144 7 113 9 222 5
243 -10 51 -70 113 -120 122 -50 10 -108 -8 -144 -45 -47 -47 -56 -100 -58
-351 l-2 -226 -37 -94 c-43 -109 -82 -180 -124 -229 -30 -34 -31 -35 -46 -15
-49 63 -69 233 -61 512 8 237 7 243 -42 295 -52 56 -153 46 -197 -20 -32 -49
-45 -136 -45 -307 l0 -140 -68 -170 c-78 -193 -96 -231 -125 -262 -70 -77
-100 25 -116 397 -7 169 -13 215 -30 260 -35 94 -99 144 -182 143 -87 -1 -154
-56 -260 -213 l-44 -65 -6 215 c-8 273 -30 354 -117 432 -96 86 -216 47 -320
-104 -66 -97 -156 -306 -198 -463 l-19 -70 -11 131 c-13 149 -30 196 -83 231
-66 44 -160 21 -198 -49 -13 -25 -18 -63 -21 -159 l-4 -126 -88 -11 c-48 -7
-103 -12 -122 -12 l-35 0 -6 83 c-15 188 -71 292 -186 345 -230 106 -480 -143
-369 -368 17 -33 23 -56 17 -59 -30 -10 -79 -67 -93 -108 -41 -120 -41 -321 0
-424 14 -34 15 -44 5 -47 -7 -2 -21 -14 -31 -26 -10 -11 -53 -63 -95 -114
-111 -133 -270 -292 -338 -336 -123 -80 -230 -95 -332 -46 -29 14 -82 56 -125
100 -148 150 -244 401 -281 735 -17 153 -5 478 21 605 27 127 90 312 151 440
129 272 332 486 457 482 51 -2 115 -45 165 -110 107 -138 163 -323 187 -612 9
-109 13 -127 32 -143 28 -23 56 -18 80 14 16 21 20 49 25 160 15 351 -65 646
-219 814 -109 118 -253 165 -404 131z m1124 -1270 c33 -29 59 -84 77 -158 25
-108 26 -105 -56 -97 -96 11 -166 49 -197 110 -28 53 -23 91 15 131 48 50 115
56 161 14z m4588 -260 c16 -33 16 -34 -35 -132 -85 -163 -100 -172 -81 -47 15
99 63 213 90 213 6 0 18 -15 26 -34z m-4676 -115 c25 -6 73 -11 108 -11 72 0
72 0 47 -109 -36 -152 -160 -336 -221 -329 -18 2 -33 12 -41 28 -17 34 -16
199 1 275 8 33 17 84 21 113 6 43 10 52 23 48 10 -3 37 -10 62 -15z m4946
-628 c-23 -473 -84 -749 -219 -987 -100 -177 -228 -309 -364 -375 -213 -104
-323 -39 -323 190 0 204 139 488 385 787 95 115 498 522 517 522 8 0 9 -37 4
-137z"/>
<path d="M6333 7829 c-127 -37 -99 -239 32 -239 135 0 173 184 49 236 -37 16
-37 16 -81 3z"/>
<path d="M4275 6036 c-91 -30 -137 -54 -210 -111 -74 -57 -128 -118 -178 -198
-56 -92 -72 -153 -72 -282 0 -103 2 -114 32 -177 35 -73 103 -153 172 -200 54
-38 139 -81 311 -156 74 -32 166 -75 204 -94 l70 -35 -80 -53 c-193 -129 -328
-259 -384 -370 -30 -59 -38 -155 -16 -197 36 -71 125 -102 233 -83 195 33 424
194 516 363 66 119 71 219 16 322 -16 30 -29 57 -29 60 0 4 74 45 82 45 2 0 3
-53 3 -117 0 -102 3 -125 24 -171 28 -61 89 -119 137 -128 48 -9 101 13 145
59 49 50 123 199 147 295 10 40 23 76 28 81 5 5 47 11 92 14 77 6 83 5 76 -11
-4 -9 -9 -63 -12 -119 -5 -126 13 -193 70 -258 95 -108 204 -75 303 90 34 58
95 226 95 264 0 23 19 31 73 31 23 1 61 5 84 9 l42 8 7 -46 c22 -160 50 -259
84 -293 60 -59 109 -28 154 97 59 165 187 405 215 405 5 0 23 -46 40 -102 46
-146 113 -281 167 -335 78 -78 144 -91 232 -47 41 20 61 40 96 92 78 119 158
269 154 293 -9 60 -75 42 -123 -34 -116 -182 -139 -215 -164 -230 -27 -16 -30
-16 -56 5 -32 25 -68 99 -119 247 -78 225 -116 276 -197 269 -80 -8 -136 -70
-220 -243 l-48 -100 0 50 c-1 28 4 102 9 165 13 139 7 180 -30 220 -24 26 -35
30 -78 30 -93 0 -118 -47 -129 -242 l-6 -117 -66 -6 c-36 -3 -75 -7 -86 -8
-18 -2 -21 6 -27 65 -9 98 -34 164 -79 209 -79 79 -193 77 -277 -4 -61 -58
-79 -120 -58 -192 8 -25 11 -47 8 -49 -7 -3 -97 -18 -184 -30 -21 -2 -38 -2
-38 2 -3 57 -24 163 -41 202 -67 156 -258 171 -360 28 -19 -26 -24 -46 -24
-93 0 -33 4 -71 8 -85 7 -24 2 -28 -108 -83 -64 -32 -122 -57 -129 -54 -6 3
-50 30 -95 62 -46 31 -174 101 -285 155 -220 108 -284 151 -323 218 -21 36
-26 57 -25 106 1 90 38 163 132 256 98 99 178 140 274 140 79 0 119 -15 176
-66 57 -52 76 -94 99 -220 23 -129 46 -157 97 -120 17 13 19 29 22 137 3 94 0
139 -13 186 -35 130 -137 241 -260 283 -82 28 -207 27 -300 -4z m978 -858 c12
-6 27 -18 34 -27 14 -18 38 -91 47 -138 5 -33 5 -33 -37 -33 -49 0 -122 31
-148 62 -60 68 25 179 104 136z m650 -8 c30 -23 67 -115 67 -164 l0 -33 -49 8
c-142 22 -202 120 -115 188 34 26 64 27 97 1z m-658 -279 c42 -5 79 -12 82
-15 12 -11 -19 -117 -53 -185 -34 -68 -91 -131 -119 -131 -8 0 -19 9 -25 19
-15 28 -12 154 5 244 8 43 15 81 15 83 0 3 4 2 10 -1 5 -3 44 -10 85 -14z
m642 -1 c40 -4 76 -10 79 -13 10 -9 -25 -125 -55 -186 -33 -65 -90 -131 -113
-131 -45 0 -58 88 -33 226 22 125 22 127 36 118 7 -4 45 -10 86 -14z m-1150
-209 c47 -70 14 -184 -85 -292 -99 -109 -266 -198 -369 -199 -79 0 -91 50 -36
151 27 50 150 178 223 231 100 74 216 147 230 145 8 -1 25 -17 37 -36z"/>
</g>
</svg>
