<?xml version="1.0" encoding="UTF-8"?>
<!DOCTYPE svg PUBLIC "-//W3C//DTD SVG 1.1//EN" "http://www.w3.org/Graphics/SVG/1.1/DTD/svg11.dtd">
<svg xmlns="http://www.w3.org/2000/svg" version="1.1" width="225px" height="225px" style="shape-rendering:geometricPrecision; text-rendering:geometricPrecision; image-rendering:optimizeQuality; fill-rule:evenodd; clip-rule:evenodd" xmlns:xlink="http://www.w3.org/1999/xlink">
<g><path style="opacity:1" fill="#fdfdfd" d="M -0.5,-0.5 C 74.5,-0.5 149.5,-0.5 224.5,-0.5C 224.5,74.5 224.5,149.5 224.5,224.5C 149.5,224.5 74.5,224.5 -0.5,224.5C -0.5,149.5 -0.5,74.5 -0.5,-0.5 Z"/></g>
<g><path style="opacity:1" fill="#636679" d="M 122.5,30.5 C 126.96,29.8847 130.96,30.8847 134.5,33.5C 138.04,30.8847 142.04,29.8847 146.5,30.5C 146.375,38.2584 142.375,41.2584 134.5,39.5C 126.971,40.9536 122.971,37.9536 122.5,30.5 Z"/></g>
<g><path style="opacity:1" fill="#cdd0d9" d="M 125.5,33.5 C 128.961,32.8895 131.628,34.0561 133.5,37C 129.623,38.2158 126.957,37.0491 125.5,33.5 Z"/></g>
<g><path style="opacity:1" fill="#ced1da" d="M 138.5,33.5 C 144.824,33.8716 144.991,35.2049 139,37.5C 138.167,37.1667 137.333,36.8333 136.5,36.5C 137.193,35.4822 137.859,34.4822 138.5,33.5 Z"/></g>
<g><path style="opacity:1" fill="#797b8c" d="M 56.5,45.5 C 57.5,45.5 58.5,45.5 59.5,45.5C 59.5,48.1667 59.5,50.8333 59.5,53.5C 58.5,53.5 57.5,53.5 56.5,53.5C 56.5,50.8333 56.5,48.1667 56.5,45.5 Z"/></g>
<g><path style="opacity:1" fill="#5c5f73" d="M 170.5,27.5 C 173.803,30.665 174.303,34.3317 172,38.5C 168.771,42.7552 164.771,45.7552 160,47.5C 157.444,47.6373 155.277,46.804 153.5,45C 156.125,40.8386 159.791,38.6719 164.5,38.5C 164.34,36.8008 164.506,35.1341 165,33.5C 167.04,31.6298 168.873,29.6298 170.5,27.5 Z"/></g>
<g><path style="opacity:1" fill="#c8cbd5" d="M 161.5,40.5 C 166.57,41.3617 166.57,42.8617 161.5,45C 160.056,45.7805 158.723,45.6139 157.5,44.5C 158.549,42.7844 159.882,41.4511 161.5,40.5 Z"/></g>
<g><path style="opacity:1" fill="#c5c7d1" d="M 169.5,31.5 C 171.995,34.2843 171.495,36.951 168,39.5C 166.269,36.5608 166.769,33.8941 169.5,31.5 Z"/></g>
<g><path style="opacity:1" fill="#616478" d="M 67.5,51.5 C 68.675,51.281 69.675,51.6143 70.5,52.5C 69.1667,54.5 67.5,56.1667 65.5,57.5C 65.1667,57 64.8333,56.5 64.5,56C 65.3146,54.3566 66.3146,52.8566 67.5,51.5 Z"/></g>
<g><path style="opacity:1" fill="#a9aab4" d="M 76.5,62.5 C 73.6122,61.9898 71.2789,62.6565 69.5,64.5C 68.596,63.791 68.2627,62.791 68.5,61.5C 71.3854,61.1936 74.0521,61.5269 76.5,62.5 Z"/></g>
<g><path style="opacity:1" fill="#4f536a" d="M 76.5,62.5 C 74.7211,64.3435 72.3878,65.0102 69.5,64.5C 71.2789,62.6565 73.6122,61.9898 76.5,62.5 Z"/></g>
<g><path style="opacity:1" fill="#5f6176" d="M 15.5,62.5 C 30.5037,62.3334 45.5037,62.5001 60.5,63C 64.7561,69.2602 69.7561,74.9269 75.5,80C 111.138,84.2153 146.804,88.0487 182.5,91.5C 181.739,100.826 181.073,110.159 180.5,119.5C 194.707,118.888 204.207,125.221 209,138.5C 210.985,163.515 199.485,174.682 174.5,172C 167.902,169.708 162.902,165.541 159.5,159.5C 135.843,158.5 112.176,158.167 88.5,158.5C 88.3338,164.842 88.5005,171.175 89,177.5C 92.608,178.607 95.108,180.94 96.5,184.5C 107.167,185.833 117.833,185.833 128.5,184.5C 131.313,177.926 135.98,176.093 142.5,179C 144.414,180.413 145.747,182.247 146.5,184.5C 149.428,185.484 152.428,185.817 155.5,185.5C 157.693,178.239 162.36,176.072 169.5,179C 175.009,184.636 174.676,189.969 168.5,195C 118.83,195.833 69.1633,195.667 19.5,194.5C 30.5,193.833 41.5,193.167 52.5,192.5C 48.6448,184.546 50.9781,179.546 59.5,177.5C 59.6664,169.826 59.4997,162.159 59,154.5C 52.4927,130.139 45.826,105.806 39,81.5C 35.5,78 32,74.5 28.5,71C 24.5,70.6667 20.5,70.3333 16.5,70C 14.2854,67.7585 13.9521,65.2585 15.5,62.5 Z"/></g>
<g><path style="opacity:1" fill="#f3f3f3" d="M 166.5,124.5 C 165.222,119.81 165.222,114.976 166.5,110C 165.775,105.916 163.442,104.582 159.5,106C 158.619,106.708 157.953,107.542 157.5,108.5C 156.672,114.653 156.172,120.987 156,127.5C 153.806,130.554 152.139,133.888 151,137.5C 150.347,143.862 150.513,150.195 151.5,156.5C 130.5,156.5 109.5,156.5 88.5,156.5C 84.2407,132.204 80.2407,107.871 76.5,83.5C 110.835,86.7501 145.169,90.0834 179.5,93.5C 179.422,102.286 178.422,110.953 176.5,119.5C 172.861,120.653 169.528,122.319 166.5,124.5 Z"/></g>
<g><path style="opacity:1" fill="#f3f3f4" d="M 42.5,82.5 C 52.8333,82.5 63.1667,82.5 73.5,82.5C 77.9325,107.095 81.9325,131.762 85.5,156.5C 77.5,156.5 69.5,156.5 61.5,156.5C 55.4787,131.748 49.1453,107.081 42.5,82.5 Z"/></g>
<g><path style="opacity:1" fill="#aaabb5" d="M 70.5,78.5 C 71.0431,78.56 71.3764,78.8933 71.5,79.5C 61.0075,80.8232 50.6742,80.8232 40.5,79.5C 50.6806,79.8274 60.6806,79.494 70.5,78.5 Z"/></g>
<g><path style="opacity:1" fill="#babbc3" d="M 58.5,70.5 C 50.1667,71.1667 41.8333,71.8333 33.5,72.5C 32.9569,72.44 32.6236,72.1067 32.5,71.5C 41.1411,70.502 49.8078,70.1686 58.5,70.5 Z"/></g>
<g><path style="opacity:1" fill="#fcfcfd" d="M 70.5,78.5 C 60.6806,79.494 50.6806,79.8274 40.5,79.5C 38.5272,76.8605 36.1939,74.5272 33.5,72.5C 41.8333,71.8333 50.1667,71.1667 58.5,70.5C 59.8474,69.9717 61.1807,69.805 62.5,70C 65.3993,72.7291 68.066,75.5624 70.5,78.5 Z"/></g>
<g><path style="opacity:1" fill="#a9afc4" d="M 100.5,99.5 C 103.325,99.0807 105.491,100.081 107,102.5C 107.667,116.167 107.667,129.833 107,143.5C 105.062,144.86 103.396,144.527 102,142.5C 99.5924,128.912 98.2591,115.245 98,101.5C 98.9947,100.934 99.828,100.267 100.5,99.5 Z"/></g>
<g><path style="opacity:1" fill="#a9afc4" d="M 131.5,102.5 C 137.374,102.89 139.707,106.057 138.5,112C 137.873,122.571 136.706,133.071 135,143.5C 132.978,144.991 131.312,144.658 130,142.5C 128.965,130.177 128.632,117.844 129,105.5C 130.045,104.627 130.878,103.627 131.5,102.5 Z"/></g>
<g><path style="opacity:1" fill="#a1a8be" d="M 166.5,124.5 C 162.793,127.576 159.793,131.242 157.5,135.5C 157.5,126.5 157.5,117.5 157.5,108.5C 157.953,107.542 158.619,106.708 159.5,106C 163.442,104.582 165.775,105.916 166.5,110C 165.222,114.976 165.222,119.81 166.5,124.5 Z"/></g>
<g><path style="opacity:1" fill="#f3f2f2" d="M 177.5,121.5 C 197.976,121.142 207.81,131.142 207,151.5C 200.397,168.218 188.563,173.718 171.5,168C 159.278,159.623 155.778,148.457 161,134.5C 164.939,128.048 170.439,123.714 177.5,121.5 Z"/></g>
<g><path style="opacity:1" fill="#c7cbd6" d="M 157.5,108.5 C 157.5,117.5 157.5,126.5 157.5,135.5C 154.975,142.47 154.975,149.47 157.5,156.5C 155.5,156.5 153.5,156.5 151.5,156.5C 150.513,150.195 150.347,143.862 151,137.5C 152.139,133.888 153.806,130.554 156,127.5C 156.172,120.987 156.672,114.653 157.5,108.5 Z"/></g>
<g><path style="opacity:1" fill="#e18417" d="M 175.5,132.5 C 177.814,134.477 180.147,136.477 182.5,138.5C 184.833,136.5 187.167,134.5 189.5,132.5C 191.984,134.483 194.317,136.65 196.5,139C 194.167,141.333 191.833,143.667 189.5,146C 191.833,148.333 194.167,150.667 196.5,153C 194.273,155.935 191.606,157.935 188.5,159C 186.645,157.145 184.812,155.312 183,153.5C 180.384,155.112 178.05,157.112 176,159.5C 173.065,157.273 171.065,154.606 170,151.5C 171.833,149.667 173.667,147.833 175.5,146C 173.316,143.984 171.316,141.817 169.5,139.5C 171.523,137.147 173.523,134.814 175.5,132.5 Z"/></g>
<g><path style="opacity:1" fill="#5f6276" d="M 44.5,147.5 C 49.2137,147.201 50.8804,149.201 49.5,153.5C 42.6061,155.612 40.9395,153.612 44.5,147.5 Z"/></g>
<g><path style="opacity:1" fill="#eeeef0" d="M 45.5,149.5 C 47.4646,149.948 47.7979,150.948 46.5,152.5C 45.6143,151.675 45.281,150.675 45.5,149.5 Z"/></g>
<g><path style="opacity:1" fill="#fdfdfe" d="M 62.5,159.5 C 70.1667,159.5 77.8333,159.5 85.5,159.5C 85.5,165.5 85.5,171.5 85.5,177.5C 81.7026,178.959 79.3693,181.626 78.5,185.5C 75.1667,185.5 71.8333,185.5 68.5,185.5C 68.0571,182.376 66.3905,180.043 63.5,178.5C 62.5037,172.202 62.1703,165.868 62.5,159.5 Z"/></g>
<g><path style="opacity:1" fill="#aaacb5" d="M 62.5,159.5 C 70.3159,158.508 78.3159,158.174 86.5,158.5C 86.8235,165.022 86.4902,171.355 85.5,177.5C 85.5,171.5 85.5,165.5 85.5,159.5C 77.8333,159.5 70.1667,159.5 62.5,159.5 Z"/></g>
<g><path style="opacity:1" fill="#5a5d72" d="M 29.5,165.5 C 37.4863,164.998 39.4863,168.165 35.5,175C 27.424,175.805 25.424,172.638 29.5,165.5 Z"/></g>
<g><path style="opacity:1" fill="#e8e9ec" d="M 31.5,167.5 C 34.9971,167.995 35.9971,169.828 34.5,173C 31.7629,174.08 30.0963,173.246 29.5,170.5C 29.9424,169.261 30.6091,168.261 31.5,167.5 Z"/></g>
<g><path style="opacity:1" fill="#eaeaec" d="M 57.5,184.5 C 58.926,185.802 60.2593,187.302 61.5,189C 57.0774,190.081 55.7441,188.581 57.5,184.5 Z"/></g>
<g><path style="opacity:1" fill="#e4e5e7" d="M 136.5,183.5 C 137.756,183.461 138.756,183.961 139.5,185C 138.167,185.667 136.833,185.667 135.5,185C 136.056,184.617 136.389,184.117 136.5,183.5 Z"/></g>
<g><path style="opacity:1" fill="#e6e6e8" d="M 86.5,183.5 C 89.9656,184.109 90.9656,185.942 89.5,189C 86.7629,190.08 85.0963,189.246 84.5,186.5C 84.9424,185.261 85.6091,184.261 86.5,183.5 Z"/></g>
<g><path style="opacity:1" fill="#e8e8ea" d="M 163.5,183.5 C 166.966,184.109 167.966,185.942 166.5,189C 161.289,189.546 160.289,187.713 163.5,183.5 Z"/></g>
<g><path style="opacity:1" fill="#bdbec5" d="M 135.5,187.5 C 136.978,187.238 138.311,187.571 139.5,188.5C 138.833,188.833 138.167,189.167 137.5,189.5C 136.287,189.253 135.62,188.586 135.5,187.5 Z"/></g>


</svg>
