<svg width="207" height="24" viewBox="0 0 207 24" fill="none" xmlns="http://www.w3.org/2000/svg">
<mask id="path-1-outside-1_654_2374" maskUnits="userSpaceOnUse" x="-1" y="-1" width="212" height="26" fill="black">
<rect fill="white" x="-1" y="-1" width="212" height="26"/>
<path d="M5.264 22.36H16.88V23H0.368L0.368 0.599998L16.56 0.599998V1.24L5.264 1.24V11.32H14V11.96H5.264L5.264 22.36ZM38.71 0.599998H39.606L29.782 23H28.086L18.294 0.599998L23.478 0.599998L31.062 18.104L38.71 0.599998ZM47.1078 22.36L58.7238 22.36V23L42.2118 23V0.599998L58.4038 0.599998V1.24L47.1078 1.24V11.32H55.8438V11.96H47.1078V22.36ZM79.7218 20.568C80.2018 21.56 80.9058 22.552 81.5458 23H76.2658C75.6578 22.616 75.1138 21.816 74.7938 21.144L71.8178 14.712C71.5298 14.136 71.0498 13.656 70.3458 13.4H66.8578V23H61.9618V0.599998L71.4978 0.599998C76.2658 0.599998 79.9138 3.288 79.9138 7.032C79.9138 10.36 77.0338 12.792 73.0338 13.304C75.0818 13.656 76.8738 14.552 77.6418 16.28L79.7218 20.568ZM66.8578 1.24V12.76H70.3458C73.0978 12.76 74.8898 10.488 74.8898 7C74.8898 3.512 73.0978 1.24 70.3458 1.24L66.8578 1.24ZM100.563 0.599998H101.491L93.7153 13.4V23H88.8193V13.4L81.0753 0.599998L86.3873 0.599998L93.4913 12.376L100.563 0.599998ZM128.075 0.599998L132.971 0.599998V23H128.075V11.96H117.483V23H112.587V0.599998L117.483 0.599998V11.32H128.075V0.599998ZM148.496 23.32C141.68 23.32 136.528 18.36 136.528 11.8C136.528 5.24 141.68 0.279999 148.496 0.279999C155.312 0.279999 160.464 5.24 160.464 11.8C160.464 18.36 155.312 23.32 148.496 23.32ZM148.496 22.68C152.656 22.68 155.44 18.36 155.44 11.8C155.44 5.24 152.656 0.919998 148.496 0.919998C144.304 0.919998 141.552 5.24 141.552 11.8C141.552 18.36 144.304 22.68 148.496 22.68ZM174.04 23.32C168.12 23.32 163.8 19.672 163.8 14.136V0.599998L168.696 0.599998V14.648C168.696 19.096 171.384 21.848 175.576 21.848C179.704 21.848 182.296 19.096 182.296 14.648V0.599998H183.064V14.808C183.064 19.928 179.736 23.32 174.04 23.32ZM205.097 20.568C205.577 21.56 206.281 22.552 206.921 23H201.641C201.033 22.616 200.489 21.816 200.169 21.144L197.193 14.712C196.905 14.136 196.425 13.656 195.721 13.4H192.233V23H187.337V0.599998L196.873 0.599998C201.641 0.599998 205.289 3.288 205.289 7.032C205.289 10.36 202.409 12.792 198.409 13.304C200.457 13.656 202.249 14.552 203.017 16.28L205.097 20.568ZM192.233 1.24V12.76H195.721C198.473 12.76 200.265 10.488 200.265 7C200.265 3.512 198.473 1.24 195.721 1.24L192.233 1.24Z"/>
</mask>
<path d="M5.264 22.36H4.264V23.36H5.264V22.36ZM16.88 22.36H17.88V21.36H16.88V22.36ZM16.88 23V24H17.88V23H16.88ZM0.368 23H-0.632V24H0.368L0.368 23ZM0.368 0.599998V-0.400002H-0.632V0.599998H0.368ZM16.56 0.599998L17.56 0.599998V-0.400002H16.56V0.599998ZM16.56 1.24V2.24H17.56V1.24L16.56 1.24ZM5.264 1.24V0.24H4.264V1.24H5.264ZM5.264 11.32H4.264V12.32H5.264V11.32ZM14 11.32H15V10.32H14V11.32ZM14 11.96V12.96H15V11.96H14ZM5.264 11.96V10.96H4.264V11.96H5.264ZM5.264 23.36H16.88V21.36H5.264V23.36ZM15.88 22.36V23H17.88V22.36H15.88ZM16.88 22H0.368L0.368 24H16.88V22ZM1.368 23L1.368 0.599998L-0.632 0.599998L-0.632 23H1.368ZM0.368 1.6L16.56 1.6V-0.400002L0.368 -0.400002V1.6ZM15.56 0.599998V1.24L17.56 1.24V0.599998L15.56 0.599998ZM16.56 0.24L5.264 0.24V2.24L16.56 2.24V0.24ZM4.264 1.24V11.32H6.264V1.24H4.264ZM5.264 12.32H14V10.32H5.264V12.32ZM13 11.32V11.96H15V11.32H13ZM14 10.96H5.264V12.96H14V10.96ZM4.264 11.96L4.264 22.36H6.264V11.96H4.264ZM38.71 0.599998V-0.400002L38.0556 -0.400002L37.7937 0.199619L38.71 0.599998ZM39.606 0.599998L40.5218 1.00164L41.1365 -0.400002H39.606V0.599998ZM29.782 23V24H30.4354L30.6978 23.4016L29.782 23ZM28.086 23L27.1697 23.4005L27.4318 24H28.086V23ZM18.294 0.599998V-0.400002H16.7655L17.3777 1.00054L18.294 0.599998ZM23.478 0.599998L24.3956 0.202438L24.1346 -0.400002L23.478 -0.400002V0.599998ZM31.062 18.104L30.1444 18.5016L31.0581 20.6104L31.9784 18.5044L31.062 18.104ZM38.71 1.6H39.606V-0.400002H38.71V1.6ZM38.6902 0.198356L28.8662 22.5984L30.6978 23.4016L40.5218 1.00164L38.6902 0.198356ZM29.782 22H28.086V24H29.782V22ZM29.0023 22.5995L19.2103 0.199454L17.3777 1.00054L27.1697 23.4005L29.0023 22.5995ZM18.294 1.6L23.478 1.6V-0.400002H18.294V1.6ZM22.5604 0.997559L30.1444 18.5016L31.9796 17.7064L24.3956 0.202438L22.5604 0.997559ZM31.9784 18.5044L39.6264 1.00038L37.7937 0.199619L30.1456 17.7036L31.9784 18.5044ZM47.1077 22.36H46.1077V23.36H47.1077V22.36ZM58.7238 22.36H59.7238V21.36H58.7238V22.36ZM58.7238 23V24H59.7238V23H58.7238ZM42.2118 23H41.2118V24H42.2118V23ZM42.2118 0.599998V-0.400002H41.2118V0.599998H42.2118ZM58.4038 0.599998H59.4038V-0.400002H58.4038V0.599998ZM58.4038 1.24V2.24H59.4038V1.24H58.4038ZM47.1077 1.24V0.24H46.1077V1.24L47.1077 1.24ZM47.1077 11.32H46.1077V12.32H47.1077V11.32ZM55.8438 11.32H56.8438V10.32H55.8438V11.32ZM55.8438 11.96V12.96H56.8438V11.96H55.8438ZM47.1077 11.96V10.96H46.1077V11.96H47.1077ZM47.1077 23.36L58.7238 23.36V21.36L47.1077 21.36V23.36ZM57.7238 22.36V23H59.7238V22.36H57.7238ZM58.7238 22L42.2118 22V24L58.7238 24V22ZM43.2118 23V0.599998H41.2118V23H43.2118ZM42.2118 1.6L58.4038 1.6V-0.400002L42.2118 -0.400002V1.6ZM57.4038 0.599998V1.24H59.4038V0.599998H57.4038ZM58.4038 0.24L47.1077 0.24V2.24H58.4038V0.24ZM46.1077 1.24V11.32H48.1077V1.24L46.1077 1.24ZM47.1077 12.32H55.8438V10.32H47.1077V12.32ZM54.8438 11.32V11.96H56.8438V11.32H54.8438ZM55.8438 10.96H47.1077V12.96H55.8438V10.96ZM46.1077 11.96V22.36H48.1077V11.96H46.1077ZM79.7217 20.568L80.6219 20.1324L80.6215 20.1316L79.7217 20.568ZM81.5458 23V24H84.7181L82.1192 22.1808L81.5458 23ZM76.2657 23L75.7318 23.8455L75.9764 24H76.2657V23ZM74.7937 21.144L73.8861 21.5639L73.8909 21.5739L74.7937 21.144ZM71.8177 14.712L72.7253 14.2921L72.719 14.2783L72.7122 14.2648L71.8177 14.712ZM70.3457 13.4L70.6875 12.4602L70.5219 12.4H70.3457V13.4ZM66.8577 13.4V12.4H65.8577V13.4H66.8577ZM66.8577 23V24H67.8577V23H66.8577ZM61.9618 23H60.9618V24H61.9618V23ZM61.9618 0.599998V-0.400002H60.9618V0.599998L61.9618 0.599998ZM73.0338 13.304L72.9068 12.3121L72.8644 14.2895L73.0338 13.304ZM77.6418 16.28L76.7279 16.6861L76.7347 16.7014L76.742 16.7164L77.6418 16.28ZM66.8577 1.24V0.24L65.8577 0.24V1.24H66.8577ZM66.8577 12.76H65.8577V13.76H66.8577V12.76ZM78.8216 21.0036C79.3288 22.0518 80.1246 23.2259 80.9723 23.8192L82.1192 22.1808C81.6869 21.8781 81.0747 21.0682 80.6219 20.1324L78.8216 21.0036ZM81.5458 22H76.2657V24H81.5458V22ZM76.7997 22.1545C76.4295 21.9207 75.9872 21.3242 75.6966 20.7141L73.8909 21.5739C74.2403 22.3078 74.886 23.3113 75.7318 23.8455L76.7997 22.1545ZM75.7013 20.7241L72.7253 14.2921L70.9102 15.1319L73.8862 21.5639L75.7013 20.7241ZM72.7122 14.2648C72.3194 13.4792 71.6515 12.8107 70.6875 12.4602L70.004 14.3398C70.448 14.5013 70.7401 14.7928 70.9233 15.1592L72.7122 14.2648ZM70.3457 12.4H66.8577V14.4H70.3457V12.4ZM65.8577 13.4V23H67.8577V13.4H65.8577ZM66.8577 22H61.9618V24H66.8577V22ZM62.9617 23V0.599998L60.9618 0.599998V23H62.9617ZM61.9618 1.6L71.4977 1.6V-0.400002L61.9618 -0.400002V1.6ZM71.4977 1.6C75.991 1.6 78.9137 4.08189 78.9137 7.032H80.9137C80.9137 2.49411 76.5405 -0.400002 71.4977 -0.400002V1.6ZM78.9137 7.032C78.9137 9.65749 76.6345 11.8349 72.9068 12.3121L73.1607 14.2959C77.433 13.7491 80.9137 11.0625 80.9137 7.032H78.9137ZM72.8644 14.2895C74.7766 14.6182 76.1597 15.4075 76.7279 16.6861L78.5556 15.8739C77.5878 13.6965 75.387 12.6938 73.2031 12.3185L72.8644 14.2895ZM76.742 16.7164L78.822 21.0044L80.6215 20.1316L78.5415 15.8436L76.742 16.7164ZM65.8577 1.24V12.76H67.8577V1.24L65.8577 1.24ZM66.8577 13.76H70.3457V11.76H66.8577V13.76ZM70.3457 13.76C72.0245 13.76 73.4511 13.0544 74.4349 11.8073C75.401 10.5827 75.8897 8.905 75.8897 7H73.8897C73.8897 8.583 73.4825 9.78535 72.8646 10.5687C72.2644 11.3296 71.419 11.76 70.3457 11.76V13.76ZM75.8897 7C75.8897 5.095 75.401 3.41735 74.4349 2.19266C73.4511 0.945579 72.0245 0.24 70.3457 0.24V2.24C71.419 2.24 72.2644 2.67042 72.8646 3.43134C73.4825 4.21465 73.8897 5.417 73.8897 7H75.8897ZM70.3457 0.24L66.8577 0.24V2.24L70.3457 2.24V0.24ZM100.563 0.599998V-0.400002H99.9973L99.706 0.0851602L100.563 0.599998ZM101.491 0.599998L102.346 1.1192L103.269 -0.400002H101.491V0.599998ZM93.7152 13.4L92.8606 12.8808L92.7152 13.1201V13.4H93.7152ZM93.7152 23V24H94.7152V23H93.7152ZM88.8193 23H87.8193V24H88.8193V23ZM88.8193 13.4H89.8193V13.121L89.6749 12.8824L88.8193 13.4ZM81.0752 0.599998V-0.400002H79.3015L80.2197 1.11764L81.0752 0.599998ZM86.3873 0.599998L87.2435 0.0834512L86.9519 -0.400002H86.3873V0.599998ZM93.4912 12.376L92.635 12.8925L93.4932 14.3151L94.3485 12.8908L93.4912 12.376ZM100.563 1.6H101.491V-0.400002H100.563V1.6ZM100.637 0.0807974L92.8606 12.8808L94.5699 13.9192L102.346 1.1192L100.637 0.0807974ZM92.7152 13.4V23H94.7152V13.4H92.7152ZM93.7152 22H88.8193V24H93.7152V22ZM89.8193 23V13.4H87.8193V23H89.8193ZM89.6749 12.8824L81.9308 0.0823606L80.2197 1.11764L87.9637 13.9176L89.6749 12.8824ZM81.0752 1.6L86.3873 1.6V-0.400002L81.0752 -0.400002V1.6ZM85.531 1.11655L92.635 12.8925L94.3475 11.8595L87.2435 0.0834512L85.531 1.11655ZM94.3485 12.8908L101.421 1.11484L99.706 0.0851602L92.634 11.8612L94.3485 12.8908ZM128.075 0.599998V-0.400002L127.075 -0.400002V0.599998H128.075ZM132.971 0.599998L133.971 0.599998V-0.400002H132.971V0.599998ZM132.971 23V24H133.971V23H132.971ZM128.075 23H127.075V24H128.075V23ZM128.075 11.96H129.075V10.96H128.075V11.96ZM117.483 11.96V10.96H116.483V11.96H117.483ZM117.483 23V24H118.483V23H117.483ZM112.587 23H111.587V24H112.587V23ZM112.587 0.599998V-0.400002H111.587V0.599998L112.587 0.599998ZM117.483 0.599998H118.483V-0.400002H117.483V0.599998ZM117.483 11.32H116.483V12.32H117.483V11.32ZM128.075 11.32V12.32H129.075V11.32H128.075ZM128.075 1.6H132.971V-0.400002H128.075V1.6ZM131.971 0.599998V23H133.971V0.599998L131.971 0.599998ZM132.971 22H128.075V24H132.971V22ZM129.075 23V11.96H127.075V23H129.075ZM128.075 10.96H117.483V12.96H128.075V10.96ZM116.483 11.96V23H118.483V11.96H116.483ZM117.483 22H112.587V24H117.483V22ZM113.587 23V0.599998L111.587 0.599998V23H113.587ZM112.587 1.6H117.483V-0.400002L112.587 -0.400002V1.6ZM116.483 0.599998V11.32H118.483V0.599998H116.483ZM117.483 12.32H128.075V10.32H117.483V12.32ZM129.075 11.32V0.599998L127.075 0.599998V11.32H129.075ZM148.496 22.32C142.196 22.32 137.528 17.7721 137.528 11.8H135.528C135.528 18.9479 141.164 24.32 148.496 24.32V22.32ZM137.528 11.8C137.528 5.82785 142.196 1.28 148.496 1.28V-0.720001C141.164 -0.720001 135.528 4.65215 135.528 11.8H137.528ZM148.496 1.28C154.796 1.28 159.464 5.82785 159.464 11.8H161.464C161.464 4.65215 155.828 -0.720001 148.496 -0.720001V1.28ZM159.464 11.8C159.464 17.7721 154.796 22.32 148.496 22.32V24.32C155.828 24.32 161.464 18.9479 161.464 11.8H159.464ZM148.496 23.68C150.975 23.68 153.004 22.3737 154.37 20.2391C155.719 18.1307 156.44 15.2056 156.44 11.8H154.44C154.44 14.9544 153.768 17.4693 152.685 19.1609C151.62 20.8263 150.177 21.68 148.496 21.68V23.68ZM156.44 11.8C156.44 8.39439 155.719 5.46932 154.37 3.36095C153.004 1.22625 150.975 -0.0800018 148.496 -0.0800018V1.92C150.177 1.92 151.62 2.77375 152.685 4.43905C153.768 6.13068 154.44 8.6456 154.44 11.8H156.44ZM148.496 -0.0800018C146.002 -0.0800018 143.972 1.22476 142.609 3.36221C141.263 5.47135 140.552 8.39655 140.552 11.8H142.552C142.552 8.64345 143.216 6.12865 144.295 4.43779C145.355 2.77524 146.797 1.92 148.496 1.92V-0.0800018ZM140.552 11.8C140.552 15.2035 141.263 18.1286 142.609 20.2378C143.972 22.3752 146.002 23.68 148.496 23.68V21.68C146.797 21.68 145.355 20.8248 144.295 19.1622C143.216 17.4713 142.552 14.9565 142.552 11.8H140.552ZM163.8 0.599998V-0.400002H162.8V0.599998L163.8 0.599998ZM168.696 0.599998H169.696V-0.400002H168.696V0.599998ZM182.296 0.599998V-0.400002H181.296V0.599998H182.296ZM183.064 0.599998H184.064V-0.400002H183.064V0.599998ZM174.04 22.32C171.283 22.32 168.97 21.4715 167.361 20.0538C165.764 18.6457 164.8 16.6262 164.8 14.136H162.8C162.8 17.1818 163.997 19.7543 166.039 21.5542C168.07 23.3445 170.878 24.32 174.04 24.32V22.32ZM164.8 14.136V0.599998L162.8 0.599998V14.136H164.8ZM163.8 1.6L168.696 1.6V-0.400002L163.8 -0.400002V1.6ZM167.696 0.599998V14.648H169.696V0.599998H167.696ZM167.696 14.648C167.696 17.0734 168.432 19.1414 169.843 20.6091C171.258 22.0807 173.255 22.848 175.576 22.848V20.848C173.705 20.848 172.262 20.2393 171.285 19.2229C170.304 18.2026 169.696 16.6706 169.696 14.648H167.696ZM175.576 22.848C177.871 22.848 179.832 22.0768 181.214 20.5992C182.59 19.1291 183.296 17.0637 183.296 14.648H181.296C181.296 16.6803 180.706 18.2149 179.754 19.2328C178.809 20.2432 177.41 20.848 175.576 20.848V22.848ZM183.296 14.648V0.599998H181.296V14.648H183.296ZM182.296 1.6H183.064V-0.400002H182.296V1.6ZM182.064 0.599998V14.808H184.064V0.599998H182.064ZM182.064 14.808C182.064 17.1465 181.309 18.9966 179.994 20.264C178.676 21.5344 176.69 22.32 174.04 22.32V24.32C177.087 24.32 179.612 23.4096 181.382 21.704C183.155 19.9954 184.064 17.5895 184.064 14.808H182.064ZM205.097 20.568L205.997 20.1324L205.996 20.1316L205.097 20.568ZM206.921 23V24H210.093L207.494 22.1808L206.921 23ZM201.641 23L201.107 23.8455L201.351 24H201.641V23ZM200.169 21.144L199.261 21.5639L199.266 21.5739L200.169 21.144ZM197.193 14.712L198.1 14.2921L198.094 14.2783L198.087 14.2648L197.193 14.712ZM195.721 13.4L196.062 12.4602L195.897 12.4H195.721V13.4ZM192.233 13.4V12.4H191.233V13.4H192.233ZM192.233 23V24H193.233V23H192.233ZM187.337 23H186.337V24H187.337V23ZM187.337 0.599998V-0.400002L186.337 -0.400002V0.599998H187.337ZM198.409 13.304L198.282 12.3121L198.239 14.2895L198.409 13.304ZM203.017 16.28L202.103 16.6861L202.11 16.7014L202.117 16.7164L203.017 16.28ZM192.233 1.24V0.24H191.233V1.24H192.233ZM192.233 12.76H191.233V13.76H192.233V12.76ZM204.197 21.0036C204.704 22.0518 205.5 23.2259 206.347 23.8192L207.494 22.1808C207.062 21.8781 206.45 21.0682 205.997 20.1324L204.197 21.0036ZM206.921 22H201.641V24H206.921V22ZM202.175 22.1545C201.804 21.9207 201.362 21.3242 201.072 20.7141L199.266 21.5739C199.615 22.3078 200.261 23.3113 201.107 23.8455L202.175 22.1545ZM201.076 20.7241L198.1 14.2921L196.285 15.1319L199.261 21.5639L201.076 20.7241ZM198.087 14.2648C197.694 13.4792 197.026 12.8107 196.062 12.4602L195.379 14.3398C195.823 14.5013 196.115 14.7928 196.298 15.1592L198.087 14.2648ZM195.721 12.4H192.233V14.4H195.721V12.4ZM191.233 13.4V23H193.233V13.4H191.233ZM192.233 22H187.337V24H192.233V22ZM188.337 23V0.599998L186.337 0.599998V23H188.337ZM187.337 1.6L196.873 1.6V-0.400002L187.337 -0.400002V1.6ZM196.873 1.6C201.366 1.6 204.289 4.08189 204.289 7.032H206.289C206.289 2.49411 201.916 -0.400002 196.873 -0.400002V1.6ZM204.289 7.032C204.289 9.65749 202.01 11.8349 198.282 12.3121L198.536 14.2959C202.808 13.7491 206.289 11.0625 206.289 7.032H204.289ZM198.239 14.2895C200.152 14.6182 201.535 15.4075 202.103 16.6861L203.931 15.8739C202.963 13.6965 200.762 12.6938 198.578 12.3185L198.239 14.2895ZM202.117 16.7164L204.197 21.0044L205.996 20.1316L203.916 15.8436L202.117 16.7164ZM191.233 1.24V12.76H193.233V1.24H191.233ZM192.233 13.76H195.721V11.76H192.233V13.76ZM195.721 13.76C197.399 13.76 198.826 13.0544 199.81 11.8073C200.776 10.5827 201.265 8.905 201.265 7H199.265C199.265 8.583 198.858 9.78535 198.24 10.5687C197.639 11.3296 196.794 11.76 195.721 11.76V13.76ZM201.265 7C201.265 5.095 200.776 3.41735 199.81 2.19266C198.826 0.945579 197.399 0.24 195.721 0.24V2.24C196.794 2.24 197.639 2.67042 198.24 3.43134C198.858 4.21465 199.265 5.417 199.265 7H201.265ZM195.721 0.24L192.233 0.24V2.24L195.721 2.24V0.24Z" fill="white" mask="url(#path-1-outside-1_654_2374)"/>
</svg>
