<svg width="530" height="60" viewBox="0 0 530 60" fill="none" xmlns="http://www.w3.org/2000/svg">
<mask id="path-1-outside-1_1671_3499" maskUnits="userSpaceOnUse" x="-2" y="-1" width="536" height="63" fill="black">
<rect fill="white" x="-2" y="-1" width="536" height="63"/>
<path d="M12.614 57.36H42.38V59H0.0680001V1.6H41.56V3.24H12.614V29.07H35V30.71H12.614V57.36ZM98.3194 1.6H100.615L75.4414 59H71.0954L46.0034 1.6H59.2874L78.7214 46.454L98.3194 1.6ZM119.839 57.36H149.605V59H107.293V1.6H148.785V3.24H119.839V29.07H142.225V30.71H119.839V57.36ZM203.412 52.768C204.642 55.31 206.446 57.852 208.086 59H194.556C192.998 58.016 191.604 55.966 190.784 54.244L183.158 37.762C182.42 36.286 181.19 35.056 179.386 34.4H170.448V59H157.902V1.6H182.338C194.556 1.6 203.904 8.488 203.904 18.082C203.904 26.61 196.524 32.842 186.274 34.154C191.522 35.056 196.114 37.352 198.082 41.78L203.412 52.768ZM170.448 3.24V32.76H179.386C186.438 32.76 191.03 26.938 191.03 18C191.03 9.062 186.438 3.24 179.386 3.24H170.448ZM256.818 1.6H259.196L239.27 34.4V59H226.724V34.4L206.88 1.6H220.492L238.696 31.776L256.818 1.6ZM327.317 1.6H339.863V59H327.317V30.71H300.175V59H287.629V1.6H300.175V29.07H327.317V1.6ZM379.645 59.82C362.179 59.82 348.977 47.11 348.977 30.3C348.977 13.49 362.179 0.779997 379.645 0.779997C397.111 0.779997 410.313 13.49 410.313 30.3C410.313 47.11 397.111 59.82 379.645 59.82ZM379.645 58.18C390.305 58.18 397.439 47.11 397.439 30.3C397.439 13.49 390.305 2.42 379.645 2.42C368.903 2.42 361.851 13.49 361.851 30.3C361.851 47.11 368.903 58.18 379.645 58.18ZM445.103 59.82C429.933 59.82 418.863 50.472 418.863 36.286V1.6H431.409V37.598C431.409 48.996 438.297 56.048 449.039 56.048C459.617 56.048 466.259 48.996 466.259 37.598V1.6H468.227V38.008C468.227 51.128 459.699 59.82 445.103 59.82ZM524.685 52.768C525.915 55.31 527.719 57.852 529.359 59H515.829C514.271 58.016 512.877 55.966 512.057 54.244L504.431 37.762C503.693 36.286 502.463 35.056 500.659 34.4H491.721V59H479.175V1.6H503.611C515.829 1.6 525.177 8.488 525.177 18.082C525.177 26.61 517.797 32.842 507.547 34.154C512.795 35.056 517.387 37.352 519.355 41.78L524.685 52.768ZM491.721 3.24V32.76H500.659C507.711 32.76 512.303 26.938 512.303 18C512.303 9.062 507.711 3.24 500.659 3.24H491.721Z"/>
</mask>
<path d="M12.614 57.36H11.3285V58.6455H12.614V57.36ZM42.38 57.36H43.6655V56.0745H42.38V57.36ZM42.38 59V60.2855H43.6655V59H42.38ZM0.0679998 59H-1.21746V60.2855H0.0679998V59ZM0.0679998 1.6V0.314538H-1.21746V1.6H0.0679998ZM41.56 1.6H42.8455V0.314538H41.56V1.6ZM41.56 3.24V4.52546H42.8455V3.24H41.56ZM12.614 3.24V1.95454H11.3285V3.24H12.614ZM12.614 29.07H11.3285V30.3555H12.614V29.07ZM35 29.07H36.2855V27.7845H35V29.07ZM35 30.71V31.9955H36.2855V30.71H35ZM12.614 30.71V29.4245H11.3285V30.71H12.614ZM12.614 58.6455H42.38V56.0745H12.614V58.6455ZM41.0945 57.36V59H43.6655V57.36H41.0945ZM42.38 57.7145H0.0679998V60.2855H42.38V57.7145ZM1.35346 59V1.6H-1.21746V59H1.35346ZM0.0679998 2.88545H41.56V0.314538H0.0679998V2.88545ZM40.2745 1.6V3.24H42.8455V1.6H40.2745ZM41.56 1.95454H12.614V4.52546H41.56V1.95454ZM11.3285 3.24V29.07H13.8995V3.24H11.3285ZM12.614 30.3555H35V27.7845H12.614V30.3555ZM33.7145 29.07V30.71H36.2855V29.07H33.7145ZM35 29.4245H12.614V31.9955H35V29.4245ZM11.3285 30.71V57.36H13.8995V30.71H11.3285ZM98.3194 1.6V0.314538H97.4782L97.1414 1.08533L98.3194 1.6ZM100.615 1.6L101.793 2.11629L102.583 0.314538H100.615V1.6ZM75.4414 59V60.2855H76.2813L76.6186 59.5163L75.4414 59ZM71.0954 59L69.9175 59.5149L70.2544 60.2855H71.0954V59ZM46.0034 1.6V0.314538H44.0385L44.8255 2.11488L46.0034 1.6ZM59.2874 1.6L60.4669 1.08895L60.1313 0.314538H59.2874V1.6ZM78.7214 46.454L77.5419 46.965L78.7164 49.6759L79.8993 46.9687L78.7214 46.454ZM98.3194 2.88545H100.615V0.314538H98.3194V2.88545ZM99.4382 1.0837L74.2642 58.4837L76.6186 59.5163L101.793 2.11629L99.4382 1.0837ZM75.4414 57.7145H71.0954V60.2855H75.4414V57.7145ZM72.2732 58.4851L47.1812 1.08511L44.8255 2.11488L69.9175 59.5149L72.2732 58.4851ZM46.0034 2.88545H59.2874V0.314538H46.0034V2.88545ZM58.1079 2.11104L77.5419 46.965L79.9009 45.943L60.4669 1.08895L58.1079 2.11104ZM79.8993 46.9687L99.4973 2.11467L97.1414 1.08533L77.5434 45.9393L79.8993 46.9687ZM119.839 57.36H118.553V58.6455H119.839V57.36ZM149.605 57.36H150.89V56.0745H149.605V57.36ZM149.605 59V60.2855H150.89V59H149.605ZM107.293 59H106.007V60.2855H107.293V59ZM107.293 1.6V0.314538H106.007V1.6H107.293ZM148.785 1.6H150.07V0.314538H148.785V1.6ZM148.785 3.24V4.52546H150.07V3.24H148.785ZM119.839 3.24V1.95454H118.553V3.24H119.839ZM119.839 29.07H118.553V30.3555H119.839V29.07ZM142.225 29.07H143.51V27.7845H142.225V29.07ZM142.225 30.71V31.9955H143.51V30.71H142.225ZM119.839 30.71V29.4245H118.553V30.71H119.839ZM119.839 58.6455H149.605V56.0745H119.839V58.6455ZM148.319 57.36V59H150.89V57.36H148.319ZM149.605 57.7145H107.293V60.2855H149.605V57.7145ZM108.578 59V1.6H106.007V59H108.578ZM107.293 2.88545H148.785V0.314538H107.293V2.88545ZM147.499 1.6V3.24H150.07V1.6H147.499ZM148.785 1.95454H119.839V4.52546H148.785V1.95454ZM118.553 3.24V29.07H121.124V3.24H118.553ZM119.839 30.3555H142.225V27.7845H119.839V30.3555ZM140.939 29.07V30.71H143.51V29.07H140.939ZM142.225 29.4245H119.839V31.9955H142.225V29.4245ZM118.553 30.71V57.36H121.124V30.71H118.553ZM203.412 52.768L204.569 52.2081L204.569 52.207L203.412 52.768ZM208.086 59V60.2855H212.164L208.823 57.9469L208.086 59ZM194.556 59L193.87 60.0868L194.184 60.2855H194.556V59ZM190.784 54.244L189.617 54.7838L189.62 54.7902L189.623 54.7967L190.784 54.244ZM183.158 37.762L184.325 37.2222L184.316 37.2045L184.308 37.1871L183.158 37.762ZM179.386 34.4L179.825 33.1919L179.612 33.1145H179.386V34.4ZM170.448 34.4V33.1145H169.163V34.4H170.448ZM170.448 59V60.2855H171.733V59H170.448ZM157.902 59H156.617V60.2855H157.902V59ZM157.902 1.6V0.314538H156.617V1.6H157.902ZM186.274 34.154L186.111 32.8789L186.056 35.4209L186.274 34.154ZM198.082 41.78L196.907 42.3021L196.916 42.3217L196.925 42.341L198.082 41.78ZM170.448 3.24V1.95454H169.163V3.24H170.448ZM170.448 32.76H169.163V34.0455H170.448V32.76ZM202.255 53.3279C203.52 55.9422 205.442 58.7182 207.349 60.0531L208.823 57.9469C207.45 56.9858 205.764 54.6778 204.569 52.2081L202.255 53.3279ZM208.086 57.7145H194.556V60.2855H208.086V57.7145ZM195.242 57.9132C193.99 57.1222 192.727 55.3338 191.945 53.6913L189.623 54.7967C190.481 56.5982 192.006 58.9098 193.87 60.0868L195.242 57.9132ZM191.951 53.7042L184.325 37.2222L181.991 38.3018L189.617 54.7838L191.951 53.7042ZM184.308 37.1871C183.435 35.4417 181.963 33.9694 179.825 33.1919L178.947 35.6081C180.417 36.1425 181.405 37.1303 182.008 38.3369L184.308 37.1871ZM179.386 33.1145H170.448V35.6855H179.386V33.1145ZM169.163 34.4V59H171.733V34.4H169.163ZM170.448 57.7145H157.902V60.2855H170.448V57.7145ZM159.187 59V1.6H156.617V59H159.187ZM157.902 2.88545H182.338V0.314538H157.902V2.88545ZM182.338 2.88545C194.203 2.88545 202.619 9.50851 202.619 18.082H205.189C205.189 7.46748 194.909 0.314538 182.338 0.314538V2.88545ZM202.619 18.082C202.619 25.7069 196.011 31.6117 186.111 32.8789L186.437 35.4291C197.037 34.0723 205.189 27.5131 205.189 18.082H202.619ZM186.056 35.4209C191.13 36.2929 195.196 38.4517 196.907 42.3021L199.257 41.2579C197.032 36.2523 191.914 33.8191 186.492 32.8871L186.056 35.4209ZM196.925 42.341L202.255 53.329L204.569 52.207L199.239 41.219L196.925 42.341ZM169.163 3.24V32.76H171.733V3.24H169.163ZM170.448 34.0455H179.386V31.4745H170.448V34.0455ZM179.386 34.0455C183.301 34.0455 186.586 32.4131 188.862 29.5279C191.115 26.6714 192.315 22.676 192.315 18H189.745C189.745 22.262 188.649 25.6465 186.843 27.9356C185.06 30.1959 182.523 31.4745 179.386 31.4745V34.0455ZM192.315 18C192.315 13.324 191.115 9.32855 188.862 6.47211C186.586 3.58689 183.301 1.95454 179.386 1.95454V4.52546C182.523 4.52546 185.06 5.8041 186.843 8.06438C188.649 10.3534 189.745 13.738 189.745 18H192.315ZM179.386 1.95454H170.448V4.52546H179.386V1.95454ZM256.818 1.6V0.314538H256.091L255.716 0.938193L256.818 1.6ZM259.196 1.6L260.295 2.26741L261.481 0.314538H259.196V1.6ZM239.27 34.4L238.172 33.7326L237.985 34.0401V34.4H239.27ZM239.27 59V60.2855H240.556V59H239.27ZM226.724 59H225.439V60.2855H226.724V59ZM226.724 34.4H228.01V34.0414L227.824 33.7346L226.724 34.4ZM206.88 1.6V0.314538H204.6L205.78 2.2654L206.88 1.6ZM220.492 1.6L221.593 0.935996L221.218 0.314538H220.492V1.6ZM238.696 31.776L237.596 32.44L238.699 34.2687L239.798 32.4378L238.696 31.776ZM256.818 2.88545H259.196V0.314538H256.818V2.88545ZM258.098 0.932585L238.172 33.7326L240.369 35.0674L260.295 2.26741L258.098 0.932585ZM237.985 34.4V59H240.556V34.4H237.985ZM239.27 57.7145H226.724V60.2855H239.27V57.7145ZM228.01 59V34.4H225.439V59H228.01ZM227.824 33.7346L207.98 0.934594L205.78 2.2654L225.624 35.0654L227.824 33.7346ZM206.88 2.88545H220.492V0.314538H206.88V2.88545ZM219.392 2.264L237.596 32.44L239.797 31.112L221.593 0.935996L219.392 2.264ZM239.798 32.4378L257.92 2.2618L255.716 0.938193L237.594 31.1142L239.798 32.4378ZM327.317 1.6V0.314538H326.031V1.6H327.317ZM339.863 1.6H341.148V0.314538H339.863V1.6ZM339.863 59V60.2855H341.148V59H339.863ZM327.317 59H326.031V60.2855H327.317V59ZM327.317 30.71H328.602V29.4245H327.317V30.71ZM300.175 30.71V29.4245H298.889V30.71H300.175ZM300.175 59V60.2855H301.46V59H300.175ZM287.629 59H286.343V60.2855H287.629V59ZM287.629 1.6V0.314538H286.343V1.6H287.629ZM300.175 1.6H301.46V0.314538H300.175V1.6ZM300.175 29.07H298.889V30.3555H300.175V29.07ZM327.317 29.07V30.3555H328.602V29.07H327.317ZM327.317 2.88545H339.863V0.314538H327.317V2.88545ZM338.577 1.6V59H341.148V1.6H338.577ZM339.863 57.7145H327.317V60.2855H339.863V57.7145ZM328.602 59V30.71H326.031V59H328.602ZM327.317 29.4245H300.175V31.9955H327.317V29.4245ZM298.889 30.71V59H301.46V30.71H298.889ZM300.175 57.7145H287.629V60.2855H300.175V57.7145ZM288.914 59V1.6H286.343V59H288.914ZM287.629 2.88545H300.175V0.314538H287.629V2.88545ZM298.889 1.6V29.07H301.46V1.6H298.889ZM300.175 30.3555H327.317V27.7845H300.175V30.3555ZM328.602 29.07V1.6H326.031V29.07H328.602ZM379.645 58.5345C362.843 58.5345 350.263 46.3543 350.263 30.3H347.692C347.692 47.8657 361.516 61.1055 379.645 61.1055V58.5345ZM350.263 30.3C350.263 14.2457 362.843 2.06545 379.645 2.06545V-0.505461C361.516 -0.505461 347.692 12.7343 347.692 30.3H350.263ZM379.645 2.06545C396.448 2.06545 409.028 14.2457 409.028 30.3H411.599C411.599 12.7343 397.775 -0.505461 379.645 -0.505461V2.06545ZM409.028 30.3C409.028 46.3543 396.448 58.5345 379.645 58.5345V61.1055C397.775 61.1055 411.599 47.8657 411.599 30.3H409.028ZM379.645 59.4655C385.488 59.4655 390.313 56.4071 393.623 51.2367C396.91 46.1001 398.725 38.8665 398.725 30.3H396.154C396.154 38.5435 394.402 45.2499 391.457 49.8508C388.534 54.4179 384.462 56.8945 379.645 56.8945V59.4655ZM398.725 30.3C398.725 21.7335 396.91 14.4999 393.623 9.36332C390.313 4.19287 385.488 1.13454 379.645 1.13454V3.70545C384.462 3.70545 388.534 6.18212 391.457 10.7492C394.402 15.3501 396.154 22.0565 396.154 30.3H398.725ZM379.645 1.13454C373.764 1.13454 368.937 4.19096 365.636 9.36494C362.359 14.5025 360.566 21.7363 360.566 30.3H363.137C363.137 22.0537 364.87 15.3475 367.804 10.7476C370.715 6.18403 374.785 3.70545 379.645 3.70545V1.13454ZM360.566 30.3C360.566 38.8637 362.359 46.0975 365.636 51.2351C368.937 56.409 373.764 59.4655 379.645 59.4655V56.8945C374.785 56.8945 370.715 54.416 367.804 49.8524C364.87 45.2525 363.137 38.5463 363.137 30.3H360.566ZM418.863 1.6V0.314538H417.578V1.6H418.863ZM431.409 1.6H432.695V0.314538H431.409V1.6ZM466.259 1.6V0.314538H464.974V1.6H466.259ZM468.227 1.6H469.513V0.314538H468.227V1.6ZM445.103 58.5345C437.778 58.5345 431.536 56.2792 427.144 52.4084C422.766 48.55 420.149 43.0219 420.149 36.286H417.578C417.578 43.7361 420.495 49.975 425.444 54.3371C430.38 58.6868 437.258 61.1055 445.103 61.1055V58.5345ZM420.149 36.286V1.6H417.578V36.286H420.149ZM418.863 2.88545H431.409V0.314538H418.863V2.88545ZM430.124 1.6V37.598H432.695V1.6H430.124ZM430.124 37.598C430.124 43.5559 431.928 48.5129 435.269 51.9882C438.615 55.4686 443.379 57.3335 449.039 57.3335V54.7625C443.957 54.7625 439.906 53.1014 437.123 50.2063C434.334 47.3061 432.695 43.0381 432.695 37.598H430.124ZM449.039 57.3335C454.624 57.3335 459.291 55.4635 462.555 51.9755C465.809 48.4971 467.545 43.5434 467.545 37.598H464.974C464.974 43.0506 463.388 47.3219 460.677 50.219C457.975 53.1065 454.032 54.7625 449.039 54.7625V57.3335ZM467.545 37.598V1.6H464.974V37.598H467.545ZM466.259 2.88545H468.227V0.314538H466.259V2.88545ZM466.942 1.6V38.008H469.513V1.6H466.942ZM466.942 38.008C466.942 44.2832 464.909 49.379 461.247 52.9084C457.58 56.4417 452.146 58.5345 445.103 58.5345V61.1055C452.656 61.1055 458.784 58.8523 463.031 54.7596C467.281 50.663 469.513 44.8528 469.513 38.008H466.942ZM524.685 52.768L525.843 52.2081L525.842 52.207L524.685 52.768ZM529.359 59V60.2855H533.437L530.097 57.9469L529.359 59ZM515.829 59L515.143 60.0868L515.457 60.2855H515.829V59ZM512.057 54.244L510.891 54.7838L510.894 54.7902L510.897 54.7967L512.057 54.244ZM504.431 37.762L505.598 37.2222L505.59 37.2045L505.581 37.1871L504.431 37.762ZM500.659 34.4L501.099 33.1919L500.886 33.1145H500.659V34.4ZM491.721 34.4V33.1145H490.436V34.4H491.721ZM491.721 59V60.2855H493.007V59H491.721ZM479.175 59H477.89V60.2855H479.175V59ZM479.175 1.6V0.314538H477.89V1.6H479.175ZM507.547 34.154L507.384 32.8789L507.33 35.4209L507.547 34.154ZM519.355 41.78L518.181 42.3021L518.189 42.3217L518.199 42.341L519.355 41.78ZM491.721 3.24V1.95454H490.436V3.24H491.721ZM491.721 32.76H490.436V34.0455H491.721V32.76ZM523.528 53.3279C524.793 55.9422 526.715 58.7182 528.622 60.0531L530.097 57.9469C528.724 56.9858 527.038 54.6778 525.843 52.2081L523.528 53.3279ZM529.359 57.7145H515.829V60.2855H529.359V57.7145ZM516.516 57.9132C515.263 57.1222 514 55.3338 513.218 53.6913L510.897 54.7967C511.755 56.5982 513.279 58.9098 515.143 60.0868L516.516 57.9132ZM513.224 53.7042L505.598 37.2222L503.265 38.3018L510.891 54.7838L513.224 53.7042ZM505.581 37.1871C504.708 35.4417 503.237 33.9694 501.099 33.1919L500.22 35.6081C501.69 36.1425 502.678 37.1303 503.282 38.3369L505.581 37.1871ZM500.659 33.1145H491.721V35.6855H500.659V33.1145ZM490.436 34.4V59H493.007V34.4H490.436ZM491.721 57.7145H479.175V60.2855H491.721V57.7145ZM480.461 59V1.6H477.89V59H480.461ZM479.175 2.88545H503.611V0.314538H479.175V2.88545ZM503.611 2.88545C515.476 2.88545 523.892 9.50851 523.892 18.082H526.463C526.463 7.46748 516.183 0.314538 503.611 0.314538V2.88545ZM523.892 18.082C523.892 25.7069 517.284 31.6117 507.384 32.8789L507.711 35.4291C518.311 34.0723 526.463 27.5131 526.463 18.082H523.892ZM507.33 35.4209C512.403 36.2929 516.469 38.4517 518.181 42.3021L520.53 41.2579C518.305 36.2523 513.188 33.8191 507.765 32.8871L507.33 35.4209ZM518.199 42.341L523.529 53.329L525.842 52.207L520.512 41.219L518.199 42.341ZM490.436 3.24V32.76H493.007V3.24H490.436ZM491.721 34.0455H500.659V31.4745H491.721V34.0455ZM500.659 34.0455C504.575 34.0455 507.859 32.4131 510.135 29.5279C512.388 26.6714 513.589 22.676 513.589 18H511.018C511.018 22.262 509.922 25.6465 508.117 27.9356C506.334 30.1959 503.796 31.4745 500.659 31.4745V34.0455ZM513.589 18C513.589 13.324 512.388 9.32855 510.135 6.47211C507.859 3.58689 504.575 1.95454 500.659 1.95454V4.52546C503.796 4.52546 506.334 5.8041 508.117 8.06438C509.922 10.3534 511.018 13.738 511.018 18H513.589ZM500.659 1.95454H491.721V4.52546H500.659V1.95454Z" fill="#EFEFEF" mask="url(#path-1-outside-1_1671_3499)"/>
</svg>
