<svg width="334" height="38" viewBox="0 0 334 38" fill="none" xmlns="http://www.w3.org/2000/svg">
<path fill-rule="evenodd" clip-rule="evenodd" d="M334 37.4893H321.401L321.249 37.3956C320.734 37.0769 320.239 36.5278 319.829 35.9621C319.41 35.3851 319.039 34.7334 318.788 34.154L318.786 34.1494L318.784 34.1448L314.353 23.435C314.194 23.1015 314.019 22.8381 313.793 22.6331C313.58 22.4401 313.297 22.2761 312.886 22.1695H309.715V37.4893H298.769V0.51062H315.439C323.442 0.51062 329.891 4.86742 329.891 11.4422C329.891 16.3615 326.24 19.932 321.044 21.4165C323.705 22.2536 326.013 23.8284 327.057 26.4258C327.058 26.4281 327.059 26.4303 327.06 26.4326L329.739 32.7538C330.061 33.5139 330.468 34.2814 330.913 34.9322C331.364 35.5926 331.824 36.0896 332.239 36.3564L334 37.4893ZM319.824 21.7205C319.235 21.5818 318.63 21.4757 318.019 21.4001C318.64 21.3227 319.244 21.2187 319.829 21.0894C325.42 19.853 329.268 16.2963 329.268 11.4422C329.268 5.36531 323.282 1.12683 315.439 1.12683H299.391V36.8731H309.092V21.5533H312.962C314.046 21.8086 314.562 22.4214 314.923 23.1874L319.361 33.9113C319.825 34.9836 320.754 36.3624 321.579 36.8731H331.899C331.657 36.7169 331.414 36.5071 331.176 36.2569C330.402 35.4433 329.678 34.2028 329.165 32.9921L326.481 26.6599C325.404 23.9722 322.813 22.425 319.824 21.7205ZM309.092 20.5319V2.14815H313.065C316.884 2.14815 319.361 5.77384 319.361 11.34C319.361 16.9062 316.884 20.5319 313.065 20.5319H309.092ZM309.715 2.76436V19.9157H313.065C314.747 19.9157 316.136 19.1291 317.129 17.6778C318.135 16.2077 318.738 14.0423 318.738 11.34C318.738 8.63781 318.135 6.47236 317.129 5.00232C316.136 3.55101 314.747 2.76436 313.065 2.76436H309.715Z" fill="#7C0021"/>
<path fill-rule="evenodd" clip-rule="evenodd" d="M261.572 0.51062H272.518V23.5448C272.518 26.8771 273.477 29.4961 275.151 31.2766C276.819 33.0517 279.261 34.061 282.37 34.061C285.37 34.061 287.733 33.056 289.352 31.2831C290.977 29.5028 291.913 26.8812 291.913 23.5448V0.51062H294.397V23.8512C294.397 28.0717 293.021 31.6278 290.379 34.1269C287.741 36.6234 283.909 38 279.119 38C274.146 38 269.763 36.5073 266.614 33.8366C263.456 31.1592 261.572 27.3239 261.572 22.7278V0.51062ZM262.194 22.7278C262.194 31.5622 269.418 37.3838 279.119 37.3838C288.459 37.3838 293.774 32.0218 293.774 23.8512V1.12683H292.535V23.5448C292.535 30.4388 288.665 34.6772 282.37 34.6772C275.869 34.6772 271.895 30.4388 271.895 23.5448V1.12683H262.194V22.7278Z" fill="#7C0021"/>
<path fill-rule="evenodd" clip-rule="evenodd" d="M238.233 38C226.774 38 218.054 29.8382 218.054 19C218.054 8.16184 226.774 0 238.233 0C249.692 0 258.412 8.16184 258.412 19C258.412 29.8382 249.692 38 238.233 38ZM244.68 31.3093C246.302 28.398 247.26 24.1701 247.26 19C247.26 13.8299 246.302 9.60205 244.68 6.69067C243.062 3.7888 240.828 2.25373 238.233 2.25373C235.638 2.25373 233.404 3.7888 231.786 6.69067C230.164 9.60205 229.206 13.8299 229.206 19C229.206 24.1701 230.164 28.398 231.786 31.3093C233.404 34.2112 235.638 35.7463 238.233 35.7463C240.828 35.7463 243.062 34.2112 244.68 31.3093ZM218.676 19C218.676 29.4685 227.087 37.3838 238.233 37.3838C249.379 37.3838 257.79 29.4685 257.79 19C257.79 8.53145 249.379 0.616206 238.233 0.616206C227.087 0.616206 218.676 8.53145 218.676 19ZM247.882 19C247.882 29.4685 244.012 36.3625 238.233 36.3625C232.454 36.3625 228.584 29.4685 228.584 19C228.584 8.53145 232.454 1.63753 238.233 1.63753C244.012 1.63753 247.882 8.53145 247.882 19Z" fill="#7C0021"/>
<path fill-rule="evenodd" clip-rule="evenodd" d="M203.599 0.51062H214.545V37.4893H203.599V19.8715H190.086V37.4893H179.14V0.51062H190.086V17.6178H203.599V0.51062ZM204.221 18.234H189.464V1.12683H179.763V36.8731H189.464V19.2553H204.221V36.8731H213.922V1.12683H204.221V18.234Z" fill="#7C0021"/>
<path fill-rule="evenodd" clip-rule="evenodd" d="M161.391 0.51062H164.326L152.005 21.7178V37.4893H141.059V21.7178L128.737 0.51062H140.65L151.021 18.5699L161.391 0.51062ZM151.021 19.817L140.288 1.12683H129.813L141.681 21.5533V36.8731H151.382V21.5533L163.25 1.12683H161.754L151.021 19.817Z" fill="#7C0021"/>
<path fill-rule="evenodd" clip-rule="evenodd" d="M133.645 37.4893H121.046L120.894 37.3956C120.379 37.0769 119.884 36.5278 119.474 35.9621C119.055 35.3851 118.684 34.7334 118.433 34.154L118.431 34.1494L113.998 23.435C113.839 23.1015 113.664 22.8381 113.438 22.6331C113.225 22.4401 112.942 22.2761 112.531 22.1695H109.36V37.4893H98.4136V0.51062H115.084C123.087 0.51062 129.536 4.86742 129.536 11.4422C129.536 16.3615 125.885 19.932 120.689 21.4165C123.35 22.2537 125.659 23.8289 126.703 26.427C126.704 26.4289 126.704 26.4307 126.705 26.4326L129.384 32.7538C129.706 33.5139 130.113 34.2814 130.558 34.9322C131.009 35.5926 131.469 36.0896 131.884 36.3564L133.645 37.4893ZM126.126 26.6599C125.049 23.9722 122.458 22.425 119.469 21.7205C118.88 21.5818 118.275 21.4757 117.664 21.4001C118.285 21.3227 118.889 21.2187 119.474 21.0894C125.065 19.853 128.913 16.2963 128.913 11.4422C128.913 5.36531 122.927 1.12683 115.084 1.12683H99.0362V36.8731H108.737V21.5533H112.607C113.691 21.8086 114.207 22.4214 114.568 23.1874L119.006 33.9113C119.47 34.9836 120.399 36.3624 121.224 36.8731H131.545C131.302 36.7169 131.059 36.5071 130.821 36.2569C130.047 35.4433 129.323 34.2028 128.81 32.9921L126.126 26.6599ZM108.737 20.5319V2.14815H112.71C116.529 2.14815 119.006 5.77384 119.006 11.34C119.006 16.9062 116.529 20.5319 112.71 20.5319H108.737ZM109.36 2.76436V19.9157H112.71C114.392 19.9157 115.781 19.1291 116.774 17.6778C117.78 16.2077 118.383 14.0423 118.383 11.34C118.383 8.63781 117.78 6.47236 116.774 5.00232C115.781 3.55101 114.392 2.76436 112.71 2.76436H109.36Z" fill="#7C0021"/>
<path fill-rule="evenodd" clip-rule="evenodd" d="M95.4111 35.2356V37.4893H66.8691V0.51062H94.8951V2.76436H77.8153V17.6178H90.767V19.8715H77.8153V35.2356H95.4111ZM77.1927 35.8518V19.2553H90.1444V18.234H77.1927V2.14815H94.2724V1.12683H67.4918V36.8731H94.7884V35.8518H77.1927Z" fill="#7C0021"/>
<path fill-rule="evenodd" clip-rule="evenodd" d="M62.4107 0.51062H65.2156L48.8281 37.4893H44.8663L28.5322 0.51062H40.1618L51.2116 25.8295L62.4107 0.51062ZM51.2078 27.3748L39.7525 1.12683H29.484L45.2737 36.8731H48.4213L64.2627 1.12683H62.8178L51.2078 27.3748Z" fill="#7C0021"/>
<path fill-rule="evenodd" clip-rule="evenodd" d="M28.5419 35.2356V37.4893H0V0.51062H28.0259V2.76436H10.9462V17.6178H23.8979V19.8715H10.9462V35.2356H28.5419ZM10.3235 35.8518V19.2553H23.2752V18.234H10.3235V2.14815H27.4033V1.12683H0.622654V36.8731H27.9193V35.8518H10.3235Z" fill="#7C0021"/>
</svg>
