<svg width="592" height="69" viewBox="0 0 592 69" fill="none" xmlns="http://www.w3.org/2000/svg">
<path fill-rule="evenodd" clip-rule="evenodd" d="M591.609 67.1018H569.314L569.046 66.9344C568.134 66.3645 567.258 65.3826 566.532 64.371C565.791 63.3392 565.135 62.1739 564.691 61.1379L564.687 61.1297L564.684 61.1214L556.841 41.971C556.561 41.3747 556.25 40.9036 555.851 40.537C555.474 40.192 554.974 39.8986 554.246 39.708H548.634V67.1018H529.264V0.979248H558.764C572.925 0.979248 584.337 8.76975 584.337 20.5263C584.337 29.3226 577.878 35.7072 568.682 38.3616C573.391 39.8584 577.476 42.6744 579.324 47.3189C579.326 47.3229 579.327 47.327 579.329 47.331L584.069 58.6341C584.639 59.9933 585.359 61.3657 586.146 62.5294C586.944 63.7102 587.759 64.5989 588.493 65.0761L591.609 67.1018ZM566.523 38.9053C565.481 38.6571 564.411 38.4675 563.329 38.3322C564.428 38.1939 565.497 38.008 566.532 37.7767C576.426 35.5658 583.236 29.206 583.236 20.5263C583.236 9.66006 572.643 2.0811 558.764 2.0811H530.366V66H547.532V38.6062H554.381C556.298 39.0627 557.211 40.1585 557.851 41.5282L565.704 60.7038C566.525 62.6214 568.169 65.0869 569.63 66H587.893C587.463 65.7208 587.033 65.3456 586.612 64.8981C585.242 63.4434 583.961 61.2251 583.053 59.0602L578.305 47.7374C576.398 42.9315 571.814 40.1649 566.523 38.9053ZM547.532 36.7799V3.90736H554.563C561.321 3.90736 565.704 10.3906 565.704 20.3436C565.704 30.2967 561.321 36.7799 554.563 36.7799H547.532ZM548.634 5.00921V35.6781H554.563C557.538 35.6781 559.997 34.2714 561.755 31.6763C563.535 29.0477 564.602 25.1756 564.602 20.3436C564.602 15.5117 563.535 11.6396 561.755 9.01099C559.997 6.41585 557.538 5.00921 554.563 5.00921H548.634Z" fill="#7C0021"/>
<path fill-rule="evenodd" clip-rule="evenodd" d="M463.439 0.979248H482.81V42.1674C482.81 48.1258 484.507 52.8089 487.469 55.9927C490.421 59.1668 494.743 60.9717 500.245 60.9717C505.553 60.9717 509.734 59.1745 512.599 56.0044C515.476 52.8209 517.131 48.1332 517.131 42.1674V0.979248H521.527V42.7152C521.527 50.2619 519.092 56.6207 514.418 61.0894C509.748 65.5535 502.967 68.015 494.492 68.015C485.691 68.015 477.935 65.3458 472.362 60.5704C466.775 55.7828 463.439 48.9249 463.439 40.7064V0.979248ZM464.541 40.7064C464.541 56.5035 477.325 66.9131 494.492 66.9131C511.019 66.9131 520.425 57.3253 520.425 42.7152V2.0811H518.233V42.1674C518.233 54.4946 511.385 62.0735 500.245 62.0735C488.739 62.0735 481.708 54.4946 481.708 42.1674V2.0811H464.541V40.7064Z" fill="#7C0021"/>
<path fill-rule="evenodd" clip-rule="evenodd" d="M422.139 68.015C401.861 68.015 386.43 53.4206 386.43 34.0406C386.43 14.6606 401.861 0.0661621 422.139 0.0661621C442.417 0.0661621 457.848 14.6606 457.848 34.0406C457.848 53.4206 442.417 68.015 422.139 68.015ZM433.547 56.0512C436.419 50.8453 438.113 43.2854 438.113 34.0406C438.113 24.7957 436.419 17.2358 433.547 12.0299C430.685 6.84102 426.732 4.09612 422.139 4.09612C417.546 4.09612 413.593 6.84102 410.731 12.0299C407.86 17.2358 406.165 24.7957 406.165 34.0406C406.165 43.2854 407.86 50.8453 410.731 56.0512C413.593 61.2402 417.546 63.985 422.139 63.985C426.732 63.985 430.685 61.2402 433.547 56.0512ZM387.532 34.0406C387.532 52.7597 402.416 66.9131 422.139 66.9131C441.863 66.9131 456.747 52.7597 456.747 34.0406C456.747 15.3215 441.863 1.16802 422.139 1.16802C402.416 1.16802 387.532 15.3215 387.532 34.0406ZM439.215 34.0406C439.215 52.7597 432.366 65.0869 422.139 65.0869C411.912 65.0869 405.064 52.7597 405.064 34.0406C405.064 15.3215 411.912 2.99427 422.139 2.99427C432.366 2.99427 439.215 15.3215 439.215 34.0406Z" fill="#7C0021"/>
<path fill-rule="evenodd" clip-rule="evenodd" d="M360.851 0.979248H380.221V67.1018H360.851V35.599H336.939V67.1018H317.568V0.979248H336.939V31.569H360.851V0.979248ZM361.952 32.6709H335.837V2.0811H318.67V66H335.837V34.4971H361.952V66H379.119V2.0811H361.952V32.6709Z" fill="#7C0021"/>
<path fill-rule="evenodd" clip-rule="evenodd" d="M286.159 0.979248H291.353L269.548 38.9004V67.1018H250.178V38.9004L228.373 0.979248H249.455L267.807 33.2715L286.159 0.979248ZM267.807 35.5015L248.814 2.0811H230.278L251.28 38.6062V66H268.446V38.6062L289.448 2.0811H286.8L267.807 35.5015Z" fill="#7C0021"/>
<path fill-rule="evenodd" clip-rule="evenodd" d="M237.06 67.1018H214.764L214.496 66.9344C213.584 66.3645 212.708 65.3826 211.982 64.371C211.242 63.3392 210.585 62.1739 210.141 61.1379L210.137 61.1297L202.292 41.971C202.011 41.3747 201.701 40.9036 201.301 40.537C200.924 40.192 200.424 39.8986 199.696 39.708H194.084V67.1018H174.714V0.979248H204.214C218.376 0.979248 229.788 8.76975 229.788 20.5263C229.788 29.3226 223.328 35.7072 214.132 38.3616C218.842 39.8587 222.927 42.6752 224.775 47.321C224.776 47.3244 224.778 47.3277 224.779 47.331L229.519 58.6341C230.089 59.9933 230.81 61.3657 231.596 62.5294C232.394 63.7102 233.209 64.5989 233.943 65.0761L237.06 67.1018ZM223.755 47.7374C221.848 42.9315 217.264 40.1649 211.973 38.9053C210.931 38.6571 209.862 38.4675 208.78 38.3322C209.878 38.1939 210.947 38.008 211.982 37.7767C221.876 35.5658 228.686 29.206 228.686 20.5263C228.686 9.66006 218.094 2.0811 204.214 2.0811H175.816V66H192.983V38.6062H199.831C201.749 39.0627 202.662 40.1585 203.301 41.5282L211.154 60.7038C211.976 62.6214 213.619 65.0869 215.08 66H233.343C232.913 65.7208 232.484 65.3456 232.062 64.8981C230.693 63.4434 229.411 61.2251 228.503 59.0602L223.755 47.7374ZM192.983 36.7799V3.90736H200.014C206.771 3.90736 211.154 10.3906 211.154 20.3436C211.154 30.2967 206.771 36.7799 200.014 36.7799H192.983ZM194.084 5.00921V35.6781H200.014C202.989 35.6781 205.448 34.2714 207.205 31.6763C208.986 29.0477 210.052 25.1756 210.052 20.3436C210.052 15.5117 208.986 11.6396 207.205 9.01099C205.448 6.41585 202.989 5.00921 200.014 5.00921H194.084Z" fill="#7C0021"/>
<path fill-rule="evenodd" clip-rule="evenodd" d="M169.4 63.0719V67.1018H118.892V0.979248H168.487V5.00921H138.262V31.569H161.182V35.599H138.262V63.0719H169.4ZM137.16 64.1737V34.4971H160.08V32.6709H137.16V3.90736H167.385V2.0811H119.993V66H168.298V64.1737H137.16Z" fill="#7C0021"/>
<path fill-rule="evenodd" clip-rule="evenodd" d="M111.003 0.979248H115.966L86.9667 67.1018H79.9558L51.0508 0.979248H71.6305L91.1844 46.2526L111.003 0.979248ZM91.1776 49.0158L70.9062 2.0811H52.735L80.6767 66H86.2467L114.28 2.0811H111.723L91.1776 49.0158Z" fill="#7C0021"/>
<path fill-rule="evenodd" clip-rule="evenodd" d="M51.0677 63.0719V67.1018H0.55957V0.979248H50.1546V5.00921H19.9301V31.569H42.8496V35.599H19.9301V63.0719H51.0677ZM18.8282 64.1737V34.4971H41.7477V32.6709H18.8282V3.90736H49.0527V2.0811H1.66143V66H49.9658V64.1737H18.8282Z" fill="#7C0021"/>
</svg>
