<svg width="311" height="36" viewBox="0 0 311 36" fill="none" xmlns="http://www.w3.org/2000/svg">
<mask id="path-1-outside-1_1257_5515" maskUnits="userSpaceOnUse" x="-1" y="-1" width="315" height="38" fill="black">
<rect fill="white" x="-1" y="-1" width="315" height="38"/>
<path d="M7.896 34.04H25.32V35H0.552L0.552 1.4L24.84 1.4V2.36L7.896 2.36V17.48H21V18.44H7.896L7.896 34.04ZM58.065 1.4H59.409L44.673 35H42.129L27.441 1.4L35.217 1.4L46.593 27.656L58.065 1.4ZM70.6616 34.04H88.0856V35H63.3176V1.4L87.6056 1.4V2.36L70.6616 2.36V17.48H83.7656V18.44H70.6616V34.04ZM119.583 31.352C120.303 32.84 121.359 34.328 122.319 35L114.399 35C113.487 34.424 112.671 33.224 112.191 32.216L107.727 22.568C107.295 21.704 106.575 20.984 105.519 20.6H100.287V35H92.9426V1.4L107.247 1.4C114.399 1.4 119.871 5.432 119.871 11.048C119.871 16.04 115.551 19.688 109.551 20.456C112.623 20.984 115.311 22.328 116.463 24.92L119.583 31.352ZM100.287 2.36V19.64H105.519C109.647 19.64 112.335 16.232 112.335 11C112.335 5.768 109.647 2.36 105.519 2.36L100.287 2.36ZM150.845 1.4H152.237L140.573 20.6V35H133.229V20.6L121.613 1.4L129.581 1.4L140.237 19.064L150.845 1.4ZM192.112 1.4L199.456 1.4V35H192.112V18.44H176.224V35H168.88V1.4L176.224 1.4V17.48H192.112V1.4ZM222.744 35.48C212.52 35.48 204.792 28.04 204.792 18.2C204.792 8.36 212.52 0.919998 222.744 0.919998C232.968 0.919998 240.696 8.36 240.696 18.2C240.696 28.04 232.968 35.48 222.744 35.48ZM222.744 34.52C228.984 34.52 233.16 28.04 233.16 18.2C233.16 8.36 228.984 1.88 222.744 1.88C216.456 1.88 212.328 8.36 212.328 18.2C212.328 28.04 216.456 34.52 222.744 34.52ZM261.06 35.48C252.18 35.48 245.7 30.008 245.7 21.704V1.4H253.044V22.472C253.044 29.144 257.076 33.272 263.364 33.272C269.556 33.272 273.444 29.144 273.444 22.472V1.4L274.596 1.4V22.712C274.596 30.392 269.604 35.48 261.06 35.48ZM307.645 31.352C308.365 32.84 309.421 34.328 310.381 35H302.461C301.549 34.424 300.733 33.224 300.253 32.216L295.789 22.568C295.357 21.704 294.637 20.984 293.581 20.6L288.349 20.6V35H281.005V1.4L295.309 1.4C302.461 1.4 307.933 5.432 307.933 11.048C307.933 16.04 303.613 19.688 297.613 20.456C300.685 20.984 303.373 22.328 304.525 24.92L307.645 31.352ZM288.349 2.36V19.64L293.581 19.64C297.709 19.64 300.397 16.232 300.397 11C300.397 5.768 297.709 2.36 293.581 2.36H288.349Z"/>
</mask>
<path d="M7.896 34.04H6.896V35.04H7.896V34.04ZM25.32 34.04H26.32V33.04H25.32V34.04ZM25.32 35V36H26.32V35H25.32ZM0.552 35H-0.448V36H0.552V35ZM0.552 1.4V0.399998H-0.448V1.4H0.552ZM24.84 1.4H25.84V0.399998H24.84V1.4ZM24.84 2.36V3.36H25.84V2.36H24.84ZM7.896 2.36V1.36L6.896 1.36V2.36H7.896ZM7.896 17.48H6.896V18.48H7.896V17.48ZM21 17.48H22V16.48H21V17.48ZM21 18.44V19.44H22V18.44H21ZM7.896 18.44V17.44H6.896V18.44H7.896ZM7.896 35.04H25.32V33.04H7.896V35.04ZM24.32 34.04V35H26.32V34.04H24.32ZM25.32 34H0.552V36H25.32V34ZM1.552 35L1.552 1.4H-0.448L-0.448 35H1.552ZM0.552 2.4L24.84 2.4V0.399998L0.552 0.399998V2.4ZM23.84 1.4V2.36H25.84V1.4H23.84ZM24.84 1.36L7.896 1.36V3.36L24.84 3.36V1.36ZM6.896 2.36V17.48H8.896V2.36L6.896 2.36ZM7.896 18.48H21V16.48H7.896V18.48ZM20 17.48V18.44H22V17.48H20ZM21 17.44H7.896V19.44H21V17.44ZM6.896 18.44L6.896 34.04H8.896L8.896 18.44H6.896ZM58.065 1.4V0.399998L57.4106 0.399998L57.1487 0.999618L58.065 1.4ZM59.409 1.4L60.3248 1.80164L60.9395 0.399998H59.409V1.4ZM44.673 35V36H45.3264L45.5888 35.4016L44.673 35ZM42.129 35L41.2127 35.4005L41.4748 36H42.129V35ZM27.441 1.4V0.399998H25.9125L26.5247 1.80054L27.441 1.4ZM35.217 1.4L36.1346 1.00244L35.8736 0.399998L35.217 0.399998V1.4ZM46.593 27.656L45.6754 28.0536L46.5891 30.1624L47.5093 28.0564L46.593 27.656ZM58.065 2.4H59.409V0.399998H58.065V2.4ZM58.4932 0.998355L43.7572 34.5984L45.5888 35.4016L60.3248 1.80164L58.4932 0.998355ZM44.673 34H42.129V36H44.673V34ZM43.0453 34.5995L28.3573 0.999454L26.5247 1.80054L41.2127 35.4005L43.0453 34.5995ZM27.441 2.4H35.217V0.399998L27.441 0.399998V2.4ZM34.2994 1.79756L45.6754 28.0536L47.5106 27.2584L36.1346 1.00244L34.2994 1.79756ZM47.5093 28.0564L58.9813 1.80038L57.1487 0.999618L45.6767 27.2556L47.5093 28.0564ZM70.6616 34.04H69.6616V35.04H70.6616V34.04ZM88.0856 34.04H89.0856V33.04H88.0856V34.04ZM88.0856 35V36H89.0856V35H88.0856ZM63.3176 35H62.3176V36H63.3176V35ZM63.3176 1.4V0.399998H62.3176V1.4H63.3176ZM87.6056 1.4H88.6056V0.399998L87.6056 0.399998V1.4ZM87.6056 2.36V3.36H88.6056V2.36H87.6056ZM70.6616 2.36V1.36H69.6616V2.36H70.6616ZM70.6616 17.48H69.6616V18.48H70.6616V17.48ZM83.7656 17.48H84.7656V16.48H83.7656V17.48ZM83.7656 18.44V19.44H84.7656V18.44H83.7656ZM70.6616 18.44V17.44H69.6616V18.44H70.6616ZM70.6616 35.04H88.0856V33.04H70.6616V35.04ZM87.0856 34.04V35H89.0856V34.04H87.0856ZM88.0856 34H63.3176V36H88.0856V34ZM64.3176 35V1.4H62.3176V35H64.3176ZM63.3176 2.4L87.6056 2.4V0.399998L63.3176 0.399998V2.4ZM86.6056 1.4V2.36H88.6056V1.4H86.6056ZM87.6056 1.36L70.6616 1.36V3.36L87.6056 3.36V1.36ZM69.6616 2.36V17.48H71.6616V2.36H69.6616ZM70.6616 18.48H83.7656V16.48H70.6616V18.48ZM82.7656 17.48V18.44H84.7656V17.48H82.7656ZM83.7656 17.44H70.6616V19.44H83.7656V17.44ZM69.6616 18.44V34.04H71.6616V18.44H69.6616ZM119.583 31.352L120.483 30.9164L120.482 30.9156L119.583 31.352ZM122.319 35V36H125.491L122.892 34.1808L122.319 35ZM114.399 35L113.865 35.8455L114.109 36H114.399V35ZM112.191 32.216L111.283 32.6359L111.288 32.6459L112.191 32.216ZM107.727 22.568L108.634 22.1481L108.628 22.1343L108.621 22.1208L107.727 22.568ZM105.519 20.6L105.86 19.6602L105.695 19.6H105.519V20.6ZM100.287 20.6V19.6H99.2866V20.6H100.287ZM100.287 35V36H101.287V35H100.287ZM92.9426 35H91.9426V36H92.9426V35ZM92.9426 1.4V0.399998H91.9426V1.4H92.9426ZM109.551 20.456L109.424 19.4641L109.381 21.4415L109.551 20.456ZM116.463 24.92L115.549 25.3261L115.556 25.3414L115.563 25.3564L116.463 24.92ZM100.287 2.36V1.36H99.2866V2.36H100.287ZM100.287 19.64H99.2866V20.64H100.287V19.64ZM118.682 31.7876C119.43 33.3318 120.577 35.0019 121.745 35.8192L122.892 34.1808C122.14 33.6541 121.176 32.3482 120.483 30.9164L118.682 31.7876ZM122.319 34L114.399 34V36L122.319 36V34ZM114.933 34.1545C114.258 33.7287 113.544 32.7322 113.093 31.7861L111.288 32.6459C111.797 33.7158 112.715 35.1193 113.865 35.8455L114.933 34.1545ZM113.098 31.7961L108.634 22.1481L106.819 22.9879L111.283 32.6359L113.098 31.7961ZM108.621 22.1208C108.084 21.0472 107.176 20.1387 105.86 19.6602L105.177 21.5398C105.973 21.8293 106.505 22.3608 106.832 23.0152L108.621 22.1208ZM105.519 19.6H100.287V21.6H105.519V19.6ZM99.2866 20.6V35H101.287V20.6H99.2866ZM100.287 34H92.9426V36H100.287V34ZM93.9426 35V1.4H91.9426V35H93.9426ZM92.9426 2.4L107.247 2.4V0.399998L92.9426 0.399998V2.4ZM107.247 2.4C114.124 2.4 118.871 6.22589 118.871 11.048H120.871C120.871 4.63811 114.673 0.399998 107.247 0.399998V2.4ZM118.871 11.048C118.871 15.3375 115.151 18.7309 109.424 19.4641L109.678 21.4479C115.95 20.6451 120.871 16.7425 120.871 11.048H118.871ZM109.381 21.4415C112.317 21.9462 114.597 23.1835 115.549 25.3261L117.376 24.5139C116.025 21.4725 112.928 20.0218 109.72 19.4705L109.381 21.4415ZM115.563 25.3564L118.683 31.7884L120.482 30.9156L117.362 24.4836L115.563 25.3564ZM99.2866 2.36V19.64H101.287V2.36H99.2866ZM100.287 20.64H105.519V18.64H100.287V20.64ZM105.519 20.64C107.885 20.64 109.88 19.6504 111.26 17.9013C112.622 16.1747 113.335 13.777 113.335 11H111.335C111.335 13.455 110.703 15.3773 109.69 16.6627C108.693 17.9256 107.28 18.64 105.519 18.64V20.64ZM113.335 11C113.335 8.223 112.622 5.82535 111.26 4.09866C109.88 2.34958 107.885 1.36 105.519 1.36V3.36C107.28 3.36 108.693 4.07442 109.69 5.33734C110.703 6.62265 111.335 8.545 111.335 11H113.335ZM105.519 1.36L100.287 1.36V3.36H105.519V1.36ZM150.845 1.4V0.399998L150.279 0.399998L149.988 0.885159L150.845 1.4ZM152.237 1.4L153.092 1.9192L154.014 0.399998H152.237V1.4ZM140.573 20.6L139.718 20.0808L139.573 20.3201V20.6H140.573ZM140.573 35V36H141.573V35H140.573ZM133.229 35H132.229V36H133.229V35ZM133.229 20.6H134.229V20.321L134.084 20.0824L133.229 20.6ZM121.613 1.4V0.399998L119.839 0.399998L120.757 1.91764L121.613 1.4ZM129.581 1.4L130.437 0.88345L130.145 0.399998H129.581V1.4ZM140.237 19.064L139.381 19.5805L140.239 21.0031L141.094 19.5788L140.237 19.064ZM150.845 2.4H152.237V0.399998H150.845V2.4ZM151.382 0.880797L139.718 20.0808L141.428 21.1192L153.092 1.9192L151.382 0.880797ZM139.573 20.6V35H141.573V20.6H139.573ZM140.573 34H133.229V36H140.573V34ZM134.229 35V20.6H132.229V35H134.229ZM134.084 20.0824L122.468 0.88236L120.757 1.91764L132.373 21.1176L134.084 20.0824ZM121.613 2.4L129.581 2.4V0.399998L121.613 0.399998V2.4ZM128.725 1.91655L139.381 19.5805L141.093 18.5475L130.437 0.88345L128.725 1.91655ZM141.094 19.5788L151.702 1.91484L149.988 0.885159L139.38 18.5492L141.094 19.5788ZM192.112 1.4V0.399998L191.112 0.399998V1.4H192.112ZM199.456 1.4L200.456 1.4V0.399998H199.456V1.4ZM199.456 35V36H200.456V35H199.456ZM192.112 35H191.112V36H192.112V35ZM192.112 18.44H193.112V17.44H192.112V18.44ZM176.224 18.44V17.44H175.224V18.44H176.224ZM176.224 35V36H177.224V35H176.224ZM168.88 35H167.88V36H168.88V35ZM168.88 1.4V0.399998H167.88V1.4H168.88ZM176.224 1.4H177.224V0.399998L176.224 0.399998V1.4ZM176.224 17.48H175.224V18.48H176.224V17.48ZM192.112 17.48V18.48H193.112V17.48H192.112ZM192.112 2.4L199.456 2.4V0.399998L192.112 0.399998V2.4ZM198.456 1.4V35H200.456V1.4L198.456 1.4ZM199.456 34H192.112V36H199.456V34ZM193.112 35V18.44H191.112V35H193.112ZM192.112 17.44H176.224V19.44H192.112V17.44ZM175.224 18.44V35H177.224V18.44H175.224ZM176.224 34H168.88V36H176.224V34ZM169.88 35V1.4H167.88V35H169.88ZM168.88 2.4H176.224V0.399998L168.88 0.399998V2.4ZM175.224 1.4V17.48H177.224V1.4H175.224ZM176.224 18.48H192.112V16.48H176.224V18.48ZM193.112 17.48V1.4H191.112V17.48H193.112ZM222.744 34.48C213.036 34.48 205.792 27.4521 205.792 18.2H203.792C203.792 28.6279 212.004 36.48 222.744 36.48V34.48ZM205.792 18.2C205.792 8.94785 213.036 1.92 222.744 1.92V-0.0800018C212.004 -0.0800018 203.792 7.77215 203.792 18.2H205.792ZM222.744 1.92C232.452 1.92 239.696 8.94785 239.696 18.2H241.696C241.696 7.77215 233.484 -0.0800018 222.744 -0.0800018V1.92ZM239.696 18.2C239.696 27.4521 232.452 34.48 222.744 34.48V36.48C233.484 36.48 241.696 28.6279 241.696 18.2H239.696ZM222.744 35.52C226.263 35.52 229.16 33.6737 231.134 30.5891C233.091 27.5307 234.16 23.2456 234.16 18.2H232.16C232.16 22.9944 231.14 26.8693 229.449 29.5109C227.776 32.1263 225.465 33.52 222.744 33.52V35.52ZM234.16 18.2C234.16 13.1544 233.091 8.86932 231.134 5.81094C229.16 2.72625 226.263 0.879997 222.744 0.879997V2.88C225.465 2.88 227.776 4.27375 229.449 6.88905C231.14 9.53068 232.16 13.4056 232.16 18.2H234.16ZM222.744 0.879997C219.202 0.879997 216.304 2.72476 214.335 5.8122C212.383 8.87135 211.328 13.1565 211.328 18.2H213.328C213.328 13.4035 214.336 9.52865 216.021 6.88779C217.687 4.27524 219.997 2.88 222.744 2.88V0.879997ZM211.328 18.2C211.328 23.2435 212.383 27.5287 214.335 30.5878C216.304 33.6752 219.202 35.52 222.744 35.52V33.52C219.997 33.52 217.687 32.1248 216.021 29.5122C214.336 26.8713 213.328 22.9965 213.328 18.2H211.328ZM245.7 1.4V0.399998H244.7V1.4H245.7ZM253.044 1.4L254.044 1.4V0.399998H253.044V1.4ZM273.444 1.4V0.399998L272.444 0.399998V1.4H273.444ZM274.596 1.4H275.596V0.399998H274.596V1.4ZM261.06 34.48C256.823 34.48 253.23 33.1755 250.712 30.9558C248.204 28.7457 246.7 25.5782 246.7 21.704H244.7C244.7 26.1338 246.437 29.8543 249.389 32.4562C252.331 35.0485 256.418 36.48 261.06 36.48V34.48ZM246.7 21.704V1.4H244.7V21.704H246.7ZM245.7 2.4L253.044 2.4V0.399998L245.7 0.399998V2.4ZM252.044 1.4V22.472H254.044V1.4L252.044 1.4ZM252.044 22.472C252.044 26.0094 253.116 28.9774 255.125 31.0671C257.138 33.1607 259.995 34.272 263.364 34.272V32.272C260.445 32.272 258.142 31.3193 256.567 29.6809C254.988 28.0386 254.044 25.6066 254.044 22.472H252.044ZM263.364 34.272C266.691 34.272 269.492 33.1568 271.457 31.0572C273.414 28.9651 274.444 25.9997 274.444 22.472H272.444C272.444 25.6163 271.531 28.0509 269.996 29.6908C268.469 31.3232 266.23 32.272 263.364 32.272V34.272ZM274.444 22.472V1.4L272.444 1.4V22.472H274.444ZM273.444 2.4L274.596 2.4V0.399998H273.444V2.4ZM273.596 1.4V22.712H275.596V1.4H273.596ZM273.596 22.712C273.596 26.3305 272.426 29.2446 270.338 31.256C268.248 33.2704 265.134 34.48 261.06 34.48V36.48C265.531 36.48 269.185 35.1456 271.726 32.696C274.271 30.2434 275.596 26.7735 275.596 22.712H273.596ZM307.645 31.352L308.545 30.9164L308.545 30.9156L307.645 31.352ZM310.381 35V36H313.553L310.955 34.1808L310.381 35ZM302.461 35L301.927 35.8455L302.172 36H302.461V35ZM300.253 32.216L299.346 32.6359L299.35 32.6459L300.253 32.216ZM295.789 22.568L296.697 22.1481L296.69 22.1343L296.684 22.1208L295.789 22.568ZM293.581 20.6L293.923 19.6602L293.757 19.6H293.581V20.6ZM288.349 20.6V19.6H287.349V20.6H288.349ZM288.349 35V36H289.349V35H288.349ZM281.005 35H280.005V36H281.005V35ZM281.005 1.4V0.399998L280.005 0.399998V1.4H281.005ZM297.613 20.456L297.486 19.4641L297.444 21.4415L297.613 20.456ZM304.525 24.92L303.611 25.3261L303.618 25.3414L303.625 25.3564L304.525 24.92ZM288.349 2.36V1.36H287.349V2.36H288.349ZM288.349 19.64H287.349V20.64H288.349V19.64ZM306.745 31.7876C307.492 33.3318 308.64 35.0019 309.808 35.8192L310.955 34.1808C310.202 33.6541 309.238 32.3482 308.545 30.9164L306.745 31.7876ZM310.381 34H302.461V36H310.381V34ZM302.995 34.1545C302.321 33.7287 301.607 32.7322 301.156 31.7861L299.35 32.6459C299.86 33.7158 300.777 35.1193 301.927 35.8455L302.995 34.1545ZM301.161 31.7961L296.697 22.1481L294.882 22.9879L299.346 32.6359L301.161 31.7961ZM296.684 22.1208C296.147 21.0472 295.239 20.1387 293.923 19.6602L293.239 21.5398C294.035 21.8293 294.568 22.3608 294.895 23.0152L296.684 22.1208ZM293.581 19.6L288.349 19.6V21.6L293.581 21.6V19.6ZM287.349 20.6V35H289.349V20.6H287.349ZM288.349 34H281.005V36H288.349V34ZM282.005 35V1.4H280.005V35H282.005ZM281.005 2.4L295.309 2.4V0.399998L281.005 0.399998V2.4ZM295.309 2.4C302.186 2.4 306.933 6.22589 306.933 11.048H308.933C308.933 4.63811 302.736 0.399998 295.309 0.399998V2.4ZM306.933 11.048C306.933 15.3375 303.214 18.7309 297.486 19.4641L297.74 21.4479C304.012 20.6451 308.933 16.7425 308.933 11.048H306.933ZM297.444 21.4415C300.38 21.9462 302.659 23.1835 303.611 25.3261L305.439 24.5139C304.087 21.4725 300.99 20.0218 297.783 19.4705L297.444 21.4415ZM303.625 25.3564L306.745 31.7884L308.545 30.9156L305.425 24.4836L303.625 25.3564ZM287.349 2.36V19.64H289.349V2.36H287.349ZM288.349 20.64L293.581 20.64V18.64L288.349 18.64V20.64ZM293.581 20.64C295.948 20.64 297.943 19.6504 299.322 17.9013C300.684 16.1747 301.397 13.777 301.397 11H299.397C299.397 13.455 298.766 15.3773 297.752 16.6627C296.756 17.9256 295.342 18.64 293.581 18.64V20.64ZM301.397 11C301.397 8.223 300.684 5.82535 299.322 4.09866C297.943 2.34958 295.948 1.36 293.581 1.36V3.36C295.342 3.36 296.756 4.07442 297.752 5.33734C298.766 6.62265 299.397 8.545 299.397 11H301.397ZM293.581 1.36L288.349 1.36V3.36H293.581V1.36Z" fill="white" mask="url(#path-1-outside-1_1257_5515)"/>
</svg>
