<svg width="327" height="40" viewBox="0 0 327 40" fill="none" xmlns="http://www.w3.org/2000/svg">
<path fill-rule="evenodd" clip-rule="evenodd" d="M327 39.4624H314.665L314.516 39.3638C314.012 39.0284 313.527 38.4504 313.126 37.8549C312.716 37.2475 312.353 36.5615 312.107 35.9516L312.105 35.9468L312.103 35.9419L307.764 24.6685C307.609 24.3175 307.437 24.0402 307.216 23.8243C307.008 23.6212 306.731 23.4485 306.328 23.3363H303.224V39.4624H292.507V0.537598H308.828C316.663 0.537598 322.977 5.12369 322.977 12.0445C322.977 17.2227 319.403 20.9811 314.315 22.5438C316.921 23.4249 319.18 25.0825 320.203 27.8167C320.204 27.8191 320.205 27.8214 320.205 27.8238L322.828 34.4777C323.143 35.2778 323.542 36.0857 323.977 36.7708C324.419 37.4659 324.869 37.989 325.276 38.27L327 39.4624ZM313.121 22.8638C312.544 22.7177 311.952 22.6061 311.354 22.5264C311.961 22.445 312.553 22.3355 313.126 22.1994C318.599 20.8979 322.367 17.154 322.367 12.0445C322.367 5.64779 316.507 1.18623 308.828 1.18623H293.116V38.8138H302.614V22.6877H306.403C307.464 22.9565 307.969 23.6015 308.323 24.4078L312.667 35.6961C313.122 36.8249 314.031 38.2763 314.84 38.8138H324.943C324.706 38.6494 324.468 38.4286 324.235 38.1652C323.477 37.3088 322.768 36.0029 322.266 34.7285L319.639 28.0631C318.584 25.2339 316.048 23.6053 313.121 22.8638ZM302.614 21.6126V2.26131H306.504C310.242 2.26131 312.667 6.07782 312.667 11.937C312.667 17.7961 310.242 21.6126 306.504 21.6126H302.614ZM303.224 2.90995V20.964H306.504C308.15 20.964 309.51 20.1359 310.483 18.6082C311.468 17.0608 312.058 14.7814 312.058 11.937C312.058 9.09252 311.468 6.8131 310.483 5.2657C309.51 3.738 308.15 2.90995 306.504 2.90995H303.224Z" fill="#7C0021"/>
<path fill-rule="evenodd" clip-rule="evenodd" d="M256.089 0.537598H266.806V24.7841C266.806 28.2917 267.744 31.0485 269.383 32.9227C271.017 34.7913 273.407 35.8538 276.451 35.8538C279.388 35.8538 281.702 34.7958 283.286 32.9296C284.878 31.0556 285.794 28.296 285.794 24.7841V0.537598H288.226V25.1066C288.226 29.5492 286.878 33.2924 284.293 35.923C281.709 38.551 277.958 40 273.269 40C268.399 40 264.109 38.4287 261.025 35.6175C257.934 32.7992 256.089 28.7621 256.089 23.924V0.537598ZM256.698 23.924C256.698 33.2234 263.771 39.3513 273.269 39.3513C282.413 39.3513 287.616 33.7072 287.616 25.1066V1.18623H286.404V24.7841C286.404 32.0408 282.615 36.5024 276.451 36.5024C270.086 36.5024 266.196 32.0408 266.196 24.7841V1.18623H256.698V23.924Z" fill="#7C0021"/>
<path fill-rule="evenodd" clip-rule="evenodd" d="M233.239 39.9999C222.02 39.9999 213.483 31.4085 213.483 20C213.483 8.59139 222.02 0 233.239 0C244.458 0 252.995 8.59139 252.995 20C252.995 31.4085 244.458 39.9999 233.239 39.9999ZM239.551 32.9571C241.139 29.8925 242.077 25.4422 242.077 20C242.077 14.5577 241.139 10.1074 239.551 7.0428C237.967 3.9882 235.78 2.37234 233.239 2.37234C230.698 2.37234 228.511 3.9882 226.928 7.0428C225.339 10.1074 224.402 14.5577 224.402 20C224.402 25.4422 225.339 29.8925 226.928 32.9571C228.511 36.0117 230.698 37.6276 233.239 37.6276C235.78 37.6276 237.967 36.0117 239.551 32.9571ZM214.093 20C214.093 31.0195 222.327 39.3513 233.239 39.3513C244.151 39.3513 252.386 31.0195 252.386 20C252.386 8.98046 244.151 0.648636 233.239 0.648636C222.327 0.648636 214.093 8.98046 214.093 20ZM242.686 20C242.686 31.0195 238.897 38.2762 233.239 38.2762C227.581 38.2762 223.792 31.0195 223.792 20C223.792 8.98046 227.581 1.72371 233.239 1.72371C238.897 1.72371 242.686 8.98046 242.686 20Z" fill="#7C0021"/>
<path fill-rule="evenodd" clip-rule="evenodd" d="M199.333 0.537598H210.05V39.4624H199.333V20.9174H186.104V39.4624H175.387V0.537598H186.104V18.5451H199.333V0.537598ZM199.943 19.1937H185.494V1.18623H175.997V38.8138H185.494V20.2688H199.943V38.8138H209.44V1.18623H199.943V19.1937Z" fill="#7C0021"/>
<path fill-rule="evenodd" clip-rule="evenodd" d="M158.008 0.537598H160.882L148.818 22.8609V39.4624H138.101V22.8609L126.038 0.537598H137.702L147.855 19.5473L158.008 0.537598ZM147.855 20.8601L137.347 1.18623H127.092L138.711 22.6877V38.8138H148.208V22.6877L159.828 1.18623H158.363L147.855 20.8601Z" fill="#7C0021"/>
<path fill-rule="evenodd" clip-rule="evenodd" d="M130.844 39.4624H118.509L118.361 39.3638C117.857 39.0284 117.372 38.4504 116.97 37.8549C116.56 37.2475 116.197 36.5615 115.951 35.9516L115.949 35.9468L111.609 24.6685C111.454 24.3175 111.282 24.0402 111.061 23.8243C110.852 23.6212 110.576 23.4485 110.173 23.3363H107.068V39.4624H96.3513V0.537598H112.672C120.507 0.537598 126.821 5.12369 126.821 12.0445C126.821 17.2227 123.247 20.9811 118.16 22.5438C120.765 23.425 123.025 25.083 124.048 27.8179C124.049 27.8199 124.049 27.8219 124.05 27.8238L126.673 34.4777C126.988 35.2778 127.386 36.0857 127.822 36.7708C128.263 37.4659 128.714 37.989 129.12 38.27L130.844 39.4624ZM123.483 28.0631C122.428 25.2339 119.892 23.6053 116.965 22.8638C116.389 22.7177 115.797 22.6061 115.198 22.5264C115.806 22.445 116.397 22.3355 116.97 22.1994C122.444 20.8979 126.211 17.154 126.211 12.0445C126.211 5.64779 120.351 1.18623 112.672 1.18623H96.9609V38.8138H106.458V22.6877H110.247C111.308 22.9565 111.813 23.6015 112.167 24.4078L116.512 35.6961C116.966 36.8249 117.876 38.2763 118.684 38.8138H128.788C128.55 38.6494 128.313 38.4286 128.079 38.1652C127.322 37.3088 126.613 36.0029 126.11 34.7285L123.483 28.0631ZM106.458 21.6126V2.26131H110.348C114.087 2.26131 116.512 6.07782 116.512 11.937C116.512 17.7961 114.087 21.6126 110.348 21.6126H106.458ZM107.068 2.90995V20.964H110.348C111.994 20.964 113.355 20.1359 114.327 18.6082C115.312 17.0608 115.902 14.7814 115.902 11.937C115.902 9.09252 115.312 6.8131 114.327 5.2657C113.355 3.738 111.994 2.90995 110.348 2.90995H107.068Z" fill="#7C0021"/>
<path fill-rule="evenodd" clip-rule="evenodd" d="M93.4115 37.0901V39.4624H65.4678V0.537598H92.9063V2.90995H76.1845V18.5451H88.8648V20.9174H76.1845V37.0901H93.4115ZM75.5749 37.7387V20.2688H88.2552V19.1937H75.5749V2.26131H92.2967V1.18623H66.0774V38.8138H92.8019V37.7387H75.5749Z" fill="#7C0021"/>
<path fill-rule="evenodd" clip-rule="evenodd" d="M61.1035 0.537598H63.8496L47.8056 39.4624H43.9268L27.9351 0.537598H39.3209L50.1391 27.189L61.1035 0.537598ZM50.1353 28.8156L38.9201 1.18623H28.8668L44.3256 38.8138H47.4073L62.9166 1.18623H61.5021L50.1353 28.8156Z" fill="#7C0021"/>
<path fill-rule="evenodd" clip-rule="evenodd" d="M27.9437 37.0901V39.4625H0V0.537628H27.4385V2.90998H10.7168V18.5451H23.397V20.9174H10.7168V37.0901H27.9437ZM10.1072 37.7388V20.2688H22.7874V19.1937H10.1072V2.26134H26.8289V1.18626H0.609603V38.8138H27.3341V37.7388H10.1072Z" fill="#7C0021"/>
</svg>
