<svg width="312.000000" height="37.000000" viewBox="0 0 312 37" fill="none" xmlns="http://www.w3.org/2000/svg" xmlns:xlink="http://www.w3.org/1999/xlink">
	<desc>
			Created with Pixso.
	</desc>
	<defs/>
	<path id="EVERY HOUR" d="M7.89 33.64L25.32 33.64L25.32 34.59L0.55 34.59L0.55 0.99L24.84 0.99L24.84 1.96L7.89 1.96L7.89 17.08L21 17.08L21 18.04L7.89 18.04L7.89 33.64ZM58.06 0.99L59.4 0.99L44.67 34.59L42.12 34.59L27.44 0.99L35.21 0.99L46.59 27.25L58.06 0.99ZM70.66 33.64L88.08 33.64L88.08 34.59L63.31 34.59L63.31 0.99L87.6 0.99L87.6 1.96L70.66 1.96L70.66 17.08L83.76 17.08L83.76 18.04L70.66 18.04L70.66 33.64ZM119.58 30.95C120.3 32.43 121.35 33.92 122.31 34.59L114.39 34.59C113.48 34.02 112.67 32.82 112.19 31.81L107.72 22.16C107.29 21.3 106.57 20.58 105.51 20.2L100.28 20.2L100.28 34.59L92.94 34.59L92.94 0.99L107.24 0.99C114.39 0.99 119.87 5.03 119.87 10.64C119.87 15.64 115.55 19.28 109.55 20.05C112.62 20.58 115.31 21.92 116.46 24.52L119.58 30.95ZM100.28 1.96L100.28 19.24L105.51 19.24C109.64 19.24 112.33 15.83 112.33 10.6C112.33 5.36 109.64 1.96 105.51 1.96L100.28 1.96ZM150.84 0.99L152.23 0.99L140.57 20.2L140.57 34.59L133.22 34.59L133.22 20.2L121.61 0.99L129.58 0.99L140.23 18.66L150.84 0.99ZM192.11 0.99L199.45 0.99L199.45 34.59L192.11 34.59L192.11 18.04L176.22 18.04L176.22 34.59L168.88 34.59L168.88 0.99L176.22 0.99L176.22 17.08L192.11 17.08L192.11 0.99ZM222.74 35.08C212.52 35.08 204.79 27.64 204.79 17.79C204.79 7.96 212.52 0.51 222.74 0.51C232.96 0.51 240.69 7.96 240.69 17.79C240.69 27.64 232.96 35.08 222.74 35.08ZM222.74 34.12C228.98 34.12 233.16 27.64 233.16 17.79C233.16 7.96 228.98 1.48 222.74 1.48C216.45 1.48 212.32 7.96 212.32 17.79C212.32 27.64 216.45 34.12 222.74 34.12ZM261.06 35.08C252.18 35.08 245.7 29.6 245.7 21.3L245.7 0.99L253.04 0.99L253.04 22.07C253.04 28.74 257.07 32.87 263.36 32.87C269.55 32.87 273.44 28.74 273.44 22.07L273.44 0.99L274.59 0.99L274.59 22.31C274.59 29.99 269.6 35.08 261.06 35.08ZM307.64 30.95C308.36 32.43 309.42 33.92 310.38 34.59L302.46 34.59C301.54 34.02 300.73 32.82 300.25 31.81L295.78 22.16C295.35 21.3 294.63 20.58 293.58 20.2L288.34 20.2L288.34 34.59L281 34.59L281 0.99L295.3 0.99C302.46 0.99 307.93 5.03 307.93 10.64C307.93 15.64 303.61 19.28 297.61 20.05C300.68 20.58 303.37 21.92 304.52 24.52L307.64 30.95ZM288.34 1.96L288.34 19.24L293.58 19.24C297.7 19.24 300.39 15.83 300.39 10.6C300.39 5.36 297.7 1.96 293.58 1.96L288.34 1.96Z" stroke="#FFFFFF" stroke-opacity="1.000000" stroke-width="1.000000"/>
</svg>
