<svg width="48.000000" height="48.000000" viewBox="0 0 48 48" fill="none" xmlns="http://www.w3.org/2000/svg" xmlns:xlink="http://www.w3.org/1999/xlink">
	<desc>
			Created with Pixso.
	</desc>
	<defs>
		<clipPath id="clip654_2388">
			<rect id="icons" width="48.000000" height="48.000000" transform="translate(-0.500000 0.000000)" fill="white" fill-opacity="0"/>
		</clipPath>
	</defs>
	<rect id="icons" width="48.000000" height="48.000000" transform="translate(-0.500000 0.000000)" fill="#FFFFFF" fill-opacity="0"/>
	<g clip-path="url(#clip654_2388)">
		<path id="Vector" d="M26.38 3.34C26.19 3.19 25.97 3.08 25.74 3.03C25.5 2.98 25.26 2.98 25.03 3.05C24.8 3.11 24.58 3.23 24.41 3.39C24.23 3.55 24.09 3.76 24.01 3.98L19.89 15.31L15.36 10.92C15.2 10.77 15.02 10.66 14.82 10.59C14.62 10.51 14.41 10.48 14.2 10.5C13.99 10.52 13.78 10.58 13.6 10.68C13.41 10.78 13.25 10.92 13.12 11.09C9.06 16.41 7 21.76 7 27C7 31.37 8.73 35.57 11.83 38.66C14.92 41.76 19.12 43.5 23.5 43.5C27.87 43.5 32.07 41.76 35.16 38.66C38.26 35.57 40 31.37 40 27C40 15.85 30.47 6.75 26.38 3.34ZM23.5 40.5C19.92 40.49 16.48 39.07 13.95 36.54C11.42 34.01 10 30.57 10 27C10 22.87 11.51 18.6 14.51 14.28L19.45 19.07C19.63 19.25 19.85 19.37 20.09 19.44C20.33 19.51 20.59 19.51 20.83 19.46C21.07 19.4 21.3 19.29 21.49 19.12C21.68 18.95 21.82 18.74 21.9 18.51L26.08 7.06C30.28 10.89 37 18.35 37 27C36.99 30.57 35.57 34.01 33.04 36.54C30.51 39.07 27.07 40.49 23.5 40.5Z" fill="#7C0021" fill-opacity="1.000000" fill-rule="nonzero"/>
	</g>
</svg>
