<svg width="689" height="60" viewBox="0 0 689 60" fill="none" xmlns="http://www.w3.org/2000/svg">
<mask id="path-1-outside-1_1691_3501" maskUnits="userSpaceOnUse" x="-2" y="-1" width="692" height="63" fill="black">
<rect fill="white" x="-2" y="-1" width="692" height="63"/>
<path d="M40.74 3.24H12.614V29.89H34.18V31.53H12.614V59H0.0680001V1.6H40.74V3.24ZM72.5458 59.82C55.0798 59.82 41.8778 47.11 41.8778 30.3C41.8778 13.49 55.0798 0.779997 72.5458 0.779997C90.0118 0.779997 103.214 13.49 103.214 30.3C103.214 47.11 90.0118 59.82 72.5458 59.82ZM72.5458 58.18C83.2058 58.18 90.3398 47.11 90.3398 30.3C90.3398 13.49 83.2058 2.42 72.5458 2.42C61.8038 2.42 54.7518 13.49 54.7518 30.3C54.7518 47.11 61.8038 58.18 72.5458 58.18ZM157.848 52.768C159.078 55.31 160.882 57.852 162.522 59H148.992C147.434 58.016 146.04 55.966 145.22 54.244L137.594 37.762C136.856 36.286 135.626 35.056 133.822 34.4H124.884V59H112.338V1.6H136.774C148.992 1.6 158.34 8.488 158.34 18.082C158.34 26.61 150.96 32.842 140.71 34.154C145.958 35.056 150.55 37.352 152.518 41.78L157.848 52.768ZM124.884 3.24V32.76H133.822C140.874 32.76 145.466 26.938 145.466 18C145.466 9.062 140.874 3.24 133.822 3.24H124.884ZM230.453 34.728H242.425V59H241.605L234.799 52.768C231.847 57.114 225.287 59.82 217.333 59.82C200.113 59.82 186.419 47.11 186.419 30.218C186.419 13.49 199.867 0.779997 218.071 0.779997C230.863 0.779997 240.211 7.34 240.211 16.36H238.407C238.407 8.652 231.437 3.65 221.269 3.65C207.493 3.65 199.293 13.408 199.293 31.12C199.293 47.356 206.427 58.18 218.153 58.18C224.549 58.18 229.059 55.064 230.453 49.652V34.728ZM279.307 59.82C261.841 59.82 248.639 47.11 248.639 30.3C248.639 13.49 261.841 0.779997 279.307 0.779997C296.773 0.779997 309.975 13.49 309.975 30.3C309.975 47.11 296.773 59.82 279.307 59.82ZM279.307 58.18C289.967 58.18 297.101 47.11 297.101 30.3C297.101 13.49 289.967 2.42 279.307 2.42C268.565 2.42 261.513 13.49 261.513 30.3C261.513 47.11 268.565 58.18 279.307 58.18ZM346.733 59.82C329.267 59.82 316.065 47.11 316.065 30.3C316.065 13.49 329.267 0.779997 346.733 0.779997C364.199 0.779997 377.401 13.49 377.401 30.3C377.401 47.11 364.199 59.82 346.733 59.82ZM346.733 58.18C357.393 58.18 364.527 47.11 364.527 30.3C364.527 13.49 357.393 2.42 346.733 2.42C335.991 2.42 328.939 13.49 328.939 30.3C328.939 47.11 335.991 58.18 346.733 58.18ZM409.731 1.6C427.607 1.6 441.137 13.982 441.137 30.3C441.137 46.618 427.607 59 409.731 59H386.525V1.6H409.731ZM407.845 57.36C420.145 57.36 428.263 46.618 428.263 30.3C428.263 13.982 420.145 3.24 407.845 3.24H399.071V57.36H407.845ZM551.69 1.6H553.986L528.812 59H524.466L510.28 26.528L496.012 59H491.666L466.574 1.6H479.858L499.292 46.454L509.132 23.986L499.374 1.6H512.658L532.092 46.454L551.69 1.6ZM560.615 59V1.6H573.161V59H560.615ZM631.609 1.6H633.577V59H630.789L587.247 14.802V59H585.279V1.6H591.429L631.609 42.682V1.6ZM658.284 57.36H688.05V59H645.738V1.6H687.23V3.24H658.284V29.07H680.67V30.71H658.284V57.36Z"/>
</mask>
<path d="M40.74 3.24V4.52546H42.0255V3.24H40.74ZM12.614 3.24V1.95454H11.3285V3.24H12.614ZM12.614 29.89H11.3285V31.1755H12.614V29.89ZM34.18 29.89H35.4655V28.6045H34.18V29.89ZM34.18 31.53V32.8155H35.4655V31.53H34.18ZM12.614 31.53V30.2445H11.3285V31.53H12.614ZM12.614 59V60.2855H13.8995V59H12.614ZM0.0679998 59H-1.21746V60.2855H0.0679998V59ZM0.0679998 1.6V0.314538H-1.21746V1.6H0.0679998ZM40.74 1.6H42.0255V0.314538H40.74V1.6ZM40.74 1.95454H12.614V4.52546H40.74V1.95454ZM11.3285 3.24V29.89H13.8995V3.24H11.3285ZM12.614 31.1755H34.18V28.6045H12.614V31.1755ZM32.8945 29.89V31.53H35.4655V29.89H32.8945ZM34.18 30.2445H12.614V32.8155H34.18V30.2445ZM11.3285 31.53V59H13.8995V31.53H11.3285ZM12.614 57.7145H0.0679998V60.2855H12.614V57.7145ZM1.35346 59V1.6H-1.21746V59H1.35346ZM0.0679998 2.88545H40.74V0.314538H0.0679998V2.88545ZM39.4545 1.6V3.24H42.0255V1.6H39.4545ZM72.5458 58.5345C55.7431 58.5345 43.1632 46.3543 43.1632 30.3H40.5923C40.5923 47.8657 54.4164 61.1055 72.5458 61.1055V58.5345ZM43.1632 30.3C43.1632 14.2457 55.7431 2.06545 72.5458 2.06545V-0.505461C54.4164 -0.505461 40.5923 12.7343 40.5923 30.3H43.1632ZM72.5458 2.06545C89.3484 2.06545 101.928 14.2457 101.928 30.3H104.499C104.499 12.7343 90.6751 -0.505461 72.5458 -0.505461V2.06545ZM101.928 30.3C101.928 46.3543 89.3484 58.5345 72.5458 58.5345V61.1055C90.6751 61.1055 104.499 47.8657 104.499 30.3H101.928ZM72.5458 59.4655C78.3886 59.4655 83.2139 56.4071 86.523 51.2367C89.8104 46.1001 91.6252 38.8665 91.6252 30.3H89.0543C89.0543 38.5435 87.3021 45.2499 84.3575 49.8508C81.4346 54.4179 77.3629 56.8945 72.5458 56.8945V59.4655ZM91.6252 30.3C91.6252 21.7335 89.8104 14.4999 86.523 9.36332C83.2139 4.19287 78.3886 1.13454 72.5458 1.13454V3.70545C77.3629 3.70545 81.4346 6.18212 84.3575 10.7492C87.3021 15.3501 89.0543 22.0565 89.0543 30.3H91.6252ZM72.5458 1.13454C66.664 1.13454 61.8372 4.19096 58.5368 9.36494C55.2595 14.5025 53.4663 21.7363 53.4663 30.3H56.0372C56.0372 22.0537 57.77 15.3475 60.7042 10.7476C63.6153 6.18403 67.6855 3.70545 72.5458 3.70545V1.13454ZM53.4663 30.3C53.4663 38.8637 55.2595 46.0975 58.5368 51.2351C61.8372 56.409 66.664 59.4655 72.5458 59.4655V56.8945C67.6855 56.8945 63.6153 54.416 60.7042 49.8524C57.77 45.2525 56.0372 38.5463 56.0372 30.3H53.4663ZM157.848 52.768L159.005 52.2081L159.004 52.207L157.848 52.768ZM162.522 59V60.2855H166.599L163.259 57.9469L162.522 59ZM148.992 59L148.305 60.0868L148.62 60.2855H148.992V59ZM145.22 54.244L144.053 54.7838L144.056 54.7902L144.059 54.7967L145.22 54.244ZM137.594 37.762L138.76 37.2222L138.752 37.2045L138.743 37.1871L137.594 37.762ZM133.822 34.4L134.261 33.1919L134.048 33.1145H133.822V34.4ZM124.884 34.4V33.1145H123.598V34.4H124.884ZM124.884 59V60.2855H126.169V59H124.884ZM112.338 59H111.052V60.2855H112.338V59ZM112.338 1.6V0.314538H111.052V1.6H112.338ZM140.71 34.154L140.546 32.8789L140.492 35.4209L140.71 34.154ZM152.518 41.78L151.343 42.3021L151.352 42.3217L151.361 42.341L152.518 41.78ZM124.884 3.24V1.95454H123.598V3.24H124.884ZM124.884 32.76H123.598V34.0455H124.884V32.76ZM156.69 53.3279C157.955 55.9422 159.877 58.7182 161.784 60.0531L163.259 57.9469C161.886 56.9858 160.2 54.6778 159.005 52.2081L156.69 53.3279ZM162.522 57.7145H148.992V60.2855H162.522V57.7145ZM149.678 57.9132C148.426 57.1222 147.162 55.3338 146.38 53.6913L144.059 54.7967C144.917 56.5982 146.442 58.9098 148.305 60.0868L149.678 57.9132ZM146.386 53.7042L138.76 37.2222L136.427 38.3018L144.053 54.7838L146.386 53.7042ZM138.743 37.1871C137.871 35.4417 136.399 33.9694 134.261 33.1919L133.382 35.6081C134.852 36.1425 135.84 37.1303 136.444 38.3369L138.743 37.1871ZM133.822 33.1145H124.884V35.6855H133.822V33.1145ZM123.598 34.4V59H126.169V34.4H123.598ZM124.884 57.7145H112.338V60.2855H124.884V57.7145ZM113.623 59V1.6H111.052V59H113.623ZM112.338 2.88545H136.774V0.314538H112.338V2.88545ZM136.774 2.88545C148.638 2.88545 157.054 9.50851 157.054 18.082H159.625C159.625 7.46748 149.345 0.314538 136.774 0.314538V2.88545ZM157.054 18.082C157.054 25.7069 150.446 31.6117 140.546 32.8789L140.873 35.4291C151.473 34.0723 159.625 27.5131 159.625 18.082H157.054ZM140.492 35.4209C145.565 36.2929 149.632 38.4517 151.343 42.3021L153.692 41.2579C151.467 36.2523 146.35 33.8191 140.927 32.8871L140.492 35.4209ZM151.361 42.341L156.691 53.329L159.004 52.207L153.674 41.219L151.361 42.341ZM123.598 3.24V32.76H126.169V3.24H123.598ZM124.884 34.0455H133.822V31.4745H124.884V34.0455ZM133.822 34.0455C137.737 34.0455 141.021 32.4131 143.297 29.5279C145.551 26.6714 146.751 22.676 146.751 18H144.18C144.18 22.262 143.085 25.6465 141.279 27.9356C139.496 30.1959 136.958 31.4745 133.822 31.4745V34.0455ZM146.751 18C146.751 13.324 145.551 9.32855 143.297 6.47211C141.021 3.58689 137.737 1.95454 133.822 1.95454V4.52546C136.958 4.52546 139.496 5.8041 141.279 8.06438C143.085 10.3534 144.18 13.738 144.18 18H146.751ZM133.822 1.95454H124.884V4.52546H133.822V1.95454ZM230.453 34.728V33.4425H229.167V34.728H230.453ZM242.425 34.728H243.71V33.4425H242.425V34.728ZM242.425 59V60.2855H243.71V59H242.425ZM241.605 59L240.737 59.9481L241.105 60.2855H241.605V59ZM234.799 52.768L235.667 51.8199L234.571 50.8161L233.735 52.0457L234.799 52.768ZM240.211 16.36V17.6455H241.496V16.36H240.211ZM238.407 16.36H237.121V17.6455H238.407V16.36ZM230.453 49.652L231.698 49.9726L231.738 49.8149V49.652H230.453ZM230.453 36.0135H242.425V33.4425H230.453V36.0135ZM241.139 34.728V59H243.71V34.728H241.139ZM242.425 57.7145H241.605V60.2855H242.425V57.7145ZM242.473 58.0519L235.667 51.8199L233.931 53.7161L240.737 59.9481L242.473 58.0519ZM233.735 52.0457C231.122 55.8928 225.076 58.5345 217.333 58.5345V61.1055C225.498 61.1055 232.571 58.3352 235.862 53.4903L233.735 52.0457ZM217.333 58.5345C200.758 58.5345 187.704 46.3369 187.704 30.218H185.133C185.133 47.8831 199.468 61.1055 217.333 61.1055V58.5345ZM187.704 30.218C187.704 14.2805 200.493 2.06545 218.071 2.06545V-0.505461C199.24 -0.505461 185.133 12.6995 185.133 30.218H187.704ZM218.071 2.06545C224.261 2.06545 229.522 3.65426 233.198 6.23904C236.858 8.81214 238.925 12.343 238.925 16.36H241.496C241.496 11.3569 238.89 7.09785 234.677 4.13595C230.481 1.18573 224.673 -0.505461 218.071 -0.505461V2.06545ZM240.211 15.0745H238.407V17.6455H240.211V15.0745ZM239.692 16.36C239.692 12.0716 237.734 8.51936 234.412 6.07857C231.122 3.66132 226.548 2.36454 221.269 2.36454V4.93546C226.158 4.93546 230.153 6.13968 232.89 8.15043C235.594 10.1376 237.121 12.9404 237.121 16.36H239.692ZM221.269 2.36454C214.052 2.36454 208.167 4.93605 204.116 9.93356C200.096 14.8927 198.007 22.0861 198.007 31.12H200.578C200.578 22.4419 202.589 15.9003 206.113 11.5524C209.607 7.24294 214.71 4.93546 221.269 4.93546V2.36454ZM198.007 31.12C198.007 39.4052 199.825 46.4509 203.266 51.4658C206.737 56.5247 211.835 59.4655 218.153 59.4655V56.8945C212.744 56.8945 208.413 54.4233 205.385 50.0112C202.328 45.5551 200.578 39.0708 200.578 31.12H198.007ZM218.153 59.4655C221.557 59.4655 224.553 58.6355 226.91 57.0022C229.28 55.361 230.928 52.9603 231.698 49.9726L229.208 49.3314C228.583 51.7557 227.28 53.619 225.447 54.8888C223.602 56.1665 221.145 56.8945 218.153 56.8945V59.4655ZM231.738 49.652V34.728H229.167V49.652H231.738ZM279.307 58.5345C262.505 58.5345 249.925 46.3543 249.925 30.3H247.354C247.354 47.8657 261.178 61.1055 279.307 61.1055V58.5345ZM249.925 30.3C249.925 14.2457 262.505 2.06545 279.307 2.06545V-0.505461C261.178 -0.505461 247.354 12.7343 247.354 30.3H249.925ZM279.307 2.06545C296.11 2.06545 308.69 14.2457 308.69 30.3H311.261C311.261 12.7343 297.437 -0.505461 279.307 -0.505461V2.06545ZM308.69 30.3C308.69 46.3543 296.11 58.5345 279.307 58.5345V61.1055C297.437 61.1055 311.261 47.8657 311.261 30.3H308.69ZM279.307 59.4655C285.15 59.4655 289.976 56.4071 293.285 51.2367C296.572 46.1001 298.387 38.8665 298.387 30.3H295.816C295.816 38.5435 294.064 45.2499 291.119 49.8508C288.196 54.4179 284.125 56.8945 279.307 56.8945V59.4655ZM298.387 30.3C298.387 21.7335 296.572 14.4999 293.285 9.36332C289.976 4.19287 285.15 1.13454 279.307 1.13454V3.70545C284.125 3.70545 288.196 6.18212 291.119 10.7492C294.064 15.3501 295.816 22.0565 295.816 30.3H298.387ZM279.307 1.13454C273.426 1.13454 268.599 4.19096 265.298 9.36494C262.021 14.5025 260.228 21.7363 260.228 30.3H262.799C262.799 22.0537 264.532 15.3475 267.466 10.7476C270.377 6.18403 274.447 3.70545 279.307 3.70545V1.13454ZM260.228 30.3C260.228 38.8637 262.021 46.0975 265.298 51.2351C268.599 56.409 273.426 59.4655 279.307 59.4655V56.8945C274.447 56.8945 270.377 54.416 267.466 49.8524C264.532 45.2525 262.799 38.5463 262.799 30.3H260.228ZM346.733 58.5345C329.931 58.5345 317.351 46.3543 317.351 30.3H314.78C314.78 47.8657 328.604 61.1055 346.733 61.1055V58.5345ZM317.351 30.3C317.351 14.2457 329.931 2.06545 346.733 2.06545V-0.505461C328.604 -0.505461 314.78 12.7343 314.78 30.3H317.351ZM346.733 2.06545C363.536 2.06545 376.116 14.2457 376.116 30.3H378.687C378.687 12.7343 364.863 -0.505461 346.733 -0.505461V2.06545ZM376.116 30.3C376.116 46.3543 363.536 58.5345 346.733 58.5345V61.1055C364.863 61.1055 378.687 47.8657 378.687 30.3H376.116ZM346.733 59.4655C352.576 59.4655 357.401 56.4071 360.71 51.2367C363.998 46.1001 365.813 38.8665 365.813 30.3H363.242C363.242 38.5435 361.49 45.2499 358.545 49.8508C355.622 54.4179 351.55 56.8945 346.733 56.8945V59.4655ZM365.813 30.3C365.813 21.7335 363.998 14.4999 360.71 9.36332C357.401 4.19287 352.576 1.13454 346.733 1.13454V3.70545C351.55 3.70545 355.622 6.18212 358.545 10.7492C361.49 15.3501 363.242 22.0565 363.242 30.3H365.813ZM346.733 1.13454C340.851 1.13454 336.025 4.19096 332.724 9.36494C329.447 14.5025 327.654 21.7363 327.654 30.3H330.225C330.225 22.0537 331.957 15.3475 334.892 10.7476C337.803 6.18403 341.873 3.70545 346.733 3.70545V1.13454ZM327.654 30.3C327.654 38.8637 329.447 46.0975 332.724 51.2351C336.025 56.409 340.851 59.4655 346.733 59.4655V56.8945C341.873 56.8945 337.803 54.416 334.892 49.8524C331.957 45.2525 330.225 38.5463 330.225 30.3H327.654ZM386.525 59H385.24V60.2855H386.525V59ZM386.525 1.6V0.314538H385.24V1.6H386.525ZM399.071 3.24V1.95454H397.786V3.24H399.071ZM399.071 57.36H397.786V58.6455H399.071V57.36ZM409.731 2.88545C427.008 2.88545 439.852 14.798 439.852 30.3H442.422C442.422 13.166 428.206 0.314538 409.731 0.314538V2.88545ZM439.852 30.3C439.852 45.802 427.008 57.7145 409.731 57.7145V60.2855C428.206 60.2855 442.422 47.434 442.422 30.3H439.852ZM409.731 57.7145H386.525V60.2855H409.731V57.7145ZM387.81 59V1.6H385.24V59H387.81ZM386.525 2.88545H409.731V0.314538H386.525V2.88545ZM407.845 58.6455C414.411 58.6455 419.891 55.7602 423.693 50.7237C427.471 45.7183 429.548 38.6574 429.548 30.3H426.978C426.978 38.2606 424.996 44.7297 421.641 49.1748C418.309 53.5888 413.579 56.0745 407.845 56.0745V58.6455ZM429.548 30.3C429.548 21.9426 427.471 14.8817 423.693 9.87627C419.891 4.83983 414.411 1.95454 407.845 1.95454V4.52546C413.579 4.52546 418.309 7.01117 421.641 11.4252C424.996 15.8703 426.978 22.3394 426.978 30.3H429.548ZM407.845 1.95454H399.071V4.52546H407.845V1.95454ZM397.786 3.24V57.36H400.356V3.24H397.786ZM399.071 58.6455H407.845V56.0745H399.071V58.6455ZM551.69 1.6V0.314538H550.849L550.512 1.08533L551.69 1.6ZM553.986 1.6L555.163 2.11629L555.953 0.314538H553.986V1.6ZM528.812 59V60.2855H529.652L529.989 59.5163L528.812 59ZM524.466 59L523.288 59.5146L523.625 60.2855H524.466V59ZM510.28 26.528L511.458 26.0134L510.283 23.3248L509.103 26.0109L510.28 26.528ZM496.012 59V60.2855H496.851L497.189 59.5171L496.012 59ZM491.666 59L490.488 59.5149L490.825 60.2855H491.666V59ZM466.574 1.6V0.314538H464.609L465.396 2.11488L466.574 1.6ZM479.858 1.6L481.037 1.08895L480.702 0.314538H479.858V1.6ZM499.292 46.454L498.112 46.965L499.285 49.6727L500.469 46.9697L499.292 46.454ZM509.132 23.986L510.309 24.5017L510.534 23.9872L510.31 23.4723L509.132 23.986ZM499.374 1.6V0.314538H497.411L498.195 2.11365L499.374 1.6ZM512.658 1.6L513.837 1.08895L513.502 0.314538H512.658V1.6ZM532.092 46.454L530.912 46.965L532.087 49.6759L533.27 46.9687L532.092 46.454ZM551.69 2.88545H553.986V0.314538H551.69V2.88545ZM552.808 1.0837L527.634 58.4837L529.989 59.5163L555.163 2.11629L552.808 1.0837ZM528.812 57.7145H524.466V60.2855H528.812V57.7145ZM525.644 58.4854L511.458 26.0134L509.102 27.0426L523.288 59.5146L525.644 58.4854ZM509.103 26.0109L494.835 58.4829L497.189 59.5171L511.457 27.0451L509.103 26.0109ZM496.012 57.7145H491.666V60.2855H496.012V57.7145ZM492.844 58.4851L467.752 1.08511L465.396 2.11488L490.488 59.5149L492.844 58.4851ZM466.574 2.88545H479.858V0.314538H466.574V2.88545ZM478.678 2.11104L498.112 46.965L500.471 45.943L481.037 1.08895L478.678 2.11104ZM500.469 46.9697L510.309 24.5017L507.954 23.4703L498.114 45.9383L500.469 46.9697ZM510.31 23.4723L500.552 1.08635L498.195 2.11365L507.953 24.4996L510.31 23.4723ZM499.374 2.88545H512.658V0.314538H499.374V2.88545ZM511.478 2.11104L530.912 46.965L533.271 45.943L513.837 1.08895L511.478 2.11104ZM533.27 46.9687L552.868 2.11467L550.512 1.08533L530.914 45.9393L533.27 46.9687ZM560.615 59H559.329V60.2855H560.615V59ZM560.615 1.6V0.314538H559.329V1.6H560.615ZM573.161 1.6H574.446V0.314538H573.161V1.6ZM573.161 59V60.2855H574.446V59H573.161ZM561.9 59V1.6H559.329V59H561.9ZM560.615 2.88545H573.161V0.314538H560.615V2.88545ZM571.875 1.6V59H574.446V1.6H571.875ZM573.161 57.7145H560.615V60.2855H573.161V57.7145ZM631.609 1.6V0.314538H630.323V1.6H631.609ZM633.577 1.6H634.862V0.314538H633.577V1.6ZM633.577 59V60.2855H634.862V59H633.577ZM630.789 59L629.873 59.9021L630.251 60.2855H630.789V59ZM587.247 14.802L588.163 13.8999L585.961 11.6655V14.802H587.247ZM587.247 59V60.2855H588.532V59H587.247ZM585.279 59H583.993V60.2855H585.279V59ZM585.279 1.6V0.314538H583.993V1.6H585.279ZM591.429 1.6L592.348 0.701185L591.97 0.314538H591.429V1.6ZM631.609 42.682L630.69 43.5808L632.894 45.8347V42.682H631.609ZM631.609 2.88545H633.577V0.314538H631.609V2.88545ZM632.292 1.6V59H634.862V1.6H632.292ZM633.577 57.7145H630.789V60.2855H633.577V57.7145ZM631.705 58.0979L588.163 13.8999L586.331 15.7041L629.873 59.9021L631.705 58.0979ZM585.961 14.802V59H588.532V14.802H585.961ZM587.247 57.7145H585.279V60.2855H587.247V57.7145ZM586.564 59V1.6H583.993V59H586.564ZM585.279 2.88545H591.429V0.314538H585.279V2.88545ZM590.51 2.49881L630.69 43.5808L632.528 41.7832L592.348 0.701185L590.51 2.49881ZM632.894 42.682V1.6H630.323V42.682H632.894ZM658.284 57.36H656.998V58.6455H658.284V57.36ZM688.05 57.36H689.335V56.0745H688.05V57.36ZM688.05 59V60.2855H689.335V59H688.05ZM645.738 59H644.452V60.2855H645.738V59ZM645.738 1.6V0.314538H644.452V1.6H645.738ZM687.23 1.6H688.515V0.314538H687.23V1.6ZM687.23 3.24V4.52546H688.515V3.24H687.23ZM658.284 3.24V1.95454H656.998V3.24H658.284ZM658.284 29.07H656.998V30.3555H658.284V29.07ZM680.67 29.07H681.955V27.7845H680.67V29.07ZM680.67 30.71V31.9955H681.955V30.71H680.67ZM658.284 30.71V29.4245H656.998V30.71H658.284ZM658.284 58.6455H688.05V56.0745H658.284V58.6455ZM686.764 57.36V59H689.335V57.36H686.764ZM688.05 57.7145H645.738V60.2855H688.05V57.7145ZM647.023 59V1.6H644.452V59H647.023ZM645.738 2.88545H687.23V0.314538H645.738V2.88545ZM685.944 1.6V3.24H688.515V1.6H685.944ZM687.23 1.95454H658.284V4.52546H687.23V1.95454ZM656.998 3.24V29.07H659.569V3.24H656.998ZM658.284 30.3555H680.67V27.7845H658.284V30.3555ZM679.384 29.07V30.71H681.955V29.07H679.384ZM680.67 29.4245H658.284V31.9955H680.67V29.4245ZM656.998 30.71V57.36H659.569V30.71H656.998Z" fill="#EFEFEF" mask="url(#path-1-outside-1_1691_3501)"/>
</svg>
