<svg width="269" height="24" viewBox="0 0 269 24" fill="none" xmlns="http://www.w3.org/2000/svg">
<mask id="path-1-outside-1_648_5004" maskUnits="userSpaceOnUse" x="-1" y="-1" width="271" height="26" fill="black">
<rect fill="white" x="-1" y="-1" width="271" height="26"/>
<path d="M16.24 1.24L5.264 1.24V11.64H13.68V12.28H5.264L5.264 23H0.368L0.368 0.599998L16.24 0.599998V1.24ZM28.652 23.32C21.836 23.32 16.684 18.36 16.684 11.8C16.684 5.24 21.836 0.279999 28.652 0.279999C35.468 0.279999 40.62 5.24 40.62 11.8C40.62 18.36 35.468 23.32 28.652 23.32ZM28.652 22.68C32.812 22.68 35.596 18.36 35.596 11.8C35.596 5.24 32.812 0.919998 28.652 0.919998C24.46 0.919998 21.708 5.24 21.708 11.8C21.708 18.36 24.46 22.68 28.652 22.68ZM61.9405 20.568C62.4205 21.56 63.1245 22.552 63.7645 23H58.4845C57.8765 22.616 57.3325 21.816 57.0125 21.144L54.0365 14.712C53.7485 14.136 53.2685 13.656 52.5645 13.4H49.0765V23H44.1805V0.599998L53.7165 0.599998C58.4845 0.599998 62.1325 3.288 62.1325 7.032C62.1325 10.36 59.2525 12.792 55.2525 13.304C57.3005 13.656 59.0925 14.552 59.8605 16.28L61.9405 20.568ZM49.0765 1.24V12.76H52.5645C55.3165 12.76 57.1085 10.488 57.1085 7C57.1085 3.512 55.3165 1.24 52.5645 1.24H49.0765ZM90.2743 13.528H94.9463V23H94.6263L91.9703 20.568C90.8183 22.264 88.2583 23.32 85.1543 23.32C78.4343 23.32 73.0903 18.36 73.0903 11.768C73.0903 5.24 78.3383 0.279999 85.4423 0.279999C90.4343 0.279999 94.0823 2.84 94.0823 6.36H93.3783C93.3783 3.352 90.6583 1.4 86.6903 1.4C81.3142 1.4 78.1143 5.208 78.1143 12.12C78.1143 18.456 80.8983 22.68 85.4743 22.68C87.9703 22.68 89.7303 21.464 90.2743 19.352V13.528ZM109.34 23.32C102.524 23.32 97.3715 18.36 97.3715 11.8C97.3715 5.24 102.524 0.279999 109.34 0.279999C116.156 0.279999 121.308 5.24 121.308 11.8C121.308 18.36 116.156 23.32 109.34 23.32ZM109.34 22.68C113.5 22.68 116.284 18.36 116.284 11.8C116.284 5.24 113.5 0.919998 109.34 0.919998C105.148 0.919998 102.396 5.24 102.396 11.8C102.396 18.36 105.148 22.68 109.34 22.68ZM135.652 23.32C128.836 23.32 123.684 18.36 123.684 11.8C123.684 5.24 128.836 0.279999 135.652 0.279999C142.468 0.279999 147.62 5.24 147.62 11.8C147.62 18.36 142.468 23.32 135.652 23.32ZM135.652 22.68C139.812 22.68 142.596 18.36 142.596 11.8C142.596 5.24 139.812 0.919998 135.652 0.919998C131.46 0.919998 128.708 5.24 128.708 11.8C128.708 18.36 131.46 22.68 135.652 22.68ZM160.237 0.599998C167.213 0.599998 172.493 5.432 172.493 11.8C172.493 18.168 167.213 23 160.237 23H151.181V0.599998L160.237 0.599998ZM159.501 22.36C164.301 22.36 167.469 18.168 167.469 11.8C167.469 5.432 164.301 1.24 159.501 1.24L156.077 1.24V22.36H159.501ZM215.635 0.599998H216.531L206.707 23H205.011L199.475 10.328L193.907 23H192.211L182.419 0.599998L187.603 0.599998L195.187 18.104L199.027 9.336L195.219 0.599998H200.403L207.987 18.104L215.635 0.599998ZM219.118 23V0.599998L224.014 0.599998V23H219.118ZM246.823 0.599998H247.591V23H246.503L229.511 5.752V23H228.743V0.599998L231.143 0.599998L246.823 16.632V0.599998ZM257.233 22.36H268.849V23H252.337V0.599998L268.529 0.599998V1.24L257.233 1.24V11.32L265.969 11.32V11.96L257.233 11.96V22.36Z"/>
</mask>
<path d="M16.24 1.24V2.24L17.24 2.24V1.24L16.24 1.24ZM5.264 1.24V0.24H4.264V1.24H5.264ZM5.264 11.64H4.264V12.64H5.264V11.64ZM13.68 11.64H14.68V10.64H13.68V11.64ZM13.68 12.28V13.28H14.68V12.28H13.68ZM5.264 12.28V11.28H4.264V12.28H5.264ZM5.264 23V24H6.264V23H5.264ZM0.368 23H-0.632V24H0.368L0.368 23ZM0.368 0.599998V-0.400002H-0.632V0.599998H0.368ZM16.24 0.599998H17.24V-0.400002L16.24 -0.400002V0.599998ZM16.24 0.24L5.264 0.24V2.24L16.24 2.24V0.24ZM4.264 1.24V11.64H6.264V1.24H4.264ZM5.264 12.64H13.68V10.64H5.264V12.64ZM12.68 11.64V12.28H14.68V11.64H12.68ZM13.68 11.28H5.264V13.28H13.68V11.28ZM4.264 12.28L4.264 23H6.264V12.28H4.264ZM5.264 22H0.368L0.368 24H5.264V22ZM1.368 23L1.368 0.599998L-0.632 0.599998L-0.632 23H1.368ZM0.368 1.6L16.24 1.6V-0.400002L0.368 -0.400002V1.6ZM15.24 0.599998V1.24L17.24 1.24V0.599998L15.24 0.599998ZM28.652 22.32C22.352 22.32 17.684 17.7721 17.684 11.8H15.684C15.684 18.9479 21.32 24.32 28.652 24.32V22.32ZM17.684 11.8C17.684 5.82785 22.352 1.28 28.652 1.28V-0.720001C21.32 -0.720001 15.684 4.65215 15.684 11.8H17.684ZM28.652 1.28C34.952 1.28 39.62 5.82785 39.62 11.8H41.62C41.62 4.65215 35.984 -0.720001 28.652 -0.720001V1.28ZM39.62 11.8C39.62 17.7721 34.952 22.32 28.652 22.32V24.32C35.984 24.32 41.62 18.9479 41.62 11.8H39.62ZM28.652 23.68C31.131 23.68 33.1601 22.3737 34.5263 20.2391C35.8756 18.1307 36.596 15.2056 36.596 11.8H34.596C34.596 14.9544 33.9244 17.4693 32.8417 19.1609C31.7759 20.8263 30.333 21.68 28.652 21.68V23.68ZM36.596 11.8C36.596 8.39439 35.8756 5.46932 34.5263 3.36095C33.1601 1.22625 31.131 -0.0800018 28.652 -0.0800018V1.92C30.333 1.92 31.7759 2.77375 32.8417 4.43905C33.9244 6.13068 34.596 8.6456 34.596 11.8H36.596ZM28.652 -0.0800018C26.1586 -0.0800018 24.1284 1.22476 22.7649 3.36221C21.4195 5.47135 20.708 8.39655 20.708 11.8H22.708C22.708 8.64345 23.3725 6.12865 24.4511 4.43779C25.5116 2.77524 26.9534 1.92 28.652 1.92V-0.0800018ZM20.708 11.8C20.708 15.2035 21.4195 18.1286 22.7649 20.2378C24.1284 22.3752 26.1586 23.68 28.652 23.68V21.68C26.9534 21.68 25.5116 20.8248 24.4511 19.1622C23.3725 17.4713 22.708 14.9565 22.708 11.8H20.708ZM61.9405 20.568L62.8407 20.1324L62.8402 20.1316L61.9405 20.568ZM63.7645 23V24H66.9369L64.338 22.1808L63.7645 23ZM58.4845 23L57.9505 23.8455L58.1952 24H58.4845V23ZM57.0125 21.144L56.1049 21.5639L56.1096 21.5739L57.0125 21.144ZM54.0365 14.712L54.9441 14.2921L54.9377 14.2783L54.9309 14.2648L54.0365 14.712ZM52.5645 13.4L52.9062 12.4602L52.7407 12.4H52.5645V13.4ZM49.0765 13.4V12.4H48.0765V13.4H49.0765ZM49.0765 23V24H50.0765V23H49.0765ZM44.1805 23H43.1805V24H44.1805V23ZM44.1805 0.599998V-0.400002H43.1805V0.599998H44.1805ZM55.2525 13.304L55.1255 12.3121L55.0831 14.2895L55.2525 13.304ZM59.8605 16.28L58.9467 16.6861L58.9535 16.7014L58.9608 16.7164L59.8605 16.28ZM49.0765 1.24V0.24H48.0765V1.24H49.0765ZM49.0765 12.76H48.0765V13.76H49.0765V12.76ZM61.0403 21.0036C61.5476 22.0518 62.3434 23.2259 63.191 23.8192L64.338 22.1808C63.9056 21.8781 63.2934 21.0682 62.8407 20.1324L61.0403 21.0036ZM63.7645 22H58.4845V24H63.7645V22ZM59.0185 22.1545C58.6482 21.9207 58.2059 21.3242 57.9154 20.7141L56.1096 21.5739C56.4591 22.3078 57.1048 23.3113 57.9505 23.8455L59.0185 22.1545ZM57.9201 20.7241L54.9441 14.2921L53.1289 15.1319L56.1049 21.5639L57.9201 20.7241ZM54.9309 14.2648C54.5381 13.4792 53.8702 12.8107 52.9062 12.4602L52.2228 14.3398C52.6668 14.5013 52.9589 14.7928 53.1421 15.1592L54.9309 14.2648ZM52.5645 12.4H49.0765V14.4H52.5645V12.4ZM48.0765 13.4V23H50.0765V13.4H48.0765ZM49.0765 22H44.1805V24H49.0765V22ZM45.1805 23V0.599998L43.1805 0.599998V23H45.1805ZM44.1805 1.6L53.7165 1.6V-0.400002L44.1805 -0.400002V1.6ZM53.7165 1.6C58.2097 1.6 61.1325 4.08189 61.1325 7.032H63.1325C63.1325 2.49411 58.7593 -0.400002 53.7165 -0.400002V1.6ZM61.1325 7.032C61.1325 9.65749 58.8533 11.8349 55.1255 12.3121L55.3795 14.2959C59.6517 13.7491 63.1325 11.0625 63.1325 7.032H61.1325ZM55.0831 14.2895C56.9953 14.6182 58.3784 15.4075 58.9467 16.6861L60.7743 15.8739C59.8066 13.6965 57.6057 12.6938 55.4219 12.3185L55.0831 14.2895ZM58.9608 16.7164L61.0408 21.0044L62.8402 20.1316L60.7602 15.8436L58.9608 16.7164ZM48.0765 1.24V12.76H50.0765V1.24H48.0765ZM49.0765 13.76H52.5645V11.76H49.0765V13.76ZM52.5645 13.76C54.2432 13.76 55.6699 13.0544 56.6536 11.8073C57.6197 10.5827 58.1085 8.905 58.1085 7H56.1085C56.1085 8.583 55.7013 9.78535 55.0834 10.5687C54.4831 11.3296 53.6378 11.76 52.5645 11.76V13.76ZM58.1085 7C58.1085 5.095 57.6197 3.41735 56.6536 2.19266C55.6699 0.945579 54.2432 0.24 52.5645 0.24V2.24C53.6378 2.24 54.4831 2.67042 55.0834 3.43134C55.7013 4.21465 56.1085 5.417 56.1085 7H58.1085ZM52.5645 0.24L49.0765 0.24V2.24H52.5645V0.24ZM90.2742 13.528V12.528H89.2742V13.528H90.2742ZM94.9463 13.528H95.9463V12.528H94.9463V13.528ZM94.9463 23V24H95.9463V23H94.9463ZM94.6263 23L93.9509 23.7375L94.2376 24H94.6263V23ZM91.9703 20.568L92.6456 19.8305L91.7928 19.0496L91.143 20.0061L91.9703 20.568ZM94.0823 6.36V7.36H95.0823V6.36H94.0823ZM93.3783 6.36H92.3783V7.36H93.3783V6.36ZM90.2742 19.352L91.2426 19.6014L91.2742 19.4787V19.352H90.2742ZM90.2742 14.528H94.9463V12.528H90.2742V14.528ZM93.9463 13.528V23H95.9463V13.528H93.9463ZM94.9463 22H94.6263V24H94.9463V22ZM95.3016 22.2625L92.6456 19.8305L91.2949 21.3055L93.9509 23.7375L95.3016 22.2625ZM91.143 20.0061C90.2547 21.314 88.0941 22.32 85.1543 22.32V24.32C88.4224 24.32 91.3818 23.214 92.7975 21.1299L91.143 20.0061ZM85.1543 22.32C78.9361 22.32 74.0902 17.7586 74.0902 11.768H72.0902C72.0902 18.9614 77.9324 24.32 85.1543 24.32V22.32ZM74.0902 11.768C74.0902 5.85497 78.8257 1.28 85.4423 1.28V-0.720001C77.8508 -0.720001 72.0902 4.62503 72.0902 11.768H74.0902ZM85.4423 1.28C87.7779 1.28 89.7252 1.88018 91.0591 2.81803C92.38 3.7468 93.0823 4.98356 93.0823 6.36H95.0823C95.0823 4.21644 93.9605 2.4132 92.2094 1.18197C90.4713 -0.0401781 88.0986 -0.720001 85.4423 -0.720001V1.28ZM94.0823 5.36H93.3783V7.36H94.0823V5.36ZM94.3783 6.36C94.3783 4.51804 93.5305 2.98654 92.1143 1.94612C90.7231 0.923999 88.826 0.4 86.6902 0.4V2.4C88.5226 2.4 89.9694 2.852 90.9302 3.55788C91.866 4.24546 92.3783 5.19396 92.3783 6.36H94.3783ZM86.6902 0.4C83.7465 0.4 81.2983 1.4547 79.6094 3.53831C77.9447 5.59209 77.1143 8.52558 77.1143 12.12H79.1143C79.1143 8.80242 79.8838 6.3759 81.1631 4.79769C82.4182 3.2493 84.258 2.4 86.6902 2.4V0.4ZM77.1143 12.12C77.1143 15.418 77.8365 18.2764 79.2537 20.3418C80.6943 22.4413 82.8328 23.68 85.4743 23.68V21.68C83.5396 21.68 81.9982 20.8067 80.9028 19.2102C79.784 17.5796 79.1143 15.158 79.1143 12.12H77.1143ZM85.4743 23.68C86.8824 23.68 88.156 23.3364 89.1757 22.63C90.2043 21.9175 90.9142 20.8765 91.2426 19.6014L89.3059 19.1026C89.0903 19.9395 88.6482 20.5625 88.0368 20.986C87.4165 21.4156 86.5621 21.68 85.4743 21.68V23.68ZM91.2742 19.352V13.528H89.2742V19.352H91.2742ZM109.34 22.32C103.04 22.32 98.3715 17.7721 98.3715 11.8H96.3715C96.3715 18.9479 102.007 24.32 109.34 24.32V22.32ZM98.3715 11.8C98.3715 5.82785 103.04 1.28 109.34 1.28V-0.720001C102.007 -0.720001 96.3715 4.65215 96.3715 11.8H98.3715ZM109.34 1.28C115.639 1.28 120.308 5.82785 120.308 11.8H122.308C122.308 4.65215 116.672 -0.720001 109.34 -0.720001V1.28ZM120.308 11.8C120.308 17.7721 115.639 22.32 109.34 22.32V24.32C116.672 24.32 122.308 18.9479 122.308 11.8H120.308ZM109.34 23.68C111.818 23.68 113.848 22.3737 115.214 20.2391C116.563 18.1307 117.284 15.2056 117.284 11.8H115.284C115.284 14.9544 114.612 17.4693 113.529 19.1609C112.463 20.8263 111.021 21.68 109.34 21.68V23.68ZM117.284 11.8C117.284 8.39439 116.563 5.46932 115.214 3.36095C113.848 1.22625 111.818 -0.0800018 109.34 -0.0800018V1.92C111.021 1.92 112.463 2.77375 113.529 4.43905C114.612 6.13068 115.284 8.6456 115.284 11.8H117.284ZM109.34 -0.0800018C106.846 -0.0800018 104.816 1.22476 103.452 3.36221C102.107 5.47135 101.396 8.39655 101.396 11.8H103.396C103.396 8.64345 104.06 6.12865 105.139 4.43779C106.199 2.77524 107.641 1.92 109.34 1.92V-0.0800018ZM101.396 11.8C101.396 15.2035 102.107 18.1286 103.452 20.2378C104.816 22.3752 106.846 23.68 109.34 23.68V21.68C107.641 21.68 106.199 20.8248 105.139 19.1622C104.06 17.4713 103.396 14.9565 103.396 11.8H101.396ZM135.652 22.32C129.352 22.32 124.684 17.7721 124.684 11.8H122.684C122.684 18.9479 128.32 24.32 135.652 24.32V22.32ZM124.684 11.8C124.684 5.82785 129.352 1.28 135.652 1.28V-0.720001C128.32 -0.720001 122.684 4.65215 122.684 11.8H124.684ZM135.652 1.28C141.952 1.28 146.62 5.82785 146.62 11.8H148.62C148.62 4.65215 142.984 -0.720001 135.652 -0.720001V1.28ZM146.62 11.8C146.62 17.7721 141.952 22.32 135.652 22.32V24.32C142.984 24.32 148.62 18.9479 148.62 11.8H146.62ZM135.652 23.68C138.131 23.68 140.16 22.3737 141.526 20.2391C142.876 18.1307 143.596 15.2056 143.596 11.8H141.596C141.596 14.9544 140.924 17.4693 139.842 19.1609C138.776 20.8263 137.333 21.68 135.652 21.68V23.68ZM143.596 11.8C143.596 8.39439 142.876 5.46932 141.526 3.36095C140.16 1.22625 138.131 -0.0800018 135.652 -0.0800018V1.92C137.333 1.92 138.776 2.77375 139.842 4.43905C140.924 6.13068 141.596 8.6456 141.596 11.8H143.596ZM135.652 -0.0800018C133.159 -0.0800018 131.128 1.22476 129.765 3.36221C128.42 5.47135 127.708 8.39655 127.708 11.8H129.708C129.708 8.64345 130.372 6.12865 131.451 4.43779C132.512 2.77524 133.953 1.92 135.652 1.92V-0.0800018ZM127.708 11.8C127.708 15.2035 128.42 18.1286 129.765 20.2378C131.128 22.3752 133.159 23.68 135.652 23.68V21.68C133.953 21.68 132.512 20.8248 131.451 19.1622C130.372 17.4713 129.708 14.9565 129.708 11.8H127.708ZM151.18 23H150.18V24H151.18V23ZM151.18 0.599998V-0.400002H150.18V0.599998L151.18 0.599998ZM156.077 1.24V0.24L155.077 0.24V1.24H156.077ZM156.077 22.36H155.077V23.36H156.077V22.36ZM160.236 1.6C166.747 1.6 171.492 6.06679 171.492 11.8H173.492C173.492 4.7972 167.678 -0.400002 160.236 -0.400002V1.6ZM171.492 11.8C171.492 17.5332 166.747 22 160.236 22V24C167.678 24 173.492 18.8028 173.492 11.8H171.492ZM160.236 22H151.18V24H160.236V22ZM152.18 23V0.599998L150.18 0.599998V23H152.18ZM151.18 1.6L160.236 1.6V-0.400002L151.18 -0.400002V1.6ZM159.501 23.36C162.224 23.36 164.508 22.1566 166.083 20.0705C167.639 18.0085 168.469 15.1383 168.469 11.8H166.469C166.469 14.8297 165.714 17.2395 164.486 18.8655C163.277 20.4674 161.577 21.36 159.501 21.36V23.36ZM168.469 11.8C168.469 8.46169 167.639 5.59146 166.083 3.52951C164.508 1.44342 162.224 0.24 159.501 0.24V2.24C161.577 2.24 163.277 3.13258 164.486 4.73449C165.714 6.36054 166.469 8.77031 166.469 11.8H168.469ZM159.501 0.24L156.077 0.24V2.24L159.501 2.24V0.24ZM155.077 1.24V22.36H157.077V1.24L155.077 1.24ZM156.077 23.36H159.501V21.36H156.077V23.36ZM215.635 0.599998V-0.400002H214.981L214.719 0.199619L215.635 0.599998ZM216.531 0.599998L217.447 1.00164L218.062 -0.400002H216.531V0.599998ZM206.707 23V24H207.36L207.623 23.4016L206.707 23ZM205.011 23L204.095 23.4003L204.357 24H205.011V23ZM199.475 10.328L200.391 9.92767L199.478 7.83612L198.559 9.92572L199.475 10.328ZM193.907 23V24H194.56L194.823 23.4023L193.907 23ZM192.211 23L191.295 23.4005L191.557 24H192.211V23ZM182.419 0.599998V-0.400002H180.89L181.503 1.00054L182.419 0.599998ZM187.603 0.599998L188.521 0.202438L188.26 -0.400002H187.603V0.599998ZM195.187 18.104L194.269 18.5016L195.182 20.608L196.103 18.5052L195.187 18.104ZM199.027 9.336L199.943 9.73717L200.118 9.33694L199.944 8.93641L199.027 9.336ZM195.219 0.599998V-0.400002L193.692 -0.400002L194.302 0.999584L195.219 0.599998ZM200.403 0.599998L201.321 0.202438L201.06 -0.400002H200.403V0.599998ZM207.987 18.104L207.069 18.5016L207.983 20.6104L208.903 18.5044L207.987 18.104ZM215.635 1.6H216.531V-0.400002L215.635 -0.400002V1.6ZM215.615 0.198356L205.791 22.5984L207.623 23.4016L217.447 1.00164L215.615 0.198356ZM206.707 22H205.011V24H206.707V22ZM205.927 22.5997L200.391 9.92767L198.559 10.7283L204.095 23.4003L205.927 22.5997ZM198.559 9.92572L192.991 22.5977L194.823 23.4023L200.391 10.7303L198.559 9.92572ZM193.907 22H192.211V24H193.907V22ZM193.127 22.5995L183.335 0.199454L181.503 1.00054L191.295 23.4005L193.127 22.5995ZM182.419 1.6L187.603 1.6V-0.400002L182.419 -0.400002V1.6ZM186.685 0.997559L194.269 18.5016L196.105 17.7064L188.521 0.202438L186.685 0.997559ZM196.103 18.5052L199.943 9.73717L198.111 8.93483L194.271 17.7028L196.103 18.5052ZM199.944 8.93641L196.136 0.200413L194.302 0.999584L198.11 9.73559L199.944 8.93641ZM195.219 1.6L200.403 1.6V-0.400002H195.219V1.6ZM199.485 0.997559L207.069 18.5016L208.905 17.7064L201.321 0.202438L199.485 0.997559ZM208.903 18.5044L216.551 1.00038L214.719 0.199619L207.071 17.7036L208.903 18.5044ZM219.118 23H218.118V24H219.118V23ZM219.118 0.599998V-0.400002H218.118V0.599998H219.118ZM224.014 0.599998L225.014 0.599998V-0.400002H224.014V0.599998ZM224.014 23V24H225.014V23H224.014ZM220.118 23V0.599998H218.118V23H220.118ZM219.118 1.6H224.014V-0.400002L219.118 -0.400002V1.6ZM223.014 0.599998V23H225.014V0.599998L223.014 0.599998ZM224.014 22H219.118V24H224.014V22ZM246.823 0.599998V-0.400002L245.823 -0.400002V0.599998L246.823 0.599998ZM247.591 0.599998H248.591V-0.400002H247.591V0.599998ZM247.591 23V24H248.591V23H247.591ZM246.503 23L245.791 23.7018L246.084 24H246.503V23ZM229.511 5.752L230.223 5.0502L228.511 3.31203V5.752H229.511ZM229.511 23V24H230.511V23H229.511ZM228.743 23H227.743V24H228.743V23ZM228.743 0.599998V-0.400002H227.743V0.599998H228.743ZM231.143 0.599998L231.858 -0.0992165L231.564 -0.400002H231.143V0.599998ZM246.823 16.632L246.108 17.3312L247.823 19.0846V16.632H246.823ZM246.823 1.6H247.591V-0.400002H246.823V1.6ZM246.591 0.599998V23H248.591V0.599998L246.591 0.599998ZM247.591 22H246.503V24H247.591V22ZM247.215 22.2982L230.223 5.0502L228.799 6.4538L245.791 23.7018L247.215 22.2982ZM228.511 5.752V23H230.511V5.752H228.511ZM229.511 22H228.743V24H229.511V22ZM229.743 23V0.599998H227.743V23H229.743ZM228.743 1.6L231.143 1.6V-0.400002L228.743 -0.400002V1.6ZM230.428 1.29921L246.108 17.3312L247.538 15.9328L231.858 -0.0992165L230.428 1.29921ZM247.823 16.632V0.599998L245.823 0.599998V16.632H247.823ZM257.233 22.36H256.233V23.36H257.233V22.36ZM268.849 22.36H269.849V21.36H268.849V22.36ZM268.849 23V24H269.849V23H268.849ZM252.337 23H251.337V24H252.337V23ZM252.337 0.599998V-0.400002H251.337V0.599998H252.337ZM268.529 0.599998L269.529 0.599998V-0.400002H268.529V0.599998ZM268.529 1.24V2.24H269.529V1.24L268.529 1.24ZM257.233 1.24V0.24H256.233V1.24H257.233ZM257.233 11.32H256.233V12.32H257.233V11.32ZM265.969 11.32H266.969V10.32H265.969V11.32ZM265.969 11.96V12.96H266.969V11.96H265.969ZM257.233 11.96V10.96H256.233V11.96H257.233ZM257.233 23.36H268.849V21.36H257.233V23.36ZM267.849 22.36V23H269.849V22.36H267.849ZM268.849 22H252.337V24H268.849V22ZM253.337 23V0.599998L251.337 0.599998V23H253.337ZM252.337 1.6L268.529 1.6V-0.400002L252.337 -0.400002V1.6ZM267.529 0.599998V1.24L269.529 1.24V0.599998L267.529 0.599998ZM268.529 0.24L257.233 0.24V2.24H268.529V0.24ZM256.233 1.24V11.32H258.233V1.24H256.233ZM257.233 12.32L265.969 12.32V10.32L257.233 10.32V12.32ZM264.969 11.32V11.96H266.969V11.32H264.969ZM265.969 10.96L257.233 10.96V12.96L265.969 12.96V10.96ZM256.233 11.96V22.36H258.233V11.96H256.233Z" fill="white" mask="url(#path-1-outside-1_648_5004)"/>
</svg>
