<svg width="404" height="36" viewBox="0 0 404 36" fill="none" xmlns="http://www.w3.org/2000/svg">
<mask id="path-1-outside-1_1579_7168" maskUnits="userSpaceOnUse" x="-1" y="-1" width="406" height="38" fill="black">
<rect fill="white" x="-1" y="-1" width="406" height="38"/>
<path d="M24.36 2.36L7.896 2.36V17.96H20.52V18.92H7.896L7.896 35H0.552L0.552 1.4L24.36 1.4V2.36ZM42.978 35.48C32.754 35.48 25.026 28.04 25.026 18.2C25.026 8.36 32.754 0.919998 42.978 0.919998C53.202 0.919998 60.93 8.36 60.93 18.2C60.93 28.04 53.202 35.48 42.978 35.48ZM42.978 34.52C49.218 34.52 53.394 28.04 53.394 18.2C53.394 8.36 49.218 1.88 42.978 1.88C36.69 1.88 32.562 8.36 32.562 18.2C32.562 28.04 36.69 34.52 42.978 34.52ZM92.9108 31.352C93.6308 32.84 94.6868 34.328 95.6468 35H87.7268C86.8148 34.424 85.9988 33.224 85.5188 32.216L81.0548 22.568C80.6228 21.704 79.9028 20.984 78.8468 20.6H73.6148V35H66.2708V1.4L80.5748 1.4C87.7268 1.4 93.1988 5.432 93.1988 11.048C93.1988 16.04 88.8788 19.688 82.8788 20.456C85.9508 20.984 88.6388 22.328 89.7908 24.92L92.9108 31.352ZM73.6148 2.36V19.64H78.8468C82.9748 19.64 85.6628 16.232 85.6628 11C85.6628 5.768 82.9748 2.36 78.8468 2.36L73.6148 2.36ZM135.411 20.792H142.419V35H141.939L137.955 31.352C136.227 33.896 132.387 35.48 127.731 35.48C117.651 35.48 109.635 28.04 109.635 18.152C109.635 8.36 117.507 0.919998 128.163 0.919998C135.651 0.919998 141.123 4.76 141.123 10.04H140.067C140.067 5.528 135.987 2.6 130.035 2.6C121.971 2.6 117.171 8.312 117.171 18.68C117.171 28.184 121.347 34.52 128.211 34.52C131.955 34.52 134.595 32.696 135.411 29.528V20.792ZM164.009 35.48C153.785 35.48 146.057 28.04 146.057 18.2C146.057 8.36 153.785 0.919998 164.009 0.919998C174.233 0.919998 181.961 8.36 181.961 18.2C181.961 28.04 174.233 35.48 164.009 35.48ZM164.009 34.52C170.249 34.52 174.425 28.04 174.425 18.2C174.425 8.36 170.249 1.88 164.009 1.88C157.721 1.88 153.593 8.36 153.593 18.2C153.593 28.04 157.721 34.52 164.009 34.52ZM203.478 35.48C193.254 35.48 185.526 28.04 185.526 18.2C185.526 8.36 193.254 0.919998 203.478 0.919998C213.702 0.919998 221.43 8.36 221.43 18.2C221.43 28.04 213.702 35.48 203.478 35.48ZM203.478 34.52C209.718 34.52 213.894 28.04 213.894 18.2C213.894 8.36 209.718 1.88 203.478 1.88C197.19 1.88 193.062 8.36 193.062 18.2C193.062 28.04 197.19 34.52 203.478 34.52ZM240.355 1.4C250.819 1.4 258.739 8.648 258.739 18.2C258.739 27.752 250.819 35 240.355 35H226.771V1.4L240.355 1.4ZM239.251 34.04C246.451 34.04 251.203 27.752 251.203 18.2C251.203 8.648 246.451 2.36 239.251 2.36H234.115V34.04H239.251ZM323.453 1.4H324.797L310.061 35H307.517L299.213 15.992L290.861 35H288.317L273.629 1.4H281.405L292.781 27.656L298.541 14.504L292.829 1.4L300.605 1.4L311.981 27.656L323.453 1.4ZM328.677 35V1.4L336.021 1.4V35H328.677ZM370.235 1.4H371.387V35H369.755L344.267 9.128V35H343.115V1.4H346.715L370.235 25.448V1.4ZM385.849 34.04H403.273V35H378.505V1.4L402.793 1.4V2.36L385.849 2.36V17.48H398.953V18.44H385.849V34.04Z"/>
</mask>
<path d="M24.36 2.36V3.36H25.36V2.36H24.36ZM7.896 2.36V1.36L6.896 1.36V2.36H7.896ZM7.896 17.96H6.896V18.96H7.896V17.96ZM20.52 17.96H21.52V16.96H20.52V17.96ZM20.52 18.92V19.92H21.52V18.92H20.52ZM7.896 18.92V17.92H6.896V18.92H7.896ZM7.896 35V36H8.896V35H7.896ZM0.552 35H-0.448V36H0.552V35ZM0.552 1.4V0.399998H-0.448V1.4H0.552ZM24.36 1.4H25.36V0.399998L24.36 0.399998V1.4ZM24.36 1.36L7.896 1.36V3.36L24.36 3.36V1.36ZM6.896 2.36V17.96H8.896V2.36L6.896 2.36ZM7.896 18.96H20.52V16.96H7.896V18.96ZM19.52 17.96V18.92H21.52V17.96H19.52ZM20.52 17.92H7.896V19.92H20.52V17.92ZM6.896 18.92L6.896 35H8.896L8.896 18.92H6.896ZM7.896 34H0.552V36H7.896V34ZM1.552 35L1.552 1.4H-0.448L-0.448 35H1.552ZM0.552 2.4L24.36 2.4V0.399998L0.552 0.399998V2.4ZM23.36 1.4V2.36H25.36V1.4H23.36ZM42.978 34.48C33.27 34.48 26.026 27.4521 26.026 18.2H24.026C24.026 28.6279 32.238 36.48 42.978 36.48V34.48ZM26.026 18.2C26.026 8.94785 33.27 1.92 42.978 1.92V-0.0800018C32.238 -0.0800018 24.026 7.77215 24.026 18.2H26.026ZM42.978 1.92C52.686 1.92 59.93 8.94785 59.93 18.2H61.93C61.93 7.77215 53.718 -0.0800018 42.978 -0.0800018V1.92ZM59.93 18.2C59.93 27.4521 52.686 34.48 42.978 34.48V36.48C53.718 36.48 61.93 28.6279 61.93 18.2H59.93ZM42.978 35.52C46.497 35.52 49.3941 33.6737 51.3683 30.5891C53.3256 27.5307 54.394 23.2456 54.394 18.2H52.394C52.394 22.9944 51.3744 26.8693 49.6837 29.5109C48.0099 32.1263 45.699 33.52 42.978 33.52V35.52ZM54.394 18.2C54.394 13.1544 53.3256 8.86932 51.3683 5.81094C49.3941 2.72625 46.497 0.879997 42.978 0.879997V2.88C45.699 2.88 48.0099 4.27375 49.6837 6.88905C51.3744 9.53068 52.394 13.4056 52.394 18.2H54.394ZM42.978 0.879997C39.4366 0.879997 36.5384 2.72476 34.5689 5.8122C32.6175 8.87135 31.562 13.1565 31.562 18.2H33.562C33.562 13.4035 34.5705 9.52865 36.2551 6.88779C37.9216 4.27524 40.2314 2.88 42.978 2.88V0.879997ZM31.562 18.2C31.562 23.2435 32.6175 27.5287 34.5689 30.5878C36.5384 33.6752 39.4366 35.52 42.978 35.52V33.52C40.2314 33.52 37.9216 32.1248 36.2551 29.5122C34.5705 26.8713 33.562 22.9965 33.562 18.2H31.562ZM92.9108 31.352L93.8109 30.9164L93.8105 30.9156L92.9108 31.352ZM95.6468 35V36H98.8191L96.2202 34.1808L95.6468 35ZM87.7268 35L87.1928 35.8455L87.4374 36H87.7268V35ZM85.5188 32.216L84.6111 32.6359L84.6159 32.6459L85.5188 32.216ZM81.0547 22.568L81.9623 22.1481L81.956 22.1343L81.9492 22.1208L81.0547 22.568ZM78.8467 20.6L79.1885 19.6602L79.0229 19.6H78.8467V20.6ZM73.6148 20.6V19.6H72.6148V20.6H73.6148ZM73.6148 35V36H74.6148V35H73.6148ZM66.2708 35H65.2708V36H66.2708V35ZM66.2708 1.4V0.399998L65.2708 0.399998V1.4H66.2708ZM82.8788 20.456L82.7518 19.4641L82.7094 21.4415L82.8788 20.456ZM89.7907 24.92L88.8769 25.3261L88.8837 25.3414L88.891 25.3564L89.7907 24.92ZM73.6148 2.36V1.36H72.6148V2.36H73.6148ZM73.6148 19.64H72.6148V20.64H73.6148V19.64ZM92.0106 31.7876C92.7578 33.3318 93.9056 35.0019 95.0733 35.8192L96.2202 34.1808C95.4679 33.6541 94.5037 32.3482 93.8109 30.9164L92.0106 31.7876ZM95.6468 34H87.7268V36H95.6468V34ZM88.2607 34.1545C87.5865 33.7287 86.8722 32.7322 86.4216 31.7861L84.6159 32.6459C85.1253 33.7158 86.043 35.1193 87.1928 35.8455L88.2607 34.1545ZM86.4263 31.7961L81.9623 22.1481L80.1472 22.9879L84.6112 32.6359L86.4263 31.7961ZM81.9492 22.1208C81.4124 21.0472 80.5045 20.1387 79.1885 19.6602L78.505 21.5398C79.301 21.8293 79.8331 22.3608 80.1603 23.0152L81.9492 22.1208ZM78.8467 19.6H73.6148V21.6H78.8467V19.6ZM72.6148 20.6V35H74.6148V20.6H72.6148ZM73.6148 34H66.2708V36H73.6148V34ZM67.2708 35V1.4L65.2708 1.4V35H67.2708ZM66.2708 2.4L80.5748 2.4V0.399998L66.2708 0.399998V2.4ZM80.5748 2.4C87.452 2.4 92.1988 6.22589 92.1988 11.048H94.1988C94.1988 4.63811 88.0015 0.399998 80.5748 0.399998V2.4ZM92.1988 11.048C92.1988 15.3375 88.4795 18.7309 82.7518 19.4641L83.0057 21.4479C89.278 20.6451 94.1988 16.7425 94.1988 11.048H92.1988ZM82.7094 21.4415C85.6455 21.9462 87.9247 23.1835 88.8769 25.3261L90.7046 24.5139C89.3528 21.4725 86.256 20.0218 83.0481 19.4705L82.7094 21.4415ZM88.891 25.3564L92.011 31.7884L93.8105 30.9156L90.6905 24.4836L88.891 25.3564ZM72.6148 2.36V19.64H74.6148V2.36H72.6148ZM73.6148 20.64H78.8467V18.64H73.6148V20.64ZM78.8467 20.64C81.2135 20.64 83.2081 19.6504 84.5879 17.9013C85.95 16.1747 86.6628 13.777 86.6628 11L84.6628 11C84.6628 13.455 84.0315 15.3773 83.0176 16.6627C82.0214 17.9256 80.608 18.64 78.8467 18.64V20.64ZM86.6628 11C86.6628 8.223 85.95 5.82535 84.5879 4.09866C83.2081 2.34958 81.2135 1.36 78.8467 1.36V3.36C80.608 3.36 82.0214 4.07442 83.0176 5.33734C84.0315 6.62265 84.6628 8.545 84.6628 11L86.6628 11ZM78.8467 1.36L73.6148 1.36V3.36L78.8467 3.36V1.36ZM135.411 20.792V19.792H134.411V20.792H135.411ZM142.419 20.792H143.419V19.792H142.419V20.792ZM142.419 35V36H143.419V35H142.419ZM141.939 35L141.264 35.7375L141.551 36H141.939V35ZM137.955 31.352L138.631 30.6145L137.778 29.8336L137.128 30.7901L137.955 31.352ZM141.123 10.04V11.04H142.123V10.04H141.123ZM140.067 10.04H139.067V11.04H140.067V10.04ZM135.411 29.528L136.38 29.7774L136.411 29.6547V29.528H135.411ZM135.411 21.792H142.419V19.792H135.411V21.792ZM141.419 20.792V35H143.419V20.792H141.419ZM142.419 34H141.939V36H142.419V34ZM142.615 34.2625L138.631 30.6145L137.28 32.0895L141.264 35.7375L142.615 34.2625ZM137.128 30.7901C135.664 32.946 132.223 34.48 127.731 34.48V36.48C132.552 36.48 136.791 34.846 138.783 31.9139L137.128 30.7901ZM127.731 34.48C118.153 34.48 110.635 27.4386 110.635 18.152H108.635C108.635 28.6414 117.15 36.48 127.731 36.48V34.48ZM110.635 18.152C110.635 8.97497 117.995 1.92 128.163 1.92V-0.0800018C117.02 -0.0800018 108.635 7.74503 108.635 18.152H110.635ZM128.163 1.92C131.747 1.92 134.774 2.84017 136.876 4.31803C138.965 5.7868 140.123 7.78356 140.123 10.04H142.123C142.123 7.01644 140.546 4.4532 138.027 2.68197C135.52 0.919821 132.068 -0.0800018 128.163 -0.0800018V1.92ZM141.123 9.04H140.067V11.04H141.123V9.04ZM141.067 10.04C141.067 7.44604 139.88 5.29454 137.875 3.82212C135.896 2.368 133.163 1.6 130.035 1.6V3.6C132.86 3.6 135.143 4.296 136.691 5.43388C138.215 6.55345 139.067 8.12196 139.067 10.04H141.067ZM130.035 1.6C125.748 1.6 122.227 3.1307 119.803 6.12231C117.402 9.08409 116.171 13.3576 116.171 18.68H118.171C118.171 13.6344 119.341 9.8679 121.356 7.38169C123.347 4.9253 126.259 3.6 130.035 3.6V1.6ZM116.171 18.68C116.171 23.562 117.242 27.7404 119.293 30.7298C121.367 33.7533 124.426 35.52 128.211 35.52V33.52C125.133 33.52 122.671 32.1187 120.942 29.5982C119.189 27.0436 118.171 23.302 118.171 18.68H116.171ZM128.211 35.52C130.243 35.52 132.049 35.0244 133.479 34.034C134.917 33.0375 135.915 31.5805 136.38 29.7774L134.443 29.2786C134.091 30.6435 133.361 31.6825 132.34 32.39C131.31 33.1036 129.923 33.52 128.211 33.52V35.52ZM136.411 29.528V20.792H134.411V29.528H136.411ZM164.009 34.48C154.301 34.48 147.057 27.4521 147.057 18.2H145.057C145.057 28.6279 153.269 36.48 164.009 36.48V34.48ZM147.057 18.2C147.057 8.94785 154.301 1.92 164.009 1.92V-0.0800018C153.269 -0.0800018 145.057 7.77215 145.057 18.2H147.057ZM164.009 1.92C173.717 1.92 180.961 8.94785 180.961 18.2H182.961C182.961 7.77215 174.749 -0.0800018 164.009 -0.0800018V1.92ZM180.961 18.2C180.961 27.4521 173.717 34.48 164.009 34.48V36.48C174.749 36.48 182.961 28.6279 182.961 18.2H180.961ZM164.009 35.52C167.528 35.52 170.425 33.6737 172.4 30.5891C174.357 27.5307 175.425 23.2456 175.425 18.2L173.425 18.2C173.425 22.9944 172.406 26.8693 170.715 29.5109C169.041 32.1263 166.73 33.52 164.009 33.52V35.52ZM175.425 18.2C175.425 13.1544 174.357 8.86932 172.4 5.81094C170.425 2.72625 167.528 0.879997 164.009 0.879997V2.88C166.73 2.88 169.041 4.27375 170.715 6.88905C172.406 9.53068 173.425 13.4056 173.425 18.2L175.425 18.2ZM164.009 0.879997C160.468 0.879997 157.57 2.72476 155.6 5.8122C153.649 8.87135 152.593 13.1565 152.593 18.2H154.593C154.593 13.4035 155.602 9.52865 157.286 6.88779C158.953 4.27524 161.263 2.88 164.009 2.88V0.879997ZM152.593 18.2C152.593 23.2435 153.649 27.5287 155.6 30.5878C157.57 33.6752 160.468 35.52 164.009 35.52V33.52C161.263 33.52 158.953 32.1248 157.286 29.5122C155.602 26.8713 154.593 22.9965 154.593 18.2H152.593ZM203.478 34.48C193.77 34.48 186.526 27.4521 186.526 18.2H184.526C184.526 28.6279 192.738 36.48 203.478 36.48V34.48ZM186.526 18.2C186.526 8.94785 193.77 1.92 203.478 1.92V-0.0800018C192.738 -0.0800018 184.526 7.77215 184.526 18.2H186.526ZM203.478 1.92C213.186 1.92 220.43 8.94785 220.43 18.2H222.43C222.43 7.77215 214.218 -0.0800018 203.478 -0.0800018V1.92ZM220.43 18.2C220.43 27.4521 213.186 34.48 203.478 34.48V36.48C214.218 36.48 222.43 28.6279 222.43 18.2H220.43ZM203.478 35.52C206.997 35.52 209.894 33.6737 211.868 30.5891C213.826 27.5307 214.894 23.2456 214.894 18.2H212.894C212.894 22.9944 211.874 26.8693 210.184 29.5109C208.51 32.1263 206.199 33.52 203.478 33.52V35.52ZM214.894 18.2C214.894 13.1544 213.826 8.86932 211.868 5.81094C209.894 2.72625 206.997 0.879997 203.478 0.879997V2.88C206.199 2.88 208.51 4.27375 210.184 6.88905C211.874 9.53068 212.894 13.4056 212.894 18.2H214.894ZM203.478 0.879997C199.937 0.879997 197.038 2.72476 195.069 5.8122C193.118 8.87135 192.062 13.1565 192.062 18.2H194.062C194.062 13.4035 195.07 9.52865 196.755 6.88779C198.422 4.27524 200.731 2.88 203.478 2.88V0.879997ZM192.062 18.2C192.062 23.2435 193.118 27.5287 195.069 30.5878C197.038 33.6752 199.937 35.52 203.478 35.52V33.52C200.731 33.52 198.422 32.1248 196.755 29.5122C195.07 26.8713 194.062 22.9965 194.062 18.2H192.062ZM226.771 35H225.771V36H226.771V35ZM226.771 1.4V0.399998H225.771V1.4H226.771ZM234.115 2.36V1.36H233.115V2.36H234.115ZM234.115 34.04H233.115V35.04H234.115V34.04ZM240.355 2.4C250.353 2.4 257.739 9.28279 257.739 18.2H259.739C259.739 8.0132 251.285 0.399998 240.355 0.399998V2.4ZM257.739 18.2C257.739 27.1172 250.353 34 240.355 34V36C251.285 36 259.739 28.3868 259.739 18.2H257.739ZM240.355 34H226.771V36H240.355V34ZM227.771 35V1.4H225.771V35H227.771ZM226.771 2.4H240.355V0.399998L226.771 0.399998V2.4ZM239.251 35.04C243.175 35.04 246.454 33.3126 248.725 30.3045C250.977 27.3205 252.203 23.1303 252.203 18.2H250.203C250.203 22.8217 249.052 26.5515 247.129 29.0995C245.223 31.6234 242.527 33.04 239.251 33.04V35.04ZM252.203 18.2C252.203 13.2697 250.977 9.07946 248.725 6.09551C246.454 3.08742 243.175 1.36 239.251 1.36V3.36C242.527 3.36 245.223 4.77658 247.129 7.30049C249.052 9.84854 250.203 13.5783 250.203 18.2H252.203ZM239.251 1.36L234.115 1.36V3.36H239.251V1.36ZM233.115 2.36V34.04H235.115V2.36H233.115ZM234.115 35.04H239.251V33.04H234.115V35.04ZM323.453 1.4V0.399998H322.798L322.536 0.999618L323.453 1.4ZM324.797 1.4L325.712 1.80164L326.327 0.399998H324.797V1.4ZM310.06 35V36H310.714L310.976 35.4016L310.06 35ZM307.517 35L306.6 35.4003L306.862 36H307.517V35ZM299.212 15.992L300.129 15.5917L299.215 13.5001L298.297 15.5897L299.212 15.992ZM290.861 35V36H291.513L291.776 35.4023L290.861 35ZM288.316 35L287.4 35.4005L287.662 36H288.316V35ZM273.629 1.4V0.399998L272.1 0.399998L272.712 1.80054L273.629 1.4ZM281.405 1.4L282.322 1.00244L282.061 0.399998H281.405V1.4ZM292.78 27.656L291.863 28.0536L292.776 30.16L293.697 28.0572L292.78 27.656ZM298.54 14.504L299.457 14.9052L299.632 14.5049L299.457 14.1044L298.54 14.504ZM292.828 1.4V0.399998H291.302L291.912 1.79958L292.828 1.4ZM300.604 1.4L301.522 1.00244L301.261 0.399998H300.604V1.4ZM311.98 27.656L311.063 28.0536L311.977 30.1624L312.897 28.0564L311.98 27.656ZM323.453 2.4H324.797V0.399998L323.453 0.399998V2.4ZM323.881 0.998355L309.145 34.5984L310.976 35.4016L325.712 1.80164L323.881 0.998355ZM310.06 34H307.517V36H310.06V34ZM308.433 34.5997L300.129 15.5917L298.296 16.3923L306.6 35.4003L308.433 34.5997ZM298.297 15.5897L289.945 34.5977L291.776 35.4023L300.128 16.3943L298.297 15.5897ZM290.861 34H288.316V36H290.861V34ZM289.233 34.5995L274.545 0.999454L272.712 1.80054L287.4 35.4005L289.233 34.5995ZM273.629 2.4L281.405 2.4V0.399998L273.629 0.399998V2.4ZM280.487 1.79756L291.863 28.0536L293.698 27.2584L282.322 1.00244L280.487 1.79756ZM293.697 28.0572L299.457 14.9052L297.625 14.1028L291.865 27.2548L293.697 28.0572ZM299.457 14.1044L293.745 1.00041L291.912 1.79958L297.624 14.9036L299.457 14.1044ZM292.828 2.4H300.604V0.399998L292.828 0.399998V2.4ZM299.687 1.79756L311.063 28.0536L312.898 27.2584L301.522 1.00244L299.687 1.79756ZM312.897 28.0564L324.369 1.80038L322.536 0.999618L311.064 27.2556L312.897 28.0564ZM328.677 35H327.677V36H328.677V35ZM328.677 1.4V0.399998L327.677 0.399998V1.4H328.677ZM336.021 1.4H337.021V0.399998H336.021V1.4ZM336.021 35V36H337.021V35H336.021ZM329.677 35V1.4H327.677V35H329.677ZM328.677 2.4L336.021 2.4V0.399998L328.677 0.399998V2.4ZM335.021 1.4V35H337.021V1.4H335.021ZM336.021 34H328.677V36H336.021V34ZM370.234 1.4V0.399998H369.234V1.4H370.234ZM371.387 1.4L372.387 1.4V0.399998H371.387V1.4ZM371.387 35V36H372.387V35H371.387ZM369.754 35L369.042 35.7018L369.336 36H369.754V35ZM344.267 9.128L344.979 8.4262L343.267 6.68803V9.128H344.267ZM344.267 35V36H345.267V35H344.267ZM343.115 35H342.115V36H343.115V35ZM343.115 1.4V0.399998L342.115 0.399998V1.4H343.115ZM346.715 1.4L347.429 0.700783L347.135 0.399998H346.715V1.4ZM370.234 25.448L369.52 26.1472L371.234 27.9006V25.448H370.234ZM370.234 2.4L371.387 2.4V0.399998H370.234V2.4ZM370.387 1.4V35H372.387V1.4L370.387 1.4ZM371.387 34H369.754V36H371.387V34ZM370.467 34.2982L344.979 8.4262L343.554 9.8298L369.042 35.7018L370.467 34.2982ZM343.267 9.128V35H345.267V9.128H343.267ZM344.267 34H343.115V36H344.267V34ZM344.115 35V1.4H342.115V35H344.115ZM343.115 2.4H346.715V0.399998L343.115 0.399998V2.4ZM346 2.09921L369.52 26.1472L370.949 24.7488L347.429 0.700783L346 2.09921ZM371.234 25.448V1.4H369.234V25.448H371.234ZM385.849 34.04H384.849V35.04H385.849V34.04ZM403.273 34.04H404.273V33.04H403.273V34.04ZM403.273 35V36H404.273V35H403.273ZM378.505 35H377.505V36H378.505V35ZM378.505 1.4V0.399998H377.505V1.4H378.505ZM402.793 1.4H403.793V0.399998H402.793V1.4ZM402.793 2.36V3.36H403.793V2.36H402.793ZM385.849 2.36V1.36H384.849V2.36H385.849ZM385.849 17.48H384.849V18.48H385.849V17.48ZM398.953 17.48H399.953V16.48H398.953V17.48ZM398.953 18.44V19.44H399.953V18.44H398.953ZM385.849 18.44V17.44H384.849V18.44H385.849ZM385.849 35.04H403.273V33.04H385.849V35.04ZM402.273 34.04V35H404.273V34.04H402.273ZM403.273 34H378.505V36H403.273V34ZM379.505 35V1.4H377.505V35H379.505ZM378.505 2.4L402.793 2.4V0.399998L378.505 0.399998V2.4ZM401.793 1.4V2.36H403.793V1.4H401.793ZM402.793 1.36L385.849 1.36V3.36L402.793 3.36V1.36ZM384.849 2.36V17.48H386.849V2.36H384.849ZM385.849 18.48H398.953V16.48H385.849V18.48ZM397.953 17.48V18.44H399.953V17.48H397.953ZM398.953 17.44H385.849V19.44H398.953V17.44ZM384.849 18.44V34.04H386.849V18.44H384.849Z" fill="white" mask="url(#path-1-outside-1_1579_7168)"/>
</svg>
