<svg width="48.000000" height="48.000000" viewBox="0 0 48 48" fill="none" xmlns="http://www.w3.org/2000/svg" xmlns:xlink="http://www.w3.org/1999/xlink">
	<desc>
			Created with Pixso.
	</desc>
	<defs>
		<clipPath id="clip654_2385">
			<rect id="icons" width="48.000000" height="48.000000" fill="white" fill-opacity="0"/>
		</clipPath>
	</defs>
	<rect id="icons" width="48.000000" height="48.000000" fill="#FFFFFF" fill-opacity="0"/>
	<g clip-path="url(#clip654_2385)">
		<path id="Vector" d="M43.18 26.44C42.69 26.07 42.13 25.79 41.53 25.64C40.93 25.48 40.3 25.45 39.69 25.55C43.21 21.99 45 18.46 45 15C45 10.03 41 5.99 36.1 5.99C34.79 5.99 33.51 6.26 32.32 6.81C31.14 7.35 30.09 8.14 29.25 9.14C28.4 8.14 27.35 7.35 26.17 6.81C24.98 6.26 23.7 5.99 22.39 5.99C17.49 5.99 13.5 10.03 13.5 15C13.5 17.06 14.1 19.06 15.38 21.18C14.33 21.45 13.38 21.99 12.62 22.76L8.37 27L3 27C2.2 27 1.44 27.31 0.87 27.87C0.31 28.44 0 29.2 0 30L0 37.5C0 38.29 0.31 39.05 0.87 39.62C1.44 40.18 2.2 40.5 3 40.5L22.5 40.5C22.62 40.5 22.74 40.48 22.86 40.45L34.86 37.45C34.94 37.43 35.01 37.41 35.08 37.38L42.37 34.27L42.45 34.24C43.15 33.89 43.75 33.36 44.2 32.72C44.64 32.07 44.91 31.32 44.98 30.54C45.06 29.76 44.93 28.98 44.62 28.26C44.3 27.54 43.81 26.92 43.19 26.44L43.18 26.44ZM22.39 8.99C23.56 8.98 24.7 9.31 25.67 9.94C26.64 10.58 27.4 11.49 27.86 12.56C27.97 12.83 28.16 13.07 28.41 13.23C28.66 13.4 28.95 13.49 29.25 13.49C29.54 13.49 29.83 13.4 30.08 13.23C30.33 13.07 30.52 12.83 30.63 12.56C31.09 11.49 31.85 10.58 32.82 9.94C33.79 9.31 34.93 8.98 36.1 8.99C39.29 8.99 42 11.74 42 15C42 18.65 39.03 22.79 33.43 26.98L31.35 27.45C31.54 26.68 31.54 25.88 31.37 25.11C31.2 24.33 30.85 23.61 30.36 22.99C29.87 22.37 29.25 21.86 28.53 21.52C27.82 21.17 27.04 20.99 26.25 21L18.87 21C17.25 18.81 16.5 16.89 16.5 15C16.5 11.74 19.2 8.99 22.39 8.99ZM3 30L7.5 30L7.5 37.5L3 37.5L3 30ZM41.14 31.53L34.01 34.57L22.31 37.5L10.5 37.5L10.5 29.12L14.74 24.87C15.02 24.59 15.35 24.37 15.71 24.22C16.07 24.07 16.46 23.99 16.86 24L26.25 24C26.84 24 27.41 24.23 27.84 24.65C28.26 25.08 28.5 25.65 28.5 26.25C28.5 26.84 28.26 27.41 27.84 27.84C27.41 28.26 26.84 28.5 26.25 28.5L21 28.5C20.6 28.5 20.22 28.65 19.93 28.93C19.65 29.22 19.5 29.6 19.5 30C19.5 30.39 19.65 30.77 19.93 31.06C20.22 31.34 20.6 31.5 21 31.5L27 31.5C27.11 31.49 27.22 31.48 27.33 31.46L39.89 28.57L39.95 28.55C40.33 28.45 40.74 28.49 41.1 28.66C41.46 28.84 41.74 29.14 41.88 29.51C42.03 29.88 42.03 30.29 41.89 30.67C41.76 31.04 41.48 31.35 41.13 31.53L41.14 31.53Z" fill="#7C0021" fill-opacity="1.000000" fill-rule="nonzero"/>
	</g>
</svg>
