<svg xmlns="http://www.w3.org/2000/svg" width="163" height="60.495" fill="none">
  <defs>
    <clipPath id="a">
      <path fill="#fff" fill-opacity="0" d="M0 0h163v60.495H0z"/>
    </clipPath>
  </defs>
  <path fill="none" d="M0 0h163v60.495H0z"/>
  <g clip-path="url(#a)">
    <path fill="#141414" d="M80.034 9.246v14.667h-8.342V7.323c0-2.583-1.8-4.562-4.25-4.562-2.452 0-5.07 1.924-6.272 4.782v16.37h-8.34V1.643L61.17.215V5.29C63.078 2.213 66.678.18 70.71.18c5.398 0 9.322 3.9 9.322 9.068l.002-.002ZM39.805.362 29.295 23.93l-3.337.02-6.338-13.64-6.143 13.73-2.633.02L0 .461 7.898.405l7.43 16.448 3.598-8.042-3.814-8.46 7.9-.056 7.43 16.496L37.734.371l2.07-.01v.001ZM42.598 37.323l.133-7.32 6.807-1.765-.018.936-6.922 8.15ZM49.8 22.866l-7.452 1.276-.18-23.668 7.46-.058.172 22.45ZM71.811 36.671l8.223-1.261v24.96H71.81V36.671ZM16.064 48.228c-.05-6.937 5.618-12.227 13.223-12.282 7.556-.055 13.349 5.154 13.398 12.089.05 6.937-5.667 12.227-13.224 12.282-7.605.055-13.348-5.151-13.397-12.089Zm18.964-.138c-.05-7.031-2.273-11.233-5.734-11.208-3.51.025-5.627 4.259-5.575 11.29.05 7.03 2.225 11.232 5.735 11.207 3.461-.025 5.625-4.26 5.574-11.289ZM45.887 48.23c-.05-6.937 5.665-12.227 13.37-12.284 5.411-.039 9.622 2.697 9.649 6.399l-1.024.007c-.02-2.812-2.814-4.901-6.421-4.874-5.022.037-7.969 4.04-7.921 10.697.047 6.655 3.149 10.616 8.268 10.579 2.68-.02 5.207-1.35 6.266-3.374l1.073-.007c-1.247 2.916-5.085 4.912-9.667 4.946-7.801.057-13.542-5.198-13.591-12.087l-.002-.002ZM111.446 48.053c-.049-6.937 5.666-12.228 13.37-12.284 5.411-.04 9.623 2.696 9.649 6.398l-1.024.007c-.019-2.812-2.814-4.9-6.421-4.874-5.022.037-7.968 4.041-7.921 10.698.048 6.654 3.149 10.616 8.268 10.578 2.681-.02 5.207-1.35 6.267-3.373l1.073-.007c-1.248 2.915-5.086 4.912-9.667 4.945-7.802.057-13.543-5.197-13.592-12.087l-.002-.001ZM146.201 48.36l-1.212 1.04.076 10.793-7.46.053-.236-33.102 7.453-1.274.158 22.122 13.717-11.442 1.707-.012-8.967 7.47 11.565 16.183-8.24.06-8.559-11.893-.002.002Z"/>
    <path fill="#7C0021" d="M80.582.144c-2.959 4.649-2.765 9.932.467 14.394 2.155 2.976 5.387 4.97 7.954 7.598 2.568 2.63 4.516 6.502 3.162 9.916-1.38 3.475-5.42 4.89-8.443 7.09-3.295 2.398-5.609 6.1-6.317 10.11-.709 4.01-.175 7.734 2.098 11.113h31.42s5.889-9.96-1.207-17.967c-7.097-8.006-10.908-8.138-10.644-13.387.263-5.25 3.942-6.956 6.044-8.925 2.103-1.968 12.353-5.402 6.307-19.942H80.582Z"/>
    <path fill="#FFF" d="M100.748 23.936c-1.124.27-2.328.42-3.577.43-8.19.058-14.03-5.148-14.08-12.132C83.04 5.344 88.707.054 95.923 0c7.07-.052 12.175 4.926 12.223 11.582l-17.405.127c.151 7.592 3.152 11.367 8.417 11.328.945-.007 1.839-.068 2.695-.332l-1.105 1.229v.002ZM90.734 10.772l10.384-.074c-.19-6.092-2.069-9.781-5.093-9.758-3.215.023-5.187 4.114-5.291 9.834v-.002ZM82.307 48.406c-.05-6.937 5.62-12.227 13.225-12.282 7.554-.055 13.347 5.153 13.396 12.089.049 6.937-5.667 12.227-13.221 12.282-7.606.055-13.349-5.152-13.4-12.089Zm18.966-.138c-.051-7.032-2.275-11.233-5.734-11.208-3.51.025-5.627 4.258-5.575 11.29.05 7.03 2.225 11.232 5.736 11.207 3.46-.025 5.624-4.26 5.573-11.29Z"/>
  </g>
</svg>
