<svg width="128" height="47" viewBox="0 0 128 47" fill="none" xmlns="http://www.w3.org/2000/svg">
<g clip-path="url(#clip0_1248_14985)">
<path d="M62.8609 7.18375V18.5784H56.3797V5.68903C56.3797 3.68228 54.9819 2.14478 53.0775 2.14478C51.1732 2.14478 49.1387 3.63949 48.205 5.86017V18.5784H41.7252V1.27666L48.205 0.167008V4.11013C49.6877 1.71969 52.4847 0.139404 55.6172 0.139404C59.8106 0.139404 62.8595 3.17024 62.8595 7.18513L62.8609 7.18375Z" fill="white"/>
<path d="M31.6064 0.281572L23.4413 18.5908L20.8483 18.606L15.9238 8.00909L11.1512 18.6764L9.10579 18.6915L0.680542 0.358861L6.81671 0.314696L12.5887 13.0936L15.3843 6.84562L12.4217 0.273291L18.5592 0.229126L24.3312 13.0453L29.9978 0.288473L31.6064 0.280192V0.281572Z" fill="white"/>
<path d="M33.7764 28.9972L33.8791 23.3096L39.1678 21.9391L39.1541 22.6664L33.7764 28.9972Z" fill="white"/>
<path d="M39.3718 17.7654L33.582 18.7563L33.4424 0.368421L39.2377 0.322876L39.3718 17.7654Z" fill="white"/>
<path d="M56.4728 28.4907L62.8609 27.5107V46.9034H56.4728V28.4907Z" fill="white"/>
<path d="M13.1609 37.47C13.1226 32.0805 17.5255 27.9704 23.4344 27.9276C29.305 27.8848 33.8051 31.9314 33.8435 37.3196C33.8818 42.7091 29.4405 46.8192 23.57 46.862C17.6611 46.9048 13.1993 42.8595 13.1609 37.47ZM27.8949 37.3624C27.8552 31.8997 26.1288 28.6356 23.4399 28.6549C20.7127 28.6742 19.0685 31.9632 19.1082 37.4259C19.1479 42.8885 20.8373 46.1526 23.5645 46.1333C26.2533 46.114 27.9346 42.8237 27.8949 37.3624Z" fill="white"/>
<path d="M36.3311 37.4714C36.2928 32.0819 40.7327 27.9717 46.7183 27.9276C50.9227 27.8972 54.1947 30.0226 54.2153 32.8989L53.4198 32.9044C53.4048 30.7196 51.2334 29.0966 48.431 29.1173C44.5291 29.1462 42.24 32.2571 42.277 37.4286C42.314 42.5987 44.7235 45.6764 48.7007 45.6474C50.783 45.6323 52.7463 44.5985 53.5691 43.0265L54.4028 43.021C53.4335 45.2858 50.4517 46.8371 46.8921 46.8634C40.8313 46.9075 36.3708 42.825 36.3325 37.4728L36.3311 37.4714Z" fill="white"/>
<path d="M87.266 37.3333C87.2276 31.9438 91.6675 27.8337 97.6531 27.7895C101.857 27.7591 105.13 29.8846 105.15 32.7608L104.355 32.7664C104.34 30.5816 102.168 28.9585 99.3658 28.9792C95.4639 29.0082 93.1749 32.1191 93.2118 37.2905C93.2488 42.4606 95.6583 45.5384 99.6355 45.5094C101.718 45.4942 103.681 44.4605 104.504 42.8885L105.338 42.8829C104.368 45.1478 101.387 46.6991 97.827 46.7253C91.7661 46.7695 87.3057 42.687 87.2673 37.3347L87.266 37.3333Z" fill="white"/>
<path d="M114.268 37.5721L113.326 38.3795L113.385 46.7653L107.59 46.8067L107.406 21.0888L113.196 20.0992L113.319 37.2864L123.976 28.3968L125.303 28.3871L118.336 34.1907L127.321 46.7639L120.919 46.8109L114.269 37.5707L114.268 37.5721Z" fill="white"/>
<path d="M63.2867 0.111816C60.988 3.7237 61.1386 7.8283 63.6495 11.2953C65.3239 13.607 67.8347 15.1556 69.8295 17.1982C71.8242 19.2408 73.3384 22.2496 72.2856 24.9023C71.2136 27.6019 68.0757 28.7005 65.7264 30.4105C63.1662 32.2737 61.3686 35.15 60.8183 38.265C60.2679 41.38 60.6827 44.2742 62.4488 46.8993H86.8593C86.8593 46.8993 91.4347 39.1607 85.9215 32.9403C80.4083 26.7199 77.447 26.6178 77.6523 22.5394C77.8563 18.4611 80.7149 17.1347 82.3482 15.6055C83.9815 14.0763 91.9454 11.4084 87.2481 0.111816H63.2867Z" fill="#7C0021"/>
<path d="M78.9543 18.5964C78.0808 18.8061 77.1458 18.9234 76.1751 18.9304C69.8117 18.9759 65.2746 14.9306 65.2362 9.50523C65.1965 4.15159 69.5995 0.0414685 75.2058 6.37114e-05C80.6985 -0.039961 84.6647 3.82725 84.7017 8.99871L71.1794 9.0967C71.2971 14.9955 73.6286 17.9284 77.7194 17.898C78.4532 17.8925 79.1474 17.8455 79.8127 17.6399L78.9543 18.595V18.5964ZM71.1739 8.36936L79.2418 8.31139C79.094 3.57882 77.6345 0.712227 75.2852 0.730169C72.7867 0.748111 71.2547 3.92662 71.1739 8.37074V8.36936Z" fill="white"/>
<path d="M64.627 37.608C64.5887 32.2184 68.993 28.1083 74.9019 28.0655C80.7711 28.0227 85.2712 32.0694 85.3096 37.4575C85.3479 42.847 80.9066 46.9572 75.0374 47C69.1285 47.0427 64.6667 42.9975 64.627 37.608ZM79.3623 37.5003C79.3226 32.0376 77.5949 28.7735 74.9074 28.7929C72.1802 28.8122 70.5359 32.1011 70.5756 37.5638C70.6153 43.0265 72.3048 46.2905 75.032 46.2712C77.7208 46.2519 79.402 42.9616 79.3623 37.5003Z" fill="white"/>
</g>
<defs>
<clipPath id="clip0_1248_14985">
<rect width="126.639" height="47" fill="white" transform="translate(0.680542)"/>
</clipPath>
</defs>
</svg>
