<svg width="42" height="32" viewBox="0 0 42 32" fill="none" xmlns="http://www.w3.org/2000/svg">
<path d="M7.95849 31.7756V29.6641C7.97088 29.4865 7.94525 29.3083 7.88333 29.1414C7.82142 28.9745 7.72462 28.8227 7.59941 28.6962C7.4742 28.5696 7.32345 28.4712 7.1572 28.4076C6.99096 28.3439 6.81306 28.3164 6.63535 28.3269C6.40278 28.3117 6.17039 28.3592 5.96242 28.4644C5.75446 28.5697 5.57852 28.7287 5.45295 28.9251C5.33851 28.7346 5.17483 28.5785 4.97912 28.4732C4.78342 28.3679 4.56295 28.3174 4.34093 28.3269C4.1474 28.3172 3.95467 28.3581 3.78185 28.4458C3.60903 28.5334 3.46209 28.6647 3.35559 28.8266V28.4114H2.6236V31.7756H3.36259V29.9104C3.34662 29.7953 3.35633 29.6781 3.39102 29.5672C3.42572 29.4564 3.48455 29.3545 3.56327 29.2691C3.642 29.1836 3.73868 29.1167 3.84636 29.073C3.95404 29.0294 4.07006 29.0101 4.18607 29.0166C4.67169 29.0166 4.91806 29.3333 4.91806 29.9034V31.7756H5.65706V29.9104C5.64228 29.7955 5.65283 29.6788 5.68797 29.5685C5.72311 29.4581 5.78199 29.3568 5.86047 29.2716C5.93895 29.1864 6.03512 29.1194 6.14224 29.0754C6.24936 29.0313 6.36482 29.0113 6.48052 29.0166C6.9802 29.0166 7.21949 29.3333 7.21949 29.9034V31.7756H7.95849ZM18.8957 28.4114H17.6993V27.3908H16.9603V28.4114H16.2775V29.08H16.9603V30.6143C16.9603 31.3955 17.2629 31.86 18.1286 31.86C18.452 31.861 18.7691 31.7707 19.0435 31.5996L18.8324 30.9732C18.6361 31.0903 18.4133 31.1557 18.1849 31.1632C17.8189 31.1632 17.6993 30.938 17.6993 30.6002V29.08H18.8957V28.4114ZM25.1385 28.3269C24.9601 28.3216 24.7835 28.3646 24.6274 28.4513C24.4714 28.538 24.3416 28.6652 24.2518 28.8195V28.4114H23.5268V31.7756H24.2588V29.8893C24.2588 29.3333 24.4981 29.0236 24.9767 29.0236C25.1333 29.0215 25.2887 29.0502 25.4342 29.1081L25.6594 28.4184C25.4922 28.3585 25.3161 28.3276 25.1385 28.3269V28.3269ZM15.7005 28.6788C15.2861 28.4324 14.8098 28.3103 14.328 28.3269C13.4764 28.3269 12.9274 28.7351 12.9274 29.4037C12.9274 29.9527 13.3356 30.2905 14.0887 30.3961L14.4336 30.4453C14.8347 30.5016 15.0248 30.6072 15.0248 30.7972C15.0248 31.0576 14.7573 31.2055 14.2576 31.2055C13.8557 31.217 13.4615 31.0931 13.1385 30.8535L12.7937 31.4236C13.22 31.7214 13.7307 31.8744 14.2506 31.86C15.2218 31.86 15.7848 31.4025 15.7848 30.7621C15.7848 30.1708 15.3415 29.8612 14.6095 29.7556L14.2647 29.7063C13.9479 29.6641 13.6946 29.6008 13.6946 29.3756C13.6946 29.1292 13.9338 28.9814 14.335 28.9814C14.7034 28.987 15.0643 29.0863 15.3837 29.27L15.7005 28.6788ZM35.3086 28.3269C35.1302 28.3216 34.9536 28.3646 34.7975 28.4513C34.6414 28.538 34.5116 28.6652 34.4218 28.8195V28.4114H33.6969V31.7756H34.4288V29.8893C34.4288 29.3333 34.6682 29.0236 35.1467 29.0236C35.3033 29.0215 35.4588 29.0502 35.6043 29.1081L35.8295 28.4184C35.6623 28.3585 35.4862 28.3276 35.3086 28.3269V28.3269ZM25.8775 30.0934C25.8678 30.3304 25.9078 30.5668 25.9949 30.7874C26.0821 31.008 26.2144 31.208 26.3834 31.3744C26.5525 31.5408 26.7545 31.67 26.9765 31.7536C27.1984 31.8372 27.4355 31.8735 27.6723 31.86C28.1117 31.8821 28.5435 31.739 28.8828 31.4588L28.5309 30.8676C28.2779 31.0605 27.9693 31.1666 27.6511 31.1702C27.3769 31.1536 27.1193 31.0329 26.9309 30.8328C26.7426 30.6327 26.6377 30.3682 26.6377 30.0934C26.6377 29.8186 26.7426 29.5542 26.9309 29.3541C27.1193 29.1539 27.3769 29.0333 27.6511 29.0166C27.9693 29.0202 28.2779 29.1264 28.5309 29.3193L28.8828 28.728C28.5435 28.4479 28.1117 28.3048 27.6723 28.3269C27.4355 28.3134 27.1985 28.3497 26.9765 28.4333C26.7546 28.5169 26.5525 28.6461 26.3835 28.8125C26.2145 28.9788 26.0821 29.1788 25.995 29.3994C25.9078 29.62 25.8678 29.8564 25.8775 30.0934V30.0934ZM32.7327 30.0934V28.4114H32.0007V28.8195C31.8758 28.6585 31.7141 28.5298 31.5292 28.4441C31.3443 28.3584 31.1415 28.3182 30.9379 28.3269C30.4844 28.3491 30.0568 28.545 29.7436 28.8738C29.4305 29.2027 29.2559 29.6394 29.2559 30.0935C29.2559 30.5476 29.4305 30.9843 29.7436 31.3131C30.0568 31.642 30.4844 31.8378 30.9379 31.86C31.1416 31.8687 31.3443 31.8285 31.5292 31.7428C31.7141 31.6571 31.8758 31.5283 32.0007 31.3673V31.7756H32.7327V30.0934ZM30.0089 30.0934C30.0202 29.8949 30.0895 29.704 30.208 29.5443C30.3265 29.3847 30.4892 29.2632 30.6759 29.1949C30.8627 29.1266 31.0653 29.1144 31.2589 29.1599C31.4525 29.2054 31.6285 29.3065 31.7653 29.4508C31.9021 29.5952 31.9936 29.7764 32.0287 29.9721C32.0637 30.1678 32.0407 30.3695 31.9624 30.5523C31.8842 30.7352 31.7542 30.8911 31.5884 31.0009C31.4226 31.1107 31.2283 31.1695 31.0295 31.1702C30.8901 31.1721 30.7518 31.1451 30.6234 31.0909C30.495 31.0367 30.3792 30.9565 30.2833 30.8553C30.1874 30.7542 30.1136 30.6342 30.0663 30.5031C30.0191 30.372 29.9995 30.2324 30.0089 30.0934V30.0934ZM21.1761 28.3269C20.7197 28.3509 20.2902 28.5508 19.9779 28.8846C19.6657 29.2184 19.4948 29.6601 19.5012 30.1172C19.5075 30.5742 19.6907 31.011 20.0121 31.336C20.3336 31.6609 20.7684 31.8487 21.2254 31.86C21.7275 31.8777 22.2186 31.7098 22.6048 31.3884L22.2459 30.8465C21.9679 31.0693 21.6237 31.1931 21.2676 31.1984C21.0257 31.2188 20.7854 31.1442 20.5976 30.9905C20.4097 30.8368 20.2891 30.616 20.2611 30.3749H22.7597C22.7667 30.2835 22.7737 30.192 22.7737 30.0934C22.7667 29.0448 22.1192 28.3269 21.1761 28.3269V28.3269ZM21.162 28.9814C21.3831 28.9771 21.5969 29.0606 21.7565 29.2137C21.9161 29.3667 22.0086 29.5768 22.0136 29.7978H20.2682C20.281 29.572 20.3817 29.3601 20.5488 29.2075C20.7158 29.055 20.9359 28.9738 21.162 28.9814V28.9814ZM39.5244 30.0934V27.0601H38.7925V28.8195C38.6675 28.6585 38.5058 28.5298 38.321 28.4441C38.1361 28.3584 37.9333 28.3182 37.7297 28.3269C37.2762 28.3491 36.8485 28.5449 36.5354 28.8738C36.2222 29.2027 36.0476 29.6394 36.0476 30.0935C36.0476 30.5476 36.2222 30.9843 36.5354 31.3131C36.8485 31.642 37.2762 31.8378 37.7297 31.86C37.9333 31.8687 38.1361 31.8285 38.321 31.7428C38.5059 31.6571 38.6675 31.5283 38.7925 31.3673V31.7756H39.5244V30.0934ZM40.7446 31.288C40.7901 31.2877 40.8351 31.2966 40.877 31.3143C40.9173 31.3311 40.954 31.3554 40.9852 31.386C41.0161 31.4164 41.0409 31.4526 41.0581 31.4925C41.0757 31.5335 41.0848 31.5776 41.0848 31.6222C41.0848 31.6668 41.0757 31.7109 41.0581 31.7519C41.0408 31.7916 41.016 31.8276 40.9852 31.858C40.9539 31.8886 40.9172 31.913 40.877 31.9301C40.8352 31.948 40.7901 31.9571 40.7446 31.9568C40.6776 31.9575 40.612 31.9384 40.5558 31.902C40.4996 31.8655 40.4554 31.8133 40.4287 31.7519C40.4111 31.7109 40.4021 31.6668 40.4021 31.6222C40.4021 31.5776 40.4111 31.5335 40.4287 31.4925C40.4458 31.4527 40.4705 31.4165 40.5013 31.386C40.5324 31.3552 40.5693 31.3308 40.6098 31.3143C40.6526 31.2966 40.6984 31.2877 40.7446 31.288V31.288ZM40.7446 31.883C40.7793 31.8833 40.8136 31.8763 40.8455 31.8625C40.876 31.8493 40.9038 31.8304 40.9274 31.8068C40.976 31.7577 41.0032 31.6914 41.0032 31.6224C41.0032 31.5533 40.976 31.487 40.9274 31.4379C40.9039 31.4145 40.8761 31.3957 40.8455 31.3827C40.8136 31.3691 40.7792 31.3623 40.7446 31.3626C40.7093 31.3623 40.6744 31.3692 40.6418 31.3827C40.6107 31.3955 40.5824 31.4143 40.5586 31.4379C40.51 31.487 40.4827 31.5533 40.4827 31.6224C40.4827 31.6914 40.51 31.7577 40.5586 31.8068C40.5825 31.8305 40.6107 31.8495 40.6418 31.8625C40.6743 31.8763 40.7093 31.8833 40.7446 31.883V31.883ZM40.7643 31.4658C40.7972 31.4637 40.8298 31.4731 40.8565 31.4925C40.8672 31.5013 40.8756 31.5124 40.8812 31.525C40.8868 31.5375 40.8895 31.5513 40.8889 31.565C40.8892 31.5768 40.8871 31.5886 40.8827 31.5995C40.8782 31.6104 40.8716 31.6203 40.8631 31.6285C40.8427 31.6466 40.8169 31.6574 40.7897 31.6592L40.8913 31.7765H40.8119L40.7176 31.6601H40.6873V31.7765H40.6209V31.4658H40.7643ZM40.6873 31.5241V31.6068H40.7635C40.7781 31.6076 40.7927 31.604 40.8053 31.5965C40.8104 31.5931 40.8146 31.5884 40.8173 31.5829C40.82 31.5773 40.8212 31.5712 40.8208 31.565C40.8212 31.559 40.8199 31.553 40.8172 31.5476C40.8145 31.5422 40.8104 31.5376 40.8053 31.5342C40.7927 31.5269 40.7781 31.5233 40.7635 31.5241H40.6873ZM36.8007 30.0934C36.8121 29.8949 36.8813 29.704 36.9998 29.5444C37.1184 29.3847 37.281 29.2633 37.4678 29.195C37.6545 29.1267 37.8572 29.1145 38.0507 29.16C38.2443 29.2055 38.4203 29.3066 38.5571 29.4509C38.6938 29.5953 38.7854 29.7765 38.8204 29.9722C38.8554 30.1679 38.8324 30.3696 38.7542 30.5524C38.6759 30.7352 38.5459 30.8911 38.3801 31.0009C38.2143 31.1107 38.02 31.1696 37.8212 31.1702C37.6818 31.1721 37.5436 31.1451 37.4152 31.0909C37.2868 31.0367 37.171 30.9565 37.0751 30.8553C36.9792 30.7542 36.9053 30.6342 36.8581 30.5031C36.8109 30.3719 36.7914 30.2324 36.8007 30.0934V30.0934ZM12.0829 30.0934V28.4114H11.3509V28.8195C11.2259 28.6585 11.0642 28.5298 10.8793 28.4441C10.6944 28.3584 10.4917 28.3182 10.2881 28.3269C9.83455 28.3491 9.40693 28.545 9.0938 28.8738C8.78067 29.2027 8.60602 29.6394 8.60602 30.0935C8.60602 30.5476 8.78067 30.9843 9.0938 31.3131C9.40693 31.642 9.83455 31.8378 10.2881 31.86C10.4917 31.8687 10.6944 31.8285 10.8793 31.7428C11.0642 31.6571 11.2259 31.5283 11.3509 31.3673V31.7756H12.0829V30.0934ZM9.35912 30.0934C9.37049 29.8949 9.43971 29.704 9.55824 29.5444C9.67677 29.3847 9.83944 29.2633 10.0262 29.195C10.2129 29.1267 10.4156 29.1145 10.6091 29.16C10.8027 29.2055 10.9787 29.3066 11.1155 29.4509C11.2522 29.5953 11.3438 29.7765 11.3788 29.9722C11.4138 30.1679 11.3908 30.3696 11.3126 30.5524C11.2343 30.7352 11.1043 30.8911 10.9385 31.0009C10.7727 31.1107 10.5784 31.1696 10.3796 31.1702C10.2402 31.1721 10.102 31.1451 9.97358 31.0909C9.84516 31.0367 9.72938 30.9565 9.6335 30.8553C9.53763 30.7542 9.46375 30.6342 9.41653 30.5031C9.3693 30.3719 9.34975 30.2324 9.35912 30.0934V30.0934Z" fill="white"/>
<path d="M26.5436 2.77271H15.4571V22.6955H26.5436V2.77271Z" fill="#FF5F00"/>
<path d="M16.1609 12.7348C16.1592 10.8161 16.594 8.92213 17.4324 7.19629C18.2708 5.47045 19.4909 3.95798 21.0003 2.77338C19.1311 1.30419 16.8863 0.39053 14.5225 0.136816C12.1586 -0.116898 9.7711 0.299576 7.63276 1.33863C5.49441 2.37769 3.69154 3.99741 2.43021 6.01266C1.16889 8.0279 0.5 10.3574 0.5 12.7348C0.5 15.1122 1.16889 17.4417 2.43021 19.4569C3.69154 21.4722 5.49441 23.0919 7.63276 24.131C9.7711 25.17 12.1586 25.5865 14.5225 25.3328C16.8863 25.0791 19.1311 24.1654 21.0003 22.6962C19.4909 21.5116 18.2708 19.9991 17.4324 18.2733C16.594 16.5475 16.1592 14.6535 16.1609 12.7348V12.7348Z" fill="#EB001B"/>
<path d="M41.5 12.7348C41.5001 15.1122 40.8313 17.4416 39.57 19.4569C38.3088 21.4721 36.5059 23.0919 34.3676 24.1309C32.2293 25.17 29.8418 25.5865 27.478 25.3328C25.1142 25.0791 22.8695 24.1654 21.0004 22.6962C22.5084 21.5104 23.7275 19.9977 24.5658 18.2721C25.4041 16.5466 25.8397 14.6532 25.8397 12.7348C25.8397 10.8164 25.4041 8.92302 24.5658 7.19746C23.7275 5.47189 22.5084 3.95917 21.0004 2.77337C22.8695 1.30419 25.1142 0.390525 27.478 0.136814C29.8418 -0.116897 32.2293 0.299584 34.3676 1.33865C36.5059 2.37772 38.3088 3.99745 39.57 6.0127C40.8313 8.02795 41.5001 10.3574 41.5 12.7348V12.7348Z" fill="#F79E1B"/>
<path d="M40.2913 20.5858V20.1779H40.4557V20.0948H40.0369V20.1779H40.2014V20.5858H40.2913ZM41.1045 20.5858V20.094H40.9761L40.8284 20.4323L40.6807 20.094H40.5522V20.5858H40.6429V20.2148L40.7814 20.5346H40.8754L41.0139 20.214V20.5858H41.1045Z" fill="#F79E1B"/>
</svg>
