<svg version="1.0" xmlns="http://www.w3.org/2000/svg"
 width="646.000000pt" height="361.000000pt" viewBox="0 0 646.000000 361.000000"
 preserveAspectRatio="xMidYMid meet">
<g transform="translate(0.000000,361.000000) scale(0.100000,-0.100000)"
 stroke="none">
<path d="M5988 3005 c-4 -4 -19 -8 -35 -9 -46 -4 -173 -26 -253 -44 -41 -9
-85 -16 -96 -14 -13 1 -24 -4 -28 -14 -5 -14 -17 -15 -76 -10 -59 6 -138 -1
-227 -20 -16 -3 -23 -12 -23 -27 -1 -20 -2 -21 -14 -4 -29 38 -73 8 -62 -43 6
-33 -9 -42 -19 -11 -3 12 -17 21 -33 24 l-27 3 25 11 c48 21 -3 24 -111 7 -57
-9 -126 -20 -154 -23 -29 -3 -51 -11 -51 -18 -1 -7 -2 -23 -3 -34 -1 -18 -3
-19 -16 -9 -8 7 -15 21 -15 32 0 16 -5 18 -37 12 -21 -4 -43 -11 -50 -16 -7
-5 -17 -7 -23 -3 -5 3 -10 1 -10 -5 0 -6 -10 -8 -24 -4 -19 4 -26 1 -31 -16
-4 -12 -9 -19 -12 -16 -3 3 -12 -1 -20 -9 -15 -16 -93 -21 -93 -6 0 5 10 16
23 25 21 16 21 16 -18 10 -62 -9 -79 -15 -66 -23 16 -10 2 -43 -15 -37 -8 3
-14 2 -14 -2 0 -4 -17 -8 -37 -10 -20 -1 -47 -9 -59 -17 -19 -12 -23 -12 -28
0 -3 8 -2 15 2 15 4 0 8 9 8 20 0 11 -6 20 -14 20 -9 0 -11 -7 -7 -20 5 -15 0
-21 -19 -26 -18 -4 -23 -11 -19 -22 6 -15 4 -15 -14 1 -11 9 -26 17 -33 17
-19 0 -4 13 33 28 29 11 26 12 -33 7 -38 -4 -69 -12 -76 -20 -7 -9 -14 -11
-20 -5 -7 7 -28 6 -60 -1 -27 -6 -58 -11 -69 -11 -11 0 -58 -7 -105 -15 -47
-9 -93 -15 -102 -15 -10 0 -18 -5 -18 -13 0 -7 -9 -17 -20 -20 -11 -4 -18 -11
-15 -16 4 -5 14 -5 25 1 23 12 30 13 30 1 0 -15 -35 -22 -62 -12 -19 7 -28 4
-48 -16 -22 -22 -22 -25 -7 -41 11 -10 17 -12 17 -4 0 7 7 12 16 12 8 0 13 4
10 9 -3 5 4 9 17 9 12 0 40 3 62 7 37 6 39 5 21 -9 -11 -9 -30 -16 -42 -16
-13 0 -26 -5 -30 -11 -4 -7 0 -9 12 -6 11 3 41 8 67 12 27 4 59 9 70 11 12 2
51 7 85 11 42 4 66 11 69 20 4 10 8 11 13 3 5 -8 40 -6 134 9 69 12 137 21
151 21 13 0 31 7 40 17 14 14 18 14 26 2 8 -12 12 -11 23 4 9 11 15 14 18 7 5
-16 236 19 255 39 11 11 17 11 22 2 5 -8 18 -10 35 -5 20 5 25 11 21 25 -4 11
-2 19 4 19 6 0 11 -7 11 -15 0 -19 42 -20 146 -1 44 7 117 19 164 26 47 6 123
18 170 25 47 8 109 17 138 20 39 5 52 11 52 23 0 15 2 15 10 2 9 -13 11 -13
19 -1 7 11 13 12 23 4 9 -7 46 -5 128 8 63 10 135 21 160 25 25 4 49 13 53 21
4 7 13 13 18 13 6 0 7 -4 4 -10 -3 -5 1 -10 10 -10 11 0 15 5 12 15 -5 11 -1
12 19 5 14 -6 43 -10 64 -10 30 0 38 -3 34 -14 -3 -9 3 -17 15 -21 24 -7 28
-25 6 -25 -21 0 -19 -22 5 -48 24 -25 25 -32 5 -32 -8 0 -15 -3 -15 -7 0 -12
74 -10 82 2 4 5 2 13 -5 17 -8 5 -5 13 10 27 31 29 21 62 -18 54 -33 -6 -36 2
-11 30 16 20 16 20 -3 13 -33 -13 -49 -12 -52 4 -4 17 50 42 72 34 10 -4 12 1
8 16 -5 20 -10 21 -67 15 -38 -5 -65 -14 -73 -24 -10 -14 -12 -13 -10 7 1 12
7 22 14 22 7 0 13 4 13 9 0 5 21 16 47 25 36 13 49 13 61 4 12 -10 14 -9 11 7
-3 14 -14 21 -34 23 -17 2 -34 0 -37 -3z m-208 -73 c0 -16 -45 -34 -96 -39
-37 -4 -54 -2 -54 5 0 7 12 10 29 8 22 -2 28 0 24 12 -5 11 0 13 23 8 16 -3
36 -2 44 4 18 12 30 13 30 2z m-340 -26 c0 -11 -19 -15 -25 -6 -3 5 1 10 9 10
9 0 16 -2 16 -4z m350 -6 c0 -5 -5 -10 -11 -10 -5 0 -7 5 -4 10 3 6 8 10 11
10 2 0 4 -4 4 -10z m-394 -17 c22 -29 16 -40 -23 -48 -21 -3 -48 -9 -60 -12
-14 -3 -23 -1 -23 6 0 6 9 11 20 11 10 0 24 8 29 18 6 9 11 11 11 5 0 -18 27
-16 34 2 3 9 0 15 -9 15 -8 0 -15 5 -15 10 0 16 22 12 36 -7z m134 3 l33 -13
-32 -16 c-17 -9 -29 -11 -26 -6 4 5 -4 9 -17 9 -13 0 -30 4 -38 9 -9 7 -2 9
23 7 30 -3 35 -1 26 10 -14 17 -9 17 31 0z m90 7 c-1 -9 -36 -53 -43 -53 -13
0 -2 50 12 53 26 7 31 7 31 0z m65 -23 c3 -5 1 -10 -4 -10 -6 0 -11 5 -11 10
0 6 2 10 4 10 3 0 8 -4 11 -10z m35 6 c0 -3 -4 -8 -10 -11 -5 -3 -10 -1 -10 4
0 6 5 11 10 11 6 0 10 -2 10 -4z m-640 -45 c0 -8 -56 -25 -72 -22 -5 0 -8 -4
-8 -10 0 -8 -4 -8 -12 -1 -8 5 -22 6 -33 1 -31 -12 -57 -10 -52 4 2 6 17 13
33 13 16 1 36 4 44 7 31 12 85 24 93 20 4 -2 7 -8 7 -12z m124 4 c-4 -8 -10
-12 -15 -9 -11 6 -2 24 11 24 5 0 7 -7 4 -15z m66 -10 c0 -8 -4 -15 -10 -15
-5 0 -10 7 -10 15 0 8 5 15 10 15 6 0 10 -7 10 -15z m-33 -11 c-3 -3 -12 -4
-19 -1 -8 3 -5 6 6 6 11 1 17 -2 13 -5z m-357 -30 c0 -8 -10 -14 -25 -14 -18
0 -25 5 -25 19 0 14 6 17 25 13 14 -2 25 -11 25 -18z m-140 6 c0 -5 -5 -10
-11 -10 -5 0 -7 5 -4 10 3 6 8 10 11 10 2 0 4 -4 4 -10z m-110 -20 c0 -5 -5
-10 -11 -10 -5 0 -7 5 -4 10 3 6 8 10 11 10 2 0 4 -4 4 -10z m64 -5 c-7 -17
-20 -20 -28 -6 -7 10 3 21 20 21 8 0 11 -6 8 -15z m361 -5 c3 -5 1 -10 -4 -10
-6 0 -11 5 -11 10 0 6 2 10 4 10 3 0 8 -4 11 -10z m980 -10 c3 -5 1 -10 -4
-10 -6 0 -11 5 -11 10 0 6 2 10 4 10 3 0 8 -4 11 -10z m-1235 -15 c0 -8 -4
-15 -10 -15 -5 0 -10 7 -10 15 0 8 5 15 10 15 6 0 10 -7 10 -15z m-160 -15 c0
-5 -2 -10 -4 -10 -3 0 -8 5 -11 10 -3 6 -1 10 4 10 6 0 11 -4 11 -10z m70 -6
c0 -8 -5 -12 -10 -9 -6 4 -8 11 -5 16 9 14 15 11 15 -7z m-176 -29 c3 -8 1
-15 -4 -15 -6 0 -10 7 -10 15 0 8 2 15 4 15 2 0 6 -7 10 -15z m-184 -5 c0 -5
-4 -10 -10 -10 -5 0 -10 5 -10 10 0 6 5 10 10 10 6 0 10 -4 10 -10z m-483 -26
c-3 -3 -12 -4 -19 -1 -8 3 -5 6 6 6 11 1 17 -2 13 -5z m276 -19 c-7 -21 -13
-19 -13 6 0 11 4 18 10 14 5 -3 7 -12 3 -20z m-323 5 c0 -5 -4 -10 -10 -10 -5
0 -10 5 -10 10 0 6 5 10 10 10 6 0 10 -4 10 -10z m280 1 c0 -12 -39 -21 -58
-13 -13 5 -10 8 13 13 44 10 45 10 45 0z m-105 -28 c-11 -7 -38 -13 -61 -13
-24 0 -46 -4 -49 -10 -9 -15 -35 -12 -35 3 0 15 113 45 144 38 18 -4 18 -5 1
-18z m-180 -33 c-3 -5 -10 -10 -16 -10 -5 0 -9 5 -9 10 0 6 7 10 16 10 8 0 12
-4 9 -10z"/>
<path d="M5788 2823 c-20 -5 -23 -18 -8 -28 6 -3 10 -2 10 4 0 5 12 14 28 19
20 8 22 10 7 10 -11 0 -28 -2 -37 -5z"/>
<path d="M5687 2799 c8 -8 16 -8 30 0 16 9 14 10 -11 11 -22 0 -27 -3 -19 -11z"/>
<path d="M5598 2793 c-10 -2 -18 -8 -18 -12 0 -10 59 -1 66 10 5 9 -18 10 -48
2z"/>
<path d="M5922 2783 c2 -9 8 -18 15 -20 7 -3 9 3 6 16 -6 25 -26 28 -21 4z"/>
<path d="M4575 2780 c3 -5 8 -10 11 -10 2 0 4 5 4 10 0 6 -5 10 -11 10 -5 0
-7 -4 -4 -10z"/>
<path d="M4350 2750 c0 -5 4 -10 9 -10 6 0 13 5 16 10 3 6 -1 10 -9 10 -9 0
-16 -4 -16 -10z"/>
<path d="M4286 2741 c-3 -5 5 -11 18 -13 17 -4 23 -1 19 9 -6 15 -29 18 -37 4z"/>
<path d="M5300 2728 c0 -4 9 -8 20 -8 11 0 20 4 20 8 0 4 -9 8 -20 8 -11 0
-20 -4 -20 -8z"/>
<path d="M5260 2720 c-12 -8 -10 -10 8 -10 13 0 20 4 17 10 -7 12 -6 12 -25 0z"/>
<path d="M5090 2710 c0 -5 7 -7 15 -4 8 4 15 8 15 10 0 2 -7 4 -15 4 -8 0 -15
-4 -15 -10z"/>
<path d="M5048 2703 c7 -3 16 -2 19 1 4 3 -2 6 -13 5 -11 0 -14 -3 -6 -6z"/>
<path d="M5725 2686 l-70 -11 -19 -158 c-11 -87 -22 -153 -26 -145 -4 7 -16
70 -26 141 -10 70 -21 132 -25 138 -4 7 -25 7 -70 0 -35 -6 -78 -13 -94 -16
l-31 -5 15 -100 c12 -85 17 -100 33 -100 10 0 18 -7 18 -15 0 -9 -6 -12 -15
-9 -8 4 -15 2 -15 -2 -1 -26 84 -570 89 -576 7 -8 179 17 189 27 3 3 -5 73
-17 156 -13 82 -21 152 -18 155 2 3 32 -64 66 -149 l62 -154 97 15 c53 8 99
16 101 18 2 2 -39 100 -92 217 l-97 212 25 155 c14 85 27 170 30 188 7 37 6
37 -110 18z m-140 -435 c3 -5 1 -12 -5 -16 -5 -3 -10 1 -10 9 0 18 6 21 15 7z
m-35 -21 c0 -5 -4 -10 -10 -10 -5 0 -10 5 -10 10 0 6 5 10 10 10 6 0 10 -4 10
-10z"/>
<path d="M4855 2681 c-17 -4 -78 -14 -137 -21 -84 -11 -105 -17 -101 -28 4
-10 15 -12 37 -7 17 4 48 6 69 6 28 0 37 3 37 16 0 13 3 14 12 5 15 -15 32
-16 23 -2 -3 6 -1 10 4 10 6 0 11 -6 11 -12 0 -9 2 -10 8 -2 4 6 22 15 39 19
18 3 35 11 38 16 7 10 3 10 -40 0z"/>
<path d="M5930 2665 c0 -8 4 -15 8 -15 5 0 8 -15 8 -32 0 -18 3 -51 7 -73 4
-22 9 -65 13 -95 3 -30 10 -60 15 -66 5 -6 7 -19 3 -27 -8 -21 3 -38 20 -31
11 4 11 18 -1 82 -7 42 -16 97 -19 121 -3 25 -9 52 -13 60 -4 9 -6 28 -5 42 2
16 -4 29 -17 37 -16 10 -19 9 -19 -3z"/>
<path d="M6060 2670 c-8 -5 -25 -10 -38 -10 -13 0 -21 -4 -17 -9 3 -5 18 -9
33 -9 15 1 38 -2 50 -6 21 -7 23 -5 20 15 -3 26 -25 34 -48 19z"/>
<path d="M3585 2639 c-27 -5 -77 -13 -110 -19 -33 -5 -71 -12 -85 -15 -14 -2
-54 -7 -89 -11 -41 -4 -58 -10 -50 -15 12 -8 11 -11 -1 -19 -11 -7 -9 -9 10
-7 14 1 31 7 38 14 16 16 48 17 57 2 5 -7 12 -5 23 4 21 19 88 36 127 33 17
-2 41 -4 54 -4 13 -1 22 -4 19 -7 -12 -12 -149 -44 -213 -50 -39 -4 -71 -8
-73 -9 -7 -7 19 -56 30 -56 9 0 9 3 0 12 -19 19 -14 30 8 23 12 -4 28 -1 37 7
10 7 14 8 10 1 -10 -16 60 -26 100 -14 17 5 34 6 38 3 3 -4 3 2 -1 13 -6 15
-4 17 12 11 49 -21 91 -9 65 17 -8 8 -11 8 -11 -1 0 -7 -4 -12 -10 -12 -19 0
-10 17 15 28 14 6 25 18 25 26 0 8 12 24 28 35 30 22 24 23 -53 10z m20 -19
c-3 -5 -11 -10 -16 -10 -6 0 -7 5 -4 10 3 6 11 10 16 10 6 0 7 -4 4 -10z
m-145 -90 c0 -5 -5 -10 -11 -10 -5 0 -7 5 -4 10 3 6 8 10 11 10 2 0 4 -4 4
-10z"/>
<path d="M4549 2633 c-1 -5 -1 -11 0 -15 2 -12 -17 -9 -21 3 -5 14 -191 -14
-196 -30 -2 -6 -8 -11 -13 -11 -6 0 -7 5 -4 10 8 13 3 12 -70 -5 -33 -8 -77
-15 -97 -15 -20 0 -40 -5 -44 -11 -3 -6 -19 -9 -35 -5 -15 3 -31 1 -35 -5 -3
-6 -12 -8 -20 -5 -8 3 -14 2 -14 -3 0 -4 -6 -8 -12 -9 -25 -1 -73 -13 -78 -19
-3 -3 18 -3 45 1 28 4 58 7 68 7 9 0 17 5 17 10 0 5 10 7 23 4 12 -3 108 9
212 26 105 17 200 31 213 31 12 0 22 4 22 8 0 4 11 5 24 3 26 -5 66 12 66 27
0 12 -49 14 -51 3z"/>
<path d="M6096 2602 c-7 -12 -66 -21 -66 -11 0 5 -7 6 -15 3 -19 -8 -19 -31
-1 -66 8 -15 11 -28 6 -30 -14 -5 11 -118 26 -118 8 0 14 10 14 22 0 21 1 21
16 6 15 -15 14 -18 -9 -44 -19 -21 -23 -30 -14 -36 9 -6 9 -10 -1 -16 -19 -13
-4 -41 19 -35 10 3 26 0 35 -8 14 -11 13 -14 -11 -26 -14 -8 -30 -11 -35 -8
-5 3 -7 -1 -4 -9 3 -8 12 -12 19 -10 8 3 22 1 32 -5 16 -9 15 -12 -14 -23 -18
-7 -33 -17 -33 -22 0 -5 3 -6 7 -3 3 4 14 0 24 -9 10 -9 25 -14 34 -10 9 3 13
2 10 -4 -3 -6 1 -10 9 -10 16 0 17 -42 1 -103 -6 -22 -10 -25 -22 -16 -28 24
-36 -4 -23 -83 7 -40 16 -75 20 -78 5 -3 6 -26 3 -52 -6 -49 -17 -58 -75 -58
-15 0 -34 -8 -44 -17 -13 -13 -19 -14 -22 -5 -5 16 -31 15 -38 -2 -3 -8 -15
-14 -27 -14 -27 0 -48 -5 -64 -15 -8 -5 -13 -4 -13 2 0 6 -5 11 -11 11 -5 0
-7 -4 -4 -10 4 -6 -2 -7 -18 -1 -28 11 -115 2 -97 -9 9 -6 9 -9 0 -15 -7 -4
-16 -2 -21 6 -6 11 -30 10 -136 -5 -70 -10 -133 -21 -140 -23 -13 -5 -6 -34
11 -45 6 -4 7 -10 2 -15 -4 -4 -12 0 -17 10 -7 11 -17 16 -30 12 -10 -3 -28
-8 -39 -11 -14 -4 -20 -1 -20 12 0 12 -3 14 -13 5 -10 -8 -17 -7 -25 1 -9 9
-12 8 -12 -5 0 -9 -6 -17 -14 -17 -8 0 -21 -3 -30 -6 -9 -3 -16 -1 -16 4 0 6
9 14 21 17 41 13 12 13 -76 -1 -49 -8 -110 -17 -135 -19 -24 -3 -49 -11 -55
-17 -7 -8 -4 -9 13 -5 12 3 22 2 22 -3 0 -4 -11 -10 -25 -12 -14 -3 -23 -1
-22 6 1 6 -9 12 -22 14 -15 2 -21 0 -16 -7 3 -6 11 -9 16 -6 5 4 9 3 9 -2 0
-4 -11 -13 -25 -20 -16 -7 -25 -7 -25 -1 0 6 -7 8 -14 5 -11 -4 -13 -1 -9 10
5 12 0 14 -23 10 -16 -3 -50 -9 -76 -12 -64 -8 -62 -23 2 -17 32 3 50 1 50 -6
0 -14 -33 -24 -54 -16 -16 6 -34 0 -87 -27 -13 -6 -18 -3 -22 12 -3 10 -2 17
2 15 10 -7 37 12 29 20 -9 8 -100 -5 -94 -14 2 -4 -30 -8 -70 -9 -41 0 -81 -6
-88 -12 -7 -6 -20 -9 -28 -6 -8 3 -35 1 -59 -5 -24 -6 -50 -12 -56 -12 -7 -1
-13 -5 -13 -9 0 -4 -12 -6 -27 -3 -14 3 -33 2 -42 -2 -9 -4 -32 -9 -51 -10
-19 -1 -46 -5 -60 -9 -14 -4 -33 -8 -42 -8 -20 -1 -25 -17 -6 -17 6 0 9 -3 6
-6 -4 -3 -15 -1 -25 4 -27 15 -64 -17 -56 -48 5 -20 4 -21 -16 -11 -13 7 -21
22 -22 39 0 25 -1 26 -10 6 -6 -11 -32 -28 -60 -38 -43 -16 -49 -21 -49 -47 0
-25 3 -29 23 -25 19 4 86 14 137 21 134 17 200 30 200 37 0 5 5 6 11 2 6 -3
15 0 20 7 6 10 9 11 9 1 0 -8 8 -10 26 -6 15 4 36 8 48 9 11 1 25 3 30 4 5 0
2 9 -5 18 -8 9 -9 14 -2 10 6 -4 14 -1 16 5 4 10 8 10 16 -2 5 -8 7 -18 4 -23
-3 -4 12 -5 34 -1 21 4 39 10 41 14 1 4 14 5 27 2 14 -2 33 -1 42 3 10 4 41 9
68 11 100 8 114 12 107 36 -3 15 -2 19 7 14 6 -4 18 -3 26 4 8 6 22 10 32 8
10 -1 24 1 31 5 16 11 74 -2 66 -14 -3 -5 0 -9 5 -9 6 0 11 7 11 15 0 8 6 15
13 16 6 0 22 2 34 5 18 3 21 0 16 -14 -4 -12 -1 -11 11 4 16 22 73 37 82 22 3
-4 -9 -11 -26 -14 -17 -4 -33 -11 -37 -17 -4 -6 3 -8 18 -4 13 3 95 15 182 28
126 18 157 26 157 38 0 13 2 13 9 3 6 -10 22 -12 65 -7 31 4 54 10 52 13 -12
11 16 30 36 24 14 -3 19 -1 14 6 -4 7 0 12 10 12 16 0 15 -2 -2 -22 -18 -20
-18 -21 -1 -15 10 4 22 7 27 7 4 0 11 11 14 25 4 15 11 23 17 19 8 -4 8 -8 1
-13 -6 -4 -8 -12 -3 -19 6 -10 21 -9 71 1 66 13 86 30 51 42 -12 3 -21 14 -21
23 0 14 11 17 60 19 52 2 60 0 60 -15 0 -10 -7 -19 -15 -19 -8 0 -15 4 -15 9
0 4 -4 8 -10 8 -5 0 -10 -12 -10 -27 0 -20 3 -24 9 -14 7 11 9 11 13 0 4 -11
9 -12 27 -1 11 6 30 12 41 12 17 0 19 3 11 19 -9 15 -7 18 7 17 12 -1 16 6 15
21 -3 30 23 37 48 12 26 -26 16 -39 -11 -14 -19 17 -19 17 -7 -14 9 -24 17
-31 37 -30 14 0 20 3 14 5 -17 7 -4 53 17 65 15 7 19 6 19 -6 0 -9 -7 -18 -15
-21 -11 -5 -13 -10 -5 -19 5 -6 7 -15 3 -18 -3 -4 1 -7 10 -7 9 0 18 4 21 9 3
4 16 6 29 4 21 -4 25 0 29 26 2 17 1 31 -4 31 -4 0 -8 5 -8 10 0 12 10 13 28
2 9 -7 10 -15 3 -35 -10 -26 -9 -27 19 -27 17 0 30 4 30 10 0 5 -7 7 -15 4 -8
-4 -15 -1 -15 5 0 20 32 25 42 8 13 -24 53 -21 78 5 17 18 20 19 20 5 0 -20 1
-20 35 -7 21 8 25 14 19 33 -4 12 -7 29 -7 37 1 22 -28 204 -33 209 -2 2 -4
-3 -4 -12 0 -10 -5 -17 -11 -17 -7 0 -6 8 4 23 18 28 12 78 -9 70 -9 -3 -14 2
-14 16 0 12 -5 21 -12 21 -6 0 -8 3 -5 6 4 4 13 1 22 -6 13 -10 15 -9 15 7 0
53 -21 123 -44 148 -14 15 -23 32 -19 38 3 5 13 0 23 -14 l18 -23 -5 27 c-3
15 -14 32 -25 38 -13 7 -17 16 -13 27 4 9 9 41 12 70 4 49 3 53 -15 48 -11 -4
-24 0 -32 9 -16 19 -6 32 13 17 17 -14 27 -6 27 21 0 15 -5 18 -25 13 -14 -4
-25 -2 -25 4 0 5 3 9 8 9 32 -5 35 1 28 64 -7 62 -18 88 -30 69z m-26 -103 c0
-6 -4 -7 -10 -4 -5 3 -10 11 -10 16 0 6 5 7 10 4 6 -3 10 -11 10 -16z m55
-329 c-3 -5 -14 -10 -23 -10 -15 0 -15 2 -2 10 20 13 33 13 25 0z m55 -201 c0
-6 -4 -7 -10 -4 -5 3 -10 11 -10 16 0 6 5 7 10 4 6 -3 10 -11 10 -16z m-35
-99 c-3 -5 -10 -10 -16 -10 -5 0 -9 5 -9 10 0 6 7 10 16 10 8 0 12 -4 9 -10z
m64 -54 c-2 -2 -19 -6 -36 -9 -24 -5 -33 -3 -33 7 0 9 10 12 30 10 19 -2 30 1
31 9 0 9 2 8 6 -1 3 -7 3 -15 2 -16z m-59 -71 c0 -8 -2 -15 -4 -15 -2 0 -6 7
-10 15 -3 8 -1 15 4 15 6 0 10 -7 10 -15z m24 -49 c-5 -13 -54 -29 -63 -21
-11 12 11 30 37 32 23 2 30 -2 26 -11z m66 -17 c0 -5 -7 -9 -15 -9 -15 0 -20
12 -9 23 8 8 24 -1 24 -14z m-470 -13 c0 -2 -7 -6 -15 -10 -8 -3 -15 -1 -15 4
0 6 7 10 15 10 8 0 15 -2 15 -4z m-160 -36 c-19 -13 -30 -13 -30 0 0 6 10 10
23 10 18 0 19 -2 7 -10z m-477 -71 c-7 -7 -9 -25 -6 -40 4 -23 2 -29 -12 -29
-15 0 -15 2 -4 16 10 13 10 17 -1 24 -11 7 -12 13 -1 36 9 20 15 24 23 16 9
-9 9 -15 1 -23z m232 11 c3 -5 1 -10 -4 -10 -6 0 -11 5 -11 10 0 6 2 10 4 10
3 0 8 -4 11 -10z m-312 -30 c3 -11 2 -20 -3 -20 -4 0 -10 9 -13 20 -3 11 -2
20 3 20 4 0 10 -9 13 -20z m221 -23 c-21 -12 -30 -1 -14 18 10 13 15 13 21 3
5 -8 2 -16 -7 -21z m116 23 c0 -5 -5 -10 -11 -10 -5 0 -7 5 -4 10 3 6 8 10 11
10 2 0 4 -4 4 -10z m-540 -10 c0 -5 -4 -10 -10 -10 -5 0 -10 5 -10 10 0 6 5
10 10 10 6 0 10 -4 10 -10z m330 -5 c-7 -8 -16 -12 -21 -9 -13 8 -1 24 18 24
13 0 13 -3 3 -15z m-250 -5 c0 -5 -2 -10 -4 -10 -3 0 -8 5 -11 10 -3 6 -1 10
4 10 6 0 11 -4 11 -10z m-85 -20 c3 -5 -1 -10 -9 -10 -9 0 -16 5 -16 10 0 6 4
10 9 10 6 0 13 -4 16 -10z m65 6 c0 -3 -4 -8 -10 -11 -5 -3 -10 -1 -10 4 0 6
5 11 10 11 6 0 10 -2 10 -4z m170 -10 c0 -3 -4 -8 -10 -11 -5 -3 -10 -1 -10 4
0 6 5 11 10 11 6 0 10 -2 10 -4z m-580 -28 c0 -4 -3 -8 -7 -8 -5 0 -18 -3 -30
-6 -17 -5 -23 -2 -23 10 0 12 8 16 30 14 17 -1 30 -6 30 -10z m-100 -26 c0
-15 -2 -15 -10 -2 -13 20 -13 33 0 25 6 -3 10 -14 10 -23z m43 -24 c-11 -19
-33 -6 -33 19 0 26 0 26 19 7 10 -10 17 -22 14 -26z m-158 12 c3 -5 2 -10 -4
-10 -5 0 -13 5 -16 10 -3 6 -2 10 4 10 5 0 13 -4 16 -10z m196 -3 c-1 -12 -15
-9 -19 4 -3 6 1 10 8 8 6 -3 11 -8 11 -12z m-91 -27 c0 -5 -2 -10 -4 -10 -3 0
-8 5 -11 10 -3 6 -1 10 4 10 6 0 11 -4 11 -10z m-190 -20 c0 -5 -9 -11 -20
-11 -11 -1 -24 -3 -30 -4 -5 -1 -14 -3 -20 -4 -5 0 -10 -7 -10 -15 0 -9 -8
-12 -25 -8 -31 5 -27 28 3 24 12 -2 22 1 22 7 0 8 18 14 68 20 6 0 12 -3 12
-9z m-156 -34 c-3 -9 -10 -13 -15 -10 -5 3 -3 11 4 19 15 16 19 13 11 -9z
m-34 -16 c0 -5 -4 -10 -10 -10 -5 0 -10 5 -10 10 0 6 5 10 10 10 6 0 10 -4 10
-10z m-90 -10 c0 -5 -7 -10 -16 -10 -8 0 -12 5 -9 10 3 6 10 10 16 10 5 0 9
-4 9 -10z"/>
<path d="M4989 2586 c-80 -28 -133 -87 -144 -161 -4 -24 4 -113 20 -220 34
-236 52 -318 70 -331 8 -6 15 -20 15 -31 0 -33 76 -90 106 -79 8 3 14 1 14 -4
0 -6 14 -10 31 -10 17 0 28 4 24 10 -3 6 1 10 9 10 9 0 16 -4 16 -9 0 -11 82
4 118 23 42 22 99 89 107 126 8 36 -2 189 -14 208 -5 9 -28 8 -95 -3 -49 -7
-91 -16 -94 -19 -2 -3 0 -43 5 -88 6 -49 6 -90 1 -100 -12 -24 -45 -23 -58 2
-14 26 -82 466 -78 509 4 42 31 63 52 41 9 -8 22 -60 31 -115 9 -55 18 -101
20 -103 4 -5 184 24 190 30 8 8 -24 176 -41 216 -20 49 -42 71 -89 93 -48 22
-162 25 -216 5z m71 -694 c0 -11 -73 -40 -87 -35 -21 8 -15 21 15 31 33 13 72
15 72 4z m70 -102 c0 -5 -5 -10 -11 -10 -5 0 -7 5 -4 10 3 6 8 10 11 10 2 0 4
-4 4 -10z"/>
<path d="M3170 2570 c-8 -5 -25 -7 -38 -3 -22 5 -23 4 -10 -16 13 -21 28 -28
28 -13 0 5 14 8 30 7 23 -1 30 2 30 17 0 20 -16 23 -40 8z"/>
<path d="M3057 2546 c-4 -10 -1 -13 9 -9 7 3 14 0 14 -6 0 -6 5 -11 10 -11 6
0 10 9 10 20 0 24 -35 28 -43 6z"/>
<path d="M3008 2543 c6 -2 18 -2 25 0 6 3 1 5 -13 5 -14 0 -19 -2 -12 -5z"/>
<path d="M2912 2529 c-13 -5 -28 -6 -33 -3 -5 3 -9 2 -8 -3 4 -21 -2 -32 -15
-27 -8 3 -17 0 -21 -5 -3 -6 -10 -9 -14 -7 -4 3 -7 -4 -8 -14 -1 -13 6 -20 25
-22 16 -2 27 -9 27 -18 1 -21 70 -16 158 11 70 22 86 45 28 43 -21 -1 -31 3
-31 13 0 8 -4 12 -9 9 -5 -3 -11 3 -14 14 -3 11 -13 20 -22 20 -9 0 -13 -5
-10 -10 3 -6 -1 -13 -10 -16 -10 -4 -13 -13 -10 -24 3 -10 1 -21 -5 -25 -5 -3
-10 -11 -10 -16 0 -6 4 -8 9 -4 5 3 12 1 16 -5 3 -5 -3 -10 -15 -10 -24 0 -38
26 -22 42 6 6 8 17 5 26 -4 8 2 21 12 28 21 16 11 17 -23 3z m78 -23 c0 -3 -4
-8 -10 -11 -5 -3 -10 -1 -10 4 0 6 5 11 10 11 6 0 10 -2 10 -4z m35 -46 c3 -5
2 -10 -4 -10 -5 0 -17 -3 -25 -6 -12 -5 -15 -2 -10 10 7 18 29 21 39 6z"/>
<path d="M3170 2520 c0 -7 -6 -10 -14 -7 -21 8 -26 -15 -8 -35 8 -10 10 -18 5
-18 -6 0 -13 7 -17 15 -8 21 -23 19 -29 -5 -4 -17 0 -20 26 -19 44 1 148 23
147 32 0 4 0 11 0 16 0 5 -14 14 -32 20 -24 9 -33 8 -39 -1 -6 -9 -11 -9 -23
1 -12 10 -16 11 -16 1z"/>
<path d="M3815 2521 c-17 -7 -17 -8 8 -13 15 -3 27 -2 27 3 0 4 10 10 23 12
17 3 15 4 -8 5 -16 0 -39 -3 -50 -7z"/>
<path d="M3743 2511 c-16 -4 -20 -10 -14 -20 8 -12 12 -12 26 3 21 20 18 25
-12 17z"/>
<path d="M4451 2504 c-60 -21 -94 -48 -120 -95 -24 -42 -28 -89 -18 -193 11
-104 16 -116 43 -116 13 0 24 -4 24 -9 0 -13 -26 -32 -33 -24 -11 11 -8 -39 8
-133 20 -115 32 -151 63 -193 61 -82 222 -96 323 -28 32 21 79 80 79 98 0 11
-33 -1 -42 -15 -5 -7 -8 -7 -8 2 0 7 11 17 25 22 14 5 28 17 32 27 15 39 -54
495 -84 560 -14 28 -24 37 -38 35 -14 -2 -16 0 -7 6 10 7 8 12 -6 25 -51 46
-157 60 -241 31z m104 -133 c8 -14 74 -437 77 -501 3 -53 2 -55 -23 -58 -24
-3 -28 1 -38 45 -6 26 -20 111 -31 188 -11 77 -23 148 -26 158 -6 19 -19 22
-29 7 -8 -13 -45 -13 -45 0 0 5 15 13 33 18 37 10 47 40 21 66 -12 13 -14 20
-5 29 6 6 11 21 11 34 0 18 6 23 24 23 14 0 27 -4 31 -9z m119 -92 c-3 -5 -10
-7 -15 -3 -5 3 -7 10 -3 15 3 5 10 7 15 3 5 -3 7 -10 3 -15z m-284 -9 c0 -5
-5 -10 -11 -10 -5 0 -7 5 -4 10 3 6 8 10 11 10 2 0 4 -4 4 -10z m30 -159 c0
-12 -20 -25 -27 -18 -7 7 6 27 18 27 5 0 9 -4 9 -9z m308 -309 c-27 -34 -64
-53 -85 -45 -8 3 -19 0 -24 -8 -7 -12 -9 -12 -9 1 0 17 19 51 20 35 0 -5 5 -2
11 8 5 9 22 17 37 18 15 0 36 4 47 9 11 5 21 9 23 9 2 1 -7 -12 -20 -27z
m-308 -33 c0 -6 -4 -7 -10 -4 -5 3 -10 11 -10 16 0 6 5 7 10 4 6 -3 10 -11 10
-16z m170 -23 c-5 -15 -14 -24 -20 -21 -6 4 -4 16 6 31 21 31 28 26 14 -10z"/>
<path d="M2720 2500 c0 -5 5 -10 10 -10 6 0 10 5 10 10 0 6 -4 10 -10 10 -5 0
-10 -4 -10 -10z"/>
<path d="M2628 2493 c-16 -2 -30 -12 -33 -24 -4 -10 -11 -19 -16 -19 -6 0 -25
-10 -42 -22 -37 -27 -57 -32 -57 -17 0 8 -4 8 -14 0 -8 -6 -18 -11 -22 -9 -21
5 -54 -15 -54 -33 0 -10 -5 -19 -11 -19 -7 0 -9 9 -6 21 4 15 2 19 -9 15 -9
-4 -14 2 -14 15 0 17 5 20 25 17 14 -3 25 -1 25 4 0 5 4 7 9 4 5 -3 22 1 37 9
16 8 36 15 44 15 9 0 11 3 4 10 -12 12 -125 -3 -189 -24 -22 -8 -55 -12 -75
-10 -21 2 -28 0 -17 -4 16 -7 16 -9 -3 -25 -19 -16 -20 -16 -20 3 0 21 -30 29
-30 8 0 -16 -39 -67 -40 -53 0 6 5 16 11 22 6 6 8 16 5 22 -9 14 -36 14 -36 1
0 -5 -7 -10 -15 -10 -8 0 -15 -6 -15 -13 0 -7 -9 -18 -21 -25 -18 -11 -23 -11
-33 4 -12 16 -13 15 -19 -6 -3 -12 -10 -19 -16 -15 -6 3 -9 11 -6 16 4 5 2 9
-4 9 -5 0 -13 -4 -16 -10 -10 -17 -25 -11 -25 10 0 17 -5 19 -43 16 -65 -6
-117 -17 -117 -25 0 -4 -23 -7 -52 -6 -48 0 -51 -2 -55 -26 -2 -15 3 -32 11
-38 12 -10 18 -8 31 13 13 19 24 25 46 22 16 -2 26 0 24 4 -3 5 4 6 14 3 11
-3 18 -10 17 -16 -2 -7 -1 -8 2 -4 5 10 32 -12 32 -25 0 -6 -7 -7 -16 -4 -9 4
-23 1 -31 -5 -7 -7 -17 -9 -20 -5 -4 4 -1 11 7 16 9 6 10 10 3 10 -6 0 -14 -4
-17 -8 -2 -4 -17 -9 -33 -10 -59 -5 -68 -7 -74 -14 -3 -5 -20 -10 -37 -12 -26
-3 -32 0 -32 15 0 22 16 33 24 17 4 -7 4 -3 2 9 -2 13 0 26 5 29 5 3 9 9 9 15
0 13 -33 11 -54 -4 -14 -10 -15 -18 -7 -39 6 -15 7 -30 2 -32 -14 -9 -44 32
-37 50 6 15 0 16 -56 10 -57 -7 -155 -33 -168 -46 -11 -11 -85 -8 -92 3 -5 8
-8 5 -8 -8 0 -12 -3 -16 -8 -9 -11 17 -41 13 -34 -4 4 -11 1 -14 -10 -9 -12 4
-15 0 -11 -16 4 -21 4 -21 -11 -3 -14 17 -20 18 -54 8 -51 -15 -95 -15 -111 1
-11 10 -13 9 -8 -5 9 -25 -41 -38 -58 -15 -15 21 -85 12 -85 -10 0 -10 -7 -14
-18 -11 -12 3 -24 -2 -31 -13 -13 -22 -37 -25 -44 -6 -3 7 -6 5 -6 -5 -1 -10
-8 -18 -17 -18 -8 0 -12 5 -9 10 9 14 4 13 -49 -10 -54 -25 -62 -49 -14 -42
18 2 38 9 45 14 8 7 13 1 16 -19 4 -26 5 -27 12 -6 7 20 15 22 65 14 3 -1 -2
-6 -10 -12 -13 -9 -13 -10 0 -7 8 3 17 15 20 28 3 13 13 24 21 26 9 1 27 5 40
9 20 6 19 3 -11 -23 -44 -39 -33 -53 14 -17 20 15 36 22 36 16 0 -6 6 -11 14
-11 8 0 13 7 12 16 0 9 9 20 21 25 17 6 21 5 16 -7 -3 -8 1 -14 11 -14 10 0
16 9 16 23 1 22 1 22 15 -3 8 -14 15 -19 16 -12 1 6 2 17 3 24 1 14 55 30 70
20 6 -3 19 -5 30 -3 10 1 15 -2 12 -7 -9 -15 17 -21 63 -15 25 3 40 10 38 17
-2 6 -11 10 -19 10 -10 -1 -13 6 -10 21 3 18 10 22 40 22 21 0 44 2 52 4 10 3
14 -2 12 -13 -3 -18 23 -26 30 -9 5 15 48 -7 48 -25 0 -11 5 -14 18 -9 9 4 24
8 34 9 9 1 23 8 31 15 10 8 17 9 22 1 7 -11 48 -14 59 -3 3 4 28 9 54 11 26 2
53 4 60 4 6 1 12 6 12 11 0 5 11 7 24 3 12 -3 26 -2 30 2 4 4 31 7 60 8 61 1
76 8 76 35 0 23 9 24 37 4 16 -12 23 -12 26 -2 4 9 7 9 15 -1 6 -9 23 -11 58
-6 57 7 64 10 64 29 0 8 7 11 20 8 11 -3 20 -9 20 -14 0 -16 28 -9 34 9 21 55
59 93 55 54 -5 -53 -2 -55 57 -49 61 6 76 13 55 27 -18 10 -7 40 14 40 9 0 14
-3 11 -8 -2 -4 2 -16 9 -26 11 -14 21 -17 42 -12 15 3 55 8 87 11 32 3 63 8
67 11 14 8 11 36 -3 28 -7 -4 -6 0 2 8 19 20 93 32 87 15 -8 -24 21 -38 62
-31 22 4 38 11 35 15 -3 5 -10 7 -15 3 -6 -3 -13 3 -16 15 -3 12 -10 21 -16
21 -6 0 -7 3 -4 7 4 3 15 -1 26 -11 10 -9 25 -16 32 -14 8 2 13 -2 12 -8 -1
-6 13 -11 32 -12 32 -1 34 0 30 30 -4 35 -20 49 -50 46 -13 -2 -19 -9 -17 -20
3 -21 -1 -22 -45 -6 -36 13 -46 34 -12 25 15 -4 19 -2 15 10 -3 8 -6 17 -6 19
0 2 -3 3 -7 3 -5 -1 -20 -4 -35 -6z m-10 -43 c-7 -10 -14 -18 -15 -16 -6 6 9
36 18 36 5 0 4 -9 -3 -20z m139 -19 c1 -14 -3 -18 -13 -14 -17 6 -18 20 -1 26
6 3 12 6 12 6 1 1 1 -8 2 -18z m-107 -26 c0 -8 -7 -15 -15 -15 -9 0 -12 6 -9
15 4 8 10 15 15 15 5 0 9 -7 9 -15z m-380 -9 c0 -1 -8 -9 -19 -18 -18 -15 -49
-9 -38 8 4 7 57 16 57 10z m194 -21 c-4 -8 -10 -15 -15 -15 -5 0 -9 7 -9 15 0
8 7 15 15 15 9 0 12 -6 9 -15z m-584 -51 c0 -18 -4 -23 -12 -17 -7 4 -19 8
-25 8 -14 0 -18 20 -4 20 5 0 13 3 17 8 14 14 24 7 24 -19z m27 -6 c-3 -8 -6
-5 -6 6 -1 11 2 17 5 13 3 -3 4 -12 1 -19z m-463 -67 c3 -5 -1 -11 -9 -15 -15
-6 -29 7 -18 18 9 9 21 8 27 -3z m96 -1 c0 -5 -4 -10 -10 -10 -5 0 -10 5 -10
10 0 6 5 10 10 10 6 0 10 -4 10 -10z m-140 -14 c0 -9 -7 -12 -21 -9 -16 4 -17
8 -7 14 19 13 28 11 28 -5z m-506 -41 c-4 -8 -10 -15 -14 -15 -4 0 -10 7 -14
15 -4 10 1 15 14 15 13 0 18 -5 14 -15z m251 -5 c3 -5 1 -10 -4 -10 -6 0 -11
5 -11 10 0 6 2 10 4 10 3 0 8 -4 11 -10z m-295 -10 c0 -5 -4 -10 -10 -10 -5 0
-10 5 -10 10 0 6 5 10 10 10 6 0 10 -4 10 -10z"/>
<path d="M3642 2488 c5 -15 28 -23 28 -10 0 5 -7 13 -16 16 -10 4 -14 1 -12
-6z"/>
<path d="M2545 2470 c3 -5 8 -10 11 -10 2 0 4 5 4 10 0 6 -5 10 -11 10 -5 0
-7 -4 -4 -10z"/>
<path d="M3450 2459 c0 -6 -6 -9 -14 -6 -7 3 -19 0 -25 -6 -8 -8 -11 -8 -11 2
0 10 -10 11 -37 6 -43 -7 -60 -19 -43 -30 15 -9 190 15 190 27 0 5 -4 6 -10 3
-5 -3 -10 -1 -10 4 0 6 -9 11 -20 11 -11 0 -20 -5 -20 -11z"/>
<path d="M4006 2424 c-115 -18 -210 -35 -212 -37 -2 -2 2 -37 9 -78 l12 -74
40 4 c74 8 79 7 83 -14 8 -51 13 -65 22 -60 6 3 10 2 10 -4 0 -5 -5 -13 -11
-17 -6 -3 -8 -16 -5 -28 6 -24 76 -491 76 -507 0 -17 18 -9 23 11 6 24 47 28
47 4 0 -13 9 -14 58 -9 58 7 82 19 68 32 -4 4 -27 0 -52 -9 -42 -15 -44 -15
-44 3 0 11 6 19 14 19 8 0 28 8 46 18 29 16 31 20 25 57 -3 22 -23 152 -44
288 -35 234 -36 249 -20 258 10 5 30 9 46 9 52 0 57 9 43 89 -6 39 -15 72 -18
74 -4 2 -101 -11 -216 -29z m-136 -44 c0 -5 -7 -10 -15 -10 -8 0 -15 5 -15 10
0 6 7 10 15 10 8 0 15 -4 15 -10z m207 -206 c-3 -3 -12 -4 -19 -1 -8 3 -5 6 6
6 11 1 17 -2 13 -5z m3 -164 c0 -5 -2 -10 -4 -10 -3 0 -8 5 -11 10 -3 6 -1 10
4 10 6 0 11 -4 11 -10z m-42 -26 c-11 -11 -23 -14 -35 -9 -15 7 -13 9 12 15
17 4 32 8 35 9 2 0 -3 -6 -12 -15z"/>
<path d="M3141 2422 c-55 -10 -96 -22 -99 -30 -4 -12 40 -11 118 3 14 2 34 5
45 7 11 2 23 7 27 12 3 5 17 11 29 13 13 2 25 6 28 8 8 9 -53 3 -148 -13z"/>
<path d="M1995 2393 c-16 -3 -34 -9 -39 -13 -5 -6 6 -7 28 -3 27 4 41 2 47 -8
8 -12 10 -12 18 1 11 16 5 31 -12 29 -7 -1 -25 -4 -42 -6z"/>
<path d="M2996 2391 c-5 -8 -19 -11 -36 -7 -18 3 -33 0 -40 -9 -11 -13 -7 -15
26 -15 45 0 68 12 62 31 -4 11 -6 11 -12 0z"/>
<path d="M2570 2370 c-13 -8 -13 -10 2 -10 9 0 20 5 23 10 8 13 -5 13 -25 0z"/>
<path d="M3464 2352 c-109 -38 -138 -77 -136 -184 2 -152 36 -202 191 -283
118 -61 132 -76 145 -147 9 -47 -7 -78 -39 -78 -26 0 -35 22 -50 118 -7 43 -8
44 -39 38 -17 -3 -55 -8 -84 -12 -32 -4 -56 -13 -59 -21 -7 -18 15 -131 33
-163 8 -16 14 -20 15 -10 1 8 4 2 8 -14 12 -58 134 -92 240 -66 62 15 123 53
147 94 25 41 22 147 -6 238 -25 82 -55 110 -189 177 -53 27 -102 55 -108 63
-16 18 -26 82 -18 107 4 14 15 21 30 21 19 0 26 -8 34 -37 6 -21 11 -45 11
-54 0 -9 2 -18 5 -21 5 -4 175 19 181 25 1 1 -2 27 -8 56 -12 67 -43 131 -63
131 -8 0 -15 4 -15 8 0 14 -73 32 -126 32 -27 -1 -72 -9 -100 -18z m236 -112
c0 -5 -4 -10 -10 -10 -5 0 -10 5 -10 10 0 6 5 10 10 10 6 0 10 -4 10 -10z m-3
-282 c-3 -8 -6 -5 -6 6 -1 11 2 17 5 13 3 -3 4 -12 1 -19z"/>
<path d="M2790 2350 c0 -5 5 -10 11 -10 5 0 7 5 4 10 -3 6 -8 10 -11 10 -2 0
-4 -4 -4 -10z"/>
<path d="M2610 2331 c0 -11 26 -22 34 -14 3 3 3 10 0 14 -7 12 -34 11 -34 0z"/>
<path d="M2487 2319 c-9 -5 -22 -7 -27 -4 -6 3 -7 -1 -4 -9 3 -9 17 -16 31
-16 34 0 113 21 113 30 0 12 -54 9 -62 -4 -6 -8 -8 -7 -8 2 0 14 -18 15 -43 1z"/>
<path d="M6002 2303 c-9 -3 -11 -16 -7 -41 10 -60 14 -67 28 -53 9 9 9 14 -3
21 -13 8 -13 11 -1 19 17 11 2 60 -17 54z"/>
<path d="M2241 2277 c-14 -18 -6 -25 24 -19 21 4 22 6 10 18 -17 17 -20 17
-34 1z"/>
<path d="M2368 2273 c7 -3 16 -2 19 1 4 3 -2 6 -13 5 -11 0 -14 -3 -6 -6z"/>
<path d="M2895 2256 l-140 -22 2 -30 c2 -28 114 -777 117 -781 2 -3 190 28
194 32 2 2 -8 76 -22 166 -14 89 -23 165 -21 169 3 4 30 11 61 15 l56 7 -6 60
c-11 90 -10 89 -80 86 l-61 -3 -11 73 c-6 40 -8 75 -5 77 4 2 35 7 69 11 70 7
68 4 51 101 -13 74 4 71 -204 39z m-30 -286 c-3 -5 -11 -10 -16 -10 -6 0 -7 5
-4 10 3 6 11 10 16 10 6 0 7 -4 4 -10z m205 -109 c0 -5 -7 -12 -16 -15 -14 -5
-15 -4 -4 9 14 17 20 19 20 6z"/>
<path d="M2100 2245 c7 -9 15 -13 17 -11 7 7 -7 26 -19 26 -6 0 -6 -6 2 -15z"/>
<path d="M2186 2251 c-4 -5 3 -7 14 -4 23 6 26 13 6 13 -8 0 -17 -4 -20 -9z"/>
<path d="M1951 2243 l-24 -5 24 -12 c24 -13 49 -5 49 15 0 9 -8 10 -49 2z"/>
<path d="M1870 2220 c0 -5 -13 -7 -30 -4 -34 7 -100 -3 -100 -15 0 -4 13 -8
30 -7 16 1 30 3 30 6 0 3 9 6 19 6 11 0 17 -4 14 -9 -5 -9 52 0 70 10 14 9 7
23 -13 23 -11 0 -20 -4 -20 -10z"/>
<path d="M1237 2204 c-20 -20 -4 -31 48 -32 59 0 97 22 42 25 -18 1 -43 4 -57
8 -14 3 -29 3 -33 -1z"/>
<path d="M2429 2200 c-52 -9 -116 -39 -140 -66 -43 -49 -52 -84 -46 -184 7
-115 51 -398 72 -461 16 -46 59 -95 105 -120 33 -17 156 -17 200 0 56 22 99
59 121 104 19 37 21 52 16 132 -14 206 -67 475 -103 523 -46 59 -132 87 -225
72z m60 -152 c14 -40 84 -525 78 -542 -10 -25 -46 -20 -57 8 -5 13 -26 136
-46 274 -32 209 -36 253 -25 266 19 23 40 20 50 -6z m71 -219 c0 -11 -4 -17
-10 -14 -5 3 -10 13 -10 21 0 8 5 14 10 14 6 0 10 -9 10 -21z"/>
<path d="M1605 2180 c-3 -5 3 -10 14 -10 11 0 23 5 26 10 3 6 -3 10 -14 10
-11 0 -23 -4 -26 -10z"/>
<path d="M1032 2169 c-31 -12 -19 -31 12 -19 13 5 27 6 31 2 3 -3 3 1 -1 11
-7 19 -10 20 -42 6z"/>
<path d="M1503 2173 c-25 -9 -13 -19 23 -20 19 -1 34 0 32 2 -14 11 -45 21
-55 18z"/>
<path d="M6017 2173 c-6 -10 19 -34 26 -26 8 7 -3 33 -13 33 -5 0 -11 -3 -13
-7z"/>
<path d="M508 2163 c25 -5 28 -16 8 -32 -10 -8 -15 -9 -18 -1 -2 6 -11 12 -20
14 -10 1 -21 5 -24 9 -13 13 -22 7 -37 -22 -13 -26 -13 -30 4 -45 12 -10 19
-11 19 -4 0 6 3 8 6 5 4 -4 1 -13 -6 -22 -7 -9 -11 -18 -8 -20 3 -3 46 0 96 7
87 12 90 13 61 25 -17 7 -28 17 -25 22 4 5 -3 13 -15 16 -15 5 -18 10 -10 18
7 7 15 6 26 -3 12 -10 15 -10 15 2 0 18 -42 39 -73 37 l-22 -2 23 -4z"/>
<path d="M1387 2153 c-7 -6 -51 -13 -92 -14 -11 -1 -45 -6 -75 -12 -30 -6 -61
-11 -69 -12 -8 0 -16 -6 -19 -14 -4 -11 5 -13 48 -8 30 4 57 12 60 18 5 7 10
7 14 1 3 -6 20 -6 43 -1 21 5 70 12 108 16 39 5 69 12 68 17 -3 10 -77 18 -86
9z"/>
<path d="M362 2126 c4 -20 2 -26 -8 -22 -14 5 -64 -15 -64 -26 0 -5 -4 -8 -10
-8 -5 0 -10 5 -10 10 0 6 -9 19 -21 31 -18 18 -25 19 -46 10 -13 -6 -21 -16
-18 -21 4 -6 10 -8 15 -5 5 3 11 1 15 -5 3 -5 1 -10 -4 -10 -6 0 -11 -10 -11
-22 l0 -22 20 22 c26 27 33 28 25 2 -6 -18 -4 -19 22 -9 15 6 44 11 64 10 44
-1 62 17 53 53 -9 36 -28 47 -22 12z"/>
<path d="M295 2130 c-3 -5 -2 -10 4 -10 5 0 13 5 16 10 3 6 2 10 -4 10 -5 0
-13 -4 -16 -10z"/>
<path d="M6073 2116 c0 -17 4 -23 13 -19 16 6 16 6 8 27 -9 24 -21 19 -21 -8z"/>
<path d="M6024 2102 c2 -15 7 -55 11 -89 5 -47 10 -60 21 -56 16 6 19 69 4 78
-5 3 -10 23 -10 45 0 24 -5 40 -14 43 -11 5 -14 -1 -12 -21z"/>
<path d="M1741 2079 c-101 -16 -186 -30 -188 -32 -2 -2 2 -38 8 -80 l11 -76
47 6 c25 3 52 7 60 7 11 1 25 -70 63 -319 27 -175 51 -321 53 -323 6 -6 185
20 190 27 2 4 -18 151 -45 327 -26 175 -47 320 -46 321 1 2 27 6 57 11 54 8
54 8 52 42 -1 19 -4 54 -8 78 -6 40 -8 42 -38 41 -18 0 -115 -14 -216 -30z"/>
<path d="M959 2072 c-22 -12 -19 -13 30 -8 30 3 59 10 65 16 16 16 -64 9 -95
-8z"/>
<path d="M310 2033 c-19 -8 -48 -18 -65 -22 -23 -5 -31 -13 -33 -34 -3 -21 0
-26 12 -21 9 3 16 11 16 18 0 16 38 38 45 26 9 -15 35 -12 35 4 0 10 16 17 47
22 38 5 44 9 28 15 -30 11 -46 10 -85 -8z"/>
<path d="M1415 2029 c-27 -5 -64 -11 -81 -14 l-31 -5 8 -48 c27 -152 90 -598
87 -620 -4 -35 -34 -41 -48 -10 -6 13 -30 149 -54 302 -39 257 -52 307 -71
277 -3 -6 -11 -11 -17 -11 -7 0 -6 6 2 15 7 8 19 15 27 15 12 0 14 7 9 32 -3
17 -8 33 -10 35 -6 7 -156 -20 -156 -27 0 -5 -9 -6 -20 -3 -17 5 -18 1 -13
-33 7 -51 17 -60 48 -46 32 15 65 16 65 2 0 -5 -7 -10 -15 -10 -8 0 -15 -4
-15 -10 0 -5 -16 -10 -35 -10 -19 0 -35 -2 -35 -5 0 -2 18 -122 41 -266 50
-325 60 -353 144 -389 70 -31 236 -20 265 18 3 4 14 12 24 18 35 19 61 83 60
149 -1 49 -72 551 -90 633 -5 24 -11 25 -89 11z"/>
<path d="M533 2016 c-4 -7 -15 -16 -23 -19 -10 -4 -8 -6 6 -6 12 -1 25 7 28
16 6 14 9 15 16 4 7 -12 11 -11 25 2 15 16 14 17 -14 17 -16 0 -34 -6 -38 -14z"/>
<path d="M358 1993 c7 -3 16 -2 19 1 4 3 -2 6 -13 5 -11 0 -14 -3 -6 -6z"/>
<path d="M268 1945 c3 -20 10 -25 33 -25 19 0 29 5 29 15 0 8 -9 15 -20 15
-11 0 -20 5 -20 10 0 6 -6 10 -14 10 -9 0 -12 -8 -8 -25z"/>
<path d="M366 1945 c-3 -9 0 -15 9 -15 16 0 20 16 6 24 -5 3 -11 -1 -15 -9z"/>
<path d="M709 1936 c-51 -11 -109 -38 -109 -52 0 -3 5 -2 10 1 6 3 10 1 10 -5
0 -14 -40 -49 -57 -50 -14 0 -33 -54 -33 -95 0 -27 5 -34 25 -39 30 -8 33 -32
4 -41 -24 -8 -25 6 17 -255 16 -100 33 -171 48 -200 38 -76 125 -118 220 -105
119 15 192 77 210 178 7 39 -32 359 -43 353 -3 -2 -6 17 -7 43 -1 72 -24 153
-40 147 -11 -4 -13 1 -8 18 8 34 -59 91 -125 105 -60 13 -50 13 -122 -3z m-59
-36 c0 -5 -5 -10 -11 -10 -5 0 -7 5 -4 10 3 6 8 10 11 10 2 0 4 -4 4 -10z m80
-10 c0 -5 -4 -10 -10 -10 -5 0 -10 5 -10 10 0 6 5 10 10 10 6 0 10 -4 10 -10z
m184 -81 c-3 -6 -21 -18 -38 -26 -67 -32 -76 -38 -76 -55 0 -43 23 -168 31
-168 5 0 7 -10 4 -22 -3 -13 1 -66 10 -118 8 -52 15 -114 15 -138 0 -55 -22
-66 -56 -28 -14 14 -21 26 -16 26 5 0 3 37 -5 83 -18 113 -54 356 -58 387 -6
52 33 81 55 40 13 -24 33 -26 50 -5 7 8 21 15 31 15 11 0 19 5 19 10 0 6 9 10
21 10 12 0 17 -4 13 -11z m-204 -89 c0 -5 -7 -10 -15 -10 -8 0 -15 5 -15 10 0
6 7 10 15 10 8 0 15 -4 15 -10z m-40 -8 c0 -13 -50 -33 -63 -25 -7 4 0 12 18
19 36 16 45 17 45 6z m360 -451 c0 -11 -31 -24 -39 -16 -3 3 1 10 9 15 19 12
30 12 30 1z m-55 -31 c3 -5 1 -10 -4 -10 -6 0 -11 5 -11 10 0 6 2 10 4 10 3 0
8 -4 11 -10z m-270 -80 c-3 -5 -12 -10 -18 -10 -7 0 -6 4 3 10 19 12 23 12 15
0z"/>
<path d="M6063 1943 c-18 -7 -16 -43 2 -43 9 0 15 9 15 25 0 14 -1 25 -2 24
-2 0 -9 -3 -15 -6z"/>
<path d="M6067 1883 c-4 -3 -7 -23 -7 -43 0 -36 -1 -37 -51 -48 -28 -7 -68
-12 -89 -12 -21 0 -41 -4 -44 -9 -3 -4 -17 -6 -31 -3 -19 3 -25 0 -25 -13 0
-14 -3 -15 -15 -5 -12 10 -15 10 -15 -4 0 -20 -13 -20 163 6 102 15 147 26
147 35 0 7 -6 10 -15 7 -19 -8 -20 12 -1 23 9 5 12 19 9 41 -5 31 -13 39 -26
25z"/>
<path d="M295 1871 l-30 -7 33 -8 c35 -8 39 -15 20 -34 -9 -9 -8 -12 5 -12 13
0 17 9 17 35 0 19 -3 34 -7 34 -5 -1 -21 -4 -38 -8z"/>
<path d="M235 1864 c-10 -4 -8 -74 2 -74 2 0 14 5 26 11 l21 12 -22 8 c-19 7
-21 12 -12 29 10 19 6 23 -15 14z"/>
<path d="M370 1855 c0 -9 6 -12 15 -9 8 4 12 10 9 15 -8 14 -24 10 -24 -6z"/>
<path d="M277 1784 c-4 -4 -7 -14 -7 -23 0 -11 3 -12 11 -4 6 6 10 16 7 23 -2
6 -7 8 -11 4z"/>
<path d="M400 1780 c-13 -29 5 -210 20 -210 4 0 10 11 12 25 3 14 1 25 -4 25
-6 0 -8 6 -5 13 3 7 -1 24 -8 37 -8 15 -10 31 -5 41 5 9 5 29 0 45 -4 16 -9
27 -10 24z"/>
<path d="M303 1733 c-13 -8 -23 -24 -23 -34 0 -11 -5 -19 -11 -19 -5 0 -8 4
-5 9 4 5 2 20 -3 33 -8 19 -10 16 -10 -24 -1 -45 0 -46 22 -35 17 8 22 17 19
32 -3 17 4 25 35 37 24 10 31 16 18 17 -11 0 -30 -7 -42 -16z"/>
<path d="M5638 1737 c-37 -7 -58 -15 -58 -24 0 -10 13 -12 58 -7 75 8 83 10
76 29 -3 8 -9 14 -13 14 -3 -1 -32 -6 -63 -12z"/>
<path d="M5732 1738 c5 -15 28 -18 29 -3 0 6 -7 12 -17 13 -10 3 -15 -1 -12
-10z"/>
<path d="M5530 1718 c-14 -6 -59 -12 -100 -14 -41 -2 -76 -8 -78 -14 -2 -5 -8
-8 -13 -4 -11 6 -239 -27 -239 -35 0 -3 -30 -7 -67 -9 -37 -1 -76 -9 -89 -16
-12 -8 -30 -12 -41 -10 -13 4 -23 0 -27 -11 -5 -14 -2 -16 16 -12 13 3 46 8
73 12 28 4 57 9 65 12 8 3 38 7 65 9 49 3 297 39 343 49 13 3 20 10 17 15 -3
6 -2 10 4 10 5 0 12 -4 15 -9 7 -12 58 -1 75 16 18 19 11 23 -19 11z"/>
<path d="M335 1690 c-3 -5 -2 -10 4 -10 5 0 13 5 16 10 3 6 2 10 -4 10 -5 0
-13 -4 -16 -10z"/>
<path d="M350 1643 c-42 -12 -41 -12 -24 -38 11 -16 12 -25 5 -25 -7 0 -9 -4
-6 -10 3 -5 -1 -10 -9 -10 -8 0 -18 -5 -22 -12 -4 -6 -3 -8 4 -5 5 4 20 3 33
-1 17 -7 28 -4 41 8 22 20 14 50 -13 50 -10 0 -19 5 -19 10 0 6 9 10 20 10 11
0 20 4 20 9 0 14 -12 19 -30 14z"/>
<path d="M260 1625 c0 -8 2 -15 4 -15 2 0 11 -3 20 -6 11 -4 14 0 13 15 -1 24
-37 30 -37 6z"/>
<path d="M4744 1596 c-14 -11 -22 -12 -33 -3 -11 10 -13 9 -9 -3 2 -8 19 -16
36 -18 25 -3 31 0 26 12 -4 11 0 16 15 16 12 0 21 -4 21 -10 0 -5 4 -10 10
-10 5 0 7 7 4 15 -8 19 -44 19 -70 1z"/>
<path d="M4630 1580 c0 -5 -7 -10 -15 -10 -8 0 -15 -4 -15 -10 0 -11 24 -13
57 -4 13 4 20 11 16 20 -6 16 -43 19 -43 4z"/>
<path d="M4521 1561 c-8 -5 -9 -11 -3 -15 5 -3 12 1 16 9 6 17 6 18 -13 6z"/>
<path d="M4430 1552 c-5 -2 -7 -8 -4 -14 4 -7 0 -7 -12 0 -11 5 -28 8 -39 5
-25 -5 -72 -10 -107 -12 -27 -1 -41 -18 -15 -18 6 0 22 -3 35 -7 13 -5 22 -3
22 4 0 6 10 8 25 4 16 -4 25 -2 25 6 0 6 5 8 11 5 17 -11 117 5 122 19 4 10
-3 13 -23 12 -16 0 -34 -2 -40 -4z"/>
<path d="M433 1523 c-19 -7 -16 -23 3 -23 13 0 14 -3 5 -14 -6 -7 -8 -27 -5
-45 10 -47 34 -22 27 27 -7 47 -15 60 -30 55z"/>
<path d="M326 1511 c-4 -5 -15 -8 -26 -6 -16 3 -20 -2 -20 -26 0 -17 8 -36 20
-46 25 -21 26 -34 3 -27 -14 5 -15 4 -4 -4 8 -6 21 -8 29 -4 10 3 13 0 10 -9
-3 -8 -13 -13 -23 -11 -16 3 -17 -2 -10 -55 4 -32 10 -62 15 -67 5 -5 6 -15 3
-23 -5 -12 -1 -14 14 -9 12 4 25 1 32 -8 9 -11 9 -14 -1 -13 -42 1 -47 -3 -39
-30 4 -16 6 -34 3 -42 -3 -10 0 -12 11 -8 9 3 19 2 22 -4 4 -5 -1 -12 -9 -15
-21 -8 -20 -33 1 -56 13 -15 15 -23 6 -37 -7 -12 -8 -22 -1 -32 7 -11 11 -11
15 -1 2 6 16 12 29 12 13 0 24 4 24 9 0 5 9 7 20 4 20 -5 27 7 13 21 -5 4 -8
29 -8 54 0 39 -3 47 -17 44 -11 -2 -18 3 -18 13 0 8 8 15 18 15 13 0 14 2 3 9
-11 7 -11 10 0 15 10 4 11 7 2 12 -7 3 -10 11 -7 19 8 19 -25 198 -37 206 -8
5 -8 8 0 13 15 10 -8 56 -25 49 -8 -3 -14 1 -14 10 0 19 -26 41 -34 28z m84
-172 c0 -4 -7 -6 -15 -3 -8 4 -15 10 -15 15 0 4 7 6 15 3 8 -4 15 -10 15 -15z
m-60 -9 c0 -5 -4 -10 -10 -10 -5 0 -10 5 -10 10 0 6 5 10 10 10 6 0 10 -4 10
-10z m20 -40 c0 -5 -4 -10 -10 -10 -5 0 -10 5 -10 10 0 6 5 10 10 10 6 0 10
-4 10 -10z m34 -165 c-6 -16 -24 -21 -24 -7 0 11 11 22 21 22 5 0 6 -7 3 -15z
m16 -88 c0 -2 -9 -12 -20 -22 -19 -18 -20 -17 -20 3 0 15 6 22 20 22 11 0 20
-2 20 -3z"/>
<path d="M4140 1509 c-19 -4 -54 -10 -78 -13 -49 -6 -62 -12 -62 -28 0 -12
103 0 108 13 2 5 13 9 25 9 12 0 40 7 62 15 38 13 38 14 10 14 -16 -1 -46 -5
-65 -10z"/>
<path d="M380 1499 c0 -5 5 -7 10 -4 6 3 10 8 10 11 0 2 -4 4 -10 4 -5 0 -10
-5 -10 -11z"/>
<path d="M3943 1470 c-13 -5 -23 -7 -23 -3 0 3 -6 1 -12 -4 -7 -5 -28 -9 -45
-7 -23 1 -33 -3 -33 -13 0 -9 7 -12 18 -9 9 2 45 8 80 11 38 4 62 11 59 18 -5
15 -18 17 -44 7z"/>
<path d="M3627 1434 c-3 -3 -18 -7 -34 -8 -80 -7 -143 -19 -143 -27 0 -6 -10
-14 -22 -20 -21 -9 -21 -9 5 -4 15 3 48 8 75 12 26 3 52 10 59 15 7 5 17 7 23
3 6 -4 29 -3 52 0 39 7 40 8 23 21 -21 15 -29 17 -38 8z"/>
<path d="M3705 1430 c3 -5 13 -10 21 -10 8 0 12 5 9 10 -3 6 -13 10 -21 10 -8
0 -12 -4 -9 -10z"/>
<path d="M3760 1430 c-13 -8 -13 -10 2 -10 9 0 20 5 23 10 8 13 -5 13 -25 0z"/>
<path d="M457 1393 c-13 -13 -7 -56 11 -70 12 -10 14 -16 5 -19 -16 -7 -17
-54 -2 -54 7 0 9 -11 6 -27 -3 -14 0 -57 5 -94 8 -53 14 -68 29 -72 23 -6 25
9 3 21 -12 7 -14 14 -7 26 6 11 2 62 -12 151 -22 135 -26 151 -38 138z"/>
<path d="M3320 1380 c0 -5 9 -9 20 -7 31 5 36 17 7 17 -15 0 -27 -4 -27 -10z"/>
<path d="M3770 1380 c0 -5 6 -10 14 -10 8 0 18 5 21 10 3 6 -3 10 -14 10 -12
0 -21 -4 -21 -10z"/>
<path d="M3237 1374 c-3 -3 -33 -8 -68 -10 -65 -5 -79 -9 -79 -25 0 -16 83
-10 138 11 29 11 57 18 62 15 5 -3 11 -1 15 5 7 11 -57 15 -68 4z"/>
<path d="M3701 1368 c-1 -24 10 -27 39 -11 l25 14 -27 -4 c-15 -2 -29 1 -32 7
-2 6 -5 3 -5 -6z"/>
<path d="M3606 1360 c-16 -5 -33 -7 -37 -4 -14 8 -132 -16 -158 -33 -17 -11
-37 -13 -73 -9 -27 4 -48 3 -45 -1 3 -4 -11 -8 -31 -7 -20 1 -44 -2 -52 -7
-62 -31 -179 -52 -165 -30 2 5 -16 4 -41 0 -26 -5 -50 -6 -56 -3 -5 3 -15 1
-21 -5 -7 -5 -40 -15 -72 -21 -108 -20 -117 -22 -122 -36 -4 -11 -8 -11 -26 1
-17 12 -25 12 -56 -2 -20 -8 -64 -17 -99 -19 -35 -2 -75 -10 -90 -18 -15 -7
-33 -11 -39 -9 -7 3 -13 -2 -13 -11 0 -21 -17 -20 -29 1 -8 14 -15 15 -48 7
-27 -6 -38 -14 -37 -27 1 -9 -4 -17 -11 -17 -7 0 -20 -3 -29 -6 -9 -3 -16 -1
-16 5 0 6 9 11 20 11 18 0 19 3 9 21 -8 15 -14 18 -22 10 -6 -6 -28 -11 -48
-11 -29 0 -38 -4 -42 -22 -6 -21 -7 -21 -25 -5 -10 9 -21 15 -23 13 -2 -2 -17
-6 -34 -9 -16 -3 -42 -8 -56 -12 -16 -4 -30 -2 -33 4 -11 17 -26 13 -26 -6 0
-9 -3 -13 -7 -10 -3 4 -12 2 -20 -4 -10 -9 -13 -8 -13 5 0 9 -4 16 -10 16 -5
0 -10 -7 -10 -15 0 -8 -4 -15 -10 -15 -5 0 -10 5 -10 10 0 6 -8 10 -17 9 -11
0 -13 -3 -5 -6 19 -7 14 -20 -10 -26 -113 -29 -158 -29 -158 -2 0 9 -8 11 -21
8 -20 -6 -20 -7 -5 -18 24 -18 20 -25 -13 -25 -17 0 -33 -4 -36 -10 -3 -5 -19
-10 -35 -10 -16 0 -32 -5 -36 -11 -5 -8 8 -9 45 -4 32 4 51 3 51 -3 0 -6 -5
-12 -12 -14 -7 -3 -8 -10 -4 -17 6 -9 21 -11 55 -6 52 8 76 13 76 15 0 1 18 3
40 6 22 3 66 11 97 19 32 8 71 12 87 9 16 -3 32 -1 35 5 4 5 13 8 21 4 8 -3
23 -2 33 2 9 5 22 9 27 10 6 1 12 3 15 5 3 1 16 3 30 4 14 0 38 9 52 18 29 19
178 34 178 18 0 -18 18 -11 23 9 4 18 57 36 57 20 0 -5 -6 -9 -14 -9 -8 0 -18
-4 -21 -10 -4 -6 7 -10 25 -10 26 0 30 3 25 19 -5 15 0 19 30 23 19 2 42 0 50
-5 10 -5 17 -3 21 6 4 11 15 12 45 7 22 -4 39 -3 39 2 0 5 8 7 18 4 12 -4 27
3 42 19 28 30 37 31 43 8 4 -14 5 -14 6 3 1 29 60 40 79 16 11 -14 12 -14 12
2 0 11 4 14 12 10 19 -12 76 -8 93 6 11 9 15 9 15 1 0 -8 8 -10 20 -6 13 4 20
2 20 -7 1 -9 3 -8 10 2 5 9 7 27 6 40 -3 24 -1 25 43 21 l46 -4 -32 -9 c-18
-5 -33 -13 -33 -19 0 -6 7 -8 16 -5 9 3 40 9 70 12 46 6 54 4 49 -8 -5 -12 0
-14 19 -11 14 3 24 10 23 15 -1 6 4 13 12 16 10 3 11 0 5 -9 -7 -12 -5 -12 9
-1 9 8 21 11 26 8 5 -4 13 -1 16 5 4 5 13 8 21 5 8 -3 14 -1 14 4 0 6 5 10 11
10 5 0 8 -4 5 -8 -2 -4 -1 -14 5 -22 7 -13 9 -12 9 3 0 9 5 17 10 17 6 0 10
-7 10 -15 0 -9 6 -12 16 -8 9 3 14 13 11 23 -4 14 4 19 37 25 22 4 46 9 51 10
6 1 29 3 53 3 27 1 49 9 62 22 11 11 27 20 35 20 8 0 15 5 15 10 0 6 7 10 16
10 14 0 14 3 4 15 -14 17 -31 18 -74 5z m-16 -39 c0 -5 -6 -11 -12 -14 -19 -6
-49 4 -42 14 7 12 54 12 54 0z m-350 -71 c0 -5 -4 -10 -10 -10 -5 0 -10 5 -10
10 0 6 5 10 10 10 6 0 10 -4 10 -10z m-270 -10 c0 -5 -5 -10 -11 -10 -5 0 -7
5 -4 10 3 6 8 10 11 10 2 0 4 -4 4 -10z m28 -15 c0 -14 -4 -25 -9 -25 -5 0 -9
11 -9 25 0 14 4 25 9 25 5 0 9 -11 9 -25z m-68 1 c0 -3 -4 -8 -10 -11 -5 -3
-10 -1 -10 4 0 6 5 11 10 11 6 0 10 -2 10 -4z m-30 -26 c0 -5 -4 -10 -10 -10
-5 0 -10 5 -10 10 0 6 5 10 10 10 6 0 10 -4 10 -10z m50 0 c0 -5 -4 -10 -10
-10 -5 0 -10 5 -10 10 0 6 5 10 10 10 6 0 10 -4 10 -10z m-286 -49 c-7 -8 -35
9 -29 19 4 6 11 5 20 -3 7 -6 11 -14 9 -16z m-150 4 c-7 -17 -20 -20 -28 -6
-7 10 3 21 20 21 8 0 11 -6 8 -15z m-534 -94 c0 -5 -10 -11 -22 -14 -22 -6
-22 -6 -4 8 23 17 26 18 26 6z m-170 -31 c0 -5 -5 -10 -11 -10 -5 0 -7 5 -4
10 3 6 8 10 11 10 2 0 4 -4 4 -10z m-30 -22 c0 -18 -2 -20 -9 -8 -6 8 -7 18
-5 22 9 14 14 9 14 -14z m-78 -10 c-7 -7 -12 -8 -12 -2 0 14 12 26 19 19 2 -3
-1 -11 -7 -17z m33 12 c3 -5 1 -10 -4 -10 -6 0 -11 5 -11 10 0 6 2 10 4 10 3
0 8 -4 11 -10z"/>
<path d="M3020 1341 c-14 -4 -20 -10 -15 -13 14 -8 65 2 65 13 0 10 -14 10
-50 0z"/>
<path d="M3725 1337 c-4 -9 -15 -16 -24 -15 -8 2 -20 -7 -26 -19 -9 -21 -27
-31 -70 -38 -30 -5 -72 -24 -55 -24 8 -1 42 4 75 10 33 5 78 12 100 15 22 3
42 10 46 15 3 5 13 7 22 3 13 -5 16 -2 11 10 -3 9 -10 16 -16 16 -5 0 -6 5 -2
12 4 7 -7 2 -25 -11 -18 -13 -35 -20 -39 -17 -3 4 0 11 7 15 7 5 11 17 9 27
-5 18 -5 18 -13 1z m-15 -48 c0 -11 -4 -17 -10 -14 -5 3 -10 13 -10 21 0 8 5
14 10 14 6 0 10 -9 10 -21z"/>
<path d="M2940 1321 c0 -5 -26 -9 -57 -9 -74 -1 -96 -6 -101 -22 -4 -10 2 -11
19 -6 13 5 51 9 84 10 38 1 69 8 85 19 l24 17 -27 0 c-15 0 -27 -4 -27 -9z"/>
<path d="M2710 1287 c0 -7 13 -14 30 -15 21 -2 30 2 30 13 0 10 -10 15 -30 15
-18 0 -30 -5 -30 -13z"/>
<path d="M2670 1280 c0 -5 7 -7 15 -4 8 4 15 8 15 10 0 2 -7 4 -15 4 -8 0 -15
-4 -15 -10z"/>
<path d="M2517 1267 c-43 -6 -66 -14 -64 -21 5 -14 116 -11 131 4 5 5 20 10
32 10 13 0 26 5 29 10 7 12 -33 11 -128 -3z"/>
<path d="M2366 1243 c-11 -3 -26 -11 -33 -19 -11 -11 -9 -12 14 -8 78 13 93
17 93 25 0 9 -41 10 -74 2z"/>
<path d="M3450 1232 c0 -5 14 -7 30 -4 17 2 30 6 30 8 0 2 -13 4 -30 4 -16 0
-30 -4 -30 -8z"/>
<path d="M2148 1212 c-116 -18 -134 -39 -25 -28 39 4 86 9 102 10 40 3 75 16
75 27 0 12 -33 10 -152 -9z"/>
<path d="M1892 1171 c-51 -10 -95 -19 -97 -20 -3 0 -9 -1 -15 -1 -5 0 -10 -5
-10 -10 0 -10 91 -7 120 4 20 7 99 18 128 17 32 -1 23 23 -9 26 -13 1 -66 -7
-117 -16z"/>
<path d="M3060 1180 c0 -5 7 -10 15 -10 8 0 15 5 15 10 0 6 -7 10 -15 10 -8 0
-15 -4 -15 -10z"/>
<path d="M1615 1129 c-22 -3 -93 -14 -157 -24 -92 -13 -118 -21 -118 -32 0
-13 10 -15 58 -9 63 7 258 44 282 53 8 3 23 5 33 4 9 -1 17 3 17 8 0 6 -13 11
-30 11 -17 0 -30 -5 -30 -12 0 -9 -3 -9 -8 -2 -4 6 -23 7 -47 3z"/>
<path d="M1205 1065 c-33 -7 -63 -11 -67 -8 -5 2 -8 -5 -8 -16 0 -26 15 -27
30 -3 8 12 13 13 16 5 6 -15 34 -18 34 -4 0 14 31 22 44 12 13 -10 56 4 56 19
0 13 -30 12 -105 -5z"/>
<path d="M1528 1053 c-10 -2 -15 -10 -11 -19 6 -16 33 -19 33 -3 0 5 6 7 13 3
8 -5 8 -2 -2 9 -7 9 -14 16 -15 16 0 -1 -9 -3 -18 -6z"/>
<path d="M1491 1034 c0 -11 3 -14 6 -6 3 7 2 16 -1 19 -3 4 -6 -2 -5 -13z"/>
<path d="M995 1033 c-22 -2 -47 -6 -55 -9 -13 -4 -13 -6 0 -14 23 -15 52 -12
95 10 22 11 31 19 20 18 -11 -1 -38 -3 -60 -5z"/>
<path d="M1440 1032 c-33 -5 -50 -22 -24 -23 10 -1 22 -1 27 0 9 1 9 -11 -2
-27 -5 -8 -20 -15 -35 -15 -29 -2 -36 -17 -8 -17 15 -1 15 -2 -3 -12 -11 -7
-29 -14 -40 -15 -21 -4 -46 -23 -29 -23 5 0 50 7 99 16 86 15 120 20 158 23 9
0 17 8 17 16 0 19 -61 21 -90 3 -25 -16 -37 -4 -19 19 9 11 10 14 2 9 -20 -12
-36 3 -22 20 16 19 1 31 -31 26z m10 -82 c0 -5 -4 -10 -10 -10 -5 0 -10 5 -10
10 0 6 5 10 10 10 6 0 10 -4 10 -10z"/>
<path d="M860 1010 c-13 -8 -12 -10 3 -10 9 0 17 5 17 10 0 12 -1 12 -20 0z"/>
<path d="M791 998 c-22 -6 -30 -13 -24 -19 6 -6 21 -5 43 4 40 17 27 27 -19
15z"/>
<path d="M454 976 c-4 -11 -1 -21 7 -27 17 -11 26 18 10 34 -7 7 -12 5 -17 -7z"/>
<path d="M515 979 c-8 -11 22 -38 43 -39 6 0 12 5 12 11 0 5 5 7 10 4 6 -3 10
-1 10 4 0 6 -11 11 -25 11 -14 0 -25 5 -25 10 0 13 -17 13 -25 -1z"/>
<path d="M1348 983 c7 -3 16 -2 19 1 4 3 -2 6 -13 5 -11 0 -14 -3 -6 -6z"/>
<path d="M415 970 c-3 -5 -17 -10 -30 -10 -22 0 -23 -3 -19 -37 12 -86 12 -86
47 -78 18 4 43 9 57 10 56 5 110 17 110 26 0 5 5 9 10 9 6 0 10 -11 10 -25 0
-17 -5 -24 -17 -23 -39 3 -54 -3 -62 -26 -5 -13 -18 -26 -29 -29 -24 -6 -20
18 4 27 8 3 14 10 14 15 0 6 -15 5 -37 -1 -21 -6 -47 -11 -58 -12 -14 -1 -21
-9 -23 -30 l-4 -29 49 7 c102 15 115 18 104 29 -6 6 -11 17 -11 23 0 11 15 12
63 5 14 -2 7 -20 -10 -24 -11 -3 -8 -5 9 -6 20 -1 26 3 22 13 -7 18 6 25 57
30 23 3 45 8 48 13 11 14 71 11 71 -3 0 -8 -8 -14 -17 -14 -10 0 -25 -5 -33
-11 -11 -8 -6 -9 20 -5 19 4 67 11 105 17 39 5 71 14 73 19 2 5 11 6 20 3 10
-3 13 -2 6 4 -6 4 -13 16 -17 26 -4 10 -11 15 -17 12 -6 -4 -8 -10 -5 -14 2
-5 -6 -6 -20 -4 -16 4 -27 -1 -37 -16 -7 -12 -23 -21 -36 -21 -19 0 -21 3 -12
19 13 25 13 34 0 26 -5 -3 -34 -8 -64 -10 -41 -3 -56 0 -60 11 -3 8 -11 14
-17 14 -8 0 -8 -4 1 -15 10 -12 10 -16 -1 -19 -8 -2 -22 -7 -31 -10 -13 -4
-18 0 -18 14 0 11 7 20 15 20 8 0 15 4 15 9 0 5 8 12 18 15 21 6 -94 -3 -125
-11 -13 -3 -21 -9 -18 -13 3 -5 1 -11 -4 -14 -5 -4 -11 2 -14 11 -3 15 -6 14
-14 -7 -10 -22 -12 -23 -18 -7 -4 10 -14 16 -21 13 -7 -3 -16 -1 -19 4 -3 5
-12 7 -20 3 -18 -6 -20 22 -5 61 9 26 7 35 -5 16z"/>
<path d="M617 974 c-16 -17 -4 -22 40 -18 65 6 74 20 15 23 -26 1 -51 -1 -55
-5z"/>
<path d="M842 945 c-62 -15 -70 -21 -53 -38 10 -9 15 -8 27 7 12 18 19 15 15
-6 0 -5 4 -8 9 -8 6 0 10 5 10 10 0 6 4 10 10 10 5 0 24 9 42 20 39 24 22 25
-60 5z"/>
<path d="M1290 945 c0 -7 -9 -15 -20 -18 -15 -4 -18 -10 -13 -24 7 -17 8 -17
11 0 2 9 9 17 15 17 7 0 20 7 30 14 17 13 16 14 -3 19 -12 3 -20 0 -20 -8z"/>
<path d="M1146 938 c-9 -5 -24 -7 -33 -4 -11 5 -14 1 -10 -13 3 -13 -1 -21
-14 -24 -11 -3 -19 0 -19 6 0 7 -5 5 -10 -3 -8 -11 -12 -12 -18 -3 -13 21 -86
21 -80 1 3 -7 22 -13 43 -15 21 -1 42 -6 48 -12 6 -6 19 -6 34 0 52 19 122 29
129 17 3 -4 10 -6 15 -3 17 11 9 32 -18 45 -38 18 -47 19 -67 8z m7 -25 c-7
-2 -19 -2 -25 0 -7 3 -2 5 12 5 14 0 19 -2 13 -5z"/>
<path d="M1348 943 c7 -3 16 -2 19 1 4 3 -2 6 -13 5 -11 0 -14 -3 -6 -6z"/>
</g>
</svg>
