<svg width="71.794922" height="46.800049" viewBox="0 0 71.7949 46.8" fill="none" xmlns="http://www.w3.org/2000/svg" xmlns:xlink="http://www.w3.org/1999/xlink">
	<desc>
			Created with Pixso.
	</desc>
	<defs/>
	<path id="Stroke" d="M67.8186 0L71.7949 0L51.2698 46.8L46.0581 46.8L35.8938 23.5245L25.6694 46.8L20.4583 46.8L0 0L14.9219 0L28.4788 31.3883L33.9089 18.984L25.5991 0L40.522 0L54.0786 31.3882L67.8186 0ZM54.0725 33.896L39.8645 1L27.1284 1L35.0005 18.984L28.4724 33.896L14.2644 1L1.52856 1L21.1125 45.8L25.0166 45.8L35.8965 21.032L46.7124 45.8L50.6165 45.8L70.2644 1L68.4724 1L54.0725 33.896Z" fill="#141414" fill-opacity="1.000000" fill-rule="evenodd"/>
</svg>
