<svg width="336" height="38" viewBox="0 0 336 38" fill="none" xmlns="http://www.w3.org/2000/svg">
<path fill-rule="evenodd" clip-rule="evenodd" d="M335.088 34.1164V36.6504H307.536V0.494507L334.596 0.494507V3.02851L318.318 3.02851V17.0582H330.662V19.5922H318.318V34.1164H335.088ZM317.55 34.889V18.8197H329.893V17.8308H317.55V2.25595L333.828 2.25595V1.26707L308.305 1.26707V35.8778H334.319V34.889H317.55Z" fill="#141414"/>
<path fill-rule="evenodd" clip-rule="evenodd" d="M305.481 3.02851L289.695 3.02851V17.5527H301.547V20.0867H289.695V36.6504H278.913V0.494507L305.481 0.494507V3.02851ZM288.927 19.3141H300.779V18.3252H288.927V2.25595L304.713 2.25595V1.26707L279.681 1.26707V35.8778H288.927V19.3141Z" fill="#141414"/>
<path fill-rule="evenodd" clip-rule="evenodd" d="M263.594 36.6504V0.494507L274.376 0.494507V36.6504H263.594ZM264.362 35.8778H273.607V1.26707L264.362 1.26707V35.8778Z" fill="#141414"/>
<path fill-rule="evenodd" clip-rule="evenodd" d="M261.341 34.1164V36.6504H235.019V0.494507L245.801 0.494507V34.1164H261.341ZM245.033 34.889V1.26707L235.787 1.26707V35.8778H260.573V34.889H245.033Z" fill="#141414"/>
<path fill-rule="evenodd" clip-rule="evenodd" d="M220.308 34.1164V36.6504H192.757V0.494507L219.817 0.494507V3.02851L203.539 3.02851V17.0582H215.882V19.5922H203.539V34.1164H220.308ZM202.771 34.889V18.8197H215.114V17.8308H202.771V2.25595L219.048 2.25595V1.26707L193.525 1.26707V35.8778H219.54V34.889H202.771Z" fill="#141414"/>
<path fill-rule="evenodd" clip-rule="evenodd" d="M188.569 0.494507L191.624 0.494507L175.853 36.6504H171.848L156.128 0.494507L167.594 0.494507L178.011 24.7438L188.569 0.494507ZM178.007 26.6813L167.089 1.26707L157.303 1.26707L172.351 35.8778H175.351L190.448 1.26707H189.071L178.007 26.6813Z" fill="#141414"/>
<path fill-rule="evenodd" clip-rule="evenodd" d="M139.513 37.1448C128.504 37.1448 120.107 29.1718 120.107 18.5724C120.107 7.97298 128.504 0 139.513 0C150.523 0 158.92 7.97298 158.92 18.5724C158.92 29.1718 150.523 37.1448 139.513 37.1448ZM145.504 30.4057C147.032 27.6213 147.941 23.56 147.941 18.5724C147.941 13.5848 147.032 9.52348 145.504 6.73904C143.983 3.96651 141.904 2.534 139.513 2.534C137.123 2.534 135.044 3.96651 133.523 6.73904C131.995 9.52348 131.086 13.5848 131.086 18.5724C131.086 23.56 131.995 27.6213 133.523 30.4057C135.044 33.1783 137.123 34.6108 139.513 34.6108C141.904 34.6108 143.983 33.1783 145.504 30.4057ZM120.875 18.5724C120.875 28.7084 128.891 36.3722 139.513 36.3722C150.136 36.3722 158.152 28.7084 158.152 18.5724C158.152 8.43637 150.136 0.772562 139.513 0.772562C128.891 0.772562 120.875 8.43637 120.875 18.5724ZM148.71 18.5724C148.71 28.7084 145.021 35.3833 139.513 35.3833C134.006 35.3833 130.317 28.7084 130.317 18.5724C130.317 8.43637 134.006 1.76144 139.513 1.76144C145.021 1.76144 148.71 8.43637 148.71 18.5724Z" fill="#141414"/>
<path fill-rule="evenodd" clip-rule="evenodd" d="M124.855 34.1164V36.6504H98.5325V0.494507L109.315 0.494507V34.1164H124.855ZM108.546 34.889V1.26707L99.3009 1.26707V35.8778H124.086V34.889H108.546Z" fill="#141414"/>
<path fill-rule="evenodd" clip-rule="evenodd" d="M83.8221 34.1164V36.6504H56.2705V0.494507L83.3303 0.494507V3.02851L67.0526 3.02851V17.0582H79.3961V19.5922H67.0526V34.1164H83.8221ZM66.2842 34.889V18.8197H78.6277V17.8308H66.2842V2.25595L82.5619 2.25595V1.26707L57.0389 1.26707V35.8778H83.0537V34.889H66.2842Z" fill="#141414"/>
<path fill-rule="evenodd" clip-rule="evenodd" d="M52.1115 0.494507L55.167 0.494507L39.3956 36.6504H35.3908L27.5806 18.6687L19.7243 36.6504H15.7201L0 0.494507L11.4659 0.494507L21.8829 24.7439L26.0554 15.1608L19.6703 0.494507L31.1368 0.494507L41.5538 24.7438L52.1115 0.494507ZM41.5491 26.6813L30.6317 1.26707L20.8454 1.26707L26.8942 15.1608L21.8782 26.6813L10.9608 1.26707L1.1745 1.26707L16.2228 35.8778H19.2226L27.5827 16.743L35.8937 35.8778H38.8935L53.9909 1.26707L52.614 1.26707L41.5491 26.6813Z" fill="#141414"/>
</svg>
