<svg width="216" height="24" viewBox="0 0 216 24" fill="none" xmlns="http://www.w3.org/2000/svg">
<path fill-rule="evenodd" clip-rule="evenodd" d="M215.618 21.8343V23.4561H197.89V0.316406L215.302 0.316406V1.93816L204.828 1.93816V10.9172H212.77V12.5389H204.828V21.8343H215.618ZM204.333 22.3288V12.0445H212.276V11.4116H204.333V1.44373L214.807 1.44373V0.810844L198.384 0.810844V22.9617H215.124V22.3288H204.333Z" fill="#141414"/>
<path fill-rule="evenodd" clip-rule="evenodd" d="M196.567 1.93816L186.41 1.93816V11.2336H194.036V12.8554H186.41V23.4561H179.472V0.316406L196.567 0.316406V1.93816ZM185.915 12.3609H193.542V11.728H185.915V1.44373L196.073 1.44373V0.810844L179.966 0.810844V22.9617H185.915V12.3609Z" fill="#141414"/>
<path fill-rule="evenodd" clip-rule="evenodd" d="M169.614 23.4561V0.316406L176.552 0.316406V23.4561H169.614ZM170.108 22.9617H176.057V0.810844L170.108 0.810844V22.9617Z" fill="#141414"/>
<path fill-rule="evenodd" clip-rule="evenodd" d="M168.165 21.8343V23.4561H151.227V0.316406L158.165 0.316406V21.8343H168.165ZM157.671 22.3288V0.810844L151.722 0.810844V22.9617H167.67V22.3288H157.671Z" fill="#141414"/>
<path fill-rule="evenodd" clip-rule="evenodd" d="M141.762 21.8343V23.4561H124.033V0.316406L141.445 0.316406V1.93816L130.971 1.93816V10.9172H138.914V12.5389H130.971V21.8343H141.762ZM130.477 22.3288V12.0445H138.419V11.4116H130.477V1.44373L140.951 1.44373V0.810844L124.528 0.810844V22.9617H141.267V22.3288H130.477Z" fill="#141414"/>
<path fill-rule="evenodd" clip-rule="evenodd" d="M121.338 0.316406L123.304 0.316406L113.156 23.4561H110.579L100.464 0.316406L107.842 0.316406L114.545 15.8359L121.338 0.316406ZM114.542 17.0759L107.517 0.810844L101.22 0.810844L110.903 22.9617H112.833L122.548 0.810844H121.662L114.542 17.0759Z" fill="#141414"/>
<path fill-rule="evenodd" clip-rule="evenodd" d="M89.7725 23.7726C82.6884 23.7726 77.285 18.6699 77.285 11.8863C77.285 5.10269 82.6884 0 89.7725 0C96.8566 0 102.26 5.10269 102.26 11.8863C102.26 18.6699 96.8566 23.7726 89.7725 23.7726ZM93.6273 19.4596C94.6103 17.6776 95.1955 15.0783 95.1955 11.8863C95.1955 8.69424 94.6103 6.09501 93.6273 4.31297C92.6486 2.53856 91.3109 1.62176 89.7725 1.62176C88.2341 1.62176 86.8964 2.53856 85.9177 4.31297C84.9347 6.09501 84.3495 8.69424 84.3495 11.8863C84.3495 15.0783 84.9347 17.6776 85.9177 19.4596C86.8964 21.234 88.2341 22.1508 89.7725 22.1508C91.3109 22.1508 92.6486 21.234 93.6273 19.4596ZM77.7794 11.8863C77.7794 18.3733 82.9374 23.2781 89.7725 23.2781C96.6076 23.2781 101.766 18.3733 101.766 11.8863C101.766 5.39926 96.6076 0.494438 89.7725 0.494438C82.9374 0.494438 77.7794 5.39926 77.7794 11.8863ZM95.6899 11.8863C95.6899 18.3733 93.3166 22.6453 89.7725 22.6453C86.2284 22.6453 83.8551 18.3733 83.8551 11.8863C83.8551 5.39926 86.2284 1.12732 89.7725 1.12732C93.3166 1.12732 95.6899 5.39926 95.6899 11.8863Z" fill="#141414"/>
<path fill-rule="evenodd" clip-rule="evenodd" d="M80.3401 21.8343V23.4561H63.4026V0.316406L70.3405 0.316406V21.8343H80.3401ZM69.8461 22.3288V0.810844L63.897 0.810844V22.9617H79.8456V22.3288H69.8461Z" fill="#141414"/>
<path fill-rule="evenodd" clip-rule="evenodd" d="M53.9369 21.8343V23.4561H36.2084V0.316406L53.6205 0.316406V1.93816L43.1463 1.93816V10.9172H51.089V12.5389H43.1463V21.8343H53.9369ZM42.6519 22.3288V12.0445H50.5945V11.4116H42.6519V1.44373L53.1261 1.44373V0.810844L36.7028 0.810844V22.9617H53.4425V22.3288H42.6519Z" fill="#141414"/>
<path fill-rule="evenodd" clip-rule="evenodd" d="M33.5322 0.316406L35.4982 0.316406L25.3498 23.4561H22.7729L17.7473 11.9479L12.692 23.4561H10.1154L6.10352e-05 0.316406L7.37801 0.316406L14.081 15.836L16.7659 9.70281L12.6573 0.316406L20.0356 0.316406L26.7386 15.8359L33.5322 0.316406ZM26.7356 17.0759L19.7106 0.810844L13.4134 0.810844L17.3056 9.70282L14.078 17.0759L7.05298 0.810844L0.755817 0.810844L10.4389 22.9617H12.3692L17.7487 10.7154L23.0965 22.9617H25.0268L34.7415 0.810844L33.8555 0.810844L26.7356 17.0759Z" fill="#141414"/>
</svg>
