<svg width="437" height="49" viewBox="0 0 437 49" fill="none" xmlns="http://www.w3.org/2000/svg">
<path fill-rule="evenodd" clip-rule="evenodd" d="M436.199 44.7201V48.0001H400.343V1.20007L435.559 1.20007V4.48008L414.375 4.48008V22.6401H430.439V25.9201H414.375V44.7201H436.199ZM413.375 45.7201V24.9201H429.439V23.6401H413.375V3.48008L434.559 3.48008V2.20007L401.343 2.20007V47.0001H435.199V45.7201H413.375Z" fill="#141414"/>
<path fill-rule="evenodd" clip-rule="evenodd" d="M397.669 4.48008L377.125 4.48008V23.2801H392.549V26.5601H377.125V48.0001H363.093V1.20007L397.669 1.20007V4.48008ZM376.125 25.5601H391.549V24.2801H376.125V3.48008L396.669 3.48008V2.20007L364.093 2.20007V47.0001H376.125V25.5601Z" fill="#141414"/>
<path fill-rule="evenodd" clip-rule="evenodd" d="M343.156 48.0001V1.20007L357.188 1.20007V48.0001H343.156ZM344.156 47.0001H356.188V2.20007L344.156 2.20007V47.0001Z" fill="#141414"/>
<path fill-rule="evenodd" clip-rule="evenodd" d="M340.224 44.7201V48.0001H305.968V1.20007L320 1.20007V44.7201H340.224ZM319 45.7201V2.20007L306.968 2.20007V47.0001H339.224V45.7201H319Z" fill="#141414"/>
<path fill-rule="evenodd" clip-rule="evenodd" d="M286.824 44.7201V48.0001H250.968V1.20007L286.184 1.20007V4.48008L265 4.48008V22.6401H281.064V25.9201H265V44.7201H286.824ZM264 45.7201V24.9201H280.064V23.6401H264V3.48008L285.184 3.48008V2.20007L251.968 2.20007V47.0001H285.824V45.7201H264Z" fill="#141414"/>
<path fill-rule="evenodd" clip-rule="evenodd" d="M245.518 1.20007H249.494L228.969 48.0001H223.757L203.299 1.20007L218.221 1.20007L231.778 32.5883L245.518 1.20007ZM231.772 35.0961L217.564 2.20007L204.828 2.20007L224.412 47.0001H228.316L247.964 2.20007H246.172L231.772 35.0961Z" fill="#141414"/>
<path fill-rule="evenodd" clip-rule="evenodd" d="M181.676 48.6401C167.349 48.6401 156.42 38.3199 156.42 24.6001C156.42 10.8802 167.349 0.560059 181.676 0.560059C196.004 0.560059 206.932 10.8802 206.932 24.6001C206.932 38.3199 196.004 48.6401 181.676 48.6401ZM189.473 39.9171C191.461 36.3129 192.644 31.056 192.644 24.6001C192.644 18.1442 191.461 12.8872 189.473 9.28304C187.493 5.69429 184.788 3.84006 181.676 3.84006C178.565 3.84006 175.859 5.69429 173.88 9.28304C171.892 12.8872 170.708 18.1442 170.708 24.6001C170.708 31.056 171.892 36.3129 173.88 39.9171C175.859 43.5058 178.565 45.3601 181.676 45.3601C184.788 45.3601 187.493 43.5058 189.473 39.9171ZM157.42 24.6001C157.42 37.7201 167.852 47.6401 181.676 47.6401C195.5 47.6401 205.932 37.7201 205.932 24.6001C205.932 11.4801 195.5 1.56006 181.676 1.56006C167.852 1.56006 157.42 11.4801 157.42 24.6001ZM193.644 24.6001C193.644 37.7201 188.844 46.3601 181.676 46.3601C174.508 46.3601 169.708 37.7201 169.708 24.6001C169.708 11.4801 174.508 2.84006 181.676 2.84006C188.844 2.84006 193.644 11.4801 193.644 24.6001Z" fill="#141414"/>
<path fill-rule="evenodd" clip-rule="evenodd" d="M162.599 44.7201V48.0001H128.343V1.20007L142.375 1.20007V44.7201H162.599ZM141.375 45.7201V2.20007L129.343 2.20007V47.0001H161.599V45.7201H141.375Z" fill="#141414"/>
<path fill-rule="evenodd" clip-rule="evenodd" d="M109.199 44.7201V48.0001H73.343V1.20007L108.559 1.20007V4.48008L87.375 4.48008V22.6401H103.439V25.9201H87.375V44.7201H109.199ZM86.375 45.7201V24.9201H102.439V23.6401H86.375V3.48008L107.559 3.48008V2.20007L74.343 2.20007V47.0001H108.199V45.7201H86.375Z" fill="#141414"/>
<path fill-rule="evenodd" clip-rule="evenodd" d="M67.9302 1.20007L71.9066 1.20007L51.3815 48.0001H46.1696L36.0054 24.7246L25.781 48.0001H20.5699L0.111572 1.20007L15.0335 1.20007L28.5903 32.5883L34.0205 20.1841L25.7108 1.20007L40.6335 1.20007L54.1902 32.5883L67.9302 1.20007ZM54.1841 35.0961L39.9761 2.20007L27.2401 2.20007L35.1121 20.1841L28.5841 35.0961L14.3761 2.20007L1.64009 2.20007L21.2241 47.0001H25.1281L36.0081 22.2321L46.8241 47.0001H50.7281L70.3761 2.20007H68.5841L54.1841 35.0961Z" fill="#141414"/>
</svg>
