<svg width="173" height="23" viewBox="0 0 173 23" fill="none" xmlns="http://www.w3.org/2000/svg">
<mask id="path-1-outside-1_654_2373" maskUnits="userSpaceOnUse" x="-1" y="-2" width="175" height="26" fill="black">
<rect fill="white" x="-1" y="-2" width="175" height="26"/>
<path d="M33.76 0.599998L34.656 0.599998L24.832 23H23.136L17.6 10.328L12.032 23H10.336L0.544 0.599998L5.728 0.599998L13.312 18.104L17.152 9.336L13.344 0.599998L18.528 0.599998L26.112 18.104L33.76 0.599998ZM37.243 23V0.599998L42.139 0.599998V23H37.243ZM64.948 0.599998H65.716V23H64.628L47.636 5.752V23H46.868V0.599998L49.268 0.599998L64.948 16.632V0.599998ZM75.3578 22.36H86.9738V23H70.4618V0.599998L86.6538 0.599998V1.24L75.3578 1.24V11.32H84.0938V11.96H75.3578V22.36ZM115.071 0.599998V1.24L108.255 1.24V23H103.359V1.24L96.5433 1.24V0.599998L115.071 0.599998ZM117.962 23V0.599998L122.858 0.599998V23H117.962ZM146.211 0.599998L151.267 0.599998V23H146.371V2.04L137.603 17.592H137.091L128.355 2.04V23H127.587V0.599998L132.931 0.599998L139.587 12.344L146.211 0.599998ZM160.889 22.36H172.505V23H155.993V0.599998L172.185 0.599998V1.24L160.889 1.24V11.32H169.625V11.96H160.889V22.36Z"/>
</mask>
<path d="M33.76 0.599998V-0.400002L33.1056 -0.400002L32.8437 0.199619L33.76 0.599998ZM34.656 0.599998L35.5718 1.00164L36.1865 -0.400002H34.656V0.599998ZM24.832 23V24H25.4854L25.7478 23.4016L24.832 23ZM23.136 23L22.2196 23.4003L22.4816 24H23.136V23ZM17.6 10.328L18.5164 9.92767L17.6026 7.83612L16.6845 9.92572L17.6 10.328ZM12.032 23V24H12.6849L12.9475 23.4023L12.032 23ZM10.336 23L9.41972 23.4005L9.68177 24H10.336V23ZM0.544 0.599998V-0.400002H-0.984515L-0.372277 1.00054L0.544 0.599998ZM5.728 0.599998L6.64558 0.202438L6.38456 -0.400002H5.728V0.599998ZM13.312 18.104L12.3944 18.5016L13.3071 20.608L14.228 18.5052L13.312 18.104ZM17.152 9.336L18.068 9.73717L18.2433 9.33694L18.0687 8.93641L17.152 9.336ZM13.344 0.599998V-0.400002H11.8172L12.4273 0.999584L13.344 0.599998ZM18.528 0.599998L19.4456 0.202438L19.1846 -0.400002H18.528V0.599998ZM26.112 18.104L25.1944 18.5016L26.1081 20.6104L27.0284 18.5044L26.112 18.104ZM33.76 1.6H34.656V-0.400002H33.76V1.6ZM33.7402 0.198356L23.9162 22.5984L25.7478 23.4016L35.5718 1.00164L33.7402 0.198356ZM24.832 22H23.136V24H24.832V22ZM24.0524 22.5997L18.5164 9.92767L16.6836 10.7283L22.2196 23.4003L24.0524 22.5997ZM16.6845 9.92572L11.1165 22.5977L12.9475 23.4023L18.5155 10.7303L16.6845 9.92572ZM12.032 22H10.336V24H12.032V22ZM11.2523 22.5995L1.46028 0.199454L-0.372277 1.00054L9.41972 23.4005L11.2523 22.5995ZM0.544 1.6L5.728 1.6V-0.400002L0.544 -0.400002V1.6ZM4.81042 0.997559L12.3944 18.5016L14.2296 17.7064L6.64558 0.202438L4.81042 0.997559ZM14.228 18.5052L18.068 9.73717L16.236 8.93483L12.396 17.7028L14.228 18.5052ZM18.0687 8.93641L14.2607 0.200413L12.4273 0.999584L16.2353 9.73559L18.0687 8.93641ZM13.344 1.6H18.528V-0.400002L13.344 -0.400002V1.6ZM17.6104 0.997559L25.1944 18.5016L27.0296 17.7064L19.4456 0.202438L17.6104 0.997559ZM27.0284 18.5044L34.6764 1.00038L32.8437 0.199619L25.1957 17.7036L27.0284 18.5044ZM37.243 23H36.243V24H37.243V23ZM37.243 0.599998V-0.400002H36.243V0.599998H37.243ZM42.139 0.599998H43.139V-0.400002H42.139V0.599998ZM42.139 23V24H43.139V23H42.139ZM38.243 23V0.599998H36.243V23H38.243ZM37.243 1.6L42.139 1.6V-0.400002L37.243 -0.400002V1.6ZM41.139 0.599998V23H43.139V0.599998L41.139 0.599998ZM42.139 22H37.243V24H42.139V22ZM64.948 0.599998V-0.400002H63.948V0.599998H64.948ZM65.716 0.599998H66.716V-0.400002H65.716V0.599998ZM65.716 23V24H66.716V23H65.716ZM64.628 23L63.9156 23.7018L64.2094 24H64.628V23ZM47.636 5.752L48.3484 5.0502L46.636 3.31203V5.752H47.636ZM47.636 23V24H48.636V23H47.636ZM46.868 23H45.868V24H46.868V23ZM46.868 0.599998V-0.400002H45.868V0.599998H46.868ZM49.268 0.599998L49.9829 -0.0992165L49.6887 -0.400002H49.268V0.599998ZM64.948 16.632L64.2331 17.3312L65.948 19.0846V16.632H64.948ZM64.948 1.6H65.716V-0.400002H64.948V1.6ZM64.716 0.599998V23H66.716V0.599998H64.716ZM65.716 22H64.628V24H65.716V22ZM65.3404 22.2982L48.3484 5.0502L46.9236 6.4538L63.9156 23.7018L65.3404 22.2982ZM46.636 5.752V23H48.636V5.752H46.636ZM47.636 22H46.868V24H47.636V22ZM47.868 23V0.599998L45.868 0.599998V23H47.868ZM46.868 1.6H49.268V-0.400002L46.868 -0.400002V1.6ZM48.5531 1.29921L64.2331 17.3312L65.6629 15.9328L49.9829 -0.0992165L48.5531 1.29921ZM65.948 16.632V0.599998H63.948V16.632H65.948ZM75.3577 22.36H74.3577V23.36H75.3577V22.36ZM86.9738 22.36H87.9738V21.36H86.9738V22.36ZM86.9738 23V24H87.9738V23H86.9738ZM70.4617 23H69.4617V24H70.4617V23ZM70.4617 0.599998V-0.400002L69.4617 -0.400002V0.599998H70.4617ZM86.6537 0.599998H87.6537V-0.400002H86.6537V0.599998ZM86.6537 1.24V2.24H87.6537V1.24H86.6537ZM75.3577 1.24V0.24H74.3577V1.24H75.3577ZM75.3577 11.32H74.3577V12.32H75.3577V11.32ZM84.0938 11.32H85.0938V10.32H84.0938V11.32ZM84.0938 11.96V12.96H85.0938V11.96H84.0938ZM75.3577 11.96V10.96H74.3577V11.96H75.3577ZM75.3577 23.36H86.9738V21.36H75.3577V23.36ZM85.9738 22.36V23H87.9738V22.36H85.9738ZM86.9738 22H70.4617V24H86.9738V22ZM71.4617 23V0.599998L69.4617 0.599998V23H71.4617ZM70.4617 1.6L86.6537 1.6V-0.400002L70.4617 -0.400002V1.6ZM85.6537 0.599998V1.24H87.6537V0.599998L85.6537 0.599998ZM86.6537 0.24L75.3577 0.24V2.24L86.6537 2.24V0.24ZM74.3577 1.24V11.32H76.3577V1.24H74.3577ZM75.3577 12.32H84.0938V10.32H75.3577V12.32ZM83.0938 11.32V11.96H85.0938V11.32H83.0938ZM84.0938 10.96H75.3577V12.96H84.0938V10.96ZM74.3577 11.96V22.36H76.3577V11.96H74.3577ZM115.071 0.599998L116.071 0.599998V-0.400002H115.071V0.599998ZM115.071 1.24V2.24H116.071V1.24H115.071ZM108.255 1.24V0.24H107.255V1.24L108.255 1.24ZM108.255 23V24H109.255V23H108.255ZM103.359 23H102.359V24H103.359V23ZM103.359 1.24H104.359V0.24H103.359V1.24ZM96.5433 1.24H95.5433V2.24H96.5433V1.24ZM96.5433 0.599998V-0.400002H95.5433V0.599998H96.5433ZM114.071 0.599998V1.24L116.071 1.24V0.599998L114.071 0.599998ZM115.071 0.24L108.255 0.24V2.24H115.071V0.24ZM107.255 1.24V23H109.255V1.24L107.255 1.24ZM108.255 22H103.359V24H108.255V22ZM104.359 23V1.24H102.359V23H104.359ZM103.359 0.24L96.5433 0.24V2.24L103.359 2.24V0.24ZM97.5433 1.24V0.599998H95.5433V1.24H97.5433ZM96.5433 1.6L115.071 1.6V-0.400002L96.5433 -0.400002V1.6ZM117.962 23H116.962V24H117.962V23ZM117.962 0.599998V-0.400002H116.962V0.599998H117.962ZM122.858 0.599998L123.858 0.599998V-0.400002H122.858V0.599998ZM122.858 23V24H123.858V23H122.858ZM118.962 23V0.599998H116.962V23H118.962ZM117.962 1.6H122.858V-0.400002L117.962 -0.400002V1.6ZM121.858 0.599998V23H123.858V0.599998L121.858 0.599998ZM122.858 22H117.962V24H122.858V22ZM146.211 0.599998V-0.400002H145.627L145.34 0.108724L146.211 0.599998ZM151.267 0.599998H152.267V-0.400002L151.267 -0.400002V0.599998ZM151.267 23V24H152.267V23H151.267ZM146.371 23H145.371V24H146.371V23ZM146.371 2.04H147.371V-1.76992L145.5 1.54889L146.371 2.04ZM137.603 17.592V18.592H138.187L138.474 18.0831L137.603 17.592ZM137.091 17.592L136.219 18.0817L136.506 18.592H137.091V17.592ZM128.355 2.04L129.227 1.55025L127.355 -1.78208V2.04H128.355ZM128.355 23V24H129.355V23H128.355ZM127.587 23H126.587V24H127.587V23ZM127.587 0.599998V-0.400002H126.587V0.599998H127.587ZM132.931 0.599998L133.801 0.106926L133.513 -0.400002H132.931V0.599998ZM139.587 12.344L138.717 12.8371L139.589 14.3758L140.458 12.8353L139.587 12.344ZM146.211 1.6H151.267V-0.400002H146.211V1.6ZM150.267 0.599998V23H152.267V0.599998L150.267 0.599998ZM151.267 22H146.371V24H151.267V22ZM147.371 23V2.04H145.371V23H147.371ZM145.5 1.54889L136.732 17.1009L138.474 18.0831L147.242 2.53111L145.5 1.54889ZM137.603 16.592H137.091V18.592H137.603V16.592ZM137.963 17.1022L129.227 1.55025L127.483 2.52975L136.219 18.0817L137.963 17.1022ZM127.355 2.04V23H129.355V2.04H127.355ZM128.355 22H127.587V24H128.355V22ZM128.587 23V0.599998L126.587 0.599998V23H128.587ZM127.587 1.6L132.931 1.6V-0.400002L127.587 -0.400002V1.6ZM132.061 1.09307L138.717 12.8371L140.457 11.8509L133.801 0.106926L132.061 1.09307ZM140.458 12.8353L147.082 1.09127L145.34 0.108724L138.716 11.8527L140.458 12.8353ZM160.889 22.36H159.889V23.36H160.889V22.36ZM172.505 22.36H173.505V21.36H172.505V22.36ZM172.505 23V24H173.505V23H172.505ZM155.993 23H154.993V24H155.993V23ZM155.993 0.599998V-0.400002H154.993V0.599998H155.993ZM172.185 0.599998L173.185 0.599998V-0.400002H172.185V0.599998ZM172.185 1.24V2.24H173.185V1.24H172.185ZM160.889 1.24V0.24H159.889V1.24H160.889ZM160.889 11.32H159.889V12.32H160.889V11.32ZM169.625 11.32H170.625V10.32H169.625V11.32ZM169.625 11.96V12.96H170.625V11.96H169.625ZM160.889 11.96V10.96H159.889V11.96H160.889ZM160.889 23.36H172.505V21.36H160.889V23.36ZM171.505 22.36V23H173.505V22.36H171.505ZM172.505 22H155.993V24H172.505V22ZM156.993 23V0.599998H154.993V23H156.993ZM155.993 1.6L172.185 1.6V-0.400002L155.993 -0.400002V1.6ZM171.185 0.599998V1.24H173.185V0.599998L171.185 0.599998ZM172.185 0.24L160.889 0.24V2.24L172.185 2.24V0.24ZM159.889 1.24V11.32H161.889V1.24H159.889ZM160.889 12.32H169.625V10.32H160.889V12.32ZM168.625 11.32V11.96H170.625V11.32H168.625ZM169.625 10.96H160.889V12.96H169.625V10.96ZM159.889 11.96V22.36H161.889V11.96H159.889Z" fill="white" mask="url(#path-1-outside-1_654_2373)"/>
</svg>
