<svg width="260.000000" height="36.000000" viewBox="0 0 260 36" fill="none" xmlns="http://www.w3.org/2000/svg" xmlns:xlink="http://www.w3.org/1999/xlink">

	<defs/>
	<path id="WINE TIME" d="M50.64 0.99L51.98 0.99L37.24 34.59L34.7 34.59L26.4 15.59L18.04 34.59L15.5 34.59L0.81 0.99L8.59 0.99L19.96 27.25L25.72 14.1L20.01 0.99L27.79 0.99L39.16 27.25L50.64 0.99ZM55.86 34.59L55.86 0.99L63.2 0.99L63.2 34.59L55.86 34.59ZM97.42 0.99L98.57 0.99L98.57 34.59L96.94 34.59L71.45 8.72L71.45 34.59L70.3 34.59L70.3 0.99L73.9 0.99L97.42 25.04L97.42 0.99ZM113.03 33.64L130.46 33.64L130.46 34.59L105.69 34.59L105.69 0.99L129.98 0.99L129.98 1.96L113.03 1.96L113.03 17.08L126.14 17.08L126.14 18.04L113.03 18.04L113.03 33.64ZM172.6 0.99L172.6 1.96L162.38 1.96L162.38 34.59L155.03 34.59L155.03 1.96L144.81 1.96L144.81 0.99L172.6 0.99ZM176.94 34.59L176.94 0.99L184.28 0.99L184.28 34.59L176.94 34.59ZM219.31 0.99L226.9 0.99L226.9 34.59L219.55 34.59L219.55 3.16L206.4 26.48L205.63 26.48L192.53 3.16L192.53 34.59L191.38 34.59L191.38 0.99L199.39 0.99L209.38 18.61L219.31 0.99ZM241.33 33.64L258.75 33.64L258.75 34.59L233.99 34.59L233.99 0.99L258.27 0.99L258.27 1.96L241.33 1.96L241.33 17.08L254.43 17.08L254.43 18.04L241.33 18.04L241.33 33.64Z"  stroke-opacity="1.000000" stroke-width="1.000000"/>
</svg>
