<svg width="442" height="58" viewBox="0 0 442 58" fill="none" xmlns="http://www.w3.org/2000/svg">
<mask id="path-1-outside-1_1671_3500" maskUnits="userSpaceOnUse" x="-2" y="-1" width="445" height="60" fill="black">
<rect fill="white" x="-2" y="-1" width="445" height="60"/>
<path d="M85.51 0.599996H87.806L62.632 58H58.286L44.1 25.528L29.832 58H25.486L0.394 0.599996H13.678L33.112 45.454L42.952 22.986L33.194 0.599996H46.478L65.912 45.454L85.51 0.599996ZM94.4352 58V0.599996H106.981V58H94.4352ZM165.429 0.599996H167.397V58H164.609L121.067 13.802V58H119.099V0.599996H125.249L165.429 41.682V0.599996ZM192.104 56.36H221.87V58H179.558V0.599996H221.05V2.24H192.104V28.07H214.49V29.71H192.104V56.36ZM293.87 0.599996V2.24H276.404V58H263.858V2.24H246.392V0.599996H293.87ZM301.277 58V0.599996H313.823V58H301.277ZM373.665 0.599996H386.621V58H374.075V4.29L351.607 44.142H350.295L327.909 4.29V58H325.941V0.599996H339.635L356.691 30.694L373.665 0.599996ZM411.278 56.36H441.044V58H398.732V0.599996H440.224V2.24H411.278V28.07H433.664V29.71H411.278V56.36Z"/>
</mask>
<path d="M85.51 0.599996V-0.400004H84.8556L84.5937 0.199617L85.51 0.599996ZM87.806 0.599996L88.7218 1.00164L89.3365 -0.400004H87.806V0.599996ZM62.632 58V59H63.2854L63.5478 58.4016L62.632 58ZM58.286 58L57.3696 58.4003L57.6316 59H58.286V58ZM44.1 25.528L45.0164 25.1277L44.1026 23.0361L43.1845 25.1257L44.1 25.528ZM29.832 58V59H30.4849L30.7475 58.4023L29.832 58ZM25.486 58L24.5697 58.4005L24.8318 59H25.486V58ZM0.394 0.599996V-0.400004H-1.13452L-0.522277 1.00054L0.394 0.599996ZM13.678 0.599996L14.5956 0.202436L14.3346 -0.400004H13.678V0.599996ZM33.112 45.454L32.1944 45.8516L33.1071 47.958L34.028 45.8552L33.112 45.454ZM42.952 22.986L43.868 23.3872L44.0433 22.9869L43.8687 22.5864L42.952 22.986ZM33.194 0.599996V-0.400004H31.6672L32.2773 0.999581L33.194 0.599996ZM46.478 0.599996L47.3956 0.202436L47.1346 -0.400004H46.478V0.599996ZM65.912 45.454L64.9944 45.8516L65.9081 47.9604L66.8284 45.8544L65.912 45.454ZM85.51 1.6H87.806V-0.400004H85.51V1.6ZM86.8902 0.198354L61.7162 57.5984L63.5478 58.4016L88.7218 1.00164L86.8902 0.198354ZM62.632 57H58.286V59H62.632V57ZM59.2024 57.5997L45.0164 25.1277L43.1836 25.9283L57.3696 58.4003L59.2024 57.5997ZM43.1845 25.1257L28.9165 57.5977L30.7475 58.4023L45.0155 25.9303L43.1845 25.1257ZM29.832 57H25.486V59H29.832V57ZM26.4023 57.5995L1.31028 0.199452L-0.522277 1.00054L24.5697 58.4005L26.4023 57.5995ZM0.394 1.6H13.678V-0.400004H0.394V1.6ZM12.7604 0.997556L32.1944 45.8516L34.0296 45.0564L14.5956 0.202436L12.7604 0.997556ZM34.028 45.8552L43.868 23.3872L42.036 22.5848L32.196 45.0528L34.028 45.8552ZM43.8687 22.5864L34.1107 0.200411L32.2773 0.999581L42.0353 23.3856L43.8687 22.5864ZM33.194 1.6H46.478V-0.400004H33.194V1.6ZM45.5604 0.997556L64.9944 45.8516L66.8296 45.0564L47.3956 0.202436L45.5604 0.997556ZM66.8284 45.8544L86.4264 1.00038L84.5937 0.199617L64.9957 45.0536L66.8284 45.8544ZM94.4352 58H93.4352V59H94.4352V58ZM94.4352 0.599996V-0.400004H93.4352V0.599996H94.4352ZM106.981 0.599996H107.981V-0.400004H106.981V0.599996ZM106.981 58V59H107.981V58H106.981ZM95.4352 58V0.599996H93.4352V58H95.4352ZM94.4352 1.6H106.981V-0.400004H94.4352V1.6ZM105.981 0.599996V58H107.981V0.599996H105.981ZM106.981 57H94.4352V59H106.981V57ZM165.429 0.599996V-0.400004H164.429V0.599996H165.429ZM167.397 0.599996H168.397V-0.400004H167.397V0.599996ZM167.397 58V59H168.397V58H167.397ZM164.609 58L163.897 58.7018L164.191 59H164.609V58ZM121.067 13.802L121.78 13.1002L120.067 11.362V13.802H121.067ZM121.067 58V59H122.067V58H121.067ZM119.099 58H118.099V59H119.099V58ZM119.099 0.599996V-0.400004H118.099V0.599996H119.099ZM125.249 0.599996L125.964 -0.0992188L125.67 -0.400004H125.249V0.599996ZM165.429 41.682L164.714 42.3812L166.429 44.1346V41.682H165.429ZM165.429 1.6H167.397V-0.400004H165.429V1.6ZM166.397 0.599996V58H168.397V0.599996H166.397ZM167.397 57H164.609V59H167.397V57ZM165.322 57.2982L121.78 13.1002L120.355 14.5038L163.897 58.7018L165.322 57.2982ZM120.067 13.802V58H122.067V13.802H120.067ZM121.067 57H119.099V59H121.067V57ZM120.099 58V0.599996H118.099V58H120.099ZM119.099 1.6H125.249V-0.400004H119.099V1.6ZM124.534 1.29921L164.714 42.3812L166.144 40.9828L125.964 -0.0992188L124.534 1.29921ZM166.429 41.682V0.599996H164.429V41.682H166.429ZM192.104 56.36H191.104V57.36H192.104V56.36ZM221.87 56.36H222.87V55.36H221.87V56.36ZM221.87 58V59H222.87V58H221.87ZM179.558 58H178.558V59H179.558V58ZM179.558 0.599996V-0.400004H178.558V0.599996H179.558ZM221.05 0.599996H222.05V-0.400004H221.05V0.599996ZM221.05 2.24V3.24H222.05V2.24H221.05ZM192.104 2.24V1.24H191.104V2.24H192.104ZM192.104 28.07H191.104V29.07H192.104V28.07ZM214.49 28.07H215.49V27.07H214.49V28.07ZM214.49 29.71V30.71H215.49V29.71H214.49ZM192.104 29.71V28.71H191.104V29.71H192.104ZM192.104 57.36H221.87V55.36H192.104V57.36ZM220.87 56.36V58H222.87V56.36H220.87ZM221.87 57H179.558V59H221.87V57ZM180.558 58V0.599996H178.558V58H180.558ZM179.558 1.6H221.05V-0.400004H179.558V1.6ZM220.05 0.599996V2.24H222.05V0.599996H220.05ZM221.05 1.24H192.104V3.24H221.05V1.24ZM191.104 2.24V28.07H193.104V2.24H191.104ZM192.104 29.07H214.49V27.07H192.104V29.07ZM213.49 28.07V29.71H215.49V28.07H213.49ZM214.49 28.71H192.104V30.71H214.49V28.71ZM191.104 29.71V56.36H193.104V29.71H191.104ZM293.87 0.599996H294.87V-0.400004H293.87V0.599996ZM293.87 2.24V3.24H294.87V2.24H293.87ZM276.404 2.24V1.24H275.404V2.24H276.404ZM276.404 58V59H277.404V58H276.404ZM263.858 58H262.858V59H263.858V58ZM263.858 2.24H264.858V1.24H263.858V2.24ZM246.392 2.24H245.392V3.24H246.392V2.24ZM246.392 0.599996V-0.400004H245.392V0.599996H246.392ZM292.87 0.599996V2.24H294.87V0.599996H292.87ZM293.87 1.24H276.404V3.24H293.87V1.24ZM275.404 2.24V58H277.404V2.24H275.404ZM276.404 57H263.858V59H276.404V57ZM264.858 58V2.24H262.858V58H264.858ZM263.858 1.24H246.392V3.24H263.858V1.24ZM247.392 2.24V0.599996H245.392V2.24H247.392ZM246.392 1.6H293.87V-0.400004H246.392V1.6ZM301.277 58H300.277V59H301.277V58ZM301.277 0.599996V-0.400004H300.277V0.599996H301.277ZM313.823 0.599996H314.823V-0.400004H313.823V0.599996ZM313.823 58V59H314.823V58H313.823ZM302.277 58V0.599996H300.277V58H302.277ZM301.277 1.6H313.823V-0.400004H301.277V1.6ZM312.823 0.599996V58H314.823V0.599996H312.823ZM313.823 57H301.277V59H313.823V57ZM373.665 0.599996V-0.400004H373.081L372.794 0.108721L373.665 0.599996ZM386.621 0.599996H387.621V-0.400004H386.621V0.599996ZM386.621 58V59H387.621V58H386.621ZM374.075 58H373.075V59H374.075V58ZM374.075 4.29H375.075V0.480079L373.204 3.79889L374.075 4.29ZM351.607 44.142V45.142H352.191L352.478 44.6331L351.607 44.142ZM350.295 44.142L349.423 44.6317L349.71 45.142H350.295V44.142ZM327.909 4.29L328.781 3.80025L326.909 0.46792V4.29H327.909ZM327.909 58V59H328.909V58H327.909ZM325.941 58H324.941V59H325.941V58ZM325.941 0.599996V-0.400004H324.941V0.599996H325.941ZM339.635 0.599996L340.505 0.106924L340.218 -0.400004H339.635V0.599996ZM356.691 30.694L355.821 31.1871L356.693 32.7258L357.562 31.1853L356.691 30.694ZM373.665 1.6H386.621V-0.400004H373.665V1.6ZM385.621 0.599996V58H387.621V0.599996H385.621ZM386.621 57H374.075V59H386.621V57ZM375.075 58V4.29H373.075V58H375.075ZM373.204 3.79889L350.736 43.6509L352.478 44.6331L374.946 4.78111L373.204 3.79889ZM351.607 43.142H350.295V45.142H351.607V43.142ZM351.167 43.6522L328.781 3.80025L327.037 4.77975L349.423 44.6317L351.167 43.6522ZM326.909 4.29V58H328.909V4.29H326.909ZM327.909 57H325.941V59H327.909V57ZM326.941 58V0.599996H324.941V58H326.941ZM325.941 1.6H339.635V-0.400004H325.941V1.6ZM338.765 1.09307L355.821 31.1871L357.561 30.2009L340.505 0.106924L338.765 1.09307ZM357.562 31.1853L374.536 1.09127L372.794 0.108721L355.82 30.2027L357.562 31.1853ZM411.278 56.36H410.278V57.36H411.278V56.36ZM441.044 56.36H442.044V55.36H441.044V56.36ZM441.044 58V59H442.044V58H441.044ZM398.732 58H397.732V59H398.732V58ZM398.732 0.599996V-0.400004H397.732V0.599996H398.732ZM440.224 0.599996H441.224V-0.400004H440.224V0.599996ZM440.224 2.24V3.24H441.224V2.24H440.224ZM411.278 2.24V1.24H410.278V2.24H411.278ZM411.278 28.07H410.278V29.07H411.278V28.07ZM433.664 28.07H434.664V27.07H433.664V28.07ZM433.664 29.71V30.71H434.664V29.71H433.664ZM411.278 29.71V28.71H410.278V29.71H411.278ZM411.278 57.36H441.044V55.36H411.278V57.36ZM440.044 56.36V58H442.044V56.36H440.044ZM441.044 57H398.732V59H441.044V57ZM399.732 58V0.599996H397.732V58H399.732ZM398.732 1.6H440.224V-0.400004H398.732V1.6ZM439.224 0.599996V2.24H441.224V0.599996H439.224ZM440.224 1.24H411.278V3.24H440.224V1.24ZM410.278 2.24V28.07H412.278V2.24H410.278ZM411.278 29.07H433.664V27.07H411.278V29.07ZM432.664 28.07V29.71H434.664V28.07H432.664ZM433.664 28.71H411.278V30.71H433.664V28.71ZM410.278 29.71V56.36H412.278V29.71H410.278Z" fill="#EFEFEF" mask="url(#path-1-outside-1_1671_3500)"/>
</svg>
