<svg width="448" height="61" viewBox="0 0 448 61" fill="none" xmlns="http://www.w3.org/2000/svg">
<path fill-rule="evenodd" clip-rule="evenodd" d="M447.046 57.3426V61H401.207V0.989746H446.217V4.64719H418.787V28.7518H439.588V32.4092H418.787V57.3426H447.046ZM417.787 58.3426V31.4092H438.588V29.7518H417.787V3.64719H445.217V1.98975H402.207V60H446.046V58.3426H417.787Z" fill="#7C0021"/>
<path fill-rule="evenodd" clip-rule="evenodd" d="M375.356 0.989746H392.948V61H375.368V9.76118L354.921 47.6576H352.402L331.955 9.76118V61H327.966V0.989746H346.637L360.957 27.7996L375.356 0.989746ZM360.954 29.9175L346.037 1.98975H328.966V60H330.955V5.80185L352.999 46.6576H354.325L376.368 5.80185V60H391.948V1.98975H375.954L360.954 29.9175Z" fill="#7C0021"/>
<path fill-rule="evenodd" clip-rule="evenodd" d="M302.148 61V0.989746H319.728V61H302.148ZM303.148 60H318.728V1.98975H303.148V60Z" fill="#7C0021"/>
<path fill-rule="evenodd" clip-rule="evenodd" d="M298.232 0.989746V4.64719H281.658V61H264.078V4.64719H247.421V0.989746H298.232ZM265.078 3.64719V60H280.658V3.64719H297.232V1.98975H248.421V3.64719H265.078Z" fill="#7C0021"/>
<path fill-rule="evenodd" clip-rule="evenodd" d="M226.351 57.3426V61H180.512V0.989746H225.522V4.64719H198.092V28.7518H218.892V32.4092H198.092V57.3426H226.351ZM197.092 58.3426V31.4092H217.892V29.7518H197.092V3.64719H224.522V1.98975H181.512V60H225.351V58.3426H197.092Z" fill="#7C0021"/>
<path fill-rule="evenodd" clip-rule="evenodd" d="M168.272 0.989746H172.261V61H168.056L124.775 21.6534V61H120.786V0.989746H128.391L168.272 37.5872V0.989746ZM169.272 39.8622L128.002 1.98975H121.786V60H123.775V19.3928L168.443 60H171.261V1.98975H169.272V39.8622Z" fill="#7C0021"/>
<path fill-rule="evenodd" clip-rule="evenodd" d="M94.9697 61V0.989746H112.55V61H94.9697ZM95.9697 60H111.55V1.98975H95.9697V60Z" fill="#7C0021"/>
<path fill-rule="evenodd" clip-rule="evenodd" d="M87.8584 0.989746H92.3632L66.0444 61H59.6813L46.3278 30.4212L32.8952 61H26.5329L0.299805 0.989746H18.9772L36.7235 42.0781L44.0787 25.2767L33.4477 0.989746H52.1259L69.8722 42.0781L87.8584 0.989746ZM69.8661 44.5859L51.4685 1.98975H34.977L45.1703 25.2767L36.7174 44.5859L18.3198 1.98975H1.82832L27.1871 60H32.2423L46.3305 27.9286L60.3358 60H65.391L90.8326 1.98975H88.5122L69.8661 44.5859Z" fill="#7C0021"/>
</svg>
