<svg width="332" height="45" viewBox="0 0 332 45" fill="none" xmlns="http://www.w3.org/2000/svg">
<path fill-rule="evenodd" clip-rule="evenodd" d="M332 41.8787V44.5968H297.935V0H331.384V2.71803H310.999V20.6314H326.457V23.3495H310.999V41.8787H332ZM310.256 42.6219V22.6063H325.714V21.3746H310.256V1.97488H330.641V0.743152H298.678V43.8536H331.257V42.6219H310.256Z" fill="#7C0021"/>
<path fill-rule="evenodd" clip-rule="evenodd" d="M278.724 0H291.797V44.5968H278.733V6.51851L263.537 34.6814H261.665L246.47 6.51851V44.5968H243.505V0H257.381L268.023 19.9238L278.724 0ZM268.021 21.4978L256.935 0.743152H244.249V43.8536H245.727V3.57613L262.109 33.9382H263.094L279.476 3.57613V43.8536H291.054V0.743152H279.168L268.021 21.4978Z" fill="#7C0021"/>
<path fill-rule="evenodd" clip-rule="evenodd" d="M224.319 44.5968V0H237.384V44.5968H224.319ZM225.062 43.8536H236.641V0.743152H225.062V43.8536Z" fill="#7C0021"/>
<path fill-rule="evenodd" clip-rule="evenodd" d="M221.409 0V2.71803H209.092V44.5968H196.027V2.71803H183.648V0H221.409ZM196.77 1.97488V43.8536H208.349V1.97488H220.666V0.743152H184.392V1.97488H196.77Z" fill="#7C0021"/>
<path fill-rule="evenodd" clip-rule="evenodd" d="M167.99 41.8787V44.5968H133.925V0H167.374V2.71803H146.989V20.6314H162.448V23.3495H146.989V41.8787H167.99ZM146.246 42.6219V22.6063H161.704V21.3746H146.246V1.97488H166.631V0.743152H134.668V43.8536H167.247V42.6219H146.246Z" fill="#7C0021"/>
<path fill-rule="evenodd" clip-rule="evenodd" d="M124.828 0H127.793V44.5968H124.668L92.5037 15.3562V44.5968H89.5393V0H95.1907L124.828 27.1975V0ZM125.571 28.8881L94.9014 0.743152H90.2825V43.8536H91.7605V13.6763L124.956 43.8536H127.05V0.743152H125.571V28.8881Z" fill="#7C0021"/>
<path fill-rule="evenodd" clip-rule="evenodd" d="M70.3538 44.5968V0H83.4183V44.5968H70.3538ZM71.0969 43.8536H82.6751V0.743152H71.0969V43.8536Z" fill="#7C0021"/>
<path fill-rule="evenodd" clip-rule="evenodd" d="M65.0693 0H68.4171L48.8582 44.5968H44.1295L34.2058 21.8721L24.2234 44.5968H19.4952L0 0H13.8801L27.0684 30.5349L32.5344 18.0489L24.6339 0H38.5147L51.7029 30.5349L65.0693 0ZM51.6983 32.3985L38.0261 0.743152H25.7705L33.3456 18.0489L27.0638 32.3985L13.3916 0.743152H1.13592L19.9813 43.8536H23.7381L34.2078 20.0197L44.6159 43.8536H48.3727L67.2797 0.743152H65.5553L51.6983 32.3985Z" fill="#7C0021"/>
</svg>
