<svg width="327" height="44" viewBox="0 0 327 44" fill="none" xmlns="http://www.w3.org/2000/svg">
<path fill-rule="evenodd" clip-rule="evenodd" d="M327 41.248V43.9251H293.448V0H326.394V2.6771H306.316V20.3207H321.541V22.9978H306.316V41.248H327ZM305.584 41.98V22.2658H320.809V21.0527H305.584V1.94514H325.662V0.73196H294.18V43.1931H326.268V41.98H305.584Z" fill="#7C0021"/>
<path fill-rule="evenodd" clip-rule="evenodd" d="M274.526 0H287.403V43.9251H274.535V6.42033L259.569 34.159H257.725L242.758 6.42033V43.9251H239.838V0H253.505L263.986 19.6237L274.526 0ZM263.985 21.174L253.066 0.73196H240.57V43.1931H242.026V3.52226L258.161 33.4271H259.132L275.267 3.52226V43.1931H286.671V0.73196H274.964L263.985 21.174Z" fill="#7C0021"/>
<path fill-rule="evenodd" clip-rule="evenodd" d="M220.941 43.9251V0H233.809V43.9251H220.941ZM221.673 43.1931H233.077V0.73196H221.673V43.1931Z" fill="#7C0021"/>
<path fill-rule="evenodd" clip-rule="evenodd" d="M218.075 0V2.6771H205.943V43.9251H193.075V2.6771H180.883V0H218.075ZM193.807 1.94514V43.1931H205.211V1.94514H217.343V0.73196H181.615V1.94514H193.807Z" fill="#7C0021"/>
<path fill-rule="evenodd" clip-rule="evenodd" d="M165.46 41.248V43.9251H131.908V0H164.854V2.6771H144.776V20.3207H160.001V22.9978H144.776V41.248H165.46ZM144.044 41.98V22.2658H159.269V21.0527H144.044V1.94514H164.122V0.73196H132.64V43.1931H164.728V41.98H144.044Z" fill="#7C0021"/>
<path fill-rule="evenodd" clip-rule="evenodd" d="M122.949 0H125.868V43.9251H122.791L91.1109 15.1249V43.9251H88.1912V0H93.7575L122.949 26.7879V0ZM123.681 28.453L93.4725 0.73196H88.9231V43.1931H90.3789V13.4703L123.074 43.1931H125.136V0.73196H123.681V28.453Z" fill="#7C0021"/>
<path fill-rule="evenodd" clip-rule="evenodd" d="M69.2947 43.9251V0H82.1625V43.9251H69.2947ZM70.0266 43.1931H81.4305V0.73196H70.0266V43.1931Z" fill="#7C0021"/>
<path fill-rule="evenodd" clip-rule="evenodd" d="M64.0893 0H67.3867L48.1224 43.9251H43.4649L33.6906 21.5426L23.8585 43.9251H19.2015L0 0H13.6711L26.6607 30.075L32.0444 17.7771L24.2629 0H37.9346L50.9242 30.075L64.0893 0ZM50.9197 31.9106L37.4534 0.73196H25.3823L32.8434 17.7771L26.6562 31.9106L13.1899 0.73196H1.11881L19.6804 43.1931H23.3806L33.6926 19.7182L43.9439 43.1931H47.6441L66.2664 0.73196H64.5679L50.9197 31.9106Z" fill="#7C0021"/>
</svg>
