<svg width="163" height="61" viewBox="0 0 163 61" fill="none" xmlns="http://www.w3.org/2000/svg" style="background-color: #ffffff;">
<g clip-path="url(#clip0_77_257)">
<path d="M80.0338 9.24614V23.9124H71.6918V7.32226C71.6918 4.73932 69.8926 2.76036 67.4414 2.76036C64.9903 2.76036 62.3717 4.68425 61.1699 7.54254V23.9124H52.8296V1.64298L61.1699 0.214728V5.29001C63.0783 2.21322 66.6784 0.179199 70.7102 0.179199C76.1077 0.179199 80.0321 4.08026 80.0321 9.24792L80.0338 9.24614Z" fill="#141414"/>
<path d="M39.8055 0.362427L29.2959 23.9287L25.9584 23.9482L19.6199 10.3087L13.477 24.0388L10.8443 24.0583L0 0.461907L7.89801 0.405061L15.3273 16.8531L18.9256 8.81117L15.1123 0.351768L23.0121 0.294922L30.4413 16.7909L37.7349 0.371309L39.8055 0.36065V0.362427Z" fill="#141414"/>
<path d="M42.5986 37.323L42.7308 30.0023L49.538 28.2383L49.5204 29.1745L42.5986 37.323Z" fill="#141414"/>
<path d="M49.8004 22.8662L42.3482 24.1416L42.1685 0.47415L49.6277 0.415527L49.8004 22.8662Z" fill="#141414"/>
<path d="M71.8115 36.6709L80.0338 35.4097V60.3704H71.8115V36.6709Z" fill="#141414"/>
<path d="M16.0638 48.2285C16.0145 41.2915 21.6816 36.0013 29.2871 35.9462C36.8432 35.8912 42.6354 41.0997 42.6848 48.0349C42.7341 54.9719 37.0177 60.2621 29.4615 60.3172C21.856 60.3723 16.1131 55.1655 16.0638 48.2285ZM35.0282 48.09C34.9771 41.0588 32.755 36.8575 29.2941 36.8824C25.7839 36.9073 23.6675 41.1405 23.7186 48.1717C23.7697 55.2028 25.9442 59.4041 29.4545 59.3792C32.9154 59.3544 35.0793 55.1193 35.0282 48.09Z" fill="#141414"/>
<path d="M45.8865 48.2303C45.8372 41.2933 51.5519 36.0031 59.2561 35.9462C64.6677 35.9071 68.8792 38.6428 68.9057 42.3449L67.8819 42.3521C67.8625 39.5399 65.0677 37.4509 61.4605 37.4775C56.4384 37.5148 53.492 41.5189 53.5396 48.1752C53.5872 54.8298 56.6886 58.7912 61.8077 58.7539C64.4879 58.7344 67.0149 57.4038 68.0739 55.3805L69.1471 55.3733C67.8995 58.2885 64.0615 60.2852 59.4799 60.3189C51.6788 60.3758 45.9377 55.1211 45.8883 48.2321L45.8865 48.2303Z" fill="#141414"/>
<path d="M111.446 48.0526C111.397 41.1156 117.111 35.8253 124.816 35.7685C130.227 35.7294 134.439 38.4651 134.465 42.1672L133.441 42.1743C133.422 39.3622 130.627 37.2731 127.02 37.2998C121.998 37.3371 119.052 41.3412 119.099 47.9975C119.147 54.652 122.248 58.6135 127.367 58.5762C130.047 58.5566 132.574 57.2261 133.633 55.2027L134.707 55.1956C133.459 58.1107 129.621 60.1075 125.039 60.1412C117.238 60.1981 111.497 54.9434 111.448 48.0543L111.446 48.0526Z" fill="#141414"/>
<path d="M146.201 48.3598L144.989 49.399L145.064 60.1927L137.605 60.246L137.369 27.1438L144.821 25.8701L144.98 47.9921L158.697 36.5501L160.404 36.5376L151.436 44.0076L163.002 60.1909L154.762 60.2513L146.203 48.3581L146.201 48.3598Z" fill="#141414"/>
<path d="M80.5818 0.144043C77.6231 4.79298 77.817 10.0761 81.0488 14.5385C83.2039 17.5141 86.4357 19.5072 89.0032 22.1364C91.5706 24.7655 93.5196 28.6381 92.1645 32.0524C90.7847 35.5271 86.7458 36.9412 83.722 39.1422C80.4267 41.5404 78.113 45.2425 77.4046 49.2519C76.6962 53.2613 77.2302 56.9865 79.5034 60.3653H110.923C110.923 60.3653 116.812 50.4048 109.716 42.3984C102.619 34.392 98.8078 34.2606 99.0722 29.0112C99.3347 23.7618 103.014 22.0546 105.116 20.0863C107.219 18.1181 117.469 14.6842 111.423 0.144043H80.5818Z" fill="#7C0021"/>
<path d="M100.748 23.9356C99.6238 24.2057 98.4202 24.3567 97.1708 24.3655C88.9803 24.4242 83.1405 19.2174 83.0912 12.2342C83.0401 5.34344 88.7072 0.0532011 95.9232 -9.20373e-05C102.993 -0.0516088 108.098 4.92597 108.146 11.5823L90.7407 11.7084C90.8923 19.3009 93.8932 23.0758 99.1586 23.0368C100.103 23.0297 100.996 22.9693 101.853 22.7046L100.748 23.9339V23.9356ZM90.7337 10.7722L101.118 10.6976C100.928 4.60621 99.0493 0.91655 96.0254 0.939644C92.8095 0.962738 90.8376 5.05388 90.7337 10.774V10.7722Z" fill="white"/>
<path d="M82.307 48.4063C82.2576 41.4693 87.9265 36.179 95.532 36.124C103.086 36.0689 108.879 41.2774 108.928 48.2126C108.977 55.1496 103.261 60.4399 95.7064 60.4949C88.101 60.55 82.3581 55.3433 82.307 48.4063ZM101.273 48.2677C101.222 41.2366 98.9982 37.0353 95.539 37.0601C92.0288 37.085 89.9125 41.3183 89.9636 48.3494C90.0147 55.3806 92.1892 59.5818 95.6994 59.557C99.1603 59.5321 101.324 55.2971 101.273 48.2677Z" fill="white"/>
</g>
<defs>
<clipPath id="clip0_77_257">
<rect width="163" height="60.4948" fill="white"/>
</clipPath>
</defs>
</svg>
