<svg width="47" height="47" viewBox="0 0 47 47"  xmlns="http://www.w3.org/2000/svg">
<path fill-rule="evenodd" clip-rule="evenodd" d="M0.530273 47L0.530273 0.199951L20.4743 0.199951C35.0718 0.199951 46.3063 10.2178 46.3063 23.6C46.3063 36.9821 35.0718 47 20.4743 47H0.530273ZM28.2629 38.3742C30.6223 34.8993 32.0183 29.8338 32.0183 23.6C32.0183 17.3661 30.6223 12.3006 28.2629 8.82567C25.9227 5.37891 22.633 3.47995 18.6823 3.47995H14.5623L14.5623 43.72H18.6823C22.633 43.72 25.9227 41.821 28.2629 38.3742ZM13.5623 44.72L13.5623 2.47995H18.6823C27.3223 2.47995 33.0183 10.864 33.0183 23.6C33.0183 36.336 27.3223 44.72 18.6823 44.72H13.5623ZM45.3063 23.6C45.3063 10.864 34.6183 1.19995 20.4743 1.19995L1.53027 1.19995L1.53027 46H20.4743C34.6183 46 45.3063 36.336 45.3063 23.6Z" />
</svg>
