<svg width="65.000000" height="61.000000" viewBox="0 0 65 61" fill="none" xmlns="http://www.w3.org/2000/svg" xmlns:xlink="http://www.w3.org/1999/xlink">
	<desc>
			Created with Pixso.
	</desc>
	<defs/>
	<path id="Stroke" d="M31.74 60.82C13.34 60.82 -0.67 47.58 -0.67 29.99C-0.67 12.4 13.34 -0.84 31.74 -0.84C50.15 -0.84 64.15 12.4 64.15 29.99C64.15 47.58 50.15 60.82 31.74 60.82ZM42.1 49.97C44.7 45.24 46.24 38.38 46.24 29.99C46.24 21.6 44.7 14.74 42.1 10.01C39.5 5.3 35.91 2.81 31.74 2.81C27.57 2.81 23.99 5.3 21.39 10.01C18.78 14.74 17.25 21.6 17.25 29.99C17.25 38.38 18.78 45.24 21.39 49.97C23.99 54.68 27.57 57.17 31.74 57.17C35.91 57.17 39.5 54.68 42.1 49.97ZM0.33 29.99C0.33 46.98 13.84 59.82 31.74 59.82C49.64 59.82 63.15 46.98 63.15 29.99C63.15 13 49.64 0.16 31.74 0.16C13.84 0.16 0.33 13 0.33 29.99ZM47.24 29.99C47.24 46.98 41.02 58.17 31.74 58.17C22.46 58.17 16.25 46.98 16.25 29.99C16.25 13 22.46 1.81 31.74 1.81C41.02 1.81 47.24 13 47.24 29.99Z" fill="#FFFFFF" fill-opacity="1.000000" fill-rule="evenodd"/>
</svg>
