<svg width="50.511963" height="48.079956" viewBox="0 0 50.512 48.08"  xmlns="http://www.w3.org/2000/svg" xmlns:xlink="http://www.w3.org/1999/xlink">

	<path id="Stroke" d="M25.2561 48.08C10.9285 48.08 0 37.7598 0 24.04C0 10.3202 10.9285 0 25.2561 0C39.5835 0 50.512 10.3202 50.512 24.04C50.512 37.7598 39.5835 48.08 25.2561 48.08ZM33.0525 39.3571C35.0403 35.7528 36.2239 30.4958 36.2239 24.04C36.2239 17.5841 35.0403 12.3271 33.0525 8.72302C31.073 5.13428 28.3674 3.28003 25.2561 3.28003C22.1445 3.28003 19.4392 5.13428 17.4597 8.72302C15.4717 12.3271 14.2881 17.5841 14.2881 24.04C14.2881 30.4958 15.4717 35.7528 17.4597 39.3571C19.4392 42.9458 22.1445 44.8 25.2561 44.8C28.3674 44.8 31.073 42.9458 33.0525 39.3571ZM1 24.04C1 37.16 11.4319 47.08 25.2561 47.08C39.0801 47.08 49.512 37.16 49.512 24.04C49.512 10.92 39.0801 1 25.2561 1C11.4319 1 1 10.92 1 24.04ZM37.2239 24.04C37.2239 37.16 32.4241 45.8 25.2561 45.8C18.0879 45.8 13.2881 37.16 13.2881 24.04C13.2881 10.92 18.0879 2.28003 25.2561 2.28003C32.4241 2.28003 37.2239 10.92 37.2239 24.04Z" fill-opacity="1.000000" fill-rule="evenodd"/>
</svg>
