<svg width="57.000000" height="60.000000" viewBox="0 0 57 60"  xmlns="http://www.w3.org/2000/svg" xmlns:xlink="http://www.w3.org/1999/xlink">

	<path id="Stroke" d="M56.55 60L36.31 60L36.07 59.84C35.24 59.33 34.45 58.43 33.79 57.52C33.12 56.58 32.52 55.52 32.12 54.58L32.11 54.58L32.11 54.57L24.99 37.19C24.74 36.65 24.46 36.22 24.09 35.89C23.75 35.57 23.3 35.31 22.64 35.13L17.54 35.13L17.54 60L-0.04 60L-0.04 -0.02L26.74 -0.02C39.59 -0.02 49.95 7.06 49.95 17.72C49.95 25.71 44.08 31.5 35.74 33.91C40.01 35.27 43.72 37.83 45.4 42.04C45.4 42.05 45.4 42.05 45.4 42.05L49.7 52.31C50.22 53.54 50.87 54.79 51.59 55.85C52.31 56.92 53.05 57.72 53.72 58.16L56.55 60ZM44.47 42.42C42.74 38.06 38.58 35.55 33.78 34.4C32.83 34.18 31.86 34.01 30.88 33.88C31.88 33.76 32.85 33.59 33.79 33.38C42.77 31.37 48.95 25.6 48.95 17.72C48.95 7.86 39.33 0.98 26.74 0.98L0.96 0.98L0.96 59L16.54 59L16.54 34.13L22.76 34.13C24.5 34.55 25.33 35.54 25.91 36.79L33.04 54.19C33.78 55.93 35.27 58.17 36.6 59L53.17 59C52.78 58.74 52.39 58.4 52.01 58C50.77 56.67 49.61 54.66 48.78 52.7L44.47 42.42ZM16.54 32.48L16.54 2.64L22.93 2.64C29.06 2.64 33.04 8.53 33.04 17.56C33.04 26.59 29.06 32.48 22.93 32.48L16.54 32.48ZM17.54 3.64L17.54 31.48L22.93 31.48C25.63 31.48 27.86 30.2 29.45 27.84C31.07 25.46 32.04 21.94 32.04 17.56C32.04 13.17 31.07 9.66 29.45 7.27C27.86 4.92 25.63 3.64 22.93 3.64L17.54 3.64Z" fill-opacity="1.000000" fill-rule="evenodd"/>
</svg>
