<svg width="52.000000" height="61.000000" viewBox="0 0 52 61"  xmlns="http://www.w3.org/2000/svg" xmlns:xlink="http://www.w3.org/1999/xlink">

	<path id="Stroke" d="M-0.78 -0.02L16.8 -0.02L16.8 37.37C16.8 42.77 18.34 47.02 21.03 49.91C23.71 52.79 27.63 54.43 32.63 54.43C37.44 54.43 41.24 52.8 43.84 49.92C46.45 47.03 47.95 42.78 47.95 37.37L47.95 -0.02L51.94 -0.02L51.94 37.86C51.94 44.71 49.73 50.48 45.49 54.54C41.25 58.59 35.1 60.82 27.41 60.82C19.42 60.82 12.38 58.4 7.32 54.07C2.25 49.72 -0.78 43.5 -0.78 36.04L-0.78 -0.02ZM0.22 36.04C0.22 50.38 11.83 59.82 27.41 59.82C42.41 59.82 50.94 51.12 50.94 37.86L50.94 0.98L48.95 0.98L48.95 37.37C48.95 48.55 42.74 55.43 32.63 55.43C22.19 55.43 15.8 48.55 15.8 37.37L15.8 0.98L0.22 0.98L0.22 36.04Z"  fill-opacity="1.000000" fill-rule="evenodd"/>
</svg>
