<svg width="92.000000" height="60.000000" viewBox="0 0 92 60"  xmlns="http://www.w3.org/2000/svg" xmlns:xlink="http://www.w3.org/1999/xlink">

	<path id="Stroke" d="M86.85 -0.02L91.36 -0.02L65.04 60L58.68 60L45.32 29.42L31.89 60L25.53 60L-0.7 -0.02L17.97 -0.02L35.72 41.07L43.07 24.27L32.44 -0.02L51.12 -0.02L68.87 41.07L86.85 -0.02ZM68.86 43.58L50.46 0.98L33.97 0.98L44.17 24.27L35.71 43.58L17.32 0.98L0.82 0.98L26.18 59L31.24 59L45.33 26.92L59.33 59L64.39 59L89.83 0.98L87.51 0.98L68.86 43.58Z"  fill-opacity="1.000000" fill-rule="evenodd"/>
</svg>
