<svg width="56" height="56" viewBox="0 0 56 56" fill="none" xmlns="http://www.w3.org/2000/svg">
<path d="M28.2276 19.2413L24.4863 36.7325H19.961L23.7026 19.2413H28.2276ZM47.2652 30.5356L49.6469 23.9673L51.0175 30.5356H47.2652ZM52.3157 36.7325H56.5L52.8445 19.2413H48.9848C48.115 19.2413 47.3817 19.7457 47.0571 20.5234L40.2673 36.7325H45.0197L45.963 34.1203H51.7677L52.3157 36.7325ZM40.503 31.0222C40.5226 26.406 34.1216 26.1503 34.1644 24.0877C34.1782 23.461 34.7762 22.7934 36.0831 22.6226C36.731 22.5392 38.519 22.4716 40.5459 23.4055L41.3386 19.6949C40.25 19.3011 38.8491 18.9219 37.1059 18.9219C32.6325 18.9219 29.4857 21.298 29.4605 24.7034C29.4318 27.2215 31.7084 28.6256 33.4201 29.4643C35.1849 30.3216 35.7762 30.8712 35.7676 31.6371C35.7554 32.8106 34.3604 33.3303 33.0613 33.35C30.7851 33.3854 29.4656 32.7347 28.414 32.2445L27.5926 36.079C28.6517 36.5637 30.6029 36.9855 32.6235 37.0071C37.3793 37.0071 40.4888 34.6589 40.503 31.0222ZM21.7616 19.2413L14.4297 36.7325H9.64706L6.03875 22.7733C5.82001 21.9149 5.62921 21.5994 4.96397 21.2367C3.87581 20.6458 2.07952 20.093 0.5 19.7492L0.607007 19.2413H8.30673C9.28748 19.2413 10.1699 19.894 10.3945 21.0238L12.3006 31.1461L17.0077 19.2413H21.7616Z" fill="#1434CB"/>
</svg>
