<svg width="36" height="37" viewBox="0 0 36 37"  xmlns="http://www.w3.org/2000/svg">
<path fill-rule="evenodd" clip-rule="evenodd" d="M0.000976563 37L0.000976562 0.844116L15.3259 0.844116C26.5425 0.844116 35.175 8.58355 35.175 18.9221C35.175 29.2606 26.5425 37 15.3259 37H0.000976563ZM21.3106 30.3361C23.1235 27.6515 24.1962 23.7381 24.1962 18.9221C24.1962 14.1061 23.1235 10.1926 21.3106 7.50802C19.5124 4.84518 16.9846 3.37812 13.9489 3.37812H10.7831L10.7831 34.466H13.9489C16.9846 34.466 19.5124 32.9989 21.3106 30.3361ZM10.0147 35.2386L10.0147 2.60556L13.9489 2.60556C20.5878 2.60556 24.9646 9.08272 24.9646 18.9221C24.9646 28.7614 20.5878 35.2386 13.9489 35.2386H10.0147ZM34.4067 18.9221C34.4067 9.08272 26.194 1.61668 15.3259 1.61668L0.769372 1.61668L0.769372 36.2274H15.3259C26.194 36.2274 34.4067 28.7614 34.4067 18.9221Z" />
</svg>
