<svg width="39" height="38" viewBox="0 0 39 38"  xmlns="http://www.w3.org/2000/svg">
<path fill-rule="evenodd" clip-rule="evenodd" d="M19.5134 37.1448C8.50423 37.1448 0.106834 29.1718 0.106834 18.5724C0.106834 7.97298 8.50423 0 19.5134 0C30.5226 0 38.92 7.97298 38.92 18.5724C38.92 29.1718 30.5226 37.1448 19.5134 37.1448ZM25.5041 30.4057C27.0317 27.6213 27.9412 23.56 27.9412 18.5724C27.9412 13.5848 27.0317 9.52348 25.5041 6.73904C23.9831 3.96651 21.9042 2.534 19.5134 2.534C17.1227 2.534 15.0438 3.96651 13.5227 6.73904C11.9952 9.52348 11.0857 13.5848 11.0857 18.5724C11.0857 23.56 11.9952 27.6213 13.5227 30.4057C15.0438 33.1783 17.1227 34.6108 19.5134 34.6108C21.9042 34.6108 23.9831 33.1783 25.5041 30.4057ZM0.87523 18.5724C0.87523 28.7084 8.89114 36.3722 19.5134 36.3722C30.1357 36.3722 38.1516 28.7084 38.1516 18.5724C38.1516 8.43637 30.1357 0.772562 19.5134 0.772562C8.89114 0.772562 0.87523 8.43637 0.87523 18.5724ZM28.7096 18.5724C28.7096 28.7084 25.0213 35.3833 19.5134 35.3833C14.0056 35.3833 10.3173 28.7084 10.3173 18.5724C10.3173 8.43637 14.0056 1.76144 19.5134 1.76144C25.0213 1.76144 28.7096 8.43637 28.7096 18.5724Z" />
</svg>
