<svg width="23" height="24" viewBox="0 0 23 24"  xmlns="http://www.w3.org/2000/svg">
<path fill-rule="evenodd" clip-rule="evenodd" d="M0.0947876 24L0.0947876 0.860321L9.95586 0.860321C17.1734 0.860321 22.7282 5.81354 22.7282 12.4302C22.7282 19.0468 17.1734 24 9.95586 24H0.0947876ZM13.8069 19.7351C14.9734 18.017 15.6636 15.5124 15.6636 12.4302C15.6636 9.34794 14.9734 6.84334 13.8069 5.12521C12.6498 3.42099 11.0232 2.48208 9.06983 2.48208H7.03274L7.03274 22.3783H9.06983C11.0232 22.3783 12.6498 21.4393 13.8069 19.7351ZM6.5383 22.8727L6.5383 1.98764H9.06983C13.3418 1.98764 16.1581 6.13301 16.1581 12.4302C16.1581 18.7273 13.3418 22.8727 9.06983 22.8727H6.5383ZM22.2337 12.4302C22.2337 6.13301 16.9492 1.35476 9.95586 1.35476L0.589226 1.35476L0.589226 23.5056H9.95586C16.9492 23.5056 22.2337 18.7273 22.2337 12.4302Z" />
</svg>
