<svg width="26" height="24" viewBox="0 0 26 24"  xmlns="http://www.w3.org/2000/svg">
<path fill-rule="evenodd" clip-rule="evenodd" d="M12.7725 23.7726C5.68843 23.7726 0.284973 18.6699 0.284973 11.8863C0.284973 5.10269 5.68843 0 12.7725 0C19.8566 0 25.26 5.10269 25.26 11.8863C25.26 18.6699 19.8566 23.7726 12.7725 23.7726ZM16.6273 19.4596C17.6103 17.6776 18.1955 15.0783 18.1955 11.8863C18.1955 8.69424 17.6103 6.09501 16.6273 4.31297C15.6486 2.53856 14.3109 1.62176 12.7725 1.62176C11.2341 1.62176 9.89641 2.53856 8.91768 4.31297C7.93474 6.09501 7.34951 8.69424 7.34951 11.8863C7.34951 15.0783 7.93474 17.6776 8.91768 19.4596C9.89641 21.234 11.2341 22.1508 12.7725 22.1508C14.3109 22.1508 15.6486 21.234 16.6273 19.4596ZM0.779411 11.8863C0.779411 18.3733 5.93739 23.2781 12.7725 23.2781C19.6076 23.2781 24.7656 18.3733 24.7656 11.8863C24.7656 5.39926 19.6076 0.494438 12.7725 0.494438C5.93739 0.494438 0.779411 5.39926 0.779411 11.8863ZM18.6899 11.8863C18.6899 18.3733 16.3166 22.6453 12.7725 22.6453C9.22837 22.6453 6.85507 18.3733 6.85507 11.8863C6.85507 5.39926 9.22837 1.12732 12.7725 1.12732C16.3166 1.12732 18.6899 5.39926 18.6899 11.8863Z" />
</svg>
